# Created by Kenney (www.kenney.nl)

mtllib bridge-pillar-wide.mtl

g bridge-pillar-wide

v 0.07 0 -0.07 1 1 1
v 0.07 0.04 -0.07 1 1 1
v -0.07 4.511946E-17 -0.07 1 1 1
v -0.07 0.04 -0.07 1 1 1
v -0.07 4.511946E-17 0.07 1 1 1
v -0.07 0.04 0.07 1 1 1
v 0.07 0.04 0.07 1 1 1
v 0.07 0 0.07 1 1 1
v 0.0475 0.1 -0.0475 1 1 1
v -0.0475 0.1 -0.0475 1 1 1
v 0.0475 0.1 0.0475 1 1 1
v -0.0475 0.1 0.0475 1 1 1
v -0.0575 0.47 -0.0575 1 1 1
v -0.0575 0.5 -0.0575 1 1 1
v -0.0575 0.47 0.0575 1 1 1
v -0.0575 0.5 0.0575 1 1 1
v 0.0575 0.5 0.0575 1 1 1
v 0.0575 0.5 -0.0575 1 1 1
v 0.0575 0.47 0.0575 1 1 1
v 0.0575 0.47 -0.0575 1 1 1
v -0.0475 0.47 -0.0475 1 1 1
v -0.0475 0.47 0.0475 1 1 1
v 0.0475 0.47 0.0475 1 1 1
v 0.0475 0.47 -0.0475 1 1 1

vn 0 0 -1
vn 0 0.1568997 -0.9876145
vn -1 0 0
vn -0.9876145 0.1568997 0
vn 0.9876145 0.1568997 0
vn 1 0 0
vn 0 -1 0
vn 0 0 1
vn 0 0.1568997 0.9876145
vn 0 0.3511235 -0.9363292
vn 0 0.3511235 0.9363292
vn 0.9363292 0.3511235 0
vn -0.9363292 0.3511235 0
vn 0 1 0

vt 0.34375 0.075
vt 0.34375 0.115
vt 0.34375 0.175
vt 0.46875 0.325
vt 0.46875 0.425

usemtl colormap

f 3/1/1 2/2/2 1/1/1
f 2/2/2 3/1/1 4/2/2
f 5/1/3 4/2/4 3/1/3
f 4/2/4 5/1/3 6/2/4
f 7/2/5 1/1/6 2/2/5
f 1/1/6 7/2/5 8/1/6
f 5/1/7 1/1/7 8/1/7
f 1/1/7 5/1/7 3/1/7
f 7/2/9 5/1/8 8/1/8
f 5/1/8 7/2/9 6/2/9
f 4/2/2 9/3/10 2/2/2
f 9/3/10 4/2/2 10/3/10
f 11/3/11 6/2/9 7/2/9
f 6/2/9 11/3/11 12/3/11
f 9/3/12 7/2/5 2/2/5
f 7/2/5 9/3/12 11/3/12
f 6/2/4 10/3/13 4/2/4
f 10/3/13 6/2/4 12/3/13
f 15/1/3 14/3/3 13/1/3
f 14/3/3 15/1/3 16/3/3
f 18/3/14 16/3/14 17/3/14
f 16/3/14 18/3/14 14/3/14
f 17/3/8 15/1/8 19/1/8
f 15/1/8 17/3/8 16/3/8
f 15/1/7 20/1/7 19/1/7
f 20/1/7 15/1/7 13/1/7
f 14/3/1 20/1/1 13/1/1
f 20/1/1 14/3/1 18/3/1
f 17/3/6 20/1/6 18/3/6
f 20/1/6 17/3/6 19/1/6
f 12/4/3 21/5/3 10/4/3
f 21/5/3 12/4/3 22/5/3
f 23/5/8 12/4/8 11/4/8
f 12/4/8 23/5/8 22/5/8
f 10/4/1 24/5/1 9/4/1
f 24/5/1 10/4/1 21/5/1
f 23/5/6 9/4/6 24/5/6
f 9/4/6 23/5/6 11/4/6

g bridge-pillar-wide




usemtl colormap

f 3/1/1 2/2/2 1/1/1
f 2/2/2 3/1/1 4/2/2
f 5/1/3 4/2/4 3/1/3
f 4/2/4 5/1/3 6/2/4
f 7/2/5 1/1/6 2/2/5
f 1/1/6 7/2/5 8/1/6
f 5/1/7 1/1/7 8/1/7
f 1/1/7 5/1/7 3/1/7
f 7/2/9 5/1/8 8/1/8
f 5/1/8 7/2/9 6/2/9
f 4/2/2 9/3/10 2/2/2
f 9/3/10 4/2/2 10/3/10
f 11/3/11 6/2/9 7/2/9
f 6/2/9 11/3/11 12/3/11
f 9/3/12 7/2/5 2/2/5
f 7/2/5 9/3/12 11/3/12
f 6/2/4 10/3/13 4/2/4
f 10/3/13 6/2/4 12/3/13
f 15/1/3 14/3/3 13/1/3
f 14/3/3 15/1/3 16/3/3
f 18/3/14 16/3/14 17/3/14
f 16/3/14 18/3/14 14/3/14
f 17/3/8 15/1/8 19/1/8
f 15/1/8 17/3/8 16/3/8
f 15/1/7 20/1/7 19/1/7
f 20/1/7 15/1/7 13/1/7
f 14/3/1 20/1/1 13/1/1
f 20/1/1 14/3/1 18/3/1
f 17/3/6 20/1/6 18/3/6
f 20/1/6 17/3/6 19/1/6
f 12/4/3 21/5/3 10/4/3
f 21/5/3 12/4/3 22/5/3
f 23/5/8 12/4/8 11/4/8
f 12/4/8 23/5/8 22/5/8
f 10/4/1 24/5/1 9/4/1
f 24/5/1 10/4/1 21/5/1
f 23/5/6 9/4/6 24/5/6
f 9/4/6 23/5/6 11/4/6

