# Created by Kenney (www.kenney.nl)

mtllib bridge-pillar.mtl

g bridge-pillar

v 0.05 0 0.05 1 1 1
v -0.05 0 0.05 1 1 1
v 0.05 0.04 0.05 1 1 1
v -0.05 0.04 0.05 1 1 1
v -0.05 0 -0.05 1 1 1
v -0.05 0.04 -0.05 1 1 1
v 0.05 0.04 -0.05 1 1 1
v 0.05 0 -0.05 1 1 1
v -0.0275 0.1 -0.0275 1 1 1
v 0.0275 0.1 -0.0275 1 1 1
v -0.0275 0.1 0.0275 1 1 1
v 0.0275 0.1 0.0275 1 1 1
v 0.0375 0.47 0.0375 1 1 1
v 0.0375 0.47 -0.0375 1 1 1
v -0.0375 0.47 0.0375 1 1 1
v -0.0375 0.47 -0.0375 1 1 1
v 0.0375 0.5 0.0375 1 1 1
v -0.0375 0.5 0.0375 1 1 1
v 0.0375 0.5 -0.0375 1 1 1
v -0.0375 0.5 -0.0375 1 1 1
v 0.0275 0.47 -0.0275 1 1 1
v 0.0275 0.47 0.0275 1 1 1
v -0.0275 0.47 0.0275 1 1 1
v -0.0275 0.47 -0.0275 1 1 1

vn 0 0 1
vn 0 0.1568997 0.9876145
vn -1 0 0
vn -0.9876145 0.1568997 0
vn 0.9876145 0.1568997 0
vn 1 0 0
vn 0 -1 0
vn 0 0 -1
vn 0 0.1568997 -0.9876145
vn 0 0.3511235 -0.9363292
vn -0.9363292 0.3511235 0
vn 0.9363292 0.3511235 0
vn 0 0.3511235 0.9363292
vn 0 1 0

vt 0.34375 0.075
vt 0.34375 0.115
vt 0.34375 0.175
vt 0.46875 0.425
vt 0.46875 0.325

usemtl colormap

f 3/2/2 2/1/1 1/1/1
f 2/1/1 3/2/2 4/2/2
f 2/1/3 6/2/4 5/1/3
f 6/2/4 2/1/3 4/2/4
f 3/2/5 8/1/6 7/2/5
f 8/1/6 3/2/5 1/1/6
f 2/1/7 8/1/7 1/1/7
f 8/1/7 2/1/7 5/1/7
f 6/2/9 8/1/8 5/1/8
f 8/1/8 6/2/9 7/2/9
f 9/3/10 7/2/9 6/2/9
f 7/2/9 9/3/10 10/3/10
f 4/2/4 9/3/11 6/2/4
f 9/3/11 4/2/4 11/3/11
f 10/3/12 3/2/5 7/2/5
f 3/2/5 10/3/12 12/3/12
f 12/3/13 4/2/2 3/2/2
f 4/2/2 12/3/13 11/3/13
f 15/1/7 14/1/7 13/1/7
f 14/1/7 15/1/7 16/1/7
f 19/3/14 18/3/14 17/3/14
f 18/3/14 19/3/14 20/3/14
f 17/3/6 14/1/6 19/3/6
f 14/1/6 17/3/6 13/1/6
f 17/3/1 15/1/1 13/1/1
f 15/1/1 17/3/1 18/3/1
f 15/1/3 20/3/3 16/1/3
f 20/3/3 15/1/3 18/3/3
f 20/3/8 14/1/8 16/1/8
f 14/1/8 20/3/8 19/3/8
f 22/4/6 10/5/6 21/4/6
f 10/5/6 22/4/6 12/5/6
f 22/4/1 11/5/1 12/5/1
f 11/5/1 22/4/1 23/4/1
f 11/5/3 24/4/3 9/5/3
f 24/4/3 11/5/3 23/4/3
f 24/4/8 10/5/8 9/5/8
f 10/5/8 24/4/8 21/4/8

g bridge-pillar




usemtl colormap

f 3/2/2 2/1/1 1/1/1
f 2/1/1 3/2/2 4/2/2
f 2/1/3 6/2/4 5/1/3
f 6/2/4 2/1/3 4/2/4
f 3/2/5 8/1/6 7/2/5
f 8/1/6 3/2/5 1/1/6
f 2/1/7 8/1/7 1/1/7
f 8/1/7 2/1/7 5/1/7
f 6/2/9 8/1/8 5/1/8
f 8/1/8 6/2/9 7/2/9
f 9/3/10 7/2/9 6/2/9
f 7/2/9 9/3/10 10/3/10
f 4/2/4 9/3/11 6/2/4
f 9/3/11 4/2/4 11/3/11
f 10/3/12 3/2/5 7/2/5
f 3/2/5 10/3/12 12/3/12
f 12/3/13 4/2/2 3/2/2
f 4/2/2 12/3/13 11/3/13
f 15/1/7 14/1/7 13/1/7
f 14/1/7 15/1/7 16/1/7
f 19/3/14 18/3/14 17/3/14
f 18/3/14 19/3/14 20/3/14
f 17/3/6 14/1/6 19/3/6
f 14/1/6 17/3/6 13/1/6
f 17/3/1 15/1/1 13/1/1
f 15/1/1 17/3/1 18/3/1
f 15/1/3 20/3/3 16/1/3
f 20/3/3 15/1/3 18/3/3
f 20/3/8 14/1/8 16/1/8
f 14/1/8 20/3/8 19/3/8
f 22/4/6 10/5/6 21/4/6
f 10/5/6 22/4/6 12/5/6
f 22/4/1 11/5/1 12/5/1
f 11/5/1 22/4/1 23/4/1
f 11/5/3 24/4/3 9/5/3
f 24/4/3 11/5/3 23/4/3
f 24/4/8 10/5/8 9/5/8
f 10/5/8 24/4/8 21/4/8

