# Created by Kenney (www.kenney.nl)

mtllib construction-barrier.mtl

g construction-barrier

v 0.05775 0 0.1125 1 1 1
v -0.05775 0 0.1125 1 1 1
v 0.05775 0.03564116 0.1125 1 1 1
v -0.05775 0.03564116 0.1125 1 1 1
v 0.0371672 0.05476572 0.1125 1 1 1
v -0.0371672 0.05476572 0.1125 1 1 1
v -0.01987836 0.13 0.1125 1 1 1
v 0.01987836 0.13 0.1125 1 1 1
v -0.06775 0 0.1025 1 1 1
v -0.06775 0.04 0.1025 1 1 1
v -0.046225 0.06 0.1025 1 1 1
v -0.030139 0.13 0.1025 1 1 1
v -0.05775 0 -0.1125 1 1 1
v 0.05775 0 -0.1125 1 1 1
v -0.05775 0.03564116 -0.1125 1 1 1
v 0.05775 0.03564116 -0.1125 1 1 1
v -0.0371672 0.05476572 -0.1125 1 1 1
v 0.0371672 0.05476572 -0.1125 1 1 1
v -0.01987836 0.13 -0.1125 1 1 1
v 0.01987836 0.13 -0.1125 1 1 1
v 0.046225 0.06 -0.1025 1 1 1
v 0.030139 0.13 -0.1025 1 1 1
v 0.06775 0 -0.1025 1 1 1
v 0.06775 0.04 -0.1025 1 1 1
v 0.06775 0.04 0.1025 1 1 1
v 0.06775 0 0.1025 1 1 1
v 0.046225 0.06 0.1025 1 1 1
v 0.030139 0.13 0.1025 1 1 1
v -0.06775 0 -0.1025 1 1 1
v -0.030139 0.13 -0.1025 1 1 1
v -0.06775 0.04 -0.1025 1 1 1
v -0.046225 0.06 -0.1025 1 1 1

vn 0.3826834 0 0.9238795
vn -0.3826834 0 0.9238795
vn 0.402259 0.1753383 0.898579
vn -0.402259 0.1753383 0.898579
vn 0.2670637 0.1543295 0.951241
vn -0.2670637 0.1543295 0.951241
vn -0.3275424 0.07526923 0.9418336
vn 0.3275424 0.07526923 0.9418336
vn -0.9238795 0 0.3826834
vn -0.8519665 0.3713586 0.3691151
vn -0.6217696 0.6691796 0.4069413
vn -0.8902505 0.2045796 0.4069413
vn -0.8926938 0.205141 0.4012666
vn -0.3826834 0 -0.9238795
vn 0.3826834 0 -0.9238795
vn -0.402259 0.1753383 -0.898579
vn 0.402259 0.1753383 -0.898579
vn -0.2670637 0.1543295 -0.951241
vn 0.2670637 0.1543295 -0.951241
vn -0.3275424 0.07526923 -0.9418336
vn 0.3275424 0.07526923 -0.9418336
vn 0.8902505 0.2045796 -0.4069413
vn 0.8926938 0.205141 -0.4012666
vn 0.9238795 0 -0.3826834
vn 0.8519665 0.3713586 -0.3691151
vn 0.6217696 0.6691796 -0.4069413
vn 0.8519665 0.3713586 0.3691151
vn 0.9238795 0 0.3826834
vn 0.6217696 0.6691796 0.4069413
vn 0.8902505 0.2045796 0.4069413
vn 0.8926938 0.205141 0.4012666
vn 0 -1 0
vn 0 1 0
vn -0.9238795 0 -0.3826834
vn -0.8519665 0.3713586 -0.3691151
vn -0.6217696 0.6691796 -0.4069413
vn -0.8902505 0.2045796 -0.4069413
vn -0.8926938 0.205141 -0.4012666

vt 0.46875 0.275
vt 0.46875 0.3298326
vt 0.46875 0.359255
vt 0.46875 0.475
vt 0.46875 0.3365385
vt 0.46875 0.3673077

usemtl colormap

f 3/2/3 2/1/2 1/1/1
f 2/1/2 3/2/3 4/2/4
f 4/2/4 3/2/3 5/3/5
f 4/2/4 5/3/5 6/3/6
f 6/3/6 5/3/5 7/4/7
f 7/4/7 5/3/5 8/4/8
f 4/2/4 9/1/9 2/1/2
f 9/1/9 4/2/4 10/5/10
f 6/3/6 10/5/10 4/2/4
f 10/5/10 6/3/6 11/6/11
f 7/4/7 11/6/12 6/3/6
f 11/6/12 7/4/7 12/4/13
f 15/2/16 14/1/15 13/1/14
f 14/1/15 15/2/16 16/2/17
f 16/2/17 15/2/16 17/3/18
f 16/2/17 17/3/18 18/3/19
f 18/3/19 17/3/18 19/4/20
f 18/3/19 19/4/20 20/4/21
f 20/4/21 21/6/22 18/3/19
f 21/6/22 20/4/21 22/4/23
f 16/2/17 23/1/24 14/1/15
f 23/1/24 16/2/17 24/5/25
f 18/3/19 24/5/25 16/2/17
f 24/5/25 18/3/19 21/6/26
f 25/5/27 23/1/24 24/5/25
f 23/1/24 25/5/27 26/1/28
f 21/6/26 25/5/27 24/5/25
f 25/5/27 21/6/26 27/6/29
f 25/5/27 1/1/1 26/1/28
f 1/1/1 25/5/27 3/2/3
f 25/5/27 5/3/5 3/2/3
f 5/3/5 25/5/27 27/6/29
f 27/6/30 8/4/8 5/3/5
f 8/4/8 27/6/30 28/4/31
f 28/4/31 21/6/22 22/4/23
f 21/6/22 28/4/31 27/6/30
f 1/1/32 23/1/32 26/1/32
f 23/1/32 1/1/32 14/1/32
f 14/1/32 1/1/32 2/1/32
f 14/1/32 2/1/32 13/1/32
f 13/1/32 2/1/32 9/1/32
f 13/1/32 9/1/32 29/1/32
f 20/4/33 28/4/33 22/4/33
f 28/4/33 20/4/33 8/4/33
f 8/4/33 20/4/33 19/4/33
f 8/4/33 19/4/33 7/4/33
f 7/4/33 19/4/33 30/4/33
f 7/4/33 30/4/33 12/4/33
f 9/1/9 31/5/35 29/1/34
f 31/5/35 9/1/9 10/5/10
f 31/5/35 11/6/11 32/6/36
f 11/6/11 31/5/35 10/5/10
f 31/5/35 13/1/14 29/1/34
f 13/1/14 31/5/35 15/2/16
f 31/5/35 17/3/18 15/2/16
f 17/3/18 31/5/35 32/6/36
f 32/6/37 19/4/20 17/3/18
f 19/4/20 32/6/37 30/4/38
f 11/6/12 30/4/38 32/6/37
f 30/4/38 11/6/12 12/4/13

g construction-barrier




usemtl colormap

f 3/2/3 2/1/2 1/1/1
f 2/1/2 3/2/3 4/2/4
f 4/2/4 3/2/3 5/3/5
f 4/2/4 5/3/5 6/3/6
f 6/3/6 5/3/5 7/4/7
f 7/4/7 5/3/5 8/4/8
f 4/2/4 9/1/9 2/1/2
f 9/1/9 4/2/4 10/5/10
f 6/3/6 10/5/10 4/2/4
f 10/5/10 6/3/6 11/6/11
f 7/4/7 11/6/12 6/3/6
f 11/6/12 7/4/7 12/4/13
f 15/2/16 14/1/15 13/1/14
f 14/1/15 15/2/16 16/2/17
f 16/2/17 15/2/16 17/3/18
f 16/2/17 17/3/18 18/3/19
f 18/3/19 17/3/18 19/4/20
f 18/3/19 19/4/20 20/4/21
f 20/4/21 21/6/22 18/3/19
f 21/6/22 20/4/21 22/4/23
f 16/2/17 23/1/24 14/1/15
f 23/1/24 16/2/17 24/5/25
f 18/3/19 24/5/25 16/2/17
f 24/5/25 18/3/19 21/6/26
f 25/5/27 23/1/24 24/5/25
f 23/1/24 25/5/27 26/1/28
f 21/6/26 25/5/27 24/5/25
f 25/5/27 21/6/26 27/6/29
f 25/5/27 1/1/1 26/1/28
f 1/1/1 25/5/27 3/2/3
f 25/5/27 5/3/5 3/2/3
f 5/3/5 25/5/27 27/6/29
f 27/6/30 8/4/8 5/3/5
f 8/4/8 27/6/30 28/4/31
f 28/4/31 21/6/22 22/4/23
f 21/6/22 28/4/31 27/6/30
f 1/1/32 23/1/32 26/1/32
f 23/1/32 1/1/32 14/1/32
f 14/1/32 1/1/32 2/1/32
f 14/1/32 2/1/32 13/1/32
f 13/1/32 2/1/32 9/1/32
f 13/1/32 9/1/32 29/1/32
f 20/4/33 28/4/33 22/4/33
f 28/4/33 20/4/33 8/4/33
f 8/4/33 20/4/33 19/4/33
f 8/4/33 19/4/33 7/4/33
f 7/4/33 19/4/33 30/4/33
f 7/4/33 30/4/33 12/4/33
f 9/1/9 31/5/35 29/1/34
f 31/5/35 9/1/9 10/5/10
f 31/5/35 11/6/11 32/6/36
f 11/6/11 31/5/35 10/5/10
f 31/5/35 13/1/14 29/1/34
f 13/1/14 31/5/35 15/2/16
f 31/5/35 17/3/18 15/2/16
f 17/3/18 31/5/35 32/6/36
f 32/6/37 19/4/20 17/3/18
f 19/4/20 32/6/37 30/4/38
f 11/6/12 30/4/38 32/6/37
f 30/4/38 11/6/12 12/4/13

