# Created by Kenney (www.kenney.nl)

mtllib construction-fence.mtl

g construction-fence

v -0.02 0.01875 0.15 1 1 1
v -0.02 0.08875 0.15 1 1 1
v 1.804779E-16 0.01875 0.17 1 1 1
v 1.804779E-16 0.09138305 0.17 1 1 1
v 1.804779E-16 0.1133972 0.1226903 1 1 1
v 1.804779E-16 0.08611695 0.13 1 1 1
v 0.02 0.12375 0.1406218 1 1 1
v 0.02 0.08875 0.15 1 1 1
v -0.02 0.1493718 0.115 1 1 1
v 1.804779E-16 0.1673033 0.1253528 1 1 1
v -0.02 0.12375 0.1406218 1 1 1
v 1.804779E-16 0.1341028 0.1585533 1 1 1
v 0.02 0.1493718 -0.115 1 1 1
v 0 0.1314403 -0.1046472 1 1 1
v 0.02 0.15875 -0.08 1 1 1
v 0 0.13875 -0.07736695 1 1 1
v 0.02 0.1493718 0.115 1 1 1
v 1.804779E-16 0.1314403 0.1046472 1 1 1
v -0.02 0.1493718 -0.115 1 1 1
v -0.02 0.15875 -0.08 1 1 1
v 1.804779E-16 0.13875 0.07736695 1 1 1
v -0.02 0.15875 0.08 1 1 1
v 1.804779E-16 0.17875 0.08263305 1 1 1
v 0 0.1673033 -0.1253528 1 1 1
v 0 0.17875 -0.08263305 1 1 1
v 0.02 0.15875 0.08 1 1 1
v -0.02 0.12375 -0.1406218 1 1 1
v 0 0.1133972 -0.1226903 1 1 1
v -1.804779E-16 0.1341028 -0.1585533 1 1 1
v 0.02 0.12375 -0.1406218 1 1 1
v -0.02 0.08875 -0.15 1 1 1
v 0 0.08611695 -0.13 1 1 1
v -1.804779E-16 0.09138305 -0.17 1 1 1
v 0.02 0.08875 -0.15 1 1 1
v 1.804779E-16 0.01875 0.13 1 1 1
v 0.02 0.01875 0.15 1 1 1
v -1.804779E-16 0.01875 -0.17 1 1 1
v -0.02 0.01875 -0.15 1 1 1
v 0.02 0.01875 -0.15 1 1 1
v 0 0.01875 -0.13 1 1 1
v 0.0375 0 0.1500001 1 1 1
v 0.0265165 0 0.1234836 1 1 1
v 0.0265165 0 0.1765166 1 1 1
v 0 0 0.1875001 1 1 1
v 0 0 0.1125001 1 1 1
v -0.0265165 0 0.1765166 1 1 1
v -0.0265165 0 0.1234836 1 1 1
v -0.0375 0 0.1500001 1 1 1
v 0 0.01875 0.1125001 1 1 1
v 0.0265165 0.01875 0.1234836 1 1 1
v 0.0375 0.01875 0.1500001 1 1 1
v 0.0265165 0.01875 0.1765166 1 1 1
v 0 0.01875 0.1875001 1 1 1
v -0.0265165 0.01875 0.1234836 1 1 1
v -0.0265165 0.01875 0.1765166 1 1 1
v -0.0375 0.01875 0.1500001 1 1 1
v 0.0375 0.01875 -0.1500001 1 1 1
v 0.0375 0 -0.1500001 1 1 1
v 0.0265165 0.01875 -0.1234836 1 1 1
v 0.0265165 0 -0.1234836 1 1 1
v -0.0265165 0 -0.1765166 1 1 1
v 0 0 -0.1875001 1 1 1
v -0.0265165 0.01875 -0.1765166 1 1 1
v 0 0.01875 -0.1875001 1 1 1
v 0.0265165 0 -0.1765166 1 1 1
v 0.0265165 0.01875 -0.1765166 1 1 1
v 0 0 -0.1125001 1 1 1
v -0.0265165 0 -0.1234836 1 1 1
v 0 0.01875 -0.1125001 1 1 1
v -0.0265165 0.01875 -0.1234836 1 1 1
v -0.0375 0.01875 -0.1500001 1 1 1
v -0.0375 0 -0.1500001 1 1 1
v 0.02 0.06875 -0.15 1 1 1
v 0 0.04875 -0.15 1 1 1
v 0.02 0.06875 0.15 1 1 1
v 1.804779E-16 0.04875 0.15 1 1 1
v 1.804779E-16 0.08875 0.15 1 1 1
v -1.804779E-16 0.08875 -0.15 1 1 1
v -0.02 0.06875 -0.15 1 1 1
v -0.02 0.06875 0.15 1 1 1

vn -1 0 0
vn -0.9982881 0.007634252 0.0579879
vn 0 0 1
vn 0 0.1305262 0.9914449
vn 0 -0.5 -0.8660254
vn 0 -0.1305262 -0.9914449
vn 0.9934361 0.05719441 0.09906362
vn 0.9982881 0.007634252 0.0579879
vn -0.9934361 0.09906362 0.05719441
vn 0 0.8660254 0.5
vn -0.9934361 0.05719441 0.09906362
vn 0 0.5 0.8660254
vn 0.9934361 0.09906362 -0.05719441
vn 0 -0.8660254 0.5
vn 0.9982881 0.0579879 -0.007634252
vn 0 -0.9914449 0.1305262
vn 0.9934361 0.09906362 0.05719441
vn 0 -0.8660254 -0.5
vn -0.9934361 0.09906362 -0.05719441
vn -0.9982881 0.0579879 -0.007634252
vn 0 -0.9914449 -0.1305262
vn -0.9982881 0.0579879 0.007634252
vn 0 0.9914449 0.1305262
vn 0 0.8660254 -0.5
vn 0 0.9914449 -0.1305262
vn 0.9982881 0.0579879 0.007634252
vn -0.9934361 0.05719441 -0.09906362
vn 0 -0.5 0.8660254
vn 0 0.5 -0.8660254
vn 0.9934361 0.05719441 -0.09906362
vn -0.9982881 0.007634252 -0.0579879
vn 0 -0.1305262 0.9914449
vn 0 0.1305262 -0.9914449
vn 0.9982881 0.007634252 -0.0579879
vn 0 0 -1
vn 1 0 0
vn 0 -1 0
vn 0.7071068 0 -0.7071068
vn 0 1 0
vn -0.7071068 0 0.7071068
vn -0.7071068 0 -0.7071068
vn 0.7071068 0 0.7071068

vt 0.46875 0.275
vt 0.46875 0.3625
vt 0.46875 0.3657913
vt 0.46875 0.3933091
vt 0.46875 0.3592087
vt 0.46875 0.40625
vt 0.46875 0.4382772
vt 0.46875 0.4606916
vt 0.46875 0.4191909
vt 0.46875 0.4158628
vt 0.46875 0.45
vt 0.46875 0.425
vt 0.46875 0.475
vt 0.46875 0.355
vt 0.46875 0.375
vt 0.46875 0.325

usemtl colormap

f 3/1/3 2/2/2 1/1/1
f 2/2/2 3/1/3 4/3/4
f 7/6/7 6/5/6 5/4/5
f 6/5/6 7/6/7 8/2/8
f 11/6/11 10/8/10 9/7/9
f 10/8/10 11/6/11 12/9/12
f 15/11/15 14/10/14 13/7/13
f 14/10/14 15/11/15 16/12/16
f 10/8/10 7/6/7 17/7/17
f 7/6/7 10/8/10 12/9/12
f 6/5/6 11/6/11 5/4/5
f 11/6/11 6/5/6 2/2/2
f 17/7/17 5/4/5 18/10/18
f 5/4/5 17/7/17 7/6/7
f 14/10/14 20/11/20 19/7/19
f 20/11/20 14/10/14 16/12/16
f 18/10/18 22/11/22 21/12/21
f 22/11/22 18/10/18 9/7/9
f 9/7/9 23/13/23 22/11/22
f 23/13/23 9/7/9 10/8/10
f 19/7/19 25/13/25 24/8/24
f 25/13/25 19/7/19 20/11/20
f 25/13/25 13/7/13 24/8/24
f 13/7/13 25/13/25 15/11/15
f 23/13/23 17/7/17 26/11/26
f 17/7/17 23/13/23 10/8/10
f 28/4/28 19/7/19 27/6/27
f 19/7/19 28/4/28 14/10/14
f 27/6/27 24/8/24 29/9/29
f 24/8/24 27/6/27 19/7/19
f 26/11/26 18/10/18 21/12/21
f 18/10/18 26/11/26 17/7/17
f 26/11/26 16/12/16 15/11/15
f 16/12/16 26/11/26 21/12/21
f 15/11/15 23/13/23 26/11/26
f 23/13/23 15/11/15 25/13/25
f 13/7/13 28/4/28 30/6/30
f 28/4/28 13/7/13 14/10/14
f 24/8/24 30/6/30 29/9/29
f 30/6/30 24/8/24 13/7/13
f 32/5/32 27/6/27 31/2/31
f 27/6/27 32/5/32 28/4/28
f 31/2/31 29/9/29 33/3/33
f 29/9/29 31/2/31 27/6/27
f 29/9/29 34/2/34 33/3/33
f 34/2/34 29/9/29 30/6/30
f 30/6/30 32/5/32 34/2/34
f 32/5/32 30/6/30 28/4/28
f 12/9/12 8/2/8 7/6/7
f 8/2/8 12/9/12 4/3/4
f 20/11/20 23/13/23 25/13/25
f 23/13/23 20/11/20 22/11/22
f 8/2/8 35/1/35 6/5/6
f 35/1/35 8/2/8 36/1/36
f 2/2/2 12/9/12 11/6/11
f 12/9/12 2/2/2 4/3/4
f 5/4/5 9/7/9 18/10/18
f 9/7/9 5/4/5 11/6/11
f 1/1/1 6/5/6 35/1/35
f 6/5/6 1/1/1 2/2/2
f 4/3/4 36/1/36 8/2/8
f 36/1/36 4/3/4 3/1/3
f 22/11/22 16/12/16 21/12/21
f 16/12/16 22/11/22 20/11/20
f 38/1/1 33/3/33 37/1/35
f 33/3/33 38/1/1 31/2/31
f 32/5/32 39/1/36 34/2/34
f 39/1/36 32/5/32 40/1/3
f 32/5/32 38/1/1 40/1/3
f 38/1/1 32/5/32 31/2/31
f 33/3/33 39/1/36 37/1/35
f 39/1/36 33/3/33 34/2/34
f 43/1/37 42/1/37 41/1/37
f 42/1/37 43/1/37 44/1/37
f 42/1/37 44/1/37 45/1/37
f 45/1/37 44/1/37 46/1/37
f 45/1/37 46/1/37 47/1/37
f 47/1/37 46/1/37 48/1/37
f 49/14/35 42/1/38 45/1/35
f 42/1/38 49/14/35 50/14/38
f 50/14/39 52/14/39 51/14/39
f 52/14/39 50/14/39 49/14/39
f 52/14/39 49/14/39 53/14/39
f 53/14/39 49/14/39 54/14/39
f 53/14/39 54/14/39 55/14/39
f 55/14/39 54/14/39 56/14/39
f 46/1/40 56/14/1 48/1/1
f 56/14/1 46/1/40 55/14/40
f 54/14/41 45/1/35 47/1/41
f 45/1/35 54/14/41 49/14/35
f 53/14/3 46/1/40 44/1/3
f 46/1/40 53/14/3 55/14/40
f 52/14/42 44/1/3 43/1/42
f 44/1/3 52/14/42 53/14/3
f 52/14/42 41/1/36 51/14/36
f 41/1/36 52/14/42 43/1/42
f 48/1/1 54/14/41 47/1/41
f 54/14/41 48/1/1 56/14/1
f 51/14/36 42/1/38 50/14/38
f 42/1/38 51/14/36 41/1/36
f 59/14/42 58/1/36 57/14/36
f 58/1/36 59/14/42 60/1/42
f 63/14/41 62/1/35 61/1/41
f 62/1/35 63/14/41 64/14/35
f 64/14/35 65/1/38 62/1/35
f 65/1/38 64/14/35 66/14/38
f 69/14/3 68/1/40 67/1/3
f 68/1/40 69/14/3 70/14/40
f 66/14/39 59/14/39 57/14/39
f 59/14/39 66/14/39 64/14/39
f 59/14/39 64/14/39 69/14/39
f 69/14/39 64/14/39 63/14/39
f 69/14/39 63/14/39 70/14/39
f 70/14/39 63/14/39 71/14/39
f 68/1/40 71/14/1 72/1/1
f 71/14/1 68/1/40 70/14/40
f 72/1/1 63/14/41 61/1/41
f 63/14/41 72/1/1 71/14/1
f 59/14/42 67/1/3 60/1/42
f 67/1/3 59/14/42 69/14/3
f 60/1/37 65/1/37 58/1/37
f 65/1/37 60/1/37 67/1/37
f 65/1/37 67/1/37 62/1/37
f 62/1/37 67/1/37 68/1/37
f 62/1/37 68/1/37 61/1/37
f 61/1/37 68/1/37 72/1/37
f 57/14/36 65/1/38 66/14/38
f 65/1/38 57/14/36 58/1/36
f 75/15/36 74/16/37 73/15/36
f 74/16/37 75/15/36 76/16/37
f 73/15/36 77/12/39 75/15/36
f 77/12/39 73/15/36 78/12/39
f 80/15/1 78/12/39 79/15/1
f 78/12/39 80/15/1 77/12/39
f 80/15/1 74/16/37 76/16/37
f 74/16/37 80/15/1 79/15/1

g construction-fence




usemtl colormap

f 3/1/3 2/2/2 1/1/1
f 2/2/2 3/1/3 4/3/4
f 7/6/7 6/5/6 5/4/5
f 6/5/6 7/6/7 8/2/8
f 11/6/11 10/8/10 9/7/9
f 10/8/10 11/6/11 12/9/12
f 15/11/15 14/10/14 13/7/13
f 14/10/14 15/11/15 16/12/16
f 10/8/10 7/6/7 17/7/17
f 7/6/7 10/8/10 12/9/12
f 6/5/6 11/6/11 5/4/5
f 11/6/11 6/5/6 2/2/2
f 17/7/17 5/4/5 18/10/18
f 5/4/5 17/7/17 7/6/7
f 14/10/14 20/11/20 19/7/19
f 20/11/20 14/10/14 16/12/16
f 18/10/18 22/11/22 21/12/21
f 22/11/22 18/10/18 9/7/9
f 9/7/9 23/13/23 22/11/22
f 23/13/23 9/7/9 10/8/10
f 19/7/19 25/13/25 24/8/24
f 25/13/25 19/7/19 20/11/20
f 25/13/25 13/7/13 24/8/24
f 13/7/13 25/13/25 15/11/15
f 23/13/23 17/7/17 26/11/26
f 17/7/17 23/13/23 10/8/10
f 28/4/28 19/7/19 27/6/27
f 19/7/19 28/4/28 14/10/14
f 27/6/27 24/8/24 29/9/29
f 24/8/24 27/6/27 19/7/19
f 26/11/26 18/10/18 21/12/21
f 18/10/18 26/11/26 17/7/17
f 26/11/26 16/12/16 15/11/15
f 16/12/16 26/11/26 21/12/21
f 15/11/15 23/13/23 26/11/26
f 23/13/23 15/11/15 25/13/25
f 13/7/13 28/4/28 30/6/30
f 28/4/28 13/7/13 14/10/14
f 24/8/24 30/6/30 29/9/29
f 30/6/30 24/8/24 13/7/13
f 32/5/32 27/6/27 31/2/31
f 27/6/27 32/5/32 28/4/28
f 31/2/31 29/9/29 33/3/33
f 29/9/29 31/2/31 27/6/27
f 29/9/29 34/2/34 33/3/33
f 34/2/34 29/9/29 30/6/30
f 30/6/30 32/5/32 34/2/34
f 32/5/32 30/6/30 28/4/28
f 12/9/12 8/2/8 7/6/7
f 8/2/8 12/9/12 4/3/4
f 20/11/20 23/13/23 25/13/25
f 23/13/23 20/11/20 22/11/22
f 8/2/8 35/1/35 6/5/6
f 35/1/35 8/2/8 36/1/36
f 2/2/2 12/9/12 11/6/11
f 12/9/12 2/2/2 4/3/4
f 5/4/5 9/7/9 18/10/18
f 9/7/9 5/4/5 11/6/11
f 1/1/1 6/5/6 35/1/35
f 6/5/6 1/1/1 2/2/2
f 4/3/4 36/1/36 8/2/8
f 36/1/36 4/3/4 3/1/3
f 22/11/22 16/12/16 21/12/21
f 16/12/16 22/11/22 20/11/20
f 38/1/1 33/3/33 37/1/35
f 33/3/33 38/1/1 31/2/31
f 32/5/32 39/1/36 34/2/34
f 39/1/36 32/5/32 40/1/3
f 32/5/32 38/1/1 40/1/3
f 38/1/1 32/5/32 31/2/31
f 33/3/33 39/1/36 37/1/35
f 39/1/36 33/3/33 34/2/34
f 43/1/37 42/1/37 41/1/37
f 42/1/37 43/1/37 44/1/37
f 42/1/37 44/1/37 45/1/37
f 45/1/37 44/1/37 46/1/37
f 45/1/37 46/1/37 47/1/37
f 47/1/37 46/1/37 48/1/37
f 49/14/35 42/1/38 45/1/35
f 42/1/38 49/14/35 50/14/38
f 50/14/39 52/14/39 51/14/39
f 52/14/39 50/14/39 49/14/39
f 52/14/39 49/14/39 53/14/39
f 53/14/39 49/14/39 54/14/39
f 53/14/39 54/14/39 55/14/39
f 55/14/39 54/14/39 56/14/39
f 46/1/40 56/14/1 48/1/1
f 56/14/1 46/1/40 55/14/40
f 54/14/41 45/1/35 47/1/41
f 45/1/35 54/14/41 49/14/35
f 53/14/3 46/1/40 44/1/3
f 46/1/40 53/14/3 55/14/40
f 52/14/42 44/1/3 43/1/42
f 44/1/3 52/14/42 53/14/3
f 52/14/42 41/1/36 51/14/36
f 41/1/36 52/14/42 43/1/42
f 48/1/1 54/14/41 47/1/41
f 54/14/41 48/1/1 56/14/1
f 51/14/36 42/1/38 50/14/38
f 42/1/38 51/14/36 41/1/36
f 59/14/42 58/1/36 57/14/36
f 58/1/36 59/14/42 60/1/42
f 63/14/41 62/1/35 61/1/41
f 62/1/35 63/14/41 64/14/35
f 64/14/35 65/1/38 62/1/35
f 65/1/38 64/14/35 66/14/38
f 69/14/3 68/1/40 67/1/3
f 68/1/40 69/14/3 70/14/40
f 66/14/39 59/14/39 57/14/39
f 59/14/39 66/14/39 64/14/39
f 59/14/39 64/14/39 69/14/39
f 69/14/39 64/14/39 63/14/39
f 69/14/39 63/14/39 70/14/39
f 70/14/39 63/14/39 71/14/39
f 68/1/40 71/14/1 72/1/1
f 71/14/1 68/1/40 70/14/40
f 72/1/1 63/14/41 61/1/41
f 63/14/41 72/1/1 71/14/1
f 59/14/42 67/1/3 60/1/42
f 67/1/3 59/14/42 69/14/3
f 60/1/37 65/1/37 58/1/37
f 65/1/37 60/1/37 67/1/37
f 65/1/37 67/1/37 62/1/37
f 62/1/37 67/1/37 68/1/37
f 62/1/37 68/1/37 61/1/37
f 61/1/37 68/1/37 72/1/37
f 57/14/36 65/1/38 66/14/38
f 65/1/38 57/14/36 58/1/36
f 75/15/36 74/16/37 73/15/36
f 74/16/37 75/15/36 76/16/37
f 73/15/36 77/12/39 75/15/36
f 77/12/39 73/15/36 78/12/39
f 80/15/1 78/12/39 79/15/1
f 78/12/39 80/15/1 77/12/39
f 80/15/1 74/16/37 76/16/37
f 74/16/37 80/15/1 79/15/1

