# Created by Kenney (www.kenney.nl)

mtllib construction-light.mtl

g construction-light

v 0.01675781 0.17875 -0.0275 1 1 1
v 0.01675781 0.17875 0.0275 1 1 1
v -0.01675781 0.17875 -0.0275 1 1 1
v -0.01675781 0.17875 0.0275 1 1 1
v -0.01675781 0.16875 -0.0375 1 1 1
v 0.01675781 0.16875 -0.0375 1 1 1
v 0.01675781 0.04625 0.0375 1 1 1
v 0.01675781 0.03625 0.0275 1 1 1
v -0.01675781 0.04625 0.0375 1 1 1
v -0.01675781 0.03625 0.0275 1 1 1
v 0.01675781 0.14875 0.0375 1 1 1
v -0.01675781 0.14875 0.0375 1 1 1
v 0.01675781 0.16875 0.0375 1 1 1
v -0.01675781 0.16875 0.0375 1 1 1
v 0.01675781 0.03625 -0.0275 1 1 1
v -0.01675781 0.03625 -0.0275 1 1 1
v -0.01675781 0.04625 -0.0375 1 1 1
v 0.01675781 0.04625 -0.0375 1 1 1
v -0.01675781 0.06625 -0.0375 1 1 1
v 0.01675781 0.06625 -0.0375 1 1 1
v -0.01675781 0.1226035 -0.0375 1 1 1
v 0.01675781 0.1226035 -0.0375 1 1 1
v -0.01675781 0.09239653 0.0375 1 1 1
v 0.01675781 0.09239653 0.0375 1 1 1
v -0.004648438 0.1868046 -0.01944544 1 1 1
v -0.01464844 0.1944582 -0.01179177 1 1 1
v -0.004648438 0.17875 0 1 1 1
v -0.01464844 0.1895739 0 1 1 1
v -0.004648438 0.20625 -0.0275 1 1 1
v -0.004648438 0.2256954 -0.01944544 1 1 1
v -0.01464844 0.20625 -0.01667608 1 1 1
v -0.01464844 0.2180418 -0.01179177 1 1 1
v -0.01464844 0.2180418 0.01179177 1 1 1
v -0.004648438 0.2256954 0.01944544 1 1 1
v -0.01464844 0.20625 0.01667608 1 1 1
v -0.004648438 0.20625 0.0275 1 1 1
v -0.01464844 0.1944582 0.01179177 1 1 1
v -0.004648438 0.1868046 0.01944544 1 1 1
v -0.004648438 0.23375 0 1 1 1
v -0.01464844 0.2229261 0 1 1 1
v 0.004648438 0.1868046 -0.01944544 1 1 1
v 0.004648438 0.20625 -0.0275 1 1 1
v 0.004648438 0.1868046 0.01944544 1 1 1
v 0.004648438 0.17875 0 1 1 1
v 0.004648438 0.2256954 -0.01944544 1 1 1
v 0.004648438 0.23375 0 1 1 1
v 0.004648438 0.2256954 0.01944544 1 1 1
v 0.004648438 0.20625 0.0275 1 1 1
v 0.01464844 0.20625 -0.01667608 1 1 1
v 0.01464844 0.1944582 -0.01179177 1 1 1
v 0.01464844 0.2180418 -0.01179177 1 1 1
v 0.01464844 0.2229261 0 1 1 1
v 0.01464844 0.2180418 0.01179177 1 1 1
v 0.01464844 0.1944582 0.01179177 1 1 1
v 0.01464844 0.20625 0.01667608 1 1 1
v 0.01464844 0.1895739 0 1 1 1
v -0.01675781 0.06625 -0.0375 1 1 1
v 0.01675781 0.06625 -0.0375 1 1 1
v -0.01675781 0.1226035 -0.0375 1 1 1
v 0.01675781 0.1226035 -0.0375 1 1 1
v 0.01675781 0.09239653 0.0375 1 1 1
v -0.01675781 0.09239653 0.0375 1 1 1
v 0.01675781 0.14875 0.0375 1 1 1
v -0.01675781 0.14875 0.0375 1 1 1
v -0.01875 0.01875 -0.01875 1 1 1
v 0.01875 0.01875 -0.01875 1 1 1
v -0.009375 0.03625 -0.01875 1 1 1
v 0.009375 0.03625 -0.01875 1 1 1
v 0.009375 0.03625 0.01875 1 1 1
v 0.01875 0.01875 0.01875 1 1 1
v -0.009375 0.03625 0.01875 1 1 1
v -0.01875 0.01875 0.01875 1 1 1
v 0.0375 0.01875 -0.0275 1 1 1
v 0.0375 0 -0.0275 1 1 1
v 0.0375 0.01875 0.0275 1 1 1
v 0.0375 0 0.0275 1 1 1
v -0.0275 0 -0.0375 1 1 1
v 0.0275 0 -0.0375 1 1 1
v -0.0275 0.01875 -0.0375 1 1 1
v 0.0275 0.01875 -0.0375 1 1 1
v 0.0275 0.01875 0.0375 1 1 1
v 0.0275 0 0.0375 1 1 1
v -0.0275 0 0.0375 1 1 1
v -0.0275 0.01875 0.0375 1 1 1
v -0.0375 0 -0.0275 1 1 1
v -0.0375 0.01875 -0.0275 1 1 1
v -0.0375 0 0.0275 1 1 1
v -0.0375 0.01875 0.0275 1 1 1

vn 0 0.9238796 -0.3826835
vn 0 0.9238796 0.3826835
vn 0 0.3826835 -0.9238796
vn 0 -0.3826835 0.9238796
vn 0 -0.9238796 0.3826835
vn 0 0 1
vn 0 0.3826835 0.9238796
vn 0 -0.9238796 -0.3826835
vn 0 -0.3826835 -0.9238796
vn 0 0 -1
vn -0.339498 -0.6651095 -0.6651095
vn -0.8897549 -0.3227509 -0.3227509
vn -0.339498 -0.9406068 0
vn -0.889755 -0.4564386 0
vn -0.339498 0 -0.9406068
vn -0.339498 0.6651095 -0.6651095
vn -0.889755 0 -0.4564386
vn -0.8897549 0.3227509 -0.3227509
vn -0.8897549 0.3227509 0.3227509
vn -0.339498 0.6651095 0.6651095
vn -0.889755 0 0.4564386
vn -0.339498 0 0.9406068
vn -0.8897549 -0.3227509 0.3227509
vn -0.339498 -0.6651095 0.6651095
vn -0.339498 0.9406068 0
vn -0.889755 0.4564386 0
vn 0.339498 -0.6651095 -0.6651095
vn 0.339498 0 -0.9406068
vn 0.339498 -0.6651095 0.6651095
vn 0.339498 -0.9406068 0
vn 0.339498 0.6651095 -0.6651095
vn 0.339498 0.9406068 0
vn 0.339498 0.6651095 0.6651095
vn 0.339498 0 0.9406068
vn 0.889755 0 -0.4564386
vn 0.8897549 -0.3227509 -0.3227509
vn 0.8897549 0.3227509 -0.3227509
vn 0.889755 0.4564386 0
vn 0.8897549 0.3227509 0.3227509
vn 0.8897549 -0.3227509 0.3227509
vn 0.889755 0 0.4564386
vn 0.889755 -0.4564386 0
vn 0.88148 0.4722214 0
vn -0.88148 0.4722214 0
vn -1 0 0
vn 1 0 0
vn 0 -0.9442639 0.3291896
vn 0.9238795 0 -0.3826834
vn 0.9238795 0 0.3826834
vn -0.3826834 0 -0.9238795
vn 0.3826834 0 -0.9238795
vn 0.3826834 0 0.9238795
vn -0.3826834 0 0.9238795
vn -0.9238795 0 -0.3826834
vn -0.9238795 0 0.3826834
vn 0 -1 0
vn 0 1 0

vt 0.46875 0.475
vt 0.46875 0.4609649
vt 0.46875 0.2890351
vt 0.46875 0.275
vt 0.46875 0.4328947
vt 0.46875 0.3171053
vt 0.46875 0.3961979
vt 0.46875 0.3538021
vt 0.46875 0.3042893
vt 0.46875 0.3321208
vt 0.46875 0.3143597
vt 0.46875 0.375
vt 0.46875 0.4457107
vt 0.46875 0.4178792
vt 0.46875 0.4356403
vt 0.46875 0.395
vt 0.46875 0.4496458
vt 0.46875 0.4203542
vt 0.46875 0.5390351
vt 0.46875 0.5671053
vt 0.46875 0.525
vt 0.46875 0.6038021
vt 0.46875 0.6461979
vt 0.46875 0.7109649
vt 0.46875 0.6828947
vt 0.46875 0.725
vt 0.59375 0.3538021
vt 0.59375 0.3171053
vt 0.59375 0.4328947
vt 0.59375 0.3961979
vt 0.59375 0.375
vt 0.59375 0.4178792
vt 0.59375 0.3321208
vt 0.59375 0.3143597
vt 0.59375 0.4356403
vt 0.59375 0.395
vt 0.59375 0.4496458
vt 0.59375 0.4203542
vt 0.59375 0.475
vt 0.21875 0.175
vt 0.21875 0.075

usemtl colormap

f 3/1/1 2/1/2 1/1/1
f 2/1/2 3/1/1 4/1/2
f 3/1/1 6/2/3 5/2/3
f 6/2/3 3/1/1 1/1/1
f 9/3/4 8/4/5 7/3/4
f 8/4/5 9/3/4 10/4/5
f 13/2/7 12/5/6 11/5/6
f 12/5/6 13/2/7 14/2/7
f 10/4/5 15/4/8 8/4/5
f 15/4/8 10/4/5 16/4/8
f 19/6/10 18/3/9 17/3/9
f 18/3/9 19/6/10 20/6/10
f 17/3/9 15/4/8 16/4/8
f 15/4/8 17/3/9 18/3/9
f 4/1/2 13/2/7 2/1/2
f 13/2/7 4/1/2 14/2/7
f 5/2/3 22/7/10 21/7/10
f 22/7/10 5/2/3 6/2/3
f 7/3/4 23/8/6 9/3/4
f 23/8/6 7/3/4 24/8/6
f 27/4/13 26/10/12 25/9/11
f 26/10/12 27/4/13 28/11/14
f 31/12/17 30/13/16 29/12/15
f 30/13/16 31/12/17 32/14/18
f 35/12/21 34/13/20 33/14/19
f 34/13/20 35/12/21 36/12/22
f 25/9/11 31/12/17 29/12/15
f 31/12/17 25/9/11 26/10/12
f 38/9/24 35/12/21 37/10/23
f 35/12/21 38/9/24 36/12/22
f 32/14/18 39/1/25 30/13/16
f 39/1/25 32/14/18 40/15/26
f 38/9/24 28/11/14 27/4/13
f 28/11/14 38/9/24 37/10/23
f 33/14/19 39/1/25 40/15/26
f 39/1/25 33/14/19 34/13/20
f 25/9/11 42/12/28 41/9/27
f 42/12/28 25/9/11 29/12/15
f 38/9/24 44/4/30 43/9/29
f 44/4/30 38/9/24 27/4/13
f 30/13/16 46/1/32 45/13/31
f 46/1/32 30/13/16 39/1/25
f 39/1/25 47/13/33 46/1/32
f 47/13/33 39/1/25 34/13/20
f 48/12/34 38/9/24 43/9/29
f 38/9/24 48/12/34 36/12/22
f 30/13/16 42/12/28 29/12/15
f 42/12/28 30/13/16 45/13/31
f 27/4/13 41/9/27 44/4/30
f 41/9/27 27/4/13 25/9/11
f 47/13/33 36/12/22 48/12/34
f 36/12/22 47/13/33 34/13/20
f 49/12/35 41/9/27 42/12/28
f 41/9/27 49/12/35 50/10/36
f 46/1/32 51/14/37 45/13/31
f 51/14/37 46/1/32 52/15/38
f 47/13/33 52/15/38 46/1/32
f 52/15/38 47/13/33 53/14/39
f 55/12/41 43/9/29 54/10/40
f 43/9/29 55/12/41 48/12/34
f 54/10/40 44/4/30 56/11/42
f 44/4/30 54/10/40 43/9/29
f 47/13/33 55/12/41 53/14/39
f 55/12/41 47/13/33 48/12/34
f 45/13/31 49/12/35 42/12/28
f 49/12/35 45/13/31 51/14/37
f 50/10/36 44/4/30 41/9/27
f 44/4/30 50/10/36 56/11/42
f 59/17/10 58/16/10 57/16/10
f 58/16/10 59/17/10 60/17/10
f 63/1/6 62/18/6 61/18/6
f 62/18/6 63/1/6 64/1/6
f 67/4/10 66/1/10 65/1/10
f 66/1/10 67/4/10 68/4/10
f 69/4/43 66/1/43 68/4/43
f 66/1/43 69/4/43 70/1/43
f 65/1/44 71/4/44 67/4/44
f 71/4/44 65/1/44 72/1/44
f 69/4/6 72/1/6 70/1/6
f 72/1/6 69/4/6 71/4/6
f 16/21/45 19/20/45 17/19/45
f 19/20/45 16/21/45 23/22/45
f 23/22/45 16/21/45 10/21/45
f 23/22/45 10/21/45 9/19/45
f 12/25/45 5/24/45 21/23/45
f 5/24/45 12/25/45 3/26/45
f 3/26/45 12/25/45 4/26/45
f 4/26/45 12/25/45 14/24/45
f 24/22/46 18/19/46 20/20/46
f 18/19/46 24/22/46 15/21/46
f 15/21/46 24/22/46 8/21/46
f 8/21/46 24/22/46 7/19/46
f 1/26/46 22/23/46 6/24/46
f 22/23/46 1/26/46 11/25/46
f 11/25/46 1/26/46 2/26/46
f 11/25/46 2/26/46 13/24/46
f 23/27/47 20/28/47 24/27/47
f 20/28/47 23/27/47 19/28/47
f 12/29/47 22/30/47 11/29/47
f 22/30/47 12/29/47 21/30/47
f 26/33/12 32/32/18 31/31/17
f 32/32/18 26/33/12 28/34/14
f 32/32/18 28/34/14 40/35/26
f 40/35/26 28/34/14 37/33/23
f 40/35/26 37/33/23 33/32/19
f 33/32/19 37/33/23 35/31/21
f 51/32/37 50/33/36 49/31/35
f 50/33/36 51/32/37 52/35/38
f 50/33/36 52/35/38 56/34/42
f 56/34/42 52/35/38 53/32/39
f 56/34/42 53/32/39 54/33/40
f 54/33/40 53/32/39 55/31/41
f 62/38/45 59/37/45 57/36/45
f 59/37/45 62/38/45 64/39/45
f 63/39/46 58/36/46 60/37/46
f 58/36/46 63/39/46 61/38/46
f 75/40/49 74/41/48 73/40/48
f 74/41/48 75/40/49 76/41/49
f 79/40/50 78/41/51 77/41/50
f 78/41/51 79/40/50 80/40/51
f 81/40/52 76/41/49 75/40/49
f 76/41/49 81/40/52 82/41/52
f 81/40/52 83/41/53 82/41/52
f 83/41/53 81/40/52 84/40/53
f 87/41/55 86/40/54 85/41/54
f 86/40/54 87/41/55 88/40/55
f 83/41/53 88/40/55 87/41/55
f 88/40/55 83/41/53 84/40/53
f 82/41/56 74/41/56 76/41/56
f 74/41/56 82/41/56 78/41/56
f 78/41/56 82/41/56 83/41/56
f 78/41/56 83/41/56 77/41/56
f 77/41/56 83/41/56 87/41/56
f 77/41/56 87/41/56 85/41/56
f 73/40/57 81/40/57 75/40/57
f 81/40/57 73/40/57 80/40/57
f 81/40/57 80/40/57 84/40/57
f 84/40/57 80/40/57 79/40/57
f 84/40/57 79/40/57 86/40/57
f 84/40/57 86/40/57 88/40/57
f 80/40/51 74/41/48 78/41/51
f 74/41/48 80/40/51 73/40/48
f 86/40/54 77/41/50 85/41/54
f 77/41/50 86/40/54 79/40/50

g construction-light




usemtl colormap

f 3/1/1 2/1/2 1/1/1
f 2/1/2 3/1/1 4/1/2
f 3/1/1 6/2/3 5/2/3
f 6/2/3 3/1/1 1/1/1
f 9/3/4 8/4/5 7/3/4
f 8/4/5 9/3/4 10/4/5
f 13/2/7 12/5/6 11/5/6
f 12/5/6 13/2/7 14/2/7
f 10/4/5 15/4/8 8/4/5
f 15/4/8 10/4/5 16/4/8
f 19/6/10 18/3/9 17/3/9
f 18/3/9 19/6/10 20/6/10
f 17/3/9 15/4/8 16/4/8
f 15/4/8 17/3/9 18/3/9
f 4/1/2 13/2/7 2/1/2
f 13/2/7 4/1/2 14/2/7
f 5/2/3 22/7/10 21/7/10
f 22/7/10 5/2/3 6/2/3
f 7/3/4 23/8/6 9/3/4
f 23/8/6 7/3/4 24/8/6
f 27/4/13 26/10/12 25/9/11
f 26/10/12 27/4/13 28/11/14
f 31/12/17 30/13/16 29/12/15
f 30/13/16 31/12/17 32/14/18
f 35/12/21 34/13/20 33/14/19
f 34/13/20 35/12/21 36/12/22
f 25/9/11 31/12/17 29/12/15
f 31/12/17 25/9/11 26/10/12
f 38/9/24 35/12/21 37/10/23
f 35/12/21 38/9/24 36/12/22
f 32/14/18 39/1/25 30/13/16
f 39/1/25 32/14/18 40/15/26
f 38/9/24 28/11/14 27/4/13
f 28/11/14 38/9/24 37/10/23
f 33/14/19 39/1/25 40/15/26
f 39/1/25 33/14/19 34/13/20
f 25/9/11 42/12/28 41/9/27
f 42/12/28 25/9/11 29/12/15
f 38/9/24 44/4/30 43/9/29
f 44/4/30 38/9/24 27/4/13
f 30/13/16 46/1/32 45/13/31
f 46/1/32 30/13/16 39/1/25
f 39/1/25 47/13/33 46/1/32
f 47/13/33 39/1/25 34/13/20
f 48/12/34 38/9/24 43/9/29
f 38/9/24 48/12/34 36/12/22
f 30/13/16 42/12/28 29/12/15
f 42/12/28 30/13/16 45/13/31
f 27/4/13 41/9/27 44/4/30
f 41/9/27 27/4/13 25/9/11
f 47/13/33 36/12/22 48/12/34
f 36/12/22 47/13/33 34/13/20
f 49/12/35 41/9/27 42/12/28
f 41/9/27 49/12/35 50/10/36
f 46/1/32 51/14/37 45/13/31
f 51/14/37 46/1/32 52/15/38
f 47/13/33 52/15/38 46/1/32
f 52/15/38 47/13/33 53/14/39
f 55/12/41 43/9/29 54/10/40
f 43/9/29 55/12/41 48/12/34
f 54/10/40 44/4/30 56/11/42
f 44/4/30 54/10/40 43/9/29
f 47/13/33 55/12/41 53/14/39
f 55/12/41 47/13/33 48/12/34
f 45/13/31 49/12/35 42/12/28
f 49/12/35 45/13/31 51/14/37
f 50/10/36 44/4/30 41/9/27
f 44/4/30 50/10/36 56/11/42
f 59/17/10 58/16/10 57/16/10
f 58/16/10 59/17/10 60/17/10
f 63/1/6 62/18/6 61/18/6
f 62/18/6 63/1/6 64/1/6
f 67/4/10 66/1/10 65/1/10
f 66/1/10 67/4/10 68/4/10
f 69/4/43 66/1/43 68/4/43
f 66/1/43 69/4/43 70/1/43
f 65/1/44 71/4/44 67/4/44
f 71/4/44 65/1/44 72/1/44
f 69/4/6 72/1/6 70/1/6
f 72/1/6 69/4/6 71/4/6
f 16/21/45 19/20/45 17/19/45
f 19/20/45 16/21/45 23/22/45
f 23/22/45 16/21/45 10/21/45
f 23/22/45 10/21/45 9/19/45
f 12/25/45 5/24/45 21/23/45
f 5/24/45 12/25/45 3/26/45
f 3/26/45 12/25/45 4/26/45
f 4/26/45 12/25/45 14/24/45
f 24/22/46 18/19/46 20/20/46
f 18/19/46 24/22/46 15/21/46
f 15/21/46 24/22/46 8/21/46
f 8/21/46 24/22/46 7/19/46
f 1/26/46 22/23/46 6/24/46
f 22/23/46 1/26/46 11/25/46
f 11/25/46 1/26/46 2/26/46
f 11/25/46 2/26/46 13/24/46
f 23/27/47 20/28/47 24/27/47
f 20/28/47 23/27/47 19/28/47
f 12/29/47 22/30/47 11/29/47
f 22/30/47 12/29/47 21/30/47
f 26/33/12 32/32/18 31/31/17
f 32/32/18 26/33/12 28/34/14
f 32/32/18 28/34/14 40/35/26
f 40/35/26 28/34/14 37/33/23
f 40/35/26 37/33/23 33/32/19
f 33/32/19 37/33/23 35/31/21
f 51/32/37 50/33/36 49/31/35
f 50/33/36 51/32/37 52/35/38
f 50/33/36 52/35/38 56/34/42
f 56/34/42 52/35/38 53/32/39
f 56/34/42 53/32/39 54/33/40
f 54/33/40 53/32/39 55/31/41
f 62/38/45 59/37/45 57/36/45
f 59/37/45 62/38/45 64/39/45
f 63/39/46 58/36/46 60/37/46
f 58/36/46 63/39/46 61/38/46
f 75/40/49 74/41/48 73/40/48
f 74/41/48 75/40/49 76/41/49
f 79/40/50 78/41/51 77/41/50
f 78/41/51 79/40/50 80/40/51
f 81/40/52 76/41/49 75/40/49
f 76/41/49 81/40/52 82/41/52
f 81/40/52 83/41/53 82/41/52
f 83/41/53 81/40/52 84/40/53
f 87/41/55 86/40/54 85/41/54
f 86/40/54 87/41/55 88/40/55
f 83/41/53 88/40/55 87/41/55
f 88/40/55 83/41/53 84/40/53
f 82/41/56 74/41/56 76/41/56
f 74/41/56 82/41/56 78/41/56
f 78/41/56 82/41/56 83/41/56
f 78/41/56 83/41/56 77/41/56
f 77/41/56 83/41/56 87/41/56
f 77/41/56 87/41/56 85/41/56
f 73/40/57 81/40/57 75/40/57
f 81/40/57 73/40/57 80/40/57
f 81/40/57 80/40/57 84/40/57
f 84/40/57 80/40/57 79/40/57
f 84/40/57 79/40/57 86/40/57
f 84/40/57 86/40/57 88/40/57
f 80/40/51 74/41/48 78/41/51
f 74/41/48 80/40/51 73/40/48
f 86/40/54 77/41/50 85/41/54
f 77/41/50 86/40/54 79/40/50

