# Created by Kenney (www.kenney.nl)

mtllib construction-cone.mtl

g construction-cone

v 0.02034057 0.01875 0.02034057 1 1 1
v 0.01383159 0.05625 0.01383159 1 1 1
v 0.02876591 0.01875 0 1 1 1
v 0 0.01875 0.02876591 1 1 1
v 0.01956082 0.05625 -1.443823E-15 1 1 1
v 9.023893E-17 0.05625 0.01956082 1 1 1
v 0.01383159 0.05625 -0.01383159 1 1 1
v -0.02034057 0.01875 0.02034057 1 1 1
v 0.02034057 0.01875 -0.02034057 1 1 1
v -0.01383159 0.05625 0.01383159 1 1 1
v 9.023893E-17 0.05625 -0.01956082 1 1 1
v 0 0.01875 -0.02876591 1 1 1
v -0.02876591 0.01875 0 1 1 1
v -0.01956082 0.05625 -7.219114E-16 1 1 1
v -0.01383159 0.05625 -0.01383159 1 1 1
v -0.02034057 0.01875 -0.02034057 1 1 1
v -0.0275 0 -0.0375 1 1 1
v 0.0275 0 -0.0375 1 1 1
v -0.0275 0.01875 -0.0375 1 1 1
v 0.0275 0.01875 -0.0375 1 1 1
v -0.0375 0 -0.0275 1 1 1
v -0.0375 0.01875 -0.0275 1 1 1
v -0.0375 0 0.0275 1 1 1
v -0.0375 0.01875 0.0275 1 1 1
v 0.0275 0 0.0375 1 1 1
v -0.0275 0 0.0375 1 1 1
v 0.0275 0.01875 0.0375 1 1 1
v -0.0275 0.01875 0.0375 1 1 1
v 0.0375 0.01875 -0.0275 1 1 1
v 0.0375 0 -0.0275 1 1 1
v 0.0375 0.01875 0.0275 1 1 1
v 0.0375 0 0.0275 1 1 1
v 0 0.05625 0.01956082 1 1 1
v -0.01383159 0.05625 0.01383159 1 1 1
v -1.804779E-16 0.09375 0.01035573 1 1 1
v -0.007322606 0.09375 0.007322606 1 1 1
v 0.01035573 0.09375 -1.443823E-15 1 1 1
v 0.01956082 0.05625 -1.443823E-15 1 1 1
v 0.007322606 0.09375 0.007322606 1 1 1
v 0.01383159 0.05625 0.01383159 1 1 1
v 0.007322606 0.09375 -0.007322606 1 1 1
v -1.804779E-16 0.09375 -0.01035573 1 1 1
v -0.007322606 0.09375 -0.007322606 1 1 1
v -0.01035573 0.09375 -1.443823E-15 1 1 1
v -0.01383159 0.05625 -0.01383159 1 1 1
v -0.01956082 0.05625 -7.219114E-16 1 1 1
v 0 0.05625 -0.01956082 1 1 1
v 0.01383159 0.05625 -0.01383159 1 1 1

vn 0.6867202 0.238392 0.6867202
vn 0.971169 0.238392 0
vn 0 0.238392 0.971169
vn 0.6867202 0.238392 -0.6867202
vn -0.6867202 0.238392 0.6867202
vn 0 0.238392 -0.971169
vn -0.971169 0.238392 0
vn -0.6867202 0.238392 -0.6867202
vn -0.3826834 0 -0.9238795
vn 0.3826834 0 -0.9238795
vn -0.9238795 0 -0.3826834
vn -0.9238795 0 0.3826834
vn 0.3826834 0 0.9238795
vn -0.3826834 0 0.9238795
vn 0.9238795 0 -0.3826834
vn 0.9238795 0 0.3826834
vn 0 1 0
vn 0 -1 0

vt 0.59375 0.395
vt 0.59375 0.475
vt 0.46875 0.575
vt 0.46875 0.675

usemtl colormap

f 3/1/2 2/2/1 1/1/1
f 2/2/1 4/1/3 1/1/1
f 2/2/1 3/1/2 5/2/2
f 4/1/3 2/2/1 6/2/3
f 3/1/2 7/2/4 5/2/2
f 6/2/3 8/1/5 4/1/3
f 7/2/4 3/1/2 9/1/4
f 8/1/5 6/2/3 10/2/5
f 9/1/4 11/2/6 7/2/4
f 11/2/6 9/1/4 12/1/6
f 10/2/5 13/1/7 8/1/5
f 13/1/7 10/2/5 14/2/7
f 12/1/6 15/2/8 11/2/6
f 15/2/8 13/1/7 14/2/7
f 15/2/8 12/1/6 16/1/8
f 13/1/7 15/2/8 16/1/8
f 19/4/9 18/3/10 17/3/9
f 18/3/10 19/4/9 20/4/10
f 23/3/12 22/4/11 21/3/11
f 22/4/11 23/3/12 24/4/12
f 27/4/13 26/3/14 25/3/13
f 26/3/14 27/4/13 28/4/14
f 31/4/16 30/3/15 29/4/15
f 30/3/15 31/4/16 32/3/16
f 28/4/14 23/3/12 26/3/14
f 23/3/12 28/4/14 24/4/12
f 31/4/16 25/3/13 32/3/16
f 25/3/13 31/4/16 27/4/13
f 20/4/10 30/3/15 18/3/10
f 30/3/15 20/4/10 29/4/15
f 22/4/11 17/3/9 21/3/11
f 17/3/9 22/4/11 19/4/9
f 20/4/17 31/4/17 29/4/17
f 31/4/17 20/4/17 27/4/17
f 27/4/17 20/4/17 19/4/17
f 27/4/17 19/4/17 28/4/17
f 28/4/17 19/4/17 22/4/17
f 28/4/17 22/4/17 24/4/17
f 25/3/18 30/3/18 32/3/18
f 30/3/18 25/3/18 18/3/18
f 18/3/18 25/3/18 26/3/18
f 18/3/18 26/3/18 17/3/18
f 17/3/18 26/3/18 23/3/18
f 17/3/18 23/3/18 21/3/18
f 35/4/3 34/3/5 33/3/3
f 34/3/5 35/4/3 36/4/5
f 39/4/1 38/3/2 37/4/2
f 38/3/2 39/4/1 40/3/1
f 41/4/17 39/4/17 37/4/17
f 39/4/17 41/4/17 42/4/17
f 39/4/17 42/4/17 35/4/17
f 35/4/17 42/4/17 43/4/17
f 35/4/17 43/4/17 36/4/17
f 36/4/17 43/4/17 44/4/17
f 46/3/7 43/4/8 45/3/8
f 43/4/8 46/3/7 44/4/7
f 42/4/6 48/3/4 47/3/6
f 48/3/4 42/4/6 41/4/4
f 39/4/1 33/3/3 40/3/1
f 33/3/3 39/4/1 35/4/3
f 43/4/8 47/3/6 45/3/8
f 47/3/6 43/4/8 42/4/6
f 41/4/4 38/3/2 48/3/4
f 38/3/2 41/4/4 37/4/2
f 46/3/7 36/4/5 44/4/7
f 36/4/5 46/3/7 34/3/5

g construction-cone




usemtl colormap

f 3/1/2 2/2/1 1/1/1
f 2/2/1 4/1/3 1/1/1
f 2/2/1 3/1/2 5/2/2
f 4/1/3 2/2/1 6/2/3
f 3/1/2 7/2/4 5/2/2
f 6/2/3 8/1/5 4/1/3
f 7/2/4 3/1/2 9/1/4
f 8/1/5 6/2/3 10/2/5
f 9/1/4 11/2/6 7/2/4
f 11/2/6 9/1/4 12/1/6
f 10/2/5 13/1/7 8/1/5
f 13/1/7 10/2/5 14/2/7
f 12/1/6 15/2/8 11/2/6
f 15/2/8 13/1/7 14/2/7
f 15/2/8 12/1/6 16/1/8
f 13/1/7 15/2/8 16/1/8
f 19/4/9 18/3/10 17/3/9
f 18/3/10 19/4/9 20/4/10
f 23/3/12 22/4/11 21/3/11
f 22/4/11 23/3/12 24/4/12
f 27/4/13 26/3/14 25/3/13
f 26/3/14 27/4/13 28/4/14
f 31/4/16 30/3/15 29/4/15
f 30/3/15 31/4/16 32/3/16
f 28/4/14 23/3/12 26/3/14
f 23/3/12 28/4/14 24/4/12
f 31/4/16 25/3/13 32/3/16
f 25/3/13 31/4/16 27/4/13
f 20/4/10 30/3/15 18/3/10
f 30/3/15 20/4/10 29/4/15
f 22/4/11 17/3/9 21/3/11
f 17/3/9 22/4/11 19/4/9
f 20/4/17 31/4/17 29/4/17
f 31/4/17 20/4/17 27/4/17
f 27/4/17 20/4/17 19/4/17
f 27/4/17 19/4/17 28/4/17
f 28/4/17 19/4/17 22/4/17
f 28/4/17 22/4/17 24/4/17
f 25/3/18 30/3/18 32/3/18
f 30/3/18 25/3/18 18/3/18
f 18/3/18 25/3/18 26/3/18
f 18/3/18 26/3/18 17/3/18
f 17/3/18 26/3/18 23/3/18
f 17/3/18 23/3/18 21/3/18
f 35/4/3 34/3/5 33/3/3
f 34/3/5 35/4/3 36/4/5
f 39/4/1 38/3/2 37/4/2
f 38/3/2 39/4/1 40/3/1
f 41/4/17 39/4/17 37/4/17
f 39/4/17 41/4/17 42/4/17
f 39/4/17 42/4/17 35/4/17
f 35/4/17 42/4/17 43/4/17
f 35/4/17 43/4/17 36/4/17
f 36/4/17 43/4/17 44/4/17
f 46/3/7 43/4/8 45/3/8
f 43/4/8 46/3/7 44/4/7
f 42/4/6 48/3/4 47/3/6
f 48/3/4 42/4/6 41/4/4
f 39/4/1 33/3/3 40/3/1
f 33/3/3 39/4/1 35/4/3
f 43/4/8 47/3/6 45/3/8
f 47/3/6 43/4/8 42/4/6
f 41/4/4 38/3/2 48/3/4
f 38/3/2 41/4/4 37/4/2
f 46/3/7 36/4/5 44/4/7
f 36/4/5 46/3/7 34/3/5

