# Created by Kenney (www.kenney.nl)

mtllib electricity-wires.mtl

g electricity-wires

v -0.032 0.4379486 0.08085012 1 1 1
v -0.032 0.450488 0.09335013 1 1 1
v 0.0967861 0.4481778 0.08085012 1 1 1
v 0.09480333 0.4605596 0.09335013 1 1 1
v -0.032 0.450488 0.06835012 1 1 1
v -0.1607861 0.4481778 0.08085012 1 1 1
v -0.1588033 0.4605596 0.06835012 1 1 1
v 0.2209508 0.4783413 0.08085012 1 1 1
v 0.218 0.490488 0.09335013 1 1 1
v -0.1588033 0.4605596 0.09335013 1 1 1
v 0.09480333 0.4605596 0.06835012 1 1 1
v -0.032 0.4630274 0.08085012 1 1 1
v 0.09282054 0.4729415 0.08085012 1 1 1
v 0.2150492 0.5026347 0.08085012 1 1 1
v 0.218 0.490488 0.06835012 1 1 1
v -0.2849508 0.4783413 0.08085012 1 1 1
v -0.282 0.490488 0.06835012 1 1 1
v -0.282 0.490488 0.09335013 1 1 1
v -0.1568205 0.4729415 0.08085012 1 1 1
v -0.2790492 0.5026347 0.08085012 1 1 1
v -0.282 0.490488 -0.0916502 1 1 1
v -0.2790492 0.5026347 -0.0791502 1 1 1
v -0.2849508 0.4783413 -0.0791502 1 1 1
v -0.282 0.490488 -0.0666502 1 1 1
v 0.09480333 0.4605596 -0.0666502 1 1 1
v 0.09282054 0.4729415 -0.0791502 1 1 1
v 0.218 0.490488 -0.0666502 1 1 1
v 0.2150492 0.5026347 -0.0791502 1 1 1
v 0.218 0.490488 -0.0916502 1 1 1
v 0.2209508 0.4783413 -0.0791502 1 1 1
v -0.1588033 0.4605596 -0.0666502 1 1 1
v -0.1568205 0.4729415 -0.0791502 1 1 1
v -0.1607861 0.4481778 -0.0791502 1 1 1
v -0.1588033 0.4605596 -0.0916502 1 1 1
v -0.032 0.4379486 -0.0791502 1 1 1
v -0.032 0.450488 -0.0666502 1 1 1
v -0.032 0.4630274 -0.0791502 1 1 1
v 0.0967861 0.4481778 -0.0791502 1 1 1
v -0.032 0.450488 -0.0916502 1 1 1
v 0.09480333 0.4605596 -0.0916502 1 1 1

vn 0 -1 0
vn 0 -0.03558254 0.9993668
vn 0.1581215 -0.9874197 0
vn 0.005645186 -0.03525243 0.9993625
vn 0 -0.03558254 -0.9993668
vn -0.1581215 -0.9874197 0
vn -0.005645186 -0.03525243 -0.9993625
vn 0.2360658 -0.9717371 0
vn 0 0 1
vn -0.005645186 -0.03525243 0.9993625
vn 0.005645186 -0.03525243 -0.9993625
vn 0 1 0
vn -0.1581215 0.9874197 0
vn -0.2360658 0.9717371 0
vn 0.9717371 0.2360658 0
vn -0.2360658 -0.9717371 0
vn 0 0 -1
vn 0.1581215 0.9874197 0
vn 0.2360658 0.9717371 0
vn -0.9717371 0.2360658 0

vt 0.34375 0.025
vt 0.34375 0.0637699
vt 0.34375 0.0566269
vt 0.34375 0.09490988
vt 0.34375 0.1498882
vt 0.34375 0.1874441
vt 0.34375 0.1025398
vt 0.34375 0.1331929
vt 0.34375 0.225

usemtl colormap

f 3/3/3 2/2/2 1/1/1
f 2/2/2 3/3/3 4/4/4
f 6/3/6 5/2/5 1/1/1
f 5/2/5 6/3/6 7/4/7
f 8/5/8 4/4/4 3/3/3
f 4/4/4 8/5/8 9/6/9
f 2/2/2 6/3/6 1/1/1
f 6/3/6 2/2/2 10/4/10
f 12/7/12 11/4/11 5/2/5
f 11/4/11 12/7/12 13/8/13
f 9/6/9 13/8/13 4/4/4
f 13/8/13 9/6/9 14/9/14
f 5/2/5 3/3/3 1/1/1
f 3/3/3 5/2/5 11/4/11
f 14/9/15 8/5/15 15/6/15
f 8/5/15 14/9/15 9/6/15
f 16/5/16 7/4/7 6/3/6
f 7/4/7 16/5/16 17/6/17
f 19/8/18 18/6/9 10/4/10
f 18/6/9 19/8/18 20/9/19
f 13/8/13 15/6/17 11/4/11
f 15/6/17 13/8/13 14/9/14
f 16/5/20 20/9/20 17/6/20
f 20/9/20 16/5/20 18/6/20
f 17/6/17 19/8/18 7/4/7
f 19/8/18 17/6/17 20/9/19
f 10/4/10 16/5/16 6/3/6
f 16/5/16 10/4/10 18/6/9
f 7/4/7 12/7/12 5/2/5
f 12/7/12 7/4/7 19/8/18
f 4/4/4 12/7/12 2/2/2
f 12/7/12 4/4/4 13/8/13
f 11/4/11 8/5/8 3/3/3
f 8/5/8 11/4/11 15/6/17
f 12/7/12 10/4/10 2/2/2
f 10/4/10 12/7/12 19/8/18
f 23/5/20 22/9/20 21/6/20
f 22/9/20 23/5/20 24/6/20
f 27/6/9 26/8/13 25/4/4
f 26/8/13 27/6/9 28/9/14
f 28/9/15 30/5/15 29/6/15
f 30/5/15 28/9/15 27/6/15
f 32/8/18 24/6/9 31/4/10
f 24/6/9 32/8/18 22/9/19
f 23/5/16 34/4/7 33/3/6
f 34/4/7 23/5/16 21/6/17
f 21/6/17 32/8/18 34/4/7
f 32/8/18 21/6/17 22/9/19
f 36/2/2 33/3/6 35/1/1
f 33/3/6 36/2/2 31/4/10
f 37/7/12 31/4/10 36/2/2
f 31/4/10 37/7/12 32/8/18
f 39/2/5 38/3/3 35/1/1
f 38/3/3 39/2/5 40/4/11
f 37/7/12 40/4/11 39/2/5
f 40/4/11 37/7/12 26/8/13
f 25/4/4 37/7/12 36/2/2
f 37/7/12 25/4/4 26/8/13
f 30/5/8 25/4/4 38/3/3
f 25/4/4 30/5/8 27/6/9
f 40/4/11 30/5/8 38/3/3
f 30/5/8 40/4/11 29/6/17
f 31/4/10 23/5/16 33/3/6
f 23/5/16 31/4/10 24/6/9
f 38/3/3 36/2/2 35/1/1
f 36/2/2 38/3/3 25/4/4
f 26/8/13 29/6/17 40/4/11
f 29/6/17 26/8/13 28/9/14
f 33/3/6 39/2/5 35/1/1
f 39/2/5 33/3/6 34/4/7
f 34/4/7 37/7/12 39/2/5
f 37/7/12 34/4/7 32/8/18

g electricity-wires




usemtl colormap

f 3/3/3 2/2/2 1/1/1
f 2/2/2 3/3/3 4/4/4
f 6/3/6 5/2/5 1/1/1
f 5/2/5 6/3/6 7/4/7
f 8/5/8 4/4/4 3/3/3
f 4/4/4 8/5/8 9/6/9
f 2/2/2 6/3/6 1/1/1
f 6/3/6 2/2/2 10/4/10
f 12/7/12 11/4/11 5/2/5
f 11/4/11 12/7/12 13/8/13
f 9/6/9 13/8/13 4/4/4
f 13/8/13 9/6/9 14/9/14
f 5/2/5 3/3/3 1/1/1
f 3/3/3 5/2/5 11/4/11
f 14/9/15 8/5/15 15/6/15
f 8/5/15 14/9/15 9/6/15
f 16/5/16 7/4/7 6/3/6
f 7/4/7 16/5/16 17/6/17
f 19/8/18 18/6/9 10/4/10
f 18/6/9 19/8/18 20/9/19
f 13/8/13 15/6/17 11/4/11
f 15/6/17 13/8/13 14/9/14
f 16/5/20 20/9/20 17/6/20
f 20/9/20 16/5/20 18/6/20
f 17/6/17 19/8/18 7/4/7
f 19/8/18 17/6/17 20/9/19
f 10/4/10 16/5/16 6/3/6
f 16/5/16 10/4/10 18/6/9
f 7/4/7 12/7/12 5/2/5
f 12/7/12 7/4/7 19/8/18
f 4/4/4 12/7/12 2/2/2
f 12/7/12 4/4/4 13/8/13
f 11/4/11 8/5/8 3/3/3
f 8/5/8 11/4/11 15/6/17
f 12/7/12 10/4/10 2/2/2
f 10/4/10 12/7/12 19/8/18
f 23/5/20 22/9/20 21/6/20
f 22/9/20 23/5/20 24/6/20
f 27/6/9 26/8/13 25/4/4
f 26/8/13 27/6/9 28/9/14
f 28/9/15 30/5/15 29/6/15
f 30/5/15 28/9/15 27/6/15
f 32/8/18 24/6/9 31/4/10
f 24/6/9 32/8/18 22/9/19
f 23/5/16 34/4/7 33/3/6
f 34/4/7 23/5/16 21/6/17
f 21/6/17 32/8/18 34/4/7
f 32/8/18 21/6/17 22/9/19
f 36/2/2 33/3/6 35/1/1
f 33/3/6 36/2/2 31/4/10
f 37/7/12 31/4/10 36/2/2
f 31/4/10 37/7/12 32/8/18
f 39/2/5 38/3/3 35/1/1
f 38/3/3 39/2/5 40/4/11
f 37/7/12 40/4/11 39/2/5
f 40/4/11 37/7/12 26/8/13
f 25/4/4 37/7/12 36/2/2
f 37/7/12 25/4/4 26/8/13
f 30/5/8 25/4/4 38/3/3
f 25/4/4 30/5/8 27/6/9
f 40/4/11 30/5/8 38/3/3
f 30/5/8 40/4/11 29/6/17
f 31/4/10 23/5/16 33/3/6
f 23/5/16 31/4/10 24/6/9
f 38/3/3 36/2/2 35/1/1
f 36/2/2 38/3/3 25/4/4
f 26/8/13 29/6/17 40/4/11
f 29/6/17 26/8/13 28/9/14
f 33/3/6 39/2/5 35/1/1
f 39/2/5 33/3/6 34/4/7
f 34/4/7 37/7/12 39/2/5
f 37/7/12 34/4/7 32/8/18

