# Created by Kenney (www.kenney.nl)

mtllib electricity-pole-single.mtl

g electricity-pole-single

v 0.031725 0.4944662 -0.01762522 1 1 1
v 0.031725 0.4405338 -0.01762522 1 1 1
v 0.031725 0.4944662 0.01762478 1 1 1
v 0.031725 0.4405338 0.01762478 1 1 1
v 0.017625 0.4405338 -0.03172522 1 1 1
v 0.017625 0.4944662 -0.03172522 1 1 1
v 0.017625 0.4944662 0.03172478 1 1 1
v 0.017625 0.4405338 0.03172478 1 1 1
v -0.031725 0.4405338 0.01762478 1 1 1
v -0.031725 0.4944662 0.01762478 1 1 1
v -0.017625 0.4405338 0.03172478 1 1 1
v -0.017625 0.4944662 0.03172478 1 1 1
v -0.031725 0.4405338 -0.01762522 1 1 1
v -0.031725 0.4944662 -0.01762522 1 1 1
v -0.017625 0.4405338 -0.03172522 1 1 1
v -0.017625 0.4944662 -0.03172522 1 1 1
v -0.02319097 0.508232 -0.0791502 1 1 1
v -0.02577108 0.508232 -0.07292127 1 1 1
v -0.02577108 0.508232 -0.08537913 1 1 1
v -0.03200001 0.508232 -0.08795924 1 1 1
v -0.03200001 0.508232 -0.07034116 1 1 1
v -0.03822893 0.508232 -0.08537913 1 1 1
v -0.03822893 0.508232 -0.07292127 1 1 1
v -0.04080904 0.508232 -0.0791502 1 1 1
v -0.03200001 0.500488 -0.0945102 1 1 1
v -0.02113885 0.500488 -0.09001136 1 1 1
v -0.04736 0.500488 -0.0791502 1 1 1
v -0.04286116 0.500488 -0.06828904 1 1 1
v -0.02113885 0.500488 -0.06828904 1 1 1
v -0.03200001 0.500488 -0.0637902 1 1 1
v -0.04286116 0.500488 -0.09001136 1 1 1
v -0.01664001 0.500488 -0.0791502 1 1 1
v -0.02150001 0.485 -0.0791502 1 1 1
v -0.02457538 0.485 -0.07173746 1 1 1
v -0.03942463 0.485 -0.07173746 1 1 1
v -0.03200001 0.485 -0.068667 1 1 1
v -0.03200001 0.485 -0.0896334 1 1 1
v -0.02457538 0.485 -0.08656294 1 1 1
v -0.0425 0.485 -0.0791502 1 1 1
v -0.03942463 0.485 -0.08656294 1 1 1
v -0.02319097 0.508232 0.08085012 1 1 1
v -0.02577108 0.508232 0.08707906 1 1 1
v -0.02577108 0.508232 0.07462119 1 1 1
v -0.03200001 0.508232 0.07204109 1 1 1
v -0.03200001 0.508232 0.08965916 1 1 1
v -0.03822893 0.508232 0.07462119 1 1 1
v -0.03822893 0.508232 0.08707906 1 1 1
v -0.04080904 0.508232 0.08085012 1 1 1
v -0.03200001 0.500488 0.06549013 1 1 1
v -0.02113885 0.500488 0.06998897 1 1 1
v -0.04736 0.500488 0.08085012 1 1 1
v -0.04286116 0.500488 0.09171128 1 1 1
v -0.02113885 0.500488 0.09171128 1 1 1
v -0.03200001 0.500488 0.09621012 1 1 1
v -0.04286116 0.500488 0.06998897 1 1 1
v -0.01664001 0.500488 0.08085012 1 1 1
v -0.02150001 0.485 0.08085012 1 1 1
v -0.02457538 0.485 0.08826286 1 1 1
v -0.03942463 0.485 0.08826286 1 1 1
v -0.03200001 0.485 0.09133332 1 1 1
v -0.03200001 0.485 0.07036693 1 1 1
v -0.02457538 0.485 0.07343739 1 1 1
v -0.0425 0.485 0.08085012 1 1 1
v -0.03942463 0.485 0.07343739 1 1 1
v 0.0293629 4.511975E-16 -2.252364E-15 1 1 1
v 0.02446909 4.511975E-16 -0.02446909 1 1 1
v 0.02446909 4.511975E-16 0.02446909 1 1 1
v -1.689273E-15 4.511975E-16 0.0293629 1 1 1
v -1.689273E-15 4.511975E-16 -0.0293629 1 1 1
v -0.02446909 4.511975E-16 0.02446909 1 1 1
v -0.02446909 4.511975E-16 -0.02446909 1 1 1
v -0.0293629 4.511975E-16 -2.252364E-15 1 1 1
v -1.689273E-15 0.104 -0.022815 1 1 1
v 0.0190125 0.104 -0.0190125 1 1 1
v -2.815455E-15 0.117 -0.014625 1 1 1
v 0.0121875 0.117 -0.0121875 1 1 1
v 0.022815 0.104 2.252364E-15 1 1 1
v 0.0190125 0.104 0.0190125 1 1 1
v 0.014625 0.117 4.504727E-15 1 1 1
v 0.0121875 0.117 0.0121875 1 1 1
v -1.689273E-15 0.104 0.022815 1 1 1
v -2.815455E-15 0.117 0.014625 1 1 1
v -0.0190125 0.104 0.0190125 1 1 1
v -0.0121875 0.117 0.0121875 1 1 1
v -0.022815 0.104 2.252364E-15 1 1 1
v -0.014625 0.117 4.504727E-15 1 1 1
v -0.0190125 0.104 -0.0190125 1 1 1
v -0.0121875 0.117 -0.0121875 1 1 1
v -0.01950001 0.46 0.1071125 1 1 1
v -0.0445 0.46 0.1071125 1 1 1
v -0.01950001 0.485 0.1071125 1 1 1
v -0.0445 0.485 0.1071125 1 1 1
v -0.0445 0.46 -0.1071125 1 1 1
v -0.01950001 0.46 -0.1071125 1 1 1
v -0.0445 0.485 -0.1071125 1 1 1
v -0.01950001 0.485 -0.1071125 1 1 1
v -0.01625 0.5172285 -0.01625 1 1 1
v 0 0.525 -0.0195 1 1 1
v -0.0195 0.5172285 0 1 1 1
v 0 0.525 0.0195 1 1 1
v -0.01625 0.5172285 0.01625 1 1 1
v 0.0195 0.5172285 0 1 1 1
v 0.01625 0.5172285 0.01625 1 1 1
v 0.01625 0.5172285 -0.01625 1 1 1
v 0 0.117 -0.014625 1 1 1
v 0.0121875 0.117 -0.0121875 1 1 1
v 0 0.117 0.014625 1 1 1
v -0.0121875 0.117 0.0121875 1 1 1
v 0.0121875 0.117 0.0121875 1 1 1
v -0.0121875 0.117 -0.0121875 1 1 1
v 0.014625 0.117 0 1 1 1
v -0.014625 0.117 0 1 1 1

vn 0.9238796 0 -0.3826835
vn 0.9238796 0 0.3826835
vn 0.3826835 0 -0.9238796
vn 0.3826835 0 0.9238796
vn -0.9238796 0 0.3826835
vn -0.3826835 0 0.9238796
vn -0.9238796 0 -0.3826835
vn 0 -1 0
vn -0.3826835 0 -0.9238796
vn 0 1 0
vn 0.4993807 0.8663827 0
vn 0.3531155 0.8663827 0.3531155
vn 0.3531155 0.8663827 -0.3531155
vn 0 0.8663827 -0.4993807
vn 0 0.8663827 0.4993807
vn -0.3531155 0.8663827 -0.3531155
vn -0.3531155 0.8663827 0.3531155
vn -0.4993807 0.8663827 0
vn 0 0.1778029 -0.9840661
vn 0.6957089 0.1779603 -0.6959305
vn -0.9840091 0.1781178 0
vn -0.6957089 0.1779603 0.6959305
vn 0.6957089 0.1779603 0.6959305
vn 0 0.1778029 0.9840661
vn -0.6957089 0.1779603 -0.6959305
vn 0.9840091 0.1781178 0
vn 0.9540789 -0.2995556 0
vn 0.6745248 -0.2998682 0.6746076
vn -0.6745248 -0.2998682 0.6746076
vn 0 -0.3001808 0.9538823
vn 0 -0.3001808 -0.9538823
vn 0.6745248 -0.2998682 -0.6746076
vn -0.9540789 -0.2995556 0
vn -0.6745248 -0.2998682 -0.6746076
vn 0 0.3053494 -0.9522403
vn 0.6672045 0.3311742 -0.6672045
vn 0 0.5330377 -0.8460915
vn 0.567733 0.5961196 -0.567733
vn 0.9522403 0.3053494 0
vn 0.6672045 0.3311742 0.6672045
vn 0.8460915 0.5330377 0
vn 0.567733 0.5961196 0.567733
vn 0 0.3053494 0.9522403
vn 0 0.5330377 0.8460915
vn -0.6672045 0.3311742 0.6672045
vn -0.567733 0.5961196 0.567733
vn -0.9522403 0.3053494 0
vn -0.8460915 0.5330377 0
vn -0.6672045 0.3311742 -0.6672045
vn -0.567733 0.5961196 -0.567733
vn 0 0.0628362 0.9980238
vn -0.7051682 0.07399638 0.7051682
vn 0.7051682 0.07399638 0.7051682
vn 0.7051682 0.07399638 -0.7051682
vn 0.9980238 0.0628362 0
vn 0 0.0628362 -0.9980238
vn -0.7051682 0.07399638 -0.7051682
vn -0.9980238 0.0628362 0
vn 0 0 1
vn 0 0 -1
vn -0.7071068 0.7071068 0
vn -1 0 0
vn 0.7071068 0.7071068 0
vn 1 0 0
vn -0.444139 0.8915437 -0.0888278
vn -0.4012946 0.9152196 -0.03654768
vn -0.4054329 0.9141248 0
vn -0.4012946 0.9152196 0.03654768
vn -0.444139 0.8915437 0.0888278
vn 0.4054329 0.9141248 0
vn 0.444139 0.8915437 0.0888278
vn 0.4012946 0.9152196 0.03654768
vn 0.444139 0.8915437 -0.0888278
vn 0.4012946 0.9152196 -0.03654768
vn 7.252561E-05 -0.01206061 -0.9999273
vn 0.7069837 -0.01422028 -0.7070868
vn 3.509057E-05 -0.01203191 -0.9999276
vn 0.6443677 -0.01430147 -0.7645821
vn -7.252561E-05 -0.01206061 0.9999273
vn -0.7069837 -0.01422028 0.7070868
vn -3.509057E-05 -0.01203191 0.9999276
vn -0.6443677 -0.01430147 0.7645821
vn 0.707034 -0.01435343 0.707034
vn 0.6444425 -0.01418832 0.7645211
vn -0.707034 -0.01435343 -0.707034
vn -0.6444425 -0.01418832 -0.7645211
vn 0.9999259 -0.01217964 0
vn -0.9999259 -0.01217964 0

vt 0.34375 0.225
vt 0.34375 0.025
vt 0.34375 0.1583333
vt 0.46875 0.275
vt 0.46875 0.4527778
vt 0.46875 0.475
vt 0.46875 0.325
vt 0.46875 0.425
vt 0.71875 0.4711905
vt 0.71875 0.475
vt 0.71875 0.275

usemtl colormap

f 3/1/2 2/2/1 1/1/1
f 2/2/1 3/1/2 4/2/2
f 6/1/3 2/2/1 5/2/3
f 2/2/1 6/1/3 1/1/1
f 7/1/4 4/2/2 3/1/2
f 4/2/2 7/1/4 8/2/4
f 11/2/6 10/1/5 9/2/5
f 10/1/5 11/2/6 12/1/6
f 7/1/4 11/2/6 8/2/4
f 11/2/6 7/1/4 12/1/6
f 9/2/5 14/1/7 13/2/7
f 14/1/7 9/2/5 10/1/5
f 8/2/8 2/2/8 4/2/8
f 2/2/8 8/2/8 5/2/8
f 5/2/8 8/2/8 11/2/8
f 5/2/8 11/2/8 15/2/8
f 15/2/8 11/2/8 9/2/8
f 15/2/8 9/2/8 13/2/8
f 16/1/9 5/2/3 15/2/9
f 5/2/3 16/1/9 6/1/3
f 1/1/10 7/1/10 3/1/10
f 7/1/10 1/1/10 6/1/10
f 7/1/10 6/1/10 12/1/10
f 12/1/10 6/1/10 16/1/10
f 12/1/10 16/1/10 10/1/10
f 10/1/10 16/1/10 14/1/10
f 13/2/7 16/1/9 15/2/9
f 16/1/9 13/2/7 14/1/7
f 19/1/13 18/1/12 17/1/11
f 18/1/12 19/1/13 20/1/14
f 18/1/12 20/1/14 21/1/15
f 21/1/15 20/1/14 22/1/16
f 21/1/15 22/1/16 23/1/17
f 23/1/17 22/1/16 24/1/18
f 20/1/14 26/3/20 25/3/19
f 26/3/20 20/1/14 19/1/13
f 27/3/21 23/1/17 24/1/18
f 23/1/17 27/3/21 28/3/22
f 18/1/12 30/3/24 29/3/23
f 30/3/24 18/1/12 21/1/15
f 31/3/25 20/1/14 25/3/19
f 20/1/14 31/3/25 22/1/16
f 19/1/13 32/3/26 26/3/20
f 32/3/26 19/1/13 17/1/11
f 27/3/21 22/1/16 31/3/25
f 22/1/16 27/3/21 24/1/18
f 30/3/24 23/1/17 28/3/22
f 23/1/17 30/3/24 21/1/15
f 18/1/12 32/3/26 17/1/11
f 32/3/26 18/1/12 29/3/23
f 29/3/23 33/2/27 32/3/26
f 33/2/27 29/3/23 34/2/28
f 36/2/30 28/3/22 35/2/29
f 28/3/22 36/2/30 30/3/24
f 25/3/19 38/2/32 37/2/31
f 38/2/32 25/3/19 26/3/20
f 39/2/33 28/3/22 27/3/21
f 28/3/22 39/2/33 35/2/29
f 29/3/23 36/2/30 34/2/28
f 36/2/30 29/3/23 30/3/24
f 40/2/34 25/3/19 37/2/31
f 25/3/19 40/2/34 31/3/25
f 32/3/26 38/2/32 26/3/20
f 38/2/32 32/3/26 33/2/27
f 40/2/34 27/3/21 31/3/25
f 27/3/21 40/2/34 39/2/33
f 43/1/13 42/1/12 41/1/11
f 42/1/12 43/1/13 44/1/14
f 42/1/12 44/1/14 45/1/15
f 45/1/15 44/1/14 46/1/16
f 45/1/15 46/1/16 47/1/17
f 47/1/17 46/1/16 48/1/18
f 44/1/14 50/3/20 49/3/19
f 50/3/20 44/1/14 43/1/13
f 51/3/21 47/1/17 48/1/18
f 47/1/17 51/3/21 52/3/22
f 42/1/12 54/3/24 53/3/23
f 54/3/24 42/1/12 45/1/15
f 55/3/25 44/1/14 49/3/19
f 44/1/14 55/3/25 46/1/16
f 43/1/13 56/3/26 50/3/20
f 56/3/26 43/1/13 41/1/11
f 51/3/21 46/1/16 55/3/25
f 46/1/16 51/3/21 48/1/18
f 54/3/24 47/1/17 52/3/22
f 47/1/17 54/3/24 45/1/15
f 42/1/12 56/3/26 41/1/11
f 56/3/26 42/1/12 53/3/23
f 53/3/23 57/2/27 56/3/26
f 57/2/27 53/3/23 58/2/28
f 60/2/30 52/3/22 59/2/29
f 52/3/22 60/2/30 54/3/24
f 49/3/19 62/2/32 61/2/31
f 62/2/32 49/3/19 50/3/20
f 63/2/33 52/3/22 51/3/21
f 52/3/22 63/2/33 59/2/29
f 53/3/23 60/2/30 58/2/28
f 60/2/30 53/3/23 54/3/24
f 64/2/34 49/3/19 61/2/31
f 49/3/19 64/2/34 55/3/25
f 56/3/26 62/2/32 50/3/20
f 62/2/32 56/3/26 57/2/27
f 64/2/34 51/3/21 55/3/25
f 51/3/21 64/2/34 63/2/33
f 67/4/8 66/4/8 65/4/8
f 66/4/8 67/4/8 68/4/8
f 66/4/8 68/4/8 69/4/8
f 69/4/8 68/4/8 70/4/8
f 69/4/8 70/4/8 71/4/8
f 71/4/8 70/4/8 72/4/8
f 75/6/37 74/5/36 73/5/35
f 74/5/36 75/6/37 76/6/38
f 79/6/41 78/5/40 77/5/39
f 78/5/40 79/6/41 80/6/42
f 80/6/42 81/5/43 78/5/40
f 81/5/43 80/6/42 82/6/44
f 82/6/44 83/5/45 81/5/43
f 83/5/45 82/6/44 84/6/46
f 83/5/45 86/6/48 85/5/47
f 86/6/48 83/5/45 84/6/46
f 85/5/47 88/6/50 87/5/49
f 88/6/50 85/5/47 86/6/48
f 76/6/38 77/5/39 74/5/36
f 77/5/39 76/6/38 79/6/41
f 88/6/50 73/5/35 87/5/49
f 73/5/35 88/6/50 75/6/37
f 81/5/43 70/4/52 68/4/51
f 70/4/52 81/5/43 83/5/45
f 78/5/40 68/4/51 67/4/53
f 68/4/51 78/5/40 81/5/43
f 74/5/36 65/4/55 66/4/54
f 65/4/55 74/5/36 77/5/39
f 73/5/35 66/4/54 69/4/56
f 66/4/54 73/5/35 74/5/36
f 72/4/58 87/5/49 71/4/57
f 87/5/49 72/4/58 85/5/47
f 87/5/49 69/4/56 71/4/57
f 69/4/56 87/5/49 73/5/35
f 70/4/52 85/5/47 72/4/58
f 85/5/47 70/4/52 83/5/45
f 77/5/39 67/4/53 65/4/55
f 67/4/53 77/5/39 78/5/40
f 91/8/59 90/7/59 89/7/59
f 90/7/59 91/8/59 92/8/59
f 95/8/60 94/7/60 93/7/60
f 94/7/60 95/8/60 96/8/60
f 93/7/62 92/8/61 95/8/61
f 92/8/61 93/7/62 90/7/62
f 95/8/61 91/8/63 96/8/63
f 91/8/63 95/8/61 92/8/61
f 91/8/63 94/7/64 96/8/63
f 94/7/64 91/8/63 89/7/64
f 90/7/8 94/7/8 89/7/8
f 94/7/8 90/7/8 93/7/8
f 99/9/67 98/10/66 97/9/65
f 99/9/67 101/9/69 100/10/68
f 99/9/67 100/10/68 98/10/66
f 100/10/72 103/9/71 102/9/70
f 98/10/74 102/9/70 104/9/73
f 100/10/72 102/9/70 98/10/74
f 98/10/77 106/11/76 105/11/75
f 98/10/77 104/9/78 106/11/76
f 100/10/81 108/11/80 107/11/79
f 100/10/81 101/9/82 108/11/80
f 103/9/84 107/11/79 109/11/83
f 100/10/81 107/11/79 103/9/84
f 97/9/86 105/11/75 110/11/85
f 98/10/77 105/11/75 97/9/86
f 103/9/84 111/11/87 102/9/87
f 111/11/87 103/9/84 109/11/83
f 108/11/80 99/9/88 112/11/88
f 99/9/88 108/11/80 101/9/82
f 102/9/87 106/11/76 104/9/78
f 106/11/76 102/9/87 111/11/87
f 110/11/85 99/9/88 97/9/86
f 99/9/88 110/11/85 112/11/88

g electricity-pole-single




usemtl colormap

f 3/1/2 2/2/1 1/1/1
f 2/2/1 3/1/2 4/2/2
f 6/1/3 2/2/1 5/2/3
f 2/2/1 6/1/3 1/1/1
f 7/1/4 4/2/2 3/1/2
f 4/2/2 7/1/4 8/2/4
f 11/2/6 10/1/5 9/2/5
f 10/1/5 11/2/6 12/1/6
f 7/1/4 11/2/6 8/2/4
f 11/2/6 7/1/4 12/1/6
f 9/2/5 14/1/7 13/2/7
f 14/1/7 9/2/5 10/1/5
f 8/2/8 2/2/8 4/2/8
f 2/2/8 8/2/8 5/2/8
f 5/2/8 8/2/8 11/2/8
f 5/2/8 11/2/8 15/2/8
f 15/2/8 11/2/8 9/2/8
f 15/2/8 9/2/8 13/2/8
f 16/1/9 5/2/3 15/2/9
f 5/2/3 16/1/9 6/1/3
f 1/1/10 7/1/10 3/1/10
f 7/1/10 1/1/10 6/1/10
f 7/1/10 6/1/10 12/1/10
f 12/1/10 6/1/10 16/1/10
f 12/1/10 16/1/10 10/1/10
f 10/1/10 16/1/10 14/1/10
f 13/2/7 16/1/9 15/2/9
f 16/1/9 13/2/7 14/1/7
f 19/1/13 18/1/12 17/1/11
f 18/1/12 19/1/13 20/1/14
f 18/1/12 20/1/14 21/1/15
f 21/1/15 20/1/14 22/1/16
f 21/1/15 22/1/16 23/1/17
f 23/1/17 22/1/16 24/1/18
f 20/1/14 26/3/20 25/3/19
f 26/3/20 20/1/14 19/1/13
f 27/3/21 23/1/17 24/1/18
f 23/1/17 27/3/21 28/3/22
f 18/1/12 30/3/24 29/3/23
f 30/3/24 18/1/12 21/1/15
f 31/3/25 20/1/14 25/3/19
f 20/1/14 31/3/25 22/1/16
f 19/1/13 32/3/26 26/3/20
f 32/3/26 19/1/13 17/1/11
f 27/3/21 22/1/16 31/3/25
f 22/1/16 27/3/21 24/1/18
f 30/3/24 23/1/17 28/3/22
f 23/1/17 30/3/24 21/1/15
f 18/1/12 32/3/26 17/1/11
f 32/3/26 18/1/12 29/3/23
f 29/3/23 33/2/27 32/3/26
f 33/2/27 29/3/23 34/2/28
f 36/2/30 28/3/22 35/2/29
f 28/3/22 36/2/30 30/3/24
f 25/3/19 38/2/32 37/2/31
f 38/2/32 25/3/19 26/3/20
f 39/2/33 28/3/22 27/3/21
f 28/3/22 39/2/33 35/2/29
f 29/3/23 36/2/30 34/2/28
f 36/2/30 29/3/23 30/3/24
f 40/2/34 25/3/19 37/2/31
f 25/3/19 40/2/34 31/3/25
f 32/3/26 38/2/32 26/3/20
f 38/2/32 32/3/26 33/2/27
f 40/2/34 27/3/21 31/3/25
f 27/3/21 40/2/34 39/2/33
f 43/1/13 42/1/12 41/1/11
f 42/1/12 43/1/13 44/1/14
f 42/1/12 44/1/14 45/1/15
f 45/1/15 44/1/14 46/1/16
f 45/1/15 46/1/16 47/1/17
f 47/1/17 46/1/16 48/1/18
f 44/1/14 50/3/20 49/3/19
f 50/3/20 44/1/14 43/1/13
f 51/3/21 47/1/17 48/1/18
f 47/1/17 51/3/21 52/3/22
f 42/1/12 54/3/24 53/3/23
f 54/3/24 42/1/12 45/1/15
f 55/3/25 44/1/14 49/3/19
f 44/1/14 55/3/25 46/1/16
f 43/1/13 56/3/26 50/3/20
f 56/3/26 43/1/13 41/1/11
f 51/3/21 46/1/16 55/3/25
f 46/1/16 51/3/21 48/1/18
f 54/3/24 47/1/17 52/3/22
f 47/1/17 54/3/24 45/1/15
f 42/1/12 56/3/26 41/1/11
f 56/3/26 42/1/12 53/3/23
f 53/3/23 57/2/27 56/3/26
f 57/2/27 53/3/23 58/2/28
f 60/2/30 52/3/22 59/2/29
f 52/3/22 60/2/30 54/3/24
f 49/3/19 62/2/32 61/2/31
f 62/2/32 49/3/19 50/3/20
f 63/2/33 52/3/22 51/3/21
f 52/3/22 63/2/33 59/2/29
f 53/3/23 60/2/30 58/2/28
f 60/2/30 53/3/23 54/3/24
f 64/2/34 49/3/19 61/2/31
f 49/3/19 64/2/34 55/3/25
f 56/3/26 62/2/32 50/3/20
f 62/2/32 56/3/26 57/2/27
f 64/2/34 51/3/21 55/3/25
f 51/3/21 64/2/34 63/2/33
f 67/4/8 66/4/8 65/4/8
f 66/4/8 67/4/8 68/4/8
f 66/4/8 68/4/8 69/4/8
f 69/4/8 68/4/8 70/4/8
f 69/4/8 70/4/8 71/4/8
f 71/4/8 70/4/8 72/4/8
f 75/6/37 74/5/36 73/5/35
f 74/5/36 75/6/37 76/6/38
f 79/6/41 78/5/40 77/5/39
f 78/5/40 79/6/41 80/6/42
f 80/6/42 81/5/43 78/5/40
f 81/5/43 80/6/42 82/6/44
f 82/6/44 83/5/45 81/5/43
f 83/5/45 82/6/44 84/6/46
f 83/5/45 86/6/48 85/5/47
f 86/6/48 83/5/45 84/6/46
f 85/5/47 88/6/50 87/5/49
f 88/6/50 85/5/47 86/6/48
f 76/6/38 77/5/39 74/5/36
f 77/5/39 76/6/38 79/6/41
f 88/6/50 73/5/35 87/5/49
f 73/5/35 88/6/50 75/6/37
f 81/5/43 70/4/52 68/4/51
f 70/4/52 81/5/43 83/5/45
f 78/5/40 68/4/51 67/4/53
f 68/4/51 78/5/40 81/5/43
f 74/5/36 65/4/55 66/4/54
f 65/4/55 74/5/36 77/5/39
f 73/5/35 66/4/54 69/4/56
f 66/4/54 73/5/35 74/5/36
f 72/4/58 87/5/49 71/4/57
f 87/5/49 72/4/58 85/5/47
f 87/5/49 69/4/56 71/4/57
f 69/4/56 87/5/49 73/5/35
f 70/4/52 85/5/47 72/4/58
f 85/5/47 70/4/52 83/5/45
f 77/5/39 67/4/53 65/4/55
f 67/4/53 77/5/39 78/5/40
f 91/8/59 90/7/59 89/7/59
f 90/7/59 91/8/59 92/8/59
f 95/8/60 94/7/60 93/7/60
f 94/7/60 95/8/60 96/8/60
f 93/7/62 92/8/61 95/8/61
f 92/8/61 93/7/62 90/7/62
f 95/8/61 91/8/63 96/8/63
f 91/8/63 95/8/61 92/8/61
f 91/8/63 94/7/64 96/8/63
f 94/7/64 91/8/63 89/7/64
f 90/7/8 94/7/8 89/7/8
f 94/7/8 90/7/8 93/7/8
f 99/9/67 98/10/66 97/9/65
f 99/9/67 101/9/69 100/10/68
f 99/9/67 100/10/68 98/10/66
f 100/10/72 103/9/71 102/9/70
f 98/10/74 102/9/70 104/9/73
f 100/10/72 102/9/70 98/10/74
f 98/10/77 106/11/76 105/11/75
f 98/10/77 104/9/78 106/11/76
f 100/10/81 108/11/80 107/11/79
f 100/10/81 101/9/82 108/11/80
f 103/9/84 107/11/79 109/11/83
f 100/10/81 107/11/79 103/9/84
f 97/9/86 105/11/75 110/11/85
f 98/10/77 105/11/75 97/9/86
f 103/9/84 111/11/87 102/9/87
f 111/11/87 103/9/84 109/11/83
f 108/11/80 99/9/88 112/11/88
f 99/9/88 108/11/80 101/9/82
f 102/9/87 106/11/76 104/9/78
f 106/11/76 102/9/87 111/11/87
f 110/11/85 99/9/88 97/9/86
f 99/9/88 110/11/85 112/11/88

