# Created by Kenney (www.kenney.nl)

mtllib electricity-pole.mtl

g electricity-pole

v 0.281725 0.4944662 -0.01762522 1 1 1
v 0.281725 0.4405338 -0.01762522 1 1 1
v 0.281725 0.4944662 0.01762478 1 1 1
v 0.281725 0.4405338 0.01762478 1 1 1
v 0.267625 0.4405338 -0.03172522 1 1 1
v 0.267625 0.4944662 -0.03172522 1 1 1
v 0.267625 0.4944662 0.03172478 1 1 1
v 0.267625 0.4405338 0.03172478 1 1 1
v 0.218275 0.4405338 0.01762478 1 1 1
v 0.218275 0.4944662 0.01762478 1 1 1
v 0.232375 0.4405338 0.03172478 1 1 1
v 0.232375 0.4944662 0.03172478 1 1 1
v 0.218275 0.4405338 -0.01762522 1 1 1
v 0.218275 0.4944662 -0.01762522 1 1 1
v 0.232375 0.4405338 -0.03172522 1 1 1
v 0.232375 0.4944662 -0.03172522 1 1 1
v -0.273191 0.508232 -0.0791502 1 1 1
v -0.2757711 0.508232 -0.07292127 1 1 1
v -0.2757711 0.508232 -0.08537913 1 1 1
v -0.282 0.508232 -0.08795924 1 1 1
v -0.282 0.508232 -0.07034116 1 1 1
v -0.2882289 0.508232 -0.08537913 1 1 1
v -0.2882289 0.508232 -0.07292127 1 1 1
v -0.290809 0.508232 -0.0791502 1 1 1
v -0.282 0.500488 -0.0945102 1 1 1
v -0.2711388 0.500488 -0.09001136 1 1 1
v -0.29736 0.500488 -0.0791502 1 1 1
v -0.2928612 0.500488 -0.06828904 1 1 1
v -0.2711388 0.500488 -0.06828904 1 1 1
v -0.282 0.500488 -0.0637902 1 1 1
v -0.2928612 0.500488 -0.09001136 1 1 1
v -0.26664 0.500488 -0.0791502 1 1 1
v -0.2715 0.485 -0.0791502 1 1 1
v -0.2745754 0.485 -0.07173746 1 1 1
v -0.2894246 0.485 -0.07173746 1 1 1
v -0.282 0.485 -0.068667 1 1 1
v -0.282 0.485 -0.0896334 1 1 1
v -0.2745754 0.485 -0.08656294 1 1 1
v -0.2925 0.485 -0.0791502 1 1 1
v -0.2894246 0.485 -0.08656294 1 1 1
v -0.218275 0.4944662 -0.01762522 1 1 1
v -0.218275 0.4405338 -0.01762522 1 1 1
v -0.218275 0.4944662 0.01762478 1 1 1
v -0.218275 0.4405338 0.01762478 1 1 1
v -0.232375 0.4405338 -0.03172522 1 1 1
v -0.232375 0.4944662 -0.03172522 1 1 1
v -0.232375 0.4944662 0.03172478 1 1 1
v -0.232375 0.4405338 0.03172478 1 1 1
v -0.281725 0.4405338 0.01762478 1 1 1
v -0.281725 0.4944662 0.01762478 1 1 1
v -0.267625 0.4405338 0.03172478 1 1 1
v -0.267625 0.4944662 0.03172478 1 1 1
v -0.281725 0.4405338 -0.01762522 1 1 1
v -0.281725 0.4944662 -0.01762522 1 1 1
v -0.267625 0.4405338 -0.03172522 1 1 1
v -0.267625 0.4944662 -0.03172522 1 1 1
v -0.273191 0.508232 0.08085012 1 1 1
v -0.2757711 0.508232 0.08707906 1 1 1
v -0.2757711 0.508232 0.07462119 1 1 1
v -0.282 0.508232 0.07204109 1 1 1
v -0.282 0.508232 0.08965916 1 1 1
v -0.2882289 0.508232 0.07462119 1 1 1
v -0.2882289 0.508232 0.08707906 1 1 1
v -0.290809 0.508232 0.08085012 1 1 1
v -0.282 0.500488 0.06549013 1 1 1
v -0.2711388 0.500488 0.06998897 1 1 1
v -0.29736 0.500488 0.08085012 1 1 1
v -0.2928612 0.500488 0.09171128 1 1 1
v -0.2711388 0.500488 0.09171128 1 1 1
v -0.282 0.500488 0.09621012 1 1 1
v -0.2928612 0.500488 0.06998897 1 1 1
v -0.26664 0.500488 0.08085012 1 1 1
v -0.2715 0.485 0.08085012 1 1 1
v -0.2745754 0.485 0.08826286 1 1 1
v -0.2894246 0.485 0.08826286 1 1 1
v -0.282 0.485 0.09133332 1 1 1
v -0.282 0.485 0.07036693 1 1 1
v -0.2745754 0.485 0.07343739 1 1 1
v -0.2925 0.485 0.08085012 1 1 1
v -0.2894246 0.485 0.07343739 1 1 1
v 0.226809 0.508232 -0.0791502 1 1 1
v 0.2242289 0.508232 -0.07292127 1 1 1
v 0.2242289 0.508232 -0.08537913 1 1 1
v 0.218 0.508232 -0.08795924 1 1 1
v 0.218 0.508232 -0.07034116 1 1 1
v 0.2117711 0.508232 -0.08537913 1 1 1
v 0.2117711 0.508232 -0.07292127 1 1 1
v 0.209191 0.508232 -0.0791502 1 1 1
v 0.218 0.500488 -0.0945102 1 1 1
v 0.2288612 0.500488 -0.09001136 1 1 1
v 0.20264 0.500488 -0.0791502 1 1 1
v 0.2071388 0.500488 -0.06828904 1 1 1
v 0.2288612 0.500488 -0.06828904 1 1 1
v 0.218 0.500488 -0.0637902 1 1 1
v 0.2071388 0.500488 -0.09001136 1 1 1
v 0.23336 0.500488 -0.0791502 1 1 1
v 0.2285 0.485 -0.0791502 1 1 1
v 0.2254246 0.485 -0.07173746 1 1 1
v 0.2105754 0.485 -0.07173746 1 1 1
v 0.218 0.485 -0.068667 1 1 1
v 0.218 0.485 -0.0896334 1 1 1
v 0.2254246 0.485 -0.08656294 1 1 1
v 0.2075 0.485 -0.0791502 1 1 1
v 0.2105754 0.485 -0.08656294 1 1 1
v 0.226809 0.508232 0.08085012 1 1 1
v 0.2242289 0.508232 0.08707906 1 1 1
v 0.2242289 0.508232 0.07462119 1 1 1
v 0.218 0.508232 0.07204109 1 1 1
v 0.218 0.508232 0.08965916 1 1 1
v 0.2117711 0.508232 0.07462119 1 1 1
v 0.2117711 0.508232 0.08707906 1 1 1
v 0.209191 0.508232 0.08085012 1 1 1
v 0.218 0.500488 0.06549013 1 1 1
v 0.2288612 0.500488 0.06998897 1 1 1
v 0.20264 0.500488 0.08085012 1 1 1
v 0.2071388 0.500488 0.09171128 1 1 1
v 0.2288612 0.500488 0.09171128 1 1 1
v 0.218 0.500488 0.09621012 1 1 1
v 0.2071388 0.500488 0.06998897 1 1 1
v 0.23336 0.500488 0.08085012 1 1 1
v 0.2285 0.485 0.08085012 1 1 1
v 0.2254246 0.485 0.08826286 1 1 1
v 0.2105754 0.485 0.08826286 1 1 1
v 0.218 0.485 0.09133332 1 1 1
v 0.218 0.485 0.07036693 1 1 1
v 0.2254246 0.485 0.07343739 1 1 1
v 0.2075 0.485 0.08085012 1 1 1
v 0.2105754 0.485 0.07343739 1 1 1
v -0.1607861 0.4481778 -0.0791502 1 1 1
v -0.2849508 0.4783413 -0.0791502 1 1 1
v -0.1588033 0.4605596 -0.0666502 1 1 1
v -0.282 0.490488 -0.0666502 1 1 1
v -0.1588033 0.4605596 -0.0916502 1 1 1
v -0.282 0.490488 -0.0916502 1 1 1
v -0.1568205 0.4729415 -0.0791502 1 1 1
v -0.2790492 0.5026347 -0.0791502 1 1 1
v -0.032 0.4379486 -0.0791502 1 1 1
v -0.032 0.450488 -0.0666502 1 1 1
v -0.032 0.450488 -0.0916502 1 1 1
v -0.032 0.4630274 -0.0791502 1 1 1
v 0.0967861 0.4481778 -0.0791502 1 1 1
v 0.09480333 0.4605596 -0.0666502 1 1 1
v 0.09480333 0.4605596 -0.0916502 1 1 1
v 0.09282054 0.4729415 -0.0791502 1 1 1
v 0.2209508 0.4783413 -0.0791502 1 1 1
v 0.218 0.490488 -0.0666502 1 1 1
v 0.218 0.490488 -0.0916502 1 1 1
v 0.2150492 0.5026347 -0.0791502 1 1 1
v -0.1607861 0.4481778 0.08085012 1 1 1
v -0.2849508 0.4783413 0.08085012 1 1 1
v -0.1588033 0.4605596 0.09335013 1 1 1
v -0.282 0.490488 0.09335013 1 1 1
v -0.1588033 0.4605596 0.06835012 1 1 1
v -0.282 0.490488 0.06835012 1 1 1
v -0.1568205 0.4729415 0.08085012 1 1 1
v -0.2790492 0.5026347 0.08085012 1 1 1
v -0.032 0.4379486 0.08085012 1 1 1
v -0.032 0.450488 0.09335013 1 1 1
v -0.032 0.450488 0.06835012 1 1 1
v -0.032 0.4630274 0.08085012 1 1 1
v 0.0967861 0.4481778 0.08085012 1 1 1
v 0.09480333 0.4605596 0.09335013 1 1 1
v 0.09480333 0.4605596 0.06835012 1 1 1
v 0.09282054 0.4729415 0.08085012 1 1 1
v 0.2209508 0.4783413 0.08085012 1 1 1
v 0.218 0.490488 0.09335013 1 1 1
v 0.218 0.490488 0.06835012 1 1 1
v 0.2150492 0.5026347 0.08085012 1 1 1
v -0.26625 0.5172285 -0.01625 1 1 1
v -0.25 0.525 -0.0195 1 1 1
v -0.2695 0.5172285 0 1 1 1
v -0.25 0.525 0.0195 1 1 1
v -0.26625 0.5172285 0.01625 1 1 1
v -0.2305 0.5172285 0 1 1 1
v -0.23375 0.5172285 0.01625 1 1 1
v -0.23375 0.5172285 -0.01625 1 1 1
v -0.25 0.117 -0.014625 1 1 1
v -0.2378125 0.117 -0.0121875 1 1 1
v -0.25 0.117 0.014625 1 1 1
v -0.2621875 0.117 0.0121875 1 1 1
v -0.2378125 0.117 0.0121875 1 1 1
v -0.2621875 0.117 -0.0121875 1 1 1
v -0.235375 0.117 0 1 1 1
v -0.264625 0.117 0 1 1 1
v 0.23375 0.5172285 -0.01625 1 1 1
v 0.25 0.525 -0.0195 1 1 1
v 0.2305 0.5172285 0 1 1 1
v 0.25 0.525 0.0195 1 1 1
v 0.23375 0.5172285 0.01625 1 1 1
v 0.2695 0.5172285 0 1 1 1
v 0.26625 0.5172285 0.01625 1 1 1
v 0.26625 0.5172285 -0.01625 1 1 1
v 0.25 0.117 -0.014625 1 1 1
v 0.2621875 0.117 -0.0121875 1 1 1
v 0.25 0.117 0.014625 1 1 1
v 0.2378125 0.117 0.0121875 1 1 1
v 0.2621875 0.117 0.0121875 1 1 1
v 0.2378125 0.117 -0.0121875 1 1 1
v 0.264625 0.117 0 1 1 1
v 0.235375 0.117 0 1 1 1
v -0.2206371 4.511975E-16 -2.252364E-15 1 1 1
v -0.2255309 4.511975E-16 -0.02446909 1 1 1
v -0.2255309 4.511975E-16 0.02446909 1 1 1
v -0.25 4.511975E-16 0.0293629 1 1 1
v -0.25 4.511975E-16 -0.0293629 1 1 1
v -0.2744691 4.511975E-16 0.02446909 1 1 1
v -0.2744691 4.511975E-16 -0.02446909 1 1 1
v -0.2793629 4.511975E-16 -2.252364E-15 1 1 1
v -0.25 0.104 -0.022815 1 1 1
v -0.2309875 0.104 -0.0190125 1 1 1
v -0.25 0.117 -0.014625 1 1 1
v -0.2378125 0.117 -0.0121875 1 1 1
v -0.227185 0.104 2.252364E-15 1 1 1
v -0.2309875 0.104 0.0190125 1 1 1
v -0.235375 0.117 4.504727E-15 1 1 1
v -0.2378125 0.117 0.0121875 1 1 1
v -0.25 0.104 0.022815 1 1 1
v -0.25 0.117 0.014625 1 1 1
v -0.2690125 0.104 0.0190125 1 1 1
v -0.2621875 0.117 0.0121875 1 1 1
v -0.272815 0.104 2.252364E-15 1 1 1
v -0.264625 0.117 4.504727E-15 1 1 1
v -0.2690125 0.104 -0.0190125 1 1 1
v -0.2621875 0.117 -0.0121875 1 1 1
v 0.2793629 4.511975E-16 -2.252364E-15 1 1 1
v 0.2744691 4.511975E-16 -0.02446909 1 1 1
v 0.2744691 4.511975E-16 0.02446909 1 1 1
v 0.25 4.511975E-16 0.0293629 1 1 1
v 0.25 4.511975E-16 -0.0293629 1 1 1
v 0.2255309 4.511975E-16 0.02446909 1 1 1
v 0.2255309 4.511975E-16 -0.02446909 1 1 1
v 0.2206371 4.511975E-16 -2.252364E-15 1 1 1
v 0.25 0.104 -0.022815 1 1 1
v 0.2690125 0.104 -0.0190125 1 1 1
v 0.25 0.117 -0.014625 1 1 1
v 0.2621875 0.117 -0.0121875 1 1 1
v 0.272815 0.104 2.252364E-15 1 1 1
v 0.2690125 0.104 0.0190125 1 1 1
v 0.264625 0.117 4.504727E-15 1 1 1
v 0.2621875 0.117 0.0121875 1 1 1
v 0.25 0.104 0.022815 1 1 1
v 0.25 0.117 0.014625 1 1 1
v 0.2309875 0.104 0.0190125 1 1 1
v 0.2378125 0.117 0.0121875 1 1 1
v 0.227185 0.104 2.252364E-15 1 1 1
v 0.235375 0.117 4.504727E-15 1 1 1
v 0.2309875 0.104 -0.0190125 1 1 1
v 0.2378125 0.117 -0.0121875 1 1 1
v 0.2305 0.46 0.1071125 1 1 1
v 0.2055 0.46 0.1071125 1 1 1
v 0.2305 0.485 0.1071125 1 1 1
v 0.2055 0.485 0.1071125 1 1 1
v 0.2055 0.46 -0.1071125 1 1 1
v 0.2305 0.46 -0.1071125 1 1 1
v 0.2055 0.485 -0.1071125 1 1 1
v 0.2305 0.485 -0.1071125 1 1 1
v -0.2695 0.46 0.1071125 1 1 1
v -0.2945 0.46 0.1071125 1 1 1
v -0.2695 0.485 0.1071125 1 1 1
v -0.2945 0.485 0.1071125 1 1 1
v -0.2945 0.46 -0.1071125 1 1 1
v -0.2695 0.46 -0.1071125 1 1 1
v -0.2945 0.485 -0.1071125 1 1 1
v -0.2695 0.485 -0.1071125 1 1 1

vn 0.9238796 0 -0.3826835
vn 0.9238796 0 0.3826835
vn 0.3826835 0 -0.9238796
vn 0.3826835 0 0.9238796
vn -0.9238796 0 0.3826835
vn -0.3826835 0 0.9238796
vn -0.9238796 0 -0.3826835
vn 0 -1 0
vn -0.3826835 0 -0.9238796
vn 0 1 0
vn 0.4993807 0.8663827 0
vn 0.3531155 0.8663827 0.3531155
vn 0.3531155 0.8663827 -0.3531155
vn 0 0.8663827 -0.4993807
vn 0 0.8663827 0.4993807
vn -0.3531155 0.8663827 -0.3531155
vn -0.3531155 0.8663827 0.3531155
vn -0.4993807 0.8663827 0
vn 0 0.1778029 -0.9840661
vn 0.6957089 0.1779603 -0.6959305
vn -0.9840091 0.1781178 0
vn -0.6957089 0.1779603 0.6959305
vn 0.6957089 0.1779603 0.6959305
vn 0 0.1778029 0.9840661
vn -0.6957089 0.1779603 -0.6959305
vn 0.9840091 0.1781178 0
vn 0.9540789 -0.2995556 0
vn 0.6745248 -0.2998682 0.6746076
vn -0.6745248 -0.2998682 0.6746076
vn 0 -0.3001808 0.9538823
vn 0 -0.3001808 -0.9538823
vn 0.6745248 -0.2998682 -0.6746076
vn -0.9540789 -0.2995556 0
vn -0.6745248 -0.2998682 -0.6746076
vn -0.1581215 -0.9874197 0
vn -0.2360658 -0.9717371 0
vn -0.005645186 -0.03525243 0.9993625
vn 0 0 1
vn -0.005645186 -0.03525243 -0.9993625
vn 0 0 -1
vn 0.1581215 0.9874197 0
vn 0.2360658 0.9717371 0
vn 0 -0.03558254 0.9993668
vn 0 -0.03558254 -0.9993668
vn 0.1581215 -0.9874197 0
vn 0.005645186 -0.03525243 0.9993625
vn 0.005645186 -0.03525243 -0.9993625
vn -0.1581215 0.9874197 0
vn 0.2360658 -0.9717371 0
vn -0.2360658 0.9717371 0
vn -0.444139 0.8915437 -0.0888278
vn -0.4012946 0.9152196 -0.03654768
vn -0.4054329 0.9141248 0
vn -0.4012946 0.9152196 0.03654768
vn -0.444139 0.8915437 0.0888278
vn 0.4054329 0.9141248 0
vn 0.444139 0.8915437 0.0888278
vn 0.4012946 0.9152196 0.03654768
vn 0.444139 0.8915437 -0.0888278
vn 0.4012946 0.9152196 -0.03654768
vn 7.252561E-05 -0.01206061 -0.9999273
vn 0.7069837 -0.01422028 -0.7070868
vn 3.509057E-05 -0.01203191 -0.9999276
vn 0.6443677 -0.01430147 -0.7645821
vn -7.252561E-05 -0.01206061 0.9999273
vn -0.7069837 -0.01422028 0.7070868
vn -3.509057E-05 -0.01203191 0.9999276
vn -0.6443677 -0.01430147 0.7645821
vn 0.707034 -0.01435343 0.707034
vn 0.6444425 -0.01418832 0.7645211
vn -0.707034 -0.01435343 -0.707034
vn -0.6444425 -0.01418832 -0.7645211
vn 0.9999259 -0.01217964 0
vn -0.9999259 -0.01217964 0
vn 0 0.3053494 -0.9522403
vn 0.6672045 0.3311742 -0.6672045
vn 0 0.5330377 -0.8460915
vn 0.567733 0.5961196 -0.567733
vn 0.9522403 0.3053494 0
vn 0.6672045 0.3311742 0.6672045
vn 0.8460915 0.5330377 0
vn 0.567733 0.5961196 0.567733
vn 0 0.3053494 0.9522403
vn 0 0.5330377 0.8460915
vn -0.6672045 0.3311742 0.6672045
vn -0.567733 0.5961196 0.567733
vn -0.9522403 0.3053494 0
vn -0.8460915 0.5330377 0
vn -0.6672045 0.3311742 -0.6672045
vn -0.567733 0.5961196 -0.567733
vn 0 0.0628362 0.9980238
vn -0.7051682 0.07399638 0.7051682
vn 0.7051682 0.07399638 0.7051682
vn 0.7051682 0.07399638 -0.7051682
vn 0.9980238 0.0628362 0
vn 0 0.0628362 -0.9980238
vn -0.7051682 0.07399638 -0.7051682
vn -0.9980238 0.0628362 0
vn -0.7071068 0.7071068 0
vn -1 0 0
vn 0.7071068 0.7071068 0
vn 1 0 0

vt 0.34375 0.225
vt 0.34375 0.025
vt 0.34375 0.1583333
vt 0.34375 0.0566269
vt 0.34375 0.1498882
vt 0.34375 0.09490988
vt 0.34375 0.1874441
vt 0.34375 0.1331929
vt 0.34375 0.0637699
vt 0.34375 0.1025398
vt 0.71875 0.4711905
vt 0.71875 0.475
vt 0.71875 0.275
vt 0.46875 0.275
vt 0.46875 0.4527778
vt 0.46875 0.475
vt 0.46875 0.325
vt 0.46875 0.425

usemtl colormap

f 3/1/2 2/2/1 1/1/1
f 2/2/1 3/1/2 4/2/2
f 6/1/3 2/2/1 5/2/3
f 2/2/1 6/1/3 1/1/1
f 7/1/4 4/2/2 3/1/2
f 4/2/2 7/1/4 8/2/4
f 11/2/6 10/1/5 9/2/5
f 10/1/5 11/2/6 12/1/6
f 7/1/4 11/2/6 8/2/4
f 11/2/6 7/1/4 12/1/6
f 9/2/5 14/1/7 13/2/7
f 14/1/7 9/2/5 10/1/5
f 8/2/8 2/2/8 4/2/8
f 2/2/8 8/2/8 5/2/8
f 5/2/8 8/2/8 11/2/8
f 5/2/8 11/2/8 15/2/8
f 15/2/8 11/2/8 9/2/8
f 15/2/8 9/2/8 13/2/8
f 16/1/9 5/2/3 15/2/9
f 5/2/3 16/1/9 6/1/3
f 1/1/10 7/1/10 3/1/10
f 7/1/10 1/1/10 6/1/10
f 7/1/10 6/1/10 12/1/10
f 12/1/10 6/1/10 16/1/10
f 12/1/10 16/1/10 10/1/10
f 10/1/10 16/1/10 14/1/10
f 13/2/7 16/1/9 15/2/9
f 16/1/9 13/2/7 14/1/7
f 19/1/13 18/1/12 17/1/11
f 18/1/12 19/1/13 20/1/14
f 18/1/12 20/1/14 21/1/15
f 21/1/15 20/1/14 22/1/16
f 21/1/15 22/1/16 23/1/17
f 23/1/17 22/1/16 24/1/18
f 20/1/14 26/3/20 25/3/19
f 26/3/20 20/1/14 19/1/13
f 27/3/21 23/1/17 24/1/18
f 23/1/17 27/3/21 28/3/22
f 18/1/12 30/3/24 29/3/23
f 30/3/24 18/1/12 21/1/15
f 31/3/25 20/1/14 25/3/19
f 20/1/14 31/3/25 22/1/16
f 19/1/13 32/3/26 26/3/20
f 32/3/26 19/1/13 17/1/11
f 27/3/21 22/1/16 31/3/25
f 22/1/16 27/3/21 24/1/18
f 30/3/24 23/1/17 28/3/22
f 23/1/17 30/3/24 21/1/15
f 18/1/12 32/3/26 17/1/11
f 32/3/26 18/1/12 29/3/23
f 29/3/23 33/2/27 32/3/26
f 33/2/27 29/3/23 34/2/28
f 36/2/30 28/3/22 35/2/29
f 28/3/22 36/2/30 30/3/24
f 25/3/19 38/2/32 37/2/31
f 38/2/32 25/3/19 26/3/20
f 39/2/33 28/3/22 27/3/21
f 28/3/22 39/2/33 35/2/29
f 29/3/23 36/2/30 34/2/28
f 36/2/30 29/3/23 30/3/24
f 40/2/34 25/3/19 37/2/31
f 25/3/19 40/2/34 31/3/25
f 32/3/26 38/2/32 26/3/20
f 38/2/32 32/3/26 33/2/27
f 40/2/34 27/3/21 31/3/25
f 27/3/21 40/2/34 39/2/33
f 43/1/2 42/2/1 41/1/1
f 42/2/1 43/1/2 44/2/2
f 46/1/3 42/2/1 45/2/3
f 42/2/1 46/1/3 41/1/1
f 47/1/4 44/2/2 43/1/2
f 44/2/2 47/1/4 48/2/4
f 51/2/6 50/1/5 49/2/5
f 50/1/5 51/2/6 52/1/6
f 47/1/4 51/2/6 48/2/4
f 51/2/6 47/1/4 52/1/6
f 49/2/5 54/1/7 53/2/7
f 54/1/7 49/2/5 50/1/5
f 48/2/8 42/2/8 44/2/8
f 42/2/8 48/2/8 45/2/8
f 45/2/8 48/2/8 51/2/8
f 45/2/8 51/2/8 55/2/8
f 55/2/8 51/2/8 49/2/8
f 55/2/8 49/2/8 53/2/8
f 56/1/9 45/2/3 55/2/9
f 45/2/3 56/1/9 46/1/3
f 41/1/10 47/1/10 43/1/10
f 47/1/10 41/1/10 46/1/10
f 47/1/10 46/1/10 52/1/10
f 52/1/10 46/1/10 56/1/10
f 52/1/10 56/1/10 50/1/10
f 50/1/10 56/1/10 54/1/10
f 53/2/7 56/1/9 55/2/9
f 56/1/9 53/2/7 54/1/7
f 59/1/13 58/1/12 57/1/11
f 58/1/12 59/1/13 60/1/14
f 58/1/12 60/1/14 61/1/15
f 61/1/15 60/1/14 62/1/16
f 61/1/15 62/1/16 63/1/17
f 63/1/17 62/1/16 64/1/18
f 60/1/14 66/3/20 65/3/19
f 66/3/20 60/1/14 59/1/13
f 67/3/21 63/1/17 64/1/18
f 63/1/17 67/3/21 68/3/22
f 58/1/12 70/3/24 69/3/23
f 70/3/24 58/1/12 61/1/15
f 71/3/25 60/1/14 65/3/19
f 60/1/14 71/3/25 62/1/16
f 59/1/13 72/3/26 66/3/20
f 72/3/26 59/1/13 57/1/11
f 67/3/21 62/1/16 71/3/25
f 62/1/16 67/3/21 64/1/18
f 70/3/24 63/1/17 68/3/22
f 63/1/17 70/3/24 61/1/15
f 58/1/12 72/3/26 57/1/11
f 72/3/26 58/1/12 69/3/23
f 69/3/23 73/2/27 72/3/26
f 73/2/27 69/3/23 74/2/28
f 76/2/30 68/3/22 75/2/29
f 68/3/22 76/2/30 70/3/24
f 65/3/19 78/2/32 77/2/31
f 78/2/32 65/3/19 66/3/20
f 79/2/33 68/3/22 67/3/21
f 68/3/22 79/2/33 75/2/29
f 69/3/23 76/2/30 74/2/28
f 76/2/30 69/3/23 70/3/24
f 80/2/34 65/3/19 77/2/31
f 65/3/19 80/2/34 71/3/25
f 72/3/26 78/2/32 66/3/20
f 78/2/32 72/3/26 73/2/27
f 80/2/34 67/3/21 71/3/25
f 67/3/21 80/2/34 79/2/33
f 83/1/13 82/1/12 81/1/11
f 82/1/12 83/1/13 84/1/14
f 82/1/12 84/1/14 85/1/15
f 85/1/15 84/1/14 86/1/16
f 85/1/15 86/1/16 87/1/17
f 87/1/17 86/1/16 88/1/18
f 84/1/14 90/3/20 89/3/19
f 90/3/20 84/1/14 83/1/13
f 91/3/21 87/1/17 88/1/18
f 87/1/17 91/3/21 92/3/22
f 82/1/12 94/3/24 93/3/23
f 94/3/24 82/1/12 85/1/15
f 95/3/25 84/1/14 89/3/19
f 84/1/14 95/3/25 86/1/16
f 83/1/13 96/3/26 90/3/20
f 96/3/26 83/1/13 81/1/11
f 91/3/21 86/1/16 95/3/25
f 86/1/16 91/3/21 88/1/18
f 94/3/24 87/1/17 92/3/22
f 87/1/17 94/3/24 85/1/15
f 82/1/12 96/3/26 81/1/11
f 96/3/26 82/1/12 93/3/23
f 93/3/23 97/2/27 96/3/26
f 97/2/27 93/3/23 98/2/28
f 100/2/30 92/3/22 99/2/29
f 92/3/22 100/2/30 94/3/24
f 89/3/19 102/2/32 101/2/31
f 102/2/32 89/3/19 90/3/20
f 103/2/33 92/3/22 91/3/21
f 92/3/22 103/2/33 99/2/29
f 93/3/23 100/2/30 98/2/28
f 100/2/30 93/3/23 94/3/24
f 104/2/34 89/3/19 101/2/31
f 89/3/19 104/2/34 95/3/25
f 96/3/26 102/2/32 90/3/20
f 102/2/32 96/3/26 97/2/27
f 104/2/34 91/3/21 95/3/25
f 91/3/21 104/2/34 103/2/33
f 107/1/13 106/1/12 105/1/11
f 106/1/12 107/1/13 108/1/14
f 106/1/12 108/1/14 109/1/15
f 109/1/15 108/1/14 110/1/16
f 109/1/15 110/1/16 111/1/17
f 111/1/17 110/1/16 112/1/18
f 108/1/14 114/3/20 113/3/19
f 114/3/20 108/1/14 107/1/13
f 115/3/21 111/1/17 112/1/18
f 111/1/17 115/3/21 116/3/22
f 106/1/12 118/3/24 117/3/23
f 118/3/24 106/1/12 109/1/15
f 119/3/25 108/1/14 113/3/19
f 108/1/14 119/3/25 110/1/16
f 107/1/13 120/3/26 114/3/20
f 120/3/26 107/1/13 105/1/11
f 115/3/21 110/1/16 119/3/25
f 110/1/16 115/3/21 112/1/18
f 118/3/24 111/1/17 116/3/22
f 111/1/17 118/3/24 109/1/15
f 106/1/12 120/3/26 105/1/11
f 120/3/26 106/1/12 117/3/23
f 117/3/23 121/2/27 120/3/26
f 121/2/27 117/3/23 122/2/28
f 124/2/30 116/3/22 123/2/29
f 116/3/22 124/2/30 118/3/24
f 113/3/19 126/2/32 125/2/31
f 126/2/32 113/3/19 114/3/20
f 127/2/33 116/3/22 115/3/21
f 116/3/22 127/2/33 123/2/29
f 117/3/23 124/2/30 122/2/28
f 124/2/30 117/3/23 118/3/24
f 128/2/34 113/3/19 125/2/31
f 113/3/19 128/2/34 119/3/25
f 120/3/26 126/2/32 114/3/20
f 126/2/32 120/3/26 121/2/27
f 128/2/34 115/3/21 119/3/25
f 115/3/21 128/2/34 127/2/33
f 131/6/37 130/5/36 129/4/35
f 130/5/36 131/6/37 132/7/38
f 130/5/36 133/6/39 129/4/35
f 133/6/39 130/5/36 134/7/40
f 134/7/40 135/8/41 133/6/39
f 135/8/41 134/7/40 136/1/42
f 135/8/41 132/7/38 131/6/37
f 132/7/38 135/8/41 136/1/42
f 138/9/43 129/4/35 137/2/8
f 129/4/35 138/9/43 131/6/37
f 129/4/35 139/9/44 137/2/8
f 139/9/44 129/4/35 133/6/39
f 133/6/39 140/10/10 139/9/44
f 140/10/10 133/6/39 135/8/41
f 140/10/10 131/6/37 138/9/43
f 131/6/37 140/10/10 135/8/41
f 141/4/45 138/9/43 137/2/8
f 138/9/43 141/4/45 142/6/46
f 139/9/44 141/4/45 137/2/8
f 141/4/45 139/9/44 143/6/47
f 140/10/10 143/6/47 139/9/44
f 143/6/47 140/10/10 144/8/48
f 142/6/46 140/10/10 138/9/43
f 140/10/10 142/6/46 144/8/48
f 145/5/49 142/6/46 141/4/45
f 142/6/46 145/5/49 146/7/38
f 143/6/47 145/5/49 141/4/45
f 145/5/49 143/6/47 147/7/40
f 144/8/48 147/7/40 143/6/47
f 147/7/40 144/8/48 148/1/50
f 146/7/38 144/8/48 142/6/46
f 144/8/48 146/7/38 148/1/50
f 151/6/37 150/5/36 149/4/35
f 150/5/36 151/6/37 152/7/38
f 150/5/36 153/6/39 149/4/35
f 153/6/39 150/5/36 154/7/40
f 154/7/40 155/8/41 153/6/39
f 155/8/41 154/7/40 156/1/42
f 155/8/41 152/7/38 151/6/37
f 152/7/38 155/8/41 156/1/42
f 158/9/43 149/4/35 157/2/8
f 149/4/35 158/9/43 151/6/37
f 149/4/35 159/9/44 157/2/8
f 159/9/44 149/4/35 153/6/39
f 153/6/39 160/10/10 159/9/44
f 160/10/10 153/6/39 155/8/41
f 160/10/10 151/6/37 158/9/43
f 151/6/37 160/10/10 155/8/41
f 161/4/45 158/9/43 157/2/8
f 158/9/43 161/4/45 162/6/46
f 159/9/44 161/4/45 157/2/8
f 161/4/45 159/9/44 163/6/47
f 160/10/10 163/6/47 159/9/44
f 163/6/47 160/10/10 164/8/48
f 162/6/46 160/10/10 158/9/43
f 160/10/10 162/6/46 164/8/48
f 165/5/49 162/6/46 161/4/45
f 162/6/46 165/5/49 166/7/38
f 163/6/47 165/5/49 161/4/45
f 165/5/49 163/6/47 167/7/40
f 164/8/48 167/7/40 163/6/47
f 167/7/40 164/8/48 168/1/50
f 166/7/38 164/8/48 162/6/46
f 164/8/48 166/7/38 168/1/50
f 171/11/53 170/12/52 169/11/51
f 171/11/53 173/11/55 172/12/54
f 171/11/53 172/12/54 170/12/52
f 172/12/58 175/11/57 174/11/56
f 170/12/60 174/11/56 176/11/59
f 172/12/58 174/11/56 170/12/60
f 170/12/63 178/13/62 177/13/61
f 170/12/63 176/11/64 178/13/62
f 172/12/67 180/13/66 179/13/65
f 172/12/67 173/11/68 180/13/66
f 175/11/70 179/13/65 181/13/69
f 172/12/67 179/13/65 175/11/70
f 169/11/72 177/13/61 182/13/71
f 170/12/63 177/13/61 169/11/72
f 175/11/70 183/13/73 174/11/73
f 183/13/73 175/11/70 181/13/69
f 180/13/66 171/11/74 184/13/74
f 171/11/74 180/13/66 173/11/68
f 174/11/73 178/13/62 176/11/64
f 178/13/62 174/11/73 183/13/73
f 182/13/71 171/11/74 169/11/72
f 171/11/74 182/13/71 184/13/74
f 187/11/53 186/12/52 185/11/51
f 187/11/53 189/11/55 188/12/54
f 187/11/53 188/12/54 186/12/52
f 188/12/58 191/11/57 190/11/56
f 186/12/60 190/11/56 192/11/59
f 188/12/58 190/11/56 186/12/60
f 186/12/63 194/13/62 193/13/61
f 186/12/63 192/11/64 194/13/62
f 188/12/67 196/13/66 195/13/65
f 188/12/67 189/11/68 196/13/66
f 191/11/70 195/13/65 197/13/69
f 188/12/67 195/13/65 191/11/70
f 185/11/72 193/13/61 198/13/71
f 186/12/63 193/13/61 185/11/72
f 191/11/70 199/13/73 190/11/73
f 199/13/73 191/11/70 197/13/69
f 196/13/66 187/11/74 200/13/74
f 187/11/74 196/13/66 189/11/68
f 190/11/73 194/13/62 192/11/64
f 194/13/62 190/11/73 199/13/73
f 198/13/71 187/11/74 185/11/72
f 187/11/74 198/13/71 200/13/74
f 203/14/8 202/14/8 201/14/8
f 202/14/8 203/14/8 204/14/8
f 202/14/8 204/14/8 205/14/8
f 205/14/8 204/14/8 206/14/8
f 205/14/8 206/14/8 207/14/8
f 207/14/8 206/14/8 208/14/8
f 211/16/77 210/15/76 209/15/75
f 210/15/76 211/16/77 212/16/78
f 215/16/81 214/15/80 213/15/79
f 214/15/80 215/16/81 216/16/82
f 216/16/82 217/15/83 214/15/80
f 217/15/83 216/16/82 218/16/84
f 218/16/84 219/15/85 217/15/83
f 219/15/85 218/16/84 220/16/86
f 219/15/85 222/16/88 221/15/87
f 222/16/88 219/15/85 220/16/86
f 221/15/87 224/16/90 223/15/89
f 224/16/90 221/15/87 222/16/88
f 212/16/78 213/15/79 210/15/76
f 213/15/79 212/16/78 215/16/81
f 224/16/90 209/15/75 223/15/89
f 209/15/75 224/16/90 211/16/77
f 217/15/83 206/14/92 204/14/91
f 206/14/92 217/15/83 219/15/85
f 214/15/80 204/14/91 203/14/93
f 204/14/91 214/15/80 217/15/83
f 210/15/76 201/14/95 202/14/94
f 201/14/95 210/15/76 213/15/79
f 209/15/75 202/14/94 205/14/96
f 202/14/94 209/15/75 210/15/76
f 208/14/98 223/15/89 207/14/97
f 223/15/89 208/14/98 221/15/87
f 223/15/89 205/14/96 207/14/97
f 205/14/96 223/15/89 209/15/75
f 206/14/92 221/15/87 208/14/98
f 221/15/87 206/14/92 219/15/85
f 213/15/79 203/14/93 201/14/95
f 203/14/93 213/15/79 214/15/80
f 227/14/8 226/14/8 225/14/8
f 226/14/8 227/14/8 228/14/8
f 226/14/8 228/14/8 229/14/8
f 229/14/8 228/14/8 230/14/8
f 229/14/8 230/14/8 231/14/8
f 231/14/8 230/14/8 232/14/8
f 235/16/77 234/15/76 233/15/75
f 234/15/76 235/16/77 236/16/78
f 239/16/81 238/15/80 237/15/79
f 238/15/80 239/16/81 240/16/82
f 240/16/82 241/15/83 238/15/80
f 241/15/83 240/16/82 242/16/84
f 242/16/84 243/15/85 241/15/83
f 243/15/85 242/16/84 244/16/86
f 243/15/85 246/16/88 245/15/87
f 246/16/88 243/15/85 244/16/86
f 245/15/87 248/16/90 247/15/89
f 248/16/90 245/15/87 246/16/88
f 236/16/78 237/15/79 234/15/76
f 237/15/79 236/16/78 239/16/81
f 248/16/90 233/15/75 247/15/89
f 233/15/75 248/16/90 235/16/77
f 241/15/83 230/14/92 228/14/91
f 230/14/92 241/15/83 243/15/85
f 238/15/80 228/14/91 227/14/93
f 228/14/91 238/15/80 241/15/83
f 234/15/76 225/14/95 226/14/94
f 225/14/95 234/15/76 237/15/79
f 233/15/75 226/14/94 229/14/96
f 226/14/94 233/15/75 234/15/76
f 232/14/98 247/15/89 231/14/97
f 247/15/89 232/14/98 245/15/87
f 247/15/89 229/14/96 231/14/97
f 229/14/96 247/15/89 233/15/75
f 230/14/92 245/15/87 232/14/98
f 245/15/87 230/14/92 243/15/85
f 237/15/79 227/14/93 225/14/95
f 227/14/93 237/15/79 238/15/80
f 251/18/38 250/17/38 249/17/38
f 250/17/38 251/18/38 252/18/38
f 255/18/40 254/17/40 253/17/40
f 254/17/40 255/18/40 256/18/40
f 253/17/100 252/18/99 255/18/99
f 252/18/99 253/17/100 250/17/100
f 255/18/99 251/18/101 256/18/101
f 251/18/101 255/18/99 252/18/99
f 251/18/101 254/17/102 256/18/101
f 254/17/102 251/18/101 249/17/102
f 250/17/8 254/17/8 249/17/8
f 254/17/8 250/17/8 253/17/8
f 259/18/38 258/17/38 257/17/38
f 258/17/38 259/18/38 260/18/38
f 263/18/40 262/17/40 261/17/40
f 262/17/40 263/18/40 264/18/40
f 261/17/100 260/18/99 263/18/99
f 260/18/99 261/17/100 258/17/100
f 263/18/99 259/18/101 264/18/101
f 259/18/101 263/18/99 260/18/99
f 259/18/101 262/17/102 264/18/101
f 262/17/102 259/18/101 257/17/102
f 258/17/8 262/17/8 257/17/8
f 262/17/8 258/17/8 261/17/8

g electricity-pole




usemtl colormap

f 3/1/2 2/2/1 1/1/1
f 2/2/1 3/1/2 4/2/2
f 6/1/3 2/2/1 5/2/3
f 2/2/1 6/1/3 1/1/1
f 7/1/4 4/2/2 3/1/2
f 4/2/2 7/1/4 8/2/4
f 11/2/6 10/1/5 9/2/5
f 10/1/5 11/2/6 12/1/6
f 7/1/4 11/2/6 8/2/4
f 11/2/6 7/1/4 12/1/6
f 9/2/5 14/1/7 13/2/7
f 14/1/7 9/2/5 10/1/5
f 8/2/8 2/2/8 4/2/8
f 2/2/8 8/2/8 5/2/8
f 5/2/8 8/2/8 11/2/8
f 5/2/8 11/2/8 15/2/8
f 15/2/8 11/2/8 9/2/8
f 15/2/8 9/2/8 13/2/8
f 16/1/9 5/2/3 15/2/9
f 5/2/3 16/1/9 6/1/3
f 1/1/10 7/1/10 3/1/10
f 7/1/10 1/1/10 6/1/10
f 7/1/10 6/1/10 12/1/10
f 12/1/10 6/1/10 16/1/10
f 12/1/10 16/1/10 10/1/10
f 10/1/10 16/1/10 14/1/10
f 13/2/7 16/1/9 15/2/9
f 16/1/9 13/2/7 14/1/7
f 19/1/13 18/1/12 17/1/11
f 18/1/12 19/1/13 20/1/14
f 18/1/12 20/1/14 21/1/15
f 21/1/15 20/1/14 22/1/16
f 21/1/15 22/1/16 23/1/17
f 23/1/17 22/1/16 24/1/18
f 20/1/14 26/3/20 25/3/19
f 26/3/20 20/1/14 19/1/13
f 27/3/21 23/1/17 24/1/18
f 23/1/17 27/3/21 28/3/22
f 18/1/12 30/3/24 29/3/23
f 30/3/24 18/1/12 21/1/15
f 31/3/25 20/1/14 25/3/19
f 20/1/14 31/3/25 22/1/16
f 19/1/13 32/3/26 26/3/20
f 32/3/26 19/1/13 17/1/11
f 27/3/21 22/1/16 31/3/25
f 22/1/16 27/3/21 24/1/18
f 30/3/24 23/1/17 28/3/22
f 23/1/17 30/3/24 21/1/15
f 18/1/12 32/3/26 17/1/11
f 32/3/26 18/1/12 29/3/23
f 29/3/23 33/2/27 32/3/26
f 33/2/27 29/3/23 34/2/28
f 36/2/30 28/3/22 35/2/29
f 28/3/22 36/2/30 30/3/24
f 25/3/19 38/2/32 37/2/31
f 38/2/32 25/3/19 26/3/20
f 39/2/33 28/3/22 27/3/21
f 28/3/22 39/2/33 35/2/29
f 29/3/23 36/2/30 34/2/28
f 36/2/30 29/3/23 30/3/24
f 40/2/34 25/3/19 37/2/31
f 25/3/19 40/2/34 31/3/25
f 32/3/26 38/2/32 26/3/20
f 38/2/32 32/3/26 33/2/27
f 40/2/34 27/3/21 31/3/25
f 27/3/21 40/2/34 39/2/33
f 43/1/2 42/2/1 41/1/1
f 42/2/1 43/1/2 44/2/2
f 46/1/3 42/2/1 45/2/3
f 42/2/1 46/1/3 41/1/1
f 47/1/4 44/2/2 43/1/2
f 44/2/2 47/1/4 48/2/4
f 51/2/6 50/1/5 49/2/5
f 50/1/5 51/2/6 52/1/6
f 47/1/4 51/2/6 48/2/4
f 51/2/6 47/1/4 52/1/6
f 49/2/5 54/1/7 53/2/7
f 54/1/7 49/2/5 50/1/5
f 48/2/8 42/2/8 44/2/8
f 42/2/8 48/2/8 45/2/8
f 45/2/8 48/2/8 51/2/8
f 45/2/8 51/2/8 55/2/8
f 55/2/8 51/2/8 49/2/8
f 55/2/8 49/2/8 53/2/8
f 56/1/9 45/2/3 55/2/9
f 45/2/3 56/1/9 46/1/3
f 41/1/10 47/1/10 43/1/10
f 47/1/10 41/1/10 46/1/10
f 47/1/10 46/1/10 52/1/10
f 52/1/10 46/1/10 56/1/10
f 52/1/10 56/1/10 50/1/10
f 50/1/10 56/1/10 54/1/10
f 53/2/7 56/1/9 55/2/9
f 56/1/9 53/2/7 54/1/7
f 59/1/13 58/1/12 57/1/11
f 58/1/12 59/1/13 60/1/14
f 58/1/12 60/1/14 61/1/15
f 61/1/15 60/1/14 62/1/16
f 61/1/15 62/1/16 63/1/17
f 63/1/17 62/1/16 64/1/18
f 60/1/14 66/3/20 65/3/19
f 66/3/20 60/1/14 59/1/13
f 67/3/21 63/1/17 64/1/18
f 63/1/17 67/3/21 68/3/22
f 58/1/12 70/3/24 69/3/23
f 70/3/24 58/1/12 61/1/15
f 71/3/25 60/1/14 65/3/19
f 60/1/14 71/3/25 62/1/16
f 59/1/13 72/3/26 66/3/20
f 72/3/26 59/1/13 57/1/11
f 67/3/21 62/1/16 71/3/25
f 62/1/16 67/3/21 64/1/18
f 70/3/24 63/1/17 68/3/22
f 63/1/17 70/3/24 61/1/15
f 58/1/12 72/3/26 57/1/11
f 72/3/26 58/1/12 69/3/23
f 69/3/23 73/2/27 72/3/26
f 73/2/27 69/3/23 74/2/28
f 76/2/30 68/3/22 75/2/29
f 68/3/22 76/2/30 70/3/24
f 65/3/19 78/2/32 77/2/31
f 78/2/32 65/3/19 66/3/20
f 79/2/33 68/3/22 67/3/21
f 68/3/22 79/2/33 75/2/29
f 69/3/23 76/2/30 74/2/28
f 76/2/30 69/3/23 70/3/24
f 80/2/34 65/3/19 77/2/31
f 65/3/19 80/2/34 71/3/25
f 72/3/26 78/2/32 66/3/20
f 78/2/32 72/3/26 73/2/27
f 80/2/34 67/3/21 71/3/25
f 67/3/21 80/2/34 79/2/33
f 83/1/13 82/1/12 81/1/11
f 82/1/12 83/1/13 84/1/14
f 82/1/12 84/1/14 85/1/15
f 85/1/15 84/1/14 86/1/16
f 85/1/15 86/1/16 87/1/17
f 87/1/17 86/1/16 88/1/18
f 84/1/14 90/3/20 89/3/19
f 90/3/20 84/1/14 83/1/13
f 91/3/21 87/1/17 88/1/18
f 87/1/17 91/3/21 92/3/22
f 82/1/12 94/3/24 93/3/23
f 94/3/24 82/1/12 85/1/15
f 95/3/25 84/1/14 89/3/19
f 84/1/14 95/3/25 86/1/16
f 83/1/13 96/3/26 90/3/20
f 96/3/26 83/1/13 81/1/11
f 91/3/21 86/1/16 95/3/25
f 86/1/16 91/3/21 88/1/18
f 94/3/24 87/1/17 92/3/22
f 87/1/17 94/3/24 85/1/15
f 82/1/12 96/3/26 81/1/11
f 96/3/26 82/1/12 93/3/23
f 93/3/23 97/2/27 96/3/26
f 97/2/27 93/3/23 98/2/28
f 100/2/30 92/3/22 99/2/29
f 92/3/22 100/2/30 94/3/24
f 89/3/19 102/2/32 101/2/31
f 102/2/32 89/3/19 90/3/20
f 103/2/33 92/3/22 91/3/21
f 92/3/22 103/2/33 99/2/29
f 93/3/23 100/2/30 98/2/28
f 100/2/30 93/3/23 94/3/24
f 104/2/34 89/3/19 101/2/31
f 89/3/19 104/2/34 95/3/25
f 96/3/26 102/2/32 90/3/20
f 102/2/32 96/3/26 97/2/27
f 104/2/34 91/3/21 95/3/25
f 91/3/21 104/2/34 103/2/33
f 107/1/13 106/1/12 105/1/11
f 106/1/12 107/1/13 108/1/14
f 106/1/12 108/1/14 109/1/15
f 109/1/15 108/1/14 110/1/16
f 109/1/15 110/1/16 111/1/17
f 111/1/17 110/1/16 112/1/18
f 108/1/14 114/3/20 113/3/19
f 114/3/20 108/1/14 107/1/13
f 115/3/21 111/1/17 112/1/18
f 111/1/17 115/3/21 116/3/22
f 106/1/12 118/3/24 117/3/23
f 118/3/24 106/1/12 109/1/15
f 119/3/25 108/1/14 113/3/19
f 108/1/14 119/3/25 110/1/16
f 107/1/13 120/3/26 114/3/20
f 120/3/26 107/1/13 105/1/11
f 115/3/21 110/1/16 119/3/25
f 110/1/16 115/3/21 112/1/18
f 118/3/24 111/1/17 116/3/22
f 111/1/17 118/3/24 109/1/15
f 106/1/12 120/3/26 105/1/11
f 120/3/26 106/1/12 117/3/23
f 117/3/23 121/2/27 120/3/26
f 121/2/27 117/3/23 122/2/28
f 124/2/30 116/3/22 123/2/29
f 116/3/22 124/2/30 118/3/24
f 113/3/19 126/2/32 125/2/31
f 126/2/32 113/3/19 114/3/20
f 127/2/33 116/3/22 115/3/21
f 116/3/22 127/2/33 123/2/29
f 117/3/23 124/2/30 122/2/28
f 124/2/30 117/3/23 118/3/24
f 128/2/34 113/3/19 125/2/31
f 113/3/19 128/2/34 119/3/25
f 120/3/26 126/2/32 114/3/20
f 126/2/32 120/3/26 121/2/27
f 128/2/34 115/3/21 119/3/25
f 115/3/21 128/2/34 127/2/33
f 131/6/37 130/5/36 129/4/35
f 130/5/36 131/6/37 132/7/38
f 130/5/36 133/6/39 129/4/35
f 133/6/39 130/5/36 134/7/40
f 134/7/40 135/8/41 133/6/39
f 135/8/41 134/7/40 136/1/42
f 135/8/41 132/7/38 131/6/37
f 132/7/38 135/8/41 136/1/42
f 138/9/43 129/4/35 137/2/8
f 129/4/35 138/9/43 131/6/37
f 129/4/35 139/9/44 137/2/8
f 139/9/44 129/4/35 133/6/39
f 133/6/39 140/10/10 139/9/44
f 140/10/10 133/6/39 135/8/41
f 140/10/10 131/6/37 138/9/43
f 131/6/37 140/10/10 135/8/41
f 141/4/45 138/9/43 137/2/8
f 138/9/43 141/4/45 142/6/46
f 139/9/44 141/4/45 137/2/8
f 141/4/45 139/9/44 143/6/47
f 140/10/10 143/6/47 139/9/44
f 143/6/47 140/10/10 144/8/48
f 142/6/46 140/10/10 138/9/43
f 140/10/10 142/6/46 144/8/48
f 145/5/49 142/6/46 141/4/45
f 142/6/46 145/5/49 146/7/38
f 143/6/47 145/5/49 141/4/45
f 145/5/49 143/6/47 147/7/40
f 144/8/48 147/7/40 143/6/47
f 147/7/40 144/8/48 148/1/50
f 146/7/38 144/8/48 142/6/46
f 144/8/48 146/7/38 148/1/50
f 151/6/37 150/5/36 149/4/35
f 150/5/36 151/6/37 152/7/38
f 150/5/36 153/6/39 149/4/35
f 153/6/39 150/5/36 154/7/40
f 154/7/40 155/8/41 153/6/39
f 155/8/41 154/7/40 156/1/42
f 155/8/41 152/7/38 151/6/37
f 152/7/38 155/8/41 156/1/42
f 158/9/43 149/4/35 157/2/8
f 149/4/35 158/9/43 151/6/37
f 149/4/35 159/9/44 157/2/8
f 159/9/44 149/4/35 153/6/39
f 153/6/39 160/10/10 159/9/44
f 160/10/10 153/6/39 155/8/41
f 160/10/10 151/6/37 158/9/43
f 151/6/37 160/10/10 155/8/41
f 161/4/45 158/9/43 157/2/8
f 158/9/43 161/4/45 162/6/46
f 159/9/44 161/4/45 157/2/8
f 161/4/45 159/9/44 163/6/47
f 160/10/10 163/6/47 159/9/44
f 163/6/47 160/10/10 164/8/48
f 162/6/46 160/10/10 158/9/43
f 160/10/10 162/6/46 164/8/48
f 165/5/49 162/6/46 161/4/45
f 162/6/46 165/5/49 166/7/38
f 163/6/47 165/5/49 161/4/45
f 165/5/49 163/6/47 167/7/40
f 164/8/48 167/7/40 163/6/47
f 167/7/40 164/8/48 168/1/50
f 166/7/38 164/8/48 162/6/46
f 164/8/48 166/7/38 168/1/50
f 171/11/53 170/12/52 169/11/51
f 171/11/53 173/11/55 172/12/54
f 171/11/53 172/12/54 170/12/52
f 172/12/58 175/11/57 174/11/56
f 170/12/60 174/11/56 176/11/59
f 172/12/58 174/11/56 170/12/60
f 170/12/63 178/13/62 177/13/61
f 170/12/63 176/11/64 178/13/62
f 172/12/67 180/13/66 179/13/65
f 172/12/67 173/11/68 180/13/66
f 175/11/70 179/13/65 181/13/69
f 172/12/67 179/13/65 175/11/70
f 169/11/72 177/13/61 182/13/71
f 170/12/63 177/13/61 169/11/72
f 175/11/70 183/13/73 174/11/73
f 183/13/73 175/11/70 181/13/69
f 180/13/66 171/11/74 184/13/74
f 171/11/74 180/13/66 173/11/68
f 174/11/73 178/13/62 176/11/64
f 178/13/62 174/11/73 183/13/73
f 182/13/71 171/11/74 169/11/72
f 171/11/74 182/13/71 184/13/74
f 187/11/53 186/12/52 185/11/51
f 187/11/53 189/11/55 188/12/54
f 187/11/53 188/12/54 186/12/52
f 188/12/58 191/11/57 190/11/56
f 186/12/60 190/11/56 192/11/59
f 188/12/58 190/11/56 186/12/60
f 186/12/63 194/13/62 193/13/61
f 186/12/63 192/11/64 194/13/62
f 188/12/67 196/13/66 195/13/65
f 188/12/67 189/11/68 196/13/66
f 191/11/70 195/13/65 197/13/69
f 188/12/67 195/13/65 191/11/70
f 185/11/72 193/13/61 198/13/71
f 186/12/63 193/13/61 185/11/72
f 191/11/70 199/13/73 190/11/73
f 199/13/73 191/11/70 197/13/69
f 196/13/66 187/11/74 200/13/74
f 187/11/74 196/13/66 189/11/68
f 190/11/73 194/13/62 192/11/64
f 194/13/62 190/11/73 199/13/73
f 198/13/71 187/11/74 185/11/72
f 187/11/74 198/13/71 200/13/74
f 203/14/8 202/14/8 201/14/8
f 202/14/8 203/14/8 204/14/8
f 202/14/8 204/14/8 205/14/8
f 205/14/8 204/14/8 206/14/8
f 205/14/8 206/14/8 207/14/8
f 207/14/8 206/14/8 208/14/8
f 211/16/77 210/15/76 209/15/75
f 210/15/76 211/16/77 212/16/78
f 215/16/81 214/15/80 213/15/79
f 214/15/80 215/16/81 216/16/82
f 216/16/82 217/15/83 214/15/80
f 217/15/83 216/16/82 218/16/84
f 218/16/84 219/15/85 217/15/83
f 219/15/85 218/16/84 220/16/86
f 219/15/85 222/16/88 221/15/87
f 222/16/88 219/15/85 220/16/86
f 221/15/87 224/16/90 223/15/89
f 224/16/90 221/15/87 222/16/88
f 212/16/78 213/15/79 210/15/76
f 213/15/79 212/16/78 215/16/81
f 224/16/90 209/15/75 223/15/89
f 209/15/75 224/16/90 211/16/77
f 217/15/83 206/14/92 204/14/91
f 206/14/92 217/15/83 219/15/85
f 214/15/80 204/14/91 203/14/93
f 204/14/91 214/15/80 217/15/83
f 210/15/76 201/14/95 202/14/94
f 201/14/95 210/15/76 213/15/79
f 209/15/75 202/14/94 205/14/96
f 202/14/94 209/15/75 210/15/76
f 208/14/98 223/15/89 207/14/97
f 223/15/89 208/14/98 221/15/87
f 223/15/89 205/14/96 207/14/97
f 205/14/96 223/15/89 209/15/75
f 206/14/92 221/15/87 208/14/98
f 221/15/87 206/14/92 219/15/85
f 213/15/79 203/14/93 201/14/95
f 203/14/93 213/15/79 214/15/80
f 227/14/8 226/14/8 225/14/8
f 226/14/8 227/14/8 228/14/8
f 226/14/8 228/14/8 229/14/8
f 229/14/8 228/14/8 230/14/8
f 229/14/8 230/14/8 231/14/8
f 231/14/8 230/14/8 232/14/8
f 235/16/77 234/15/76 233/15/75
f 234/15/76 235/16/77 236/16/78
f 239/16/81 238/15/80 237/15/79
f 238/15/80 239/16/81 240/16/82
f 240/16/82 241/15/83 238/15/80
f 241/15/83 240/16/82 242/16/84
f 242/16/84 243/15/85 241/15/83
f 243/15/85 242/16/84 244/16/86
f 243/15/85 246/16/88 245/15/87
f 246/16/88 243/15/85 244/16/86
f 245/15/87 248/16/90 247/15/89
f 248/16/90 245/15/87 246/16/88
f 236/16/78 237/15/79 234/15/76
f 237/15/79 236/16/78 239/16/81
f 248/16/90 233/15/75 247/15/89
f 233/15/75 248/16/90 235/16/77
f 241/15/83 230/14/92 228/14/91
f 230/14/92 241/15/83 243/15/85
f 238/15/80 228/14/91 227/14/93
f 228/14/91 238/15/80 241/15/83
f 234/15/76 225/14/95 226/14/94
f 225/14/95 234/15/76 237/15/79
f 233/15/75 226/14/94 229/14/96
f 226/14/94 233/15/75 234/15/76
f 232/14/98 247/15/89 231/14/97
f 247/15/89 232/14/98 245/15/87
f 247/15/89 229/14/96 231/14/97
f 229/14/96 247/15/89 233/15/75
f 230/14/92 245/15/87 232/14/98
f 245/15/87 230/14/92 243/15/85
f 237/15/79 227/14/93 225/14/95
f 227/14/93 237/15/79 238/15/80
f 251/18/38 250/17/38 249/17/38
f 250/17/38 251/18/38 252/18/38
f 255/18/40 254/17/40 253/17/40
f 254/17/40 255/18/40 256/18/40
f 253/17/100 252/18/99 255/18/99
f 252/18/99 253/17/100 250/17/100
f 255/18/99 251/18/101 256/18/101
f 251/18/101 255/18/99 252/18/99
f 251/18/101 254/17/102 256/18/101
f 254/17/102 251/18/101 249/17/102
f 250/17/8 254/17/8 249/17/8
f 254/17/8 250/17/8 253/17/8
f 259/18/38 258/17/38 257/17/38
f 258/17/38 259/18/38 260/18/38
f 263/18/40 262/17/40 261/17/40
f 262/17/40 263/18/40 264/18/40
f 261/17/100 260/18/99 263/18/99
f 260/18/99 261/17/100 258/17/100
f 263/18/99 259/18/101 264/18/101
f 259/18/101 263/18/99 260/18/99
f 259/18/101 262/17/102 264/18/101
f 262/17/102 259/18/101 257/17/102
f 258/17/8 262/17/8 257/17/8
f 262/17/8 258/17/8 261/17/8

