# Created by Kenney (www.kenney.nl)

mtllib electricity-wires-wide.mtl

g electricity-wires-wide

v -0.2873588 0.4182751 -0.0791502 1 1 1
v -0.3712979 0.433995 -0.0791502 1 1 1
v -0.2853832 0.4306224 -0.0666502 1 1 1
v -0.3686712 0.4462204 -0.0666502 1 1 1
v -0.2853832 0.4306224 -0.0916502 1 1 1
v -0.2834075 0.4429697 -0.0791502 1 1 1
v -0.3686712 0.4462204 -0.0916502 1 1 1
v -0.3660446 0.4584458 -0.0791502 1 1 1
v -0.03200001 0.410488 -0.0666502 1 1 1
v -0.1167969 0.4127296 -0.0666502 1 1 1
v -0.03200001 0.4229923 -0.0791502 1 1 1
v -0.1161362 0.4252165 -0.0791502 1 1 1
v -0.4509584 0.4661954 -0.0666502 1 1 1
v -0.532 0.490488 -0.0666502 1 1 1
v -0.4476872 0.4782643 -0.0791502 1 1 1
v -0.5284108 0.5024616 -0.0791502 1 1 1
v 0.05345763 0.4002427 -0.0791502 1 1 1
v 0.1386616 0.4070132 -0.0791502 1 1 1
v 0.05279693 0.4127296 -0.0916502 1 1 1
v 0.1373418 0.4194477 -0.0916502 1 1 1
v -0.1167969 0.4127296 -0.0916502 1 1 1
v -0.2013418 0.4194477 -0.0916502 1 1 1
v -0.200022 0.4318822 -0.0791502 1 1 1
v 0.05213623 0.4252165 -0.0791502 1 1 1
v 0.136022 0.4318822 -0.0791502 1 1 1
v 0.1373418 0.4194477 -0.0666502 1 1 1
v 0.2233588 0.4182751 -0.0791502 1 1 1
v 0.2213832 0.4306224 -0.0666502 1 1 1
v 0.3869584 0.4661954 -0.0916502 1 1 1
v 0.468 0.490488 -0.0916502 1 1 1
v 0.3836872 0.4782643 -0.0791502 1 1 1
v 0.4644108 0.5024616 -0.0791502 1 1 1
v 0.4715891 0.4785143 -0.0791502 1 1 1
v 0.468 0.490488 -0.0666502 1 1 1
v -0.2026616 0.4070132 -0.0791502 1 1 1
v -0.2013418 0.4194477 -0.0666502 1 1 1
v -0.03200001 0.3979836 -0.0791502 1 1 1
v -0.1174576 0.4002427 -0.0791502 1 1 1
v 0.3046712 0.4462204 -0.0666502 1 1 1
v 0.3020445 0.4584458 -0.0791502 1 1 1
v 0.3869584 0.4661954 -0.0666502 1 1 1
v 0.2213832 0.4306224 -0.0916502 1 1 1
v 0.3902296 0.4541265 -0.0791502 1 1 1
v -0.532 0.490488 -0.0916502 1 1 1
v -0.5355891 0.4785143 -0.0791502 1 1 1
v 0.05279693 0.4127296 -0.0666502 1 1 1
v 0.2194075 0.4429697 -0.0791502 1 1 1
v -0.4509584 0.4661954 -0.0916502 1 1 1
v 0.3072979 0.433995 -0.0791502 1 1 1
v 0.3046712 0.4462204 -0.0916502 1 1 1
v -0.4542297 0.4541265 -0.0791502 1 1 1
v -0.03200001 0.410488 -0.0916502 1 1 1
v -0.2853832 0.4306224 0.09335013 1 1 1
v -0.3686712 0.4462204 0.09335013 1 1 1
v -0.2834075 0.4429697 0.08085012 1 1 1
v -0.3660446 0.4584458 0.08085012 1 1 1
v -0.4509584 0.4661954 0.09335013 1 1 1
v -0.4476872 0.4782643 0.08085012 1 1 1
v -0.03200001 0.3979836 0.08085012 1 1 1
v -0.1174576 0.4002427 0.08085012 1 1 1
v -0.03200001 0.410488 0.09335013 1 1 1
v -0.1167969 0.4127296 0.09335013 1 1 1
v -0.03200001 0.410488 0.06835012 1 1 1
v -0.1167969 0.4127296 0.06835012 1 1 1
v 0.3072979 0.433995 0.08085012 1 1 1
v 0.3046712 0.4462204 0.09335013 1 1 1
v 0.3902296 0.4541265 0.08085012 1 1 1
v 0.3869584 0.4661954 0.09335013 1 1 1
v 0.05345763 0.4002427 0.08085012 1 1 1
v 0.05279693 0.4127296 0.09335013 1 1 1
v 0.3020445 0.4584458 0.08085012 1 1 1
v 0.3836872 0.4782643 0.08085012 1 1 1
v 0.1386616 0.4070132 0.08085012 1 1 1
v 0.2233588 0.4182751 0.08085012 1 1 1
v 0.1373418 0.4194477 0.06835012 1 1 1
v 0.2213832 0.4306224 0.06835012 1 1 1
v 0.3869584 0.4661954 0.06835012 1 1 1
v 0.468 0.490488 0.06835012 1 1 1
v 0.4644108 0.5024616 0.08085012 1 1 1
v -0.2873588 0.4182751 0.08085012 1 1 1
v -0.3712979 0.433995 0.08085012 1 1 1
v -0.03200001 0.4229923 0.08085012 1 1 1
v 0.05213623 0.4252165 0.08085012 1 1 1
v -0.3686712 0.4462204 0.06835012 1 1 1
v -0.4509584 0.4661954 0.06835012 1 1 1
v -0.2013418 0.4194477 0.09335013 1 1 1
v -0.1161362 0.4252165 0.08085012 1 1 1
v -0.200022 0.4318822 0.08085012 1 1 1
v -0.2026616 0.4070132 0.08085012 1 1 1
v -0.2013418 0.4194477 0.06835012 1 1 1
v 0.05279693 0.4127296 0.06835012 1 1 1
v 0.2213832 0.4306224 0.09335013 1 1 1
v 0.2194075 0.4429697 0.08085012 1 1 1
v -0.4542297 0.4541265 0.08085012 1 1 1
v -0.5355891 0.4785143 0.08085012 1 1 1
v -0.532 0.490488 0.06835012 1 1 1
v -0.532 0.490488 0.09335013 1 1 1
v -0.5284108 0.5024616 0.08085012 1 1 1
v 0.1373418 0.4194477 0.09335013 1 1 1
v 0.136022 0.4318822 0.08085012 1 1 1
v 0.3046712 0.4462204 0.06835012 1 1 1
v -0.2853832 0.4306224 0.06835012 1 1 1
v 0.4715891 0.4785143 0.08085012 1 1 1
v 0.468 0.490488 0.09335013 1 1 1

vn -0.1579974 -0.9874396 0
vn -0.2100609 -0.9776883 0
vn -0.00188216 -0.01176297 0.9999291
vn -0.002505451 -0.01166114 0.9999288
vn -0.00188216 -0.01176297 -0.9999291
vn 0.1579974 0.9874396 0
vn -0.002505451 -0.01166114 -0.9999288
vn 0.2100609 0.9776883 0
vn 0 -0.0118935 0.9999293
vn -0.000628537 -0.01187902 0.9999293
vn 0 1 0
vn 0.05283761 0.9986032 0
vn -0.003125113 -0.01152984 0.9999287
vn 0 0 1
vn 0.2616064 0.9651747 0
vn 0.287132 0.957891 0
vn 0.05283761 -0.9986032 0
vn 0.1055464 -0.9944143 0
vn 0.000628537 -0.01187902 -0.9999293
vn 0.001256216 -0.01183554 -0.9999292
vn -0.000628537 -0.01187902 -0.9999293
vn -0.001256216 -0.01183554 -0.9999292
vn 0.1055464 0.9944143 0
vn -0.05283761 0.9986032 0
vn -0.1055464 0.9944143 0
vn 0.001256216 -0.01183554 0.9999292
vn 0.1579974 -0.9874396 0
vn 0.00188216 -0.01176297 0.9999291
vn 0.003125113 -0.01152984 -0.9999287
vn 0 0 -1
vn -0.2616064 0.9651747 0
vn -0.287132 0.957891 0
vn 0.957891 0.287132 0
vn -0.1055464 -0.9944143 0
vn -0.001256216 -0.01183554 0.9999292
vn 0 -1 0
vn -0.05283761 -0.9986032 0
vn 0.002505451 -0.01166114 0.9999288
vn -0.2100609 0.9776883 0
vn 0.003125113 -0.01152984 0.9999287
vn 0.00188216 -0.01176297 -0.9999291
vn 0.2616064 -0.9651747 0
vn 0.287132 -0.957891 0
vn -0.957891 0.287132 0
vn 0.000628537 -0.01187902 0.9999293
vn -0.1579974 0.9874396 0
vn -0.003125113 -0.01152984 -0.9999287
vn 0.2100609 -0.9776883 0
vn 0.002505451 -0.01166114 -0.9999288
vn -0.2616064 -0.9651747 0
vn -0.287132 -0.957891 0
vn 0 -0.0118935 -0.9999293

vt 0.34375 0.06384351
vt 0.34375 0.09393586
vt 0.34375 0.08747972
vt 0.34375 0.1173387
vt 0.34375 0.1111159
vt 0.34375 0.1407415
vt 0.34375 0.04893684
vt 0.34375 0.05322788
vt 0.34375 0.07287367
vt 0.34375 0.07713129
vt 0.34375 0.1555764
vt 0.34375 0.2020791
vt 0.34375 0.1786797
vt 0.34375 0.225
vt 0.34375 0.02932448
vt 0.34375 0.0422851
vt 0.34375 0.06608825
vt 0.34375 0.08989141
vt 0.34375 0.1791582
vt 0.34375 0.025
vt 0.34375 0.1324731

usemtl colormap

f 3/3/3 2/2/2 1/1/1
f 2/2/2 3/3/3 4/4/4
f 7/4/7 6/5/6 5/3/5
f 6/5/6 7/4/7 8/6/8
f 11/9/11 10/8/10 9/7/9
f 10/8/10 11/9/11 12/10/12
f 15/13/15 14/12/14 13/11/13
f 14/12/14 15/13/15 16/14/16
f 19/8/19 18/16/18 17/15/17
f 18/16/18 19/8/19 20/17/20
f 2/2/2 5/3/5 1/1/1
f 5/3/5 2/2/2 7/4/7
f 22/17/22 12/10/12 21/8/21
f 12/10/12 22/17/22 23/18/23
f 24/10/24 20/17/20 19/8/19
f 20/17/20 24/10/24 25/18/25
f 27/1/27 26/17/26 18/16/18
f 26/17/26 27/1/27 28/3/28
f 31/13/31 30/12/30 29/11/29
f 30/12/30 31/13/31 32/14/32
f 32/14/33 33/19/33 30/12/33
f 33/19/33 32/14/33 34/12/33
f 36/17/35 1/1/1 35/16/34
f 1/1/1 36/17/35 3/3/3
f 9/7/9 38/15/37 37/20/36
f 38/15/37 9/7/9 10/8/10
f 41/11/40 40/6/39 39/4/38
f 40/6/39 41/11/40 31/13/31
f 20/17/20 27/1/27 18/16/18
f 27/1/27 20/17/20 42/3/41
f 29/11/29 33/19/43 43/21/42
f 33/19/43 29/11/29 30/12/30
f 45/19/44 16/14/44 44/12/44
f 16/14/44 45/19/44 14/12/44
f 23/18/23 3/3/3 36/17/35
f 3/3/3 23/18/23 6/5/6
f 35/16/34 21/8/21 38/15/37
f 21/8/21 35/16/34 22/17/22
f 17/15/17 9/7/9 37/20/36
f 9/7/9 17/15/17 46/8/45
f 39/4/38 47/5/46 28/3/28
f 47/5/46 39/4/38 40/6/39
f 48/11/47 8/6/8 7/4/7
f 8/6/8 48/11/47 15/13/15
f 44/12/30 15/13/15 48/11/47
f 15/13/15 44/12/30 16/14/16
f 18/16/18 46/8/45 17/15/17
f 46/8/45 18/16/18 26/17/26
f 49/2/48 28/3/28 27/1/27
f 28/3/28 49/2/48 39/4/38
f 50/4/49 43/21/42 49/2/48
f 43/21/42 50/4/49 29/11/29
f 47/5/46 50/4/49 42/3/41
f 50/4/49 47/5/46 40/6/39
f 4/4/4 51/21/50 2/2/2
f 51/21/50 4/4/4 13/11/13
f 45/19/51 48/11/47 51/21/50
f 48/11/47 45/19/51 44/12/30
f 51/21/50 7/4/7 2/2/2
f 7/4/7 51/21/50 48/11/47
f 8/6/8 13/11/13 4/4/4
f 13/11/13 8/6/8 15/13/15
f 13/11/13 45/19/51 51/21/50
f 45/19/51 13/11/13 14/12/14
f 10/8/10 35/16/34 38/15/37
f 35/16/34 10/8/10 36/17/35
f 12/10/12 36/17/35 10/8/10
f 36/17/35 12/10/12 23/18/23
f 38/15/37 52/7/52 37/20/36
f 52/7/52 38/15/37 21/8/21
f 21/8/21 11/9/11 52/7/52
f 11/9/11 21/8/21 12/10/12
f 52/7/52 17/15/17 37/20/36
f 17/15/17 52/7/52 19/8/19
f 11/9/11 19/8/19 52/7/52
f 19/8/19 11/9/11 24/10/24
f 46/8/45 11/9/11 9/7/9
f 11/9/11 46/8/45 24/10/24
f 6/5/6 4/4/4 3/3/3
f 4/4/4 6/5/6 8/6/8
f 26/17/26 24/10/24 46/8/45
f 24/10/24 26/17/26 25/18/25
f 25/18/25 42/3/41 20/17/20
f 42/3/41 25/18/25 47/5/46
f 43/21/42 39/4/38 49/2/48
f 39/4/38 43/21/42 41/11/40
f 1/1/1 22/17/22 35/16/34
f 22/17/22 1/1/1 5/3/5
f 28/3/28 25/18/25 26/17/26
f 25/18/25 28/3/28 47/5/46
f 40/6/39 29/11/29 50/4/49
f 29/11/29 40/6/39 31/13/31
f 33/19/43 41/11/40 43/21/42
f 41/11/40 33/19/43 34/12/14
f 5/3/5 23/18/23 22/17/22
f 23/18/23 5/3/5 6/5/6
f 42/3/41 49/2/48 27/1/27
f 49/2/48 42/3/41 50/4/49
f 34/12/14 31/13/31 41/11/40
f 31/13/31 34/12/14 32/14/32
f 55/5/6 54/4/4 53/3/3
f 54/4/4 55/5/6 56/6/8
f 56/6/8 57/11/13 54/4/4
f 57/11/13 56/6/8 58/13/15
f 61/7/9 60/15/37 59/20/36
f 60/15/37 61/7/9 62/8/10
f 60/15/37 63/7/52 59/20/36
f 63/7/52 60/15/37 64/8/21
f 67/21/42 66/4/38 65/2/48
f 66/4/38 67/21/42 68/11/40
f 69/15/17 61/7/9 59/20/36
f 61/7/9 69/15/17 70/8/45
f 68/11/40 71/6/39 66/4/38
f 71/6/39 68/11/40 72/13/31
f 75/17/20 74/1/27 73/16/18
f 74/1/27 75/17/20 76/3/41
f 72/13/31 78/12/30 77/11/29
f 78/12/30 72/13/31 79/14/32
f 53/3/3 81/2/2 80/1/1
f 81/2/2 53/3/3 54/4/4
f 70/8/45 82/9/11 61/7/9
f 82/9/11 70/8/45 83/10/24
f 85/11/47 56/6/8 84/4/7
f 56/6/8 85/11/47 58/13/15
f 87/10/12 86/17/35 62/8/10
f 86/17/35 87/10/12 88/18/23
f 89/16/34 64/8/21 60/15/37
f 64/8/21 89/16/34 90/17/22
f 63/7/52 69/15/17 59/20/36
f 69/15/17 63/7/52 91/8/19
f 66/4/38 93/5/46 92/3/28
f 93/5/46 66/4/38 71/6/39
f 95/19/51 85/11/47 94/21/50
f 85/11/47 95/19/51 96/12/30
f 62/8/10 89/16/34 60/15/37
f 89/16/34 62/8/10 86/17/35
f 94/21/50 84/4/7 81/2/2
f 84/4/7 94/21/50 85/11/47
f 90/17/22 87/10/12 64/8/21
f 87/10/12 90/17/22 88/18/23
f 57/11/13 95/19/51 94/21/50
f 95/19/51 57/11/13 97/12/14
f 58/13/15 97/12/14 57/11/13
f 97/12/14 58/13/15 98/14/16
f 64/8/21 82/9/11 63/7/52
f 82/9/11 64/8/21 87/10/12
f 88/18/23 53/3/3 86/17/35
f 53/3/3 88/18/23 55/5/6
f 82/9/11 62/8/10 61/7/9
f 62/8/10 82/9/11 87/10/12
f 73/16/18 70/8/45 69/15/17
f 70/8/45 73/16/18 99/17/26
f 91/8/19 73/16/18 69/15/17
f 73/16/18 91/8/19 75/17/20
f 99/17/26 83/10/24 70/8/45
f 83/10/24 99/17/26 100/18/25
f 100/18/25 76/3/41 75/17/20
f 76/3/41 100/18/25 93/5/46
f 92/3/28 100/18/25 99/17/26
f 100/18/25 92/3/28 93/5/46
f 96/12/30 58/13/15 85/11/47
f 58/13/15 96/12/30 98/14/16
f 76/3/41 65/2/48 74/1/27
f 65/2/48 76/3/41 101/4/49
f 71/6/39 77/11/29 101/4/49
f 77/11/29 71/6/39 72/13/31
f 54/4/4 94/21/50 81/2/2
f 94/21/50 54/4/4 57/11/13
f 80/1/1 90/17/22 89/16/34
f 90/17/22 80/1/1 102/3/5
f 77/11/29 103/19/43 67/21/42
f 103/19/43 77/11/29 78/12/30
f 79/14/33 103/19/33 78/12/33
f 103/19/33 79/14/33 104/12/33
f 84/4/7 55/5/6 102/3/5
f 55/5/6 84/4/7 56/6/8
f 83/10/24 75/17/20 91/8/19
f 75/17/20 83/10/24 100/18/25
f 93/5/46 101/4/49 76/3/41
f 101/4/49 93/5/46 71/6/39
f 86/17/35 80/1/1 89/16/34
f 80/1/1 86/17/35 53/3/3
f 101/4/49 67/21/42 65/2/48
f 67/21/42 101/4/49 77/11/29
f 102/3/5 88/18/23 90/17/22
f 88/18/23 102/3/5 55/5/6
f 103/19/43 68/11/40 67/21/42
f 68/11/40 103/19/43 104/12/14
f 74/1/27 99/17/26 73/16/18
f 99/17/26 74/1/27 92/3/28
f 81/2/2 102/3/5 80/1/1
f 102/3/5 81/2/2 84/4/7
f 82/9/11 91/8/19 63/7/52
f 91/8/19 82/9/11 83/10/24
f 65/2/48 92/3/28 74/1/27
f 92/3/28 65/2/48 66/4/38
f 104/12/14 72/13/31 68/11/40
f 72/13/31 104/12/14 79/14/32
f 95/19/44 98/14/44 96/12/44
f 98/14/44 95/19/44 97/12/44

g electricity-wires-wide




usemtl colormap

f 3/3/3 2/2/2 1/1/1
f 2/2/2 3/3/3 4/4/4
f 7/4/7 6/5/6 5/3/5
f 6/5/6 7/4/7 8/6/8
f 11/9/11 10/8/10 9/7/9
f 10/8/10 11/9/11 12/10/12
f 15/13/15 14/12/14 13/11/13
f 14/12/14 15/13/15 16/14/16
f 19/8/19 18/16/18 17/15/17
f 18/16/18 19/8/19 20/17/20
f 2/2/2 5/3/5 1/1/1
f 5/3/5 2/2/2 7/4/7
f 22/17/22 12/10/12 21/8/21
f 12/10/12 22/17/22 23/18/23
f 24/10/24 20/17/20 19/8/19
f 20/17/20 24/10/24 25/18/25
f 27/1/27 26/17/26 18/16/18
f 26/17/26 27/1/27 28/3/28
f 31/13/31 30/12/30 29/11/29
f 30/12/30 31/13/31 32/14/32
f 32/14/33 33/19/33 30/12/33
f 33/19/33 32/14/33 34/12/33
f 36/17/35 1/1/1 35/16/34
f 1/1/1 36/17/35 3/3/3
f 9/7/9 38/15/37 37/20/36
f 38/15/37 9/7/9 10/8/10
f 41/11/40 40/6/39 39/4/38
f 40/6/39 41/11/40 31/13/31
f 20/17/20 27/1/27 18/16/18
f 27/1/27 20/17/20 42/3/41
f 29/11/29 33/19/43 43/21/42
f 33/19/43 29/11/29 30/12/30
f 45/19/44 16/14/44 44/12/44
f 16/14/44 45/19/44 14/12/44
f 23/18/23 3/3/3 36/17/35
f 3/3/3 23/18/23 6/5/6
f 35/16/34 21/8/21 38/15/37
f 21/8/21 35/16/34 22/17/22
f 17/15/17 9/7/9 37/20/36
f 9/7/9 17/15/17 46/8/45
f 39/4/38 47/5/46 28/3/28
f 47/5/46 39/4/38 40/6/39
f 48/11/47 8/6/8 7/4/7
f 8/6/8 48/11/47 15/13/15
f 44/12/30 15/13/15 48/11/47
f 15/13/15 44/12/30 16/14/16
f 18/16/18 46/8/45 17/15/17
f 46/8/45 18/16/18 26/17/26
f 49/2/48 28/3/28 27/1/27
f 28/3/28 49/2/48 39/4/38
f 50/4/49 43/21/42 49/2/48
f 43/21/42 50/4/49 29/11/29
f 47/5/46 50/4/49 42/3/41
f 50/4/49 47/5/46 40/6/39
f 4/4/4 51/21/50 2/2/2
f 51/21/50 4/4/4 13/11/13
f 45/19/51 48/11/47 51/21/50
f 48/11/47 45/19/51 44/12/30
f 51/21/50 7/4/7 2/2/2
f 7/4/7 51/21/50 48/11/47
f 8/6/8 13/11/13 4/4/4
f 13/11/13 8/6/8 15/13/15
f 13/11/13 45/19/51 51/21/50
f 45/19/51 13/11/13 14/12/14
f 10/8/10 35/16/34 38/15/37
f 35/16/34 10/8/10 36/17/35
f 12/10/12 36/17/35 10/8/10
f 36/17/35 12/10/12 23/18/23
f 38/15/37 52/7/52 37/20/36
f 52/7/52 38/15/37 21/8/21
f 21/8/21 11/9/11 52/7/52
f 11/9/11 21/8/21 12/10/12
f 52/7/52 17/15/17 37/20/36
f 17/15/17 52/7/52 19/8/19
f 11/9/11 19/8/19 52/7/52
f 19/8/19 11/9/11 24/10/24
f 46/8/45 11/9/11 9/7/9
f 11/9/11 46/8/45 24/10/24
f 6/5/6 4/4/4 3/3/3
f 4/4/4 6/5/6 8/6/8
f 26/17/26 24/10/24 46/8/45
f 24/10/24 26/17/26 25/18/25
f 25/18/25 42/3/41 20/17/20
f 42/3/41 25/18/25 47/5/46
f 43/21/42 39/4/38 49/2/48
f 39/4/38 43/21/42 41/11/40
f 1/1/1 22/17/22 35/16/34
f 22/17/22 1/1/1 5/3/5
f 28/3/28 25/18/25 26/17/26
f 25/18/25 28/3/28 47/5/46
f 40/6/39 29/11/29 50/4/49
f 29/11/29 40/6/39 31/13/31
f 33/19/43 41/11/40 43/21/42
f 41/11/40 33/19/43 34/12/14
f 5/3/5 23/18/23 22/17/22
f 23/18/23 5/3/5 6/5/6
f 42/3/41 49/2/48 27/1/27
f 49/2/48 42/3/41 50/4/49
f 34/12/14 31/13/31 41/11/40
f 31/13/31 34/12/14 32/14/32
f 55/5/6 54/4/4 53/3/3
f 54/4/4 55/5/6 56/6/8
f 56/6/8 57/11/13 54/4/4
f 57/11/13 56/6/8 58/13/15
f 61/7/9 60/15/37 59/20/36
f 60/15/37 61/7/9 62/8/10
f 60/15/37 63/7/52 59/20/36
f 63/7/52 60/15/37 64/8/21
f 67/21/42 66/4/38 65/2/48
f 66/4/38 67/21/42 68/11/40
f 69/15/17 61/7/9 59/20/36
f 61/7/9 69/15/17 70/8/45
f 68/11/40 71/6/39 66/4/38
f 71/6/39 68/11/40 72/13/31
f 75/17/20 74/1/27 73/16/18
f 74/1/27 75/17/20 76/3/41
f 72/13/31 78/12/30 77/11/29
f 78/12/30 72/13/31 79/14/32
f 53/3/3 81/2/2 80/1/1
f 81/2/2 53/3/3 54/4/4
f 70/8/45 82/9/11 61/7/9
f 82/9/11 70/8/45 83/10/24
f 85/11/47 56/6/8 84/4/7
f 56/6/8 85/11/47 58/13/15
f 87/10/12 86/17/35 62/8/10
f 86/17/35 87/10/12 88/18/23
f 89/16/34 64/8/21 60/15/37
f 64/8/21 89/16/34 90/17/22
f 63/7/52 69/15/17 59/20/36
f 69/15/17 63/7/52 91/8/19
f 66/4/38 93/5/46 92/3/28
f 93/5/46 66/4/38 71/6/39
f 95/19/51 85/11/47 94/21/50
f 85/11/47 95/19/51 96/12/30
f 62/8/10 89/16/34 60/15/37
f 89/16/34 62/8/10 86/17/35
f 94/21/50 84/4/7 81/2/2
f 84/4/7 94/21/50 85/11/47
f 90/17/22 87/10/12 64/8/21
f 87/10/12 90/17/22 88/18/23
f 57/11/13 95/19/51 94/21/50
f 95/19/51 57/11/13 97/12/14
f 58/13/15 97/12/14 57/11/13
f 97/12/14 58/13/15 98/14/16
f 64/8/21 82/9/11 63/7/52
f 82/9/11 64/8/21 87/10/12
f 88/18/23 53/3/3 86/17/35
f 53/3/3 88/18/23 55/5/6
f 82/9/11 62/8/10 61/7/9
f 62/8/10 82/9/11 87/10/12
f 73/16/18 70/8/45 69/15/17
f 70/8/45 73/16/18 99/17/26
f 91/8/19 73/16/18 69/15/17
f 73/16/18 91/8/19 75/17/20
f 99/17/26 83/10/24 70/8/45
f 83/10/24 99/17/26 100/18/25
f 100/18/25 76/3/41 75/17/20
f 76/3/41 100/18/25 93/5/46
f 92/3/28 100/18/25 99/17/26
f 100/18/25 92/3/28 93/5/46
f 96/12/30 58/13/15 85/11/47
f 58/13/15 96/12/30 98/14/16
f 76/3/41 65/2/48 74/1/27
f 65/2/48 76/3/41 101/4/49
f 71/6/39 77/11/29 101/4/49
f 77/11/29 71/6/39 72/13/31
f 54/4/4 94/21/50 81/2/2
f 94/21/50 54/4/4 57/11/13
f 80/1/1 90/17/22 89/16/34
f 90/17/22 80/1/1 102/3/5
f 77/11/29 103/19/43 67/21/42
f 103/19/43 77/11/29 78/12/30
f 79/14/33 103/19/33 78/12/33
f 103/19/33 79/14/33 104/12/33
f 84/4/7 55/5/6 102/3/5
f 55/5/6 84/4/7 56/6/8
f 83/10/24 75/17/20 91/8/19
f 75/17/20 83/10/24 100/18/25
f 93/5/46 101/4/49 76/3/41
f 101/4/49 93/5/46 71/6/39
f 86/17/35 80/1/1 89/16/34
f 80/1/1 86/17/35 53/3/3
f 101/4/49 67/21/42 65/2/48
f 67/21/42 101/4/49 77/11/29
f 102/3/5 88/18/23 90/17/22
f 88/18/23 102/3/5 55/5/6
f 103/19/43 68/11/40 67/21/42
f 68/11/40 103/19/43 104/12/14
f 74/1/27 99/17/26 73/16/18
f 99/17/26 74/1/27 92/3/28
f 81/2/2 102/3/5 80/1/1
f 102/3/5 81/2/2 84/4/7
f 82/9/11 91/8/19 63/7/52
f 91/8/19 82/9/11 83/10/24
f 65/2/48 92/3/28 74/1/27
f 92/3/28 65/2/48 66/4/38
f 104/12/14 72/13/31 68/11/40
f 72/13/31 104/12/14 79/14/32
f 95/19/44 98/14/44 96/12/44
f 98/14/44 95/19/44 97/12/44

