# Created by Kenney (www.kenney.nl)

mtllib electricity-side-wide.mtl

g electricity-side-wide

v 0.531725 0.4944662 0.242375 1 1 1
v 0.531725 0.4405338 0.242375 1 1 1
v 0.531725 0.4944662 0.277625 1 1 1
v 0.531725 0.4405338 0.277625 1 1 1
v 0.517625 0.4405338 0.228275 1 1 1
v 0.517625 0.4944662 0.228275 1 1 1
v 0.517625 0.4944662 0.291725 1 1 1
v 0.517625 0.4405338 0.291725 1 1 1
v 0.468275 0.4405338 0.277625 1 1 1
v 0.468275 0.4944662 0.277625 1 1 1
v 0.482375 0.4405338 0.291725 1 1 1
v 0.482375 0.4944662 0.291725 1 1 1
v 0.468275 0.4405338 0.242375 1 1 1
v 0.468275 0.4944662 0.242375 1 1 1
v 0.482375 0.4405338 0.228275 1 1 1
v 0.482375 0.4944662 0.228275 1 1 1
v -0.491191 0.503232 -0.1108751 1 1 1
v -0.4937711 0.503232 -0.1046462 1 1 1
v -0.4937711 0.503232 -0.1171041 1 1 1
v -0.5 0.503232 -0.1196842 1 1 1
v -0.5 0.503232 -0.1020661 1 1 1
v -0.5062289 0.503232 -0.1171041 1 1 1
v -0.5062289 0.503232 -0.1046462 1 1 1
v -0.508809 0.503232 -0.1108751 1 1 1
v -0.5 0.495488 -0.1262351 1 1 1
v -0.4891388 0.495488 -0.1217363 1 1 1
v -0.51536 0.495488 -0.1108751 1 1 1
v -0.5108612 0.495488 -0.100014 1 1 1
v -0.4891388 0.495488 -0.100014 1 1 1
v -0.5 0.495488 -0.09551513 1 1 1
v -0.5108612 0.495488 -0.1217363 1 1 1
v -0.48464 0.495488 -0.1108751 1 1 1
v -0.4895 0.48 -0.1108751 1 1 1
v -0.4925754 0.48 -0.1034624 1 1 1
v -0.5074246 0.48 -0.1034624 1 1 1
v -0.5 0.48 -0.1003919 1 1 1
v -0.5 0.48 -0.1213583 1 1 1
v -0.4925754 0.48 -0.1182879 1 1 1
v -0.5105 0.48 -0.1108751 1 1 1
v -0.5074246 0.48 -0.1182879 1 1 1
v -0.468275 0.4944662 0.242375 1 1 1
v -0.468275 0.4405338 0.242375 1 1 1
v -0.468275 0.4944662 0.277625 1 1 1
v -0.468275 0.4405338 0.277625 1 1 1
v -0.482375 0.4405338 0.228275 1 1 1
v -0.482375 0.4944662 0.228275 1 1 1
v -0.482375 0.4944662 0.291725 1 1 1
v -0.482375 0.4405338 0.291725 1 1 1
v -0.531725 0.4405338 0.277625 1 1 1
v -0.531725 0.4944662 0.277625 1 1 1
v -0.517625 0.4405338 0.291725 1 1 1
v -0.517625 0.4944662 0.291725 1 1 1
v -0.531725 0.4405338 0.242375 1 1 1
v -0.531725 0.4944662 0.242375 1 1 1
v -0.517625 0.4405338 0.228275 1 1 1
v -0.517625 0.4944662 0.228275 1 1 1
v -0.491191 0.503232 0.04912519 1 1 1
v -0.4937711 0.503232 0.05535412 1 1 1
v -0.4937711 0.503232 0.04289627 1 1 1
v -0.5 0.503232 0.04031616 1 1 1
v -0.5 0.503232 0.05793423 1 1 1
v -0.5062289 0.503232 0.04289627 1 1 1
v -0.5062289 0.503232 0.05535412 1 1 1
v -0.508809 0.503232 0.04912519 1 1 1
v -0.5 0.495488 0.0337652 1 1 1
v -0.4891388 0.495488 0.03826404 1 1 1
v -0.51536 0.495488 0.04912519 1 1 1
v -0.5108612 0.495488 0.05998635 1 1 1
v -0.4891388 0.495488 0.05998635 1 1 1
v -0.5 0.495488 0.06448519 1 1 1
v -0.5108612 0.495488 0.03826404 1 1 1
v -0.48464 0.495488 0.04912519 1 1 1
v -0.4895 0.48 0.04912519 1 1 1
v -0.4925754 0.48 0.05653794 1 1 1
v -0.5074246 0.48 0.05653794 1 1 1
v -0.5 0.48 0.0596084 1 1 1
v -0.5 0.48 0.03864199 1 1 1
v -0.4925754 0.48 0.04171245 1 1 1
v -0.5105 0.48 0.04912519 1 1 1
v -0.5074246 0.48 0.04171245 1 1 1
v 0.508809 0.503232 -0.1108751 1 1 1
v 0.5062289 0.503232 -0.1046462 1 1 1
v 0.5062289 0.503232 -0.1171041 1 1 1
v 0.5 0.503232 -0.1196842 1 1 1
v 0.5 0.503232 -0.1020661 1 1 1
v 0.4937711 0.503232 -0.1171041 1 1 1
v 0.4937711 0.503232 -0.1046462 1 1 1
v 0.491191 0.503232 -0.1108751 1 1 1
v 0.5 0.495488 -0.1262351 1 1 1
v 0.5108612 0.495488 -0.1217363 1 1 1
v 0.48464 0.495488 -0.1108751 1 1 1
v 0.4891388 0.495488 -0.100014 1 1 1
v 0.5108612 0.495488 -0.100014 1 1 1
v 0.5 0.495488 -0.09551513 1 1 1
v 0.4891388 0.495488 -0.1217363 1 1 1
v 0.51536 0.495488 -0.1108751 1 1 1
v 0.5105 0.48 -0.1108751 1 1 1
v 0.5074246 0.48 -0.1034624 1 1 1
v 0.4925754 0.48 -0.1034624 1 1 1
v 0.5 0.48 -0.1003919 1 1 1
v 0.5 0.48 -0.1213583 1 1 1
v 0.5074246 0.48 -0.1182879 1 1 1
v 0.4895 0.48 -0.1108751 1 1 1
v 0.4925754 0.48 -0.1182879 1 1 1
v 0.508809 0.503232 0.04912519 1 1 1
v 0.5062289 0.503232 0.05535412 1 1 1
v 0.5062289 0.503232 0.04289627 1 1 1
v 0.5 0.503232 0.04031616 1 1 1
v 0.5 0.503232 0.05793423 1 1 1
v 0.4937711 0.503232 0.04289627 1 1 1
v 0.4937711 0.503232 0.05535412 1 1 1
v 0.491191 0.503232 0.04912519 1 1 1
v 0.5 0.495488 0.0337652 1 1 1
v 0.5108612 0.495488 0.03826404 1 1 1
v 0.48464 0.495488 0.04912519 1 1 1
v 0.4891388 0.495488 0.05998635 1 1 1
v 0.5108612 0.495488 0.05998635 1 1 1
v 0.5 0.495488 0.06448519 1 1 1
v 0.4891388 0.495488 0.03826404 1 1 1
v 0.51536 0.495488 0.04912519 1 1 1
v 0.5105 0.48 0.04912519 1 1 1
v 0.5074246 0.48 0.05653794 1 1 1
v 0.4925754 0.48 0.05653794 1 1 1
v 0.5 0.48 0.0596084 1 1 1
v 0.5 0.48 0.03864199 1 1 1
v 0.5074246 0.48 0.04171245 1 1 1
v 0.4895 0.48 0.04912519 1 1 1
v 0.4925754 0.48 0.04171245 1 1 1
v -0.422868 0.4492996 0.04912519 1 1 1
v -0.5042274 0.4736874 0.04912519 1 1 1
v -0.4195967 0.4613685 0.06162519 1 1 1
v -0.5006383 0.4856611 0.06162519 1 1 1
v -0.4195967 0.4613685 0.0366252 1 1 1
v -0.5006383 0.4856611 0.0366252 1 1 1
v -0.4163255 0.4734374 0.04912519 1 1 1
v -0.4970491 0.4976347 0.04912519 1 1 1
v -0.3399362 0.4291681 0.04912519 1 1 1
v -0.3373095 0.4413935 0.06162519 1 1 1
v -0.3373095 0.4413935 0.0366252 1 1 1
v -0.3346829 0.4536189 0.04912519 1 1 1
v -0.2559971 0.4134482 0.04912519 1 1 1
v -0.2540215 0.4257955 0.06162519 1 1 1
v -0.2540215 0.4257955 0.0366252 1 1 1
v -0.2520458 0.4381428 0.04912519 1 1 1
v -0.1712999 0.4021863 0.04912519 1 1 1
v -0.1699801 0.4146208 0.06162519 1 1 1
v -0.1699801 0.4146208 0.0366252 1 1 1
v -0.1686603 0.4270553 0.04912519 1 1 1
v -0.08609594 0.3954158 0.04912519 1 1 1
v -0.08543524 0.4079027 0.06162519 1 1 1
v -0.08543524 0.4079027 0.0366252 1 1 1
v -0.08477455 0.4203896 0.04912519 1 1 1
v -0.0006383061 0.3931567 0.04912519 1 1 1
v -0.0006383061 0.4056611 0.06162519 1 1 1
v -0.0006383061 0.4056611 0.0366252 1 1 1
v -0.0006383061 0.4181654 0.04912519 1 1 1
v 0.08481933 0.3954158 0.04912519 1 1 1
v 0.08415863 0.4079027 0.06162519 1 1 1
v 0.08415863 0.4079027 0.0366252 1 1 1
v 0.08349793 0.4203896 0.04912519 1 1 1
v 0.1700233 0.4021863 0.04912519 1 1 1
v 0.1687035 0.4146208 0.06162519 1 1 1
v 0.1687035 0.4146208 0.0366252 1 1 1
v 0.1673837 0.4270553 0.04912519 1 1 1
v 0.2547205 0.4134482 0.04912519 1 1 1
v 0.2527449 0.4257955 0.06162519 1 1 1
v 0.2527449 0.4257955 0.0366252 1 1 1
v 0.2507692 0.4381428 0.04912519 1 1 1
v 0.3386596 0.4291681 0.04912519 1 1 1
v 0.3360329 0.4413935 0.06162519 1 1 1
v 0.3360329 0.4413935 0.0366252 1 1 1
v 0.3334062 0.4536189 0.04912519 1 1 1
v 0.4215913 0.4492996 0.04912519 1 1 1
v 0.4183201 0.4613685 0.06162519 1 1 1
v 0.4183201 0.4613685 0.0366252 1 1 1
v 0.4150489 0.4734374 0.04912519 1 1 1
v 0.5029508 0.4736874 0.04912519 1 1 1
v 0.4993617 0.4856611 0.06162519 1 1 1
v 0.4993617 0.4856611 0.0366252 1 1 1
v 0.4957725 0.4976347 0.04912519 1 1 1
v -0.422868 0.4492996 -0.1108751 1 1 1
v -0.5042274 0.4736874 -0.1108751 1 1 1
v -0.4195967 0.4613685 -0.09837513 1 1 1
v -0.5006383 0.4856611 -0.09837513 1 1 1
v -0.4195967 0.4613685 -0.1233751 1 1 1
v -0.5006383 0.4856611 -0.1233751 1 1 1
v -0.4163255 0.4734374 -0.1108751 1 1 1
v -0.4970491 0.4976347 -0.1108751 1 1 1
v -0.3399362 0.4291681 -0.1108751 1 1 1
v -0.3373095 0.4413935 -0.09837513 1 1 1
v -0.3373095 0.4413935 -0.1233751 1 1 1
v -0.3346829 0.4536189 -0.1108751 1 1 1
v -0.2559971 0.4134482 -0.1108751 1 1 1
v -0.2540215 0.4257955 -0.09837513 1 1 1
v -0.2540215 0.4257955 -0.1233751 1 1 1
v -0.2520458 0.4381428 -0.1108751 1 1 1
v -0.1712999 0.4021863 -0.1108751 1 1 1
v -0.1699801 0.4146208 -0.09837513 1 1 1
v -0.1699801 0.4146208 -0.1233751 1 1 1
v -0.1686603 0.4270553 -0.1108751 1 1 1
v -0.08609594 0.3954158 -0.1108751 1 1 1
v -0.08543524 0.4079027 -0.09837513 1 1 1
v -0.08543524 0.4079027 -0.1233751 1 1 1
v -0.08477455 0.4203896 -0.1108751 1 1 1
v -0.0006383061 0.3931567 -0.1108751 1 1 1
v -0.0006383061 0.4056611 -0.09837513 1 1 1
v -0.0006383061 0.4056611 -0.1233751 1 1 1
v -0.0006383061 0.4181654 -0.1108751 1 1 1
v 0.08481933 0.3954158 -0.1108751 1 1 1
v 0.08415863 0.4079027 -0.09837513 1 1 1
v 0.08415863 0.4079027 -0.1233751 1 1 1
v 0.08349793 0.4203896 -0.1108751 1 1 1
v 0.1700233 0.4021863 -0.1108751 1 1 1
v 0.1687035 0.4146208 -0.09837513 1 1 1
v 0.1687035 0.4146208 -0.1233751 1 1 1
v 0.1673837 0.4270553 -0.1108751 1 1 1
v 0.2547205 0.4134482 -0.1108751 1 1 1
v 0.2527449 0.4257955 -0.09837513 1 1 1
v 0.2527449 0.4257955 -0.1233751 1 1 1
v 0.2507692 0.4381428 -0.1108751 1 1 1
v 0.3386596 0.4291681 -0.1108751 1 1 1
v 0.3360329 0.4413935 -0.09837513 1 1 1
v 0.3360329 0.4413935 -0.1233751 1 1 1
v 0.3334062 0.4536189 -0.1108751 1 1 1
v 0.4215913 0.4492996 -0.1108751 1 1 1
v 0.4183201 0.4613685 -0.09837513 1 1 1
v 0.4183201 0.4613685 -0.1233751 1 1 1
v 0.4150489 0.4734374 -0.1108751 1 1 1
v 0.5029508 0.4736874 -0.1108751 1 1 1
v 0.4993617 0.4856611 -0.09837513 1 1 1
v 0.4993617 0.4856611 -0.1233751 1 1 1
v 0.4957725 0.4976347 -0.1108751 1 1 1
v -0.51625 0.5172285 0.2437502 1 1 1
v -0.5 0.525 0.2405002 1 1 1
v -0.5195 0.5172285 0.2600002 1 1 1
v -0.5 0.525 0.2795002 1 1 1
v -0.51625 0.5172285 0.2762502 1 1 1
v -0.4805 0.5172285 0.2600002 1 1 1
v -0.48375 0.5172285 0.2762502 1 1 1
v -0.48375 0.5172285 0.2437502 1 1 1
v -0.5 0.117 0.2453752 1 1 1
v -0.4878125 0.117 0.2478127 1 1 1
v -0.5 0.117 0.2746252 1 1 1
v -0.5121875 0.117 0.2721877 1 1 1
v -0.4878125 0.117 0.2721877 1 1 1
v -0.5121875 0.117 0.2478127 1 1 1
v -0.485375 0.117 0.2600002 1 1 1
v -0.514625 0.117 0.2600002 1 1 1
v -0.4706371 4.511975E-16 0.2600002 1 1 1
v -0.4755309 4.511975E-16 0.2355311 1 1 1
v -0.4755309 4.511975E-16 0.2844693 1 1 1
v -0.5 4.511975E-16 0.2893631 1 1 1
v -0.5 4.511975E-16 0.2306373 1 1 1
v -0.5244691 4.511975E-16 0.2844693 1 1 1
v -0.5244691 4.511975E-16 0.2355311 1 1 1
v -0.5293629 4.511975E-16 0.2600002 1 1 1
v -0.5 0.104 0.2371852 1 1 1
v -0.4809875 0.104 0.2409877 1 1 1
v -0.5 0.117 0.2453752 1 1 1
v -0.4878125 0.117 0.2478127 1 1 1
v -0.477185 0.104 0.2600002 1 1 1
v -0.4809875 0.104 0.2790127 1 1 1
v -0.485375 0.117 0.2600002 1 1 1
v -0.4878125 0.117 0.2721877 1 1 1
v -0.5 0.104 0.2828152 1 1 1
v -0.5 0.117 0.2746252 1 1 1
v -0.5190125 0.104 0.2790127 1 1 1
v -0.5121875 0.117 0.2721877 1 1 1
v -0.522815 0.104 0.2600002 1 1 1
v -0.514625 0.117 0.2600002 1 1 1
v -0.5190125 0.104 0.2409877 1 1 1
v -0.5121875 0.117 0.2478127 1 1 1
v 0.48375 0.5172285 0.2437502 1 1 1
v 0.5 0.525 0.2405002 1 1 1
v 0.4805 0.5172285 0.2600002 1 1 1
v 0.5 0.525 0.2795002 1 1 1
v 0.48375 0.5172285 0.2762502 1 1 1
v 0.5195 0.5172285 0.2600002 1 1 1
v 0.51625 0.5172285 0.2762502 1 1 1
v 0.51625 0.5172285 0.2437502 1 1 1
v 0.5 0.117 0.2453752 1 1 1
v 0.5121875 0.117 0.2478127 1 1 1
v 0.5 0.117 0.2746252 1 1 1
v 0.4878125 0.117 0.2721877 1 1 1
v 0.5121875 0.117 0.2721877 1 1 1
v 0.4878125 0.117 0.2478127 1 1 1
v 0.514625 0.117 0.2600002 1 1 1
v 0.485375 0.117 0.2600002 1 1 1
v 0.5293629 2.255954E-16 0.2600002 1 1 1
v 0.5244691 2.255954E-16 0.2355311 1 1 1
v 0.5244691 2.255954E-16 0.2844693 1 1 1
v 0.5 2.255954E-16 0.2893631 1 1 1
v 0.5 2.255954E-16 0.2306373 1 1 1
v 0.4755309 2.255954E-16 0.2844693 1 1 1
v 0.4755309 2.255954E-16 0.2355311 1 1 1
v 0.4706371 2.255954E-16 0.2600002 1 1 1
v 0.5 0.104 0.2371852 1 1 1
v 0.5190125 0.104 0.2409877 1 1 1
v 0.5 0.117 0.2453752 1 1 1
v 0.5121875 0.117 0.2478127 1 1 1
v 0.522815 0.104 0.2600002 1 1 1
v 0.5190125 0.104 0.2790127 1 1 1
v 0.514625 0.117 0.2600002 1 1 1
v 0.5121875 0.117 0.2721877 1 1 1
v 0.5 0.104 0.2828152 1 1 1
v 0.5 0.117 0.2746252 1 1 1
v 0.4809875 0.104 0.2790127 1 1 1
v 0.4878125 0.117 0.2721877 1 1 1
v 0.477185 0.104 0.2600002 1 1 1
v 0.485375 0.117 0.2600002 1 1 1
v 0.4809875 0.104 0.2409877 1 1 1
v 0.4878125 0.117 0.2478127 1 1 1
v 0.5125 0.455 0.228275 1 1 1
v 0.4875 0.455 0.228275 1 1 1
v 0.5125 0.48 0.228275 1 1 1
v 0.4875 0.48 0.228275 1 1 1
v 0.4875 0.455 -0.1388375 1 1 1
v 0.5125 0.455 -0.1388375 1 1 1
v 0.4875 0.48 -0.1388375 1 1 1
v 0.5125 0.48 -0.1388375 1 1 1
v -0.4875 0.455 0.228275 1 1 1
v -0.5125 0.455 0.228275 1 1 1
v -0.4875 0.48 0.228275 1 1 1
v -0.5125 0.48 0.228275 1 1 1
v -0.5125 0.455 -0.1388375 1 1 1
v -0.4875 0.455 -0.1388375 1 1 1
v -0.5125 0.48 -0.1388375 1 1 1
v -0.4875 0.48 -0.1388375 1 1 1

vn 0.9238796 0 -0.3826835
vn 0.9238796 0 0.3826835
vn 0.3826835 0 -0.9238796
vn 0.3826835 0 0.9238796
vn -0.9238796 0 0.3826835
vn -0.3826835 0 0.9238796
vn -0.9238796 0 -0.3826835
vn 0 -1 0
vn -0.3826835 0 -0.9238796
vn 0 1 0
vn 0.4993807 0.8663827 0
vn 0.3531155 0.8663827 0.3531155
vn 0.3531155 0.8663827 -0.3531155
vn 0 0.8663827 -0.4993807
vn 0 0.8663827 0.4993807
vn -0.3531155 0.8663827 -0.3531155
vn -0.3531155 0.8663827 0.3531155
vn -0.4993807 0.8663827 0
vn 0 0.1778029 -0.9840661
vn 0.6957089 0.1779603 -0.6959305
vn -0.9840091 0.1781178 0
vn -0.6957089 0.1779603 0.6959305
vn 0.6957089 0.1779603 0.6959305
vn 0 0.1778029 0.9840661
vn -0.6957089 0.1779603 -0.6959305
vn 0.9840091 0.1781178 0
vn 0.9540789 -0.2995556 0
vn 0.6745248 -0.2998682 0.6746076
vn -0.6745248 -0.2998682 0.6746076
vn 0 -0.3001808 0.9538823
vn 0 -0.3001808 -0.9538823
vn 0.6745248 -0.2998682 -0.6746076
vn -0.9540789 -0.2995556 0
vn -0.6745248 -0.2998682 -0.6746076
vn -0.2616064 -0.9651747 0
vn -0.287132 -0.957891 0
vn -0.003125113 -0.01152984 0.9999287
vn 0 0 1
vn -0.003125113 -0.01152984 -0.9999287
vn 0 0 -1
vn 0.2616064 0.9651747 0
vn 0.287132 0.957891 0
vn -0.2100609 -0.9776883 0
vn -0.002505451 -0.01166114 0.9999288
vn -0.002505451 -0.01166114 -0.9999288
vn 0.2100609 0.9776883 0
vn -0.1579974 -0.9874396 0
vn -0.00188216 -0.01176297 0.9999291
vn -0.00188216 -0.01176297 -0.9999291
vn 0.1579974 0.9874396 0
vn -0.1055464 -0.9944143 0
vn -0.001256216 -0.01183554 0.9999292
vn -0.001256216 -0.01183554 -0.9999292
vn 0.1055464 0.9944143 0
vn -0.05283761 -0.9986032 0
vn -0.000628537 -0.01187902 0.9999293
vn -0.000628537 -0.01187902 -0.9999293
vn 0.05283761 0.9986032 0
vn 0 -0.0118935 0.9999293
vn 0 -0.0118935 -0.9999293
vn 0.05283761 -0.9986032 0
vn 0.000628537 -0.01187902 0.9999293
vn 0.000628537 -0.01187902 -0.9999293
vn -0.05283761 0.9986032 0
vn 0.1055464 -0.9944143 0
vn 0.001256216 -0.01183554 0.9999292
vn 0.001256216 -0.01183554 -0.9999292
vn -0.1055464 0.9944143 0
vn 0.1579974 -0.9874396 0
vn 0.00188216 -0.01176297 0.9999291
vn 0.00188216 -0.01176297 -0.9999291
vn -0.1579974 0.9874396 0
vn 0.2100609 -0.9776883 0
vn 0.002505451 -0.01166114 0.9999288
vn 0.002505451 -0.01166114 -0.9999288
vn -0.2100609 0.9776883 0
vn 0.2616064 -0.9651747 0
vn 0.003125113 -0.01152984 0.9999287
vn 0.003125113 -0.01152984 -0.9999287
vn -0.2616064 0.9651747 0
vn 0.287132 -0.957891 0
vn -0.287132 0.957891 0
vn -0.444139 0.8915437 -0.0888278
vn -0.4012946 0.9152196 -0.03654768
vn -0.4054329 0.9141248 0
vn -0.4012946 0.9152196 0.03654768
vn -0.444139 0.8915437 0.0888278
vn 0.4054329 0.9141248 0
vn 0.444139 0.8915437 0.0888278
vn 0.4012946 0.9152196 0.03654768
vn 0.444139 0.8915437 -0.0888278
vn 0.4012946 0.9152196 -0.03654768
vn 7.252561E-05 -0.01206061 -0.9999273
vn 0.7069837 -0.01422028 -0.7070868
vn 3.509057E-05 -0.01203191 -0.9999276
vn 0.6443677 -0.01430147 -0.7645821
vn -7.252561E-05 -0.01206061 0.9999273
vn -0.7069837 -0.01422028 0.7070868
vn -3.509057E-05 -0.01203191 0.9999276
vn -0.6443677 -0.01430147 0.7645821
vn 0.707034 -0.01435343 0.707034
vn 0.6444425 -0.01418832 0.7645211
vn -0.707034 -0.01435343 -0.707034
vn -0.6444425 -0.01418832 -0.7645211
vn 0.9999259 -0.01217964 0
vn -0.9999259 -0.01217964 0
vn 0 0.3053494 -0.9522403
vn 0.6672045 0.3311742 -0.6672045
vn 0 0.5330377 -0.8460915
vn 0.567733 0.5961196 -0.567733
vn 0.9522403 0.3053494 0
vn 0.6672045 0.3311742 0.6672045
vn 0.8460915 0.5330377 0
vn 0.567733 0.5961196 0.567733
vn 0 0.3053494 0.9522403
vn 0 0.5330377 0.8460915
vn -0.6672045 0.3311742 0.6672045
vn -0.567733 0.5961196 0.567733
vn -0.9522403 0.3053494 0
vn -0.8460915 0.5330377 0
vn -0.6672045 0.3311742 -0.6672045
vn -0.567733 0.5961196 -0.567733
vn 0 0.0628362 0.9980238
vn -0.7051682 0.07399638 0.7051682
vn 0.7051682 0.07399638 0.7051682
vn 0.7051682 0.07399638 -0.7051682
vn 0.9980238 0.0628362 0
vn 0 0.0628362 -0.9980238
vn -0.7051682 0.07399638 -0.7051682
vn -0.9980238 0.0628362 0
vn -0.7071068 0.7071068 0
vn -1 0 0
vn 0.7071068 0.7071068 0
vn 1 0 0

vt 0.34375 0.225
vt 0.34375 0.025
vt 0.34375 0.1583333
vt 0.34375 0.1324731
vt 0.34375 0.1791582
vt 0.34375 0.1555764
vt 0.34375 0.2020791
vt 0.34375 0.1786797
vt 0.34375 0.09393586
vt 0.34375 0.1173387
vt 0.34375 0.1407415
vt 0.34375 0.06384351
vt 0.34375 0.08747972
vt 0.34375 0.1111159
vt 0.34375 0.0422851
vt 0.34375 0.06608825
vt 0.34375 0.08989141
vt 0.34375 0.02932448
vt 0.34375 0.05322788
vt 0.34375 0.07713129
vt 0.34375 0.04893684
vt 0.34375 0.07287367
vt 0.46875 0.4711905
vt 0.46875 0.475
vt 0.46875 0.275
vt 0.46875 0.4527778
vt 0.46875 0.325
vt 0.46875 0.425

usemtl colormap

f 3/1/2 2/2/1 1/1/1
f 2/2/1 3/1/2 4/2/2
f 6/1/3 2/2/1 5/2/3
f 2/2/1 6/1/3 1/1/1
f 7/1/4 4/2/2 3/1/2
f 4/2/2 7/1/4 8/2/4
f 11/2/6 10/1/5 9/2/5
f 10/1/5 11/2/6 12/1/6
f 7/1/4 11/2/6 8/2/4
f 11/2/6 7/1/4 12/1/6
f 9/2/5 14/1/7 13/2/7
f 14/1/7 9/2/5 10/1/5
f 8/2/8 2/2/8 4/2/8
f 2/2/8 8/2/8 5/2/8
f 5/2/8 8/2/8 11/2/8
f 5/2/8 11/2/8 15/2/8
f 15/2/8 11/2/8 9/2/8
f 15/2/8 9/2/8 13/2/8
f 16/1/9 5/2/3 15/2/9
f 5/2/3 16/1/9 6/1/3
f 1/1/10 7/1/10 3/1/10
f 7/1/10 1/1/10 6/1/10
f 7/1/10 6/1/10 12/1/10
f 12/1/10 6/1/10 16/1/10
f 12/1/10 16/1/10 10/1/10
f 10/1/10 16/1/10 14/1/10
f 13/2/7 16/1/9 15/2/9
f 16/1/9 13/2/7 14/1/7
f 19/1/13 18/1/12 17/1/11
f 18/1/12 19/1/13 20/1/14
f 18/1/12 20/1/14 21/1/15
f 21/1/15 20/1/14 22/1/16
f 21/1/15 22/1/16 23/1/17
f 23/1/17 22/1/16 24/1/18
f 20/1/14 26/3/20 25/3/19
f 26/3/20 20/1/14 19/1/13
f 27/3/21 23/1/17 24/1/18
f 23/1/17 27/3/21 28/3/22
f 18/1/12 30/3/24 29/3/23
f 30/3/24 18/1/12 21/1/15
f 31/3/25 20/1/14 25/3/19
f 20/1/14 31/3/25 22/1/16
f 19/1/13 32/3/26 26/3/20
f 32/3/26 19/1/13 17/1/11
f 27/3/21 22/1/16 31/3/25
f 22/1/16 27/3/21 24/1/18
f 30/3/24 23/1/17 28/3/22
f 23/1/17 30/3/24 21/1/15
f 18/1/12 32/3/26 17/1/11
f 32/3/26 18/1/12 29/3/23
f 29/3/23 33/2/27 32/3/26
f 33/2/27 29/3/23 34/2/28
f 36/2/30 28/3/22 35/2/29
f 28/3/22 36/2/30 30/3/24
f 25/3/19 38/2/32 37/2/31
f 38/2/32 25/3/19 26/3/20
f 39/2/33 28/3/22 27/3/21
f 28/3/22 39/2/33 35/2/29
f 29/3/23 36/2/30 34/2/28
f 36/2/30 29/3/23 30/3/24
f 40/2/34 25/3/19 37/2/31
f 25/3/19 40/2/34 31/3/25
f 32/3/26 38/2/32 26/3/20
f 38/2/32 32/3/26 33/2/27
f 40/2/34 27/3/21 31/3/25
f 27/3/21 40/2/34 39/2/33
f 43/1/2 42/2/1 41/1/1
f 42/2/1 43/1/2 44/2/2
f 46/1/3 42/2/1 45/2/3
f 42/2/1 46/1/3 41/1/1
f 47/1/4 44/2/2 43/1/2
f 44/2/2 47/1/4 48/2/4
f 51/2/6 50/1/5 49/2/5
f 50/1/5 51/2/6 52/1/6
f 47/1/4 51/2/6 48/2/4
f 51/2/6 47/1/4 52/1/6
f 49/2/5 54/1/7 53/2/7
f 54/1/7 49/2/5 50/1/5
f 48/2/8 42/2/8 44/2/8
f 42/2/8 48/2/8 45/2/8
f 45/2/8 48/2/8 51/2/8
f 45/2/8 51/2/8 55/2/8
f 55/2/8 51/2/8 49/2/8
f 55/2/8 49/2/8 53/2/8
f 56/1/9 45/2/3 55/2/9
f 45/2/3 56/1/9 46/1/3
f 41/1/10 47/1/10 43/1/10
f 47/1/10 41/1/10 46/1/10
f 47/1/10 46/1/10 52/1/10
f 52/1/10 46/1/10 56/1/10
f 52/1/10 56/1/10 50/1/10
f 50/1/10 56/1/10 54/1/10
f 53/2/7 56/1/9 55/2/9
f 56/1/9 53/2/7 54/1/7
f 59/1/13 58/1/12 57/1/11
f 58/1/12 59/1/13 60/1/14
f 58/1/12 60/1/14 61/1/15
f 61/1/15 60/1/14 62/1/16
f 61/1/15 62/1/16 63/1/17
f 63/1/17 62/1/16 64/1/18
f 60/1/14 66/3/20 65/3/19
f 66/3/20 60/1/14 59/1/13
f 67/3/21 63/1/17 64/1/18
f 63/1/17 67/3/21 68/3/22
f 58/1/12 70/3/24 69/3/23
f 70/3/24 58/1/12 61/1/15
f 71/3/25 60/1/14 65/3/19
f 60/1/14 71/3/25 62/1/16
f 59/1/13 72/3/26 66/3/20
f 72/3/26 59/1/13 57/1/11
f 67/3/21 62/1/16 71/3/25
f 62/1/16 67/3/21 64/1/18
f 70/3/24 63/1/17 68/3/22
f 63/1/17 70/3/24 61/1/15
f 58/1/12 72/3/26 57/1/11
f 72/3/26 58/1/12 69/3/23
f 69/3/23 73/2/27 72/3/26
f 73/2/27 69/3/23 74/2/28
f 76/2/30 68/3/22 75/2/29
f 68/3/22 76/2/30 70/3/24
f 65/3/19 78/2/32 77/2/31
f 78/2/32 65/3/19 66/3/20
f 79/2/33 68/3/22 67/3/21
f 68/3/22 79/2/33 75/2/29
f 69/3/23 76/2/30 74/2/28
f 76/2/30 69/3/23 70/3/24
f 80/2/34 65/3/19 77/2/31
f 65/3/19 80/2/34 71/3/25
f 72/3/26 78/2/32 66/3/20
f 78/2/32 72/3/26 73/2/27
f 80/2/34 67/3/21 71/3/25
f 67/3/21 80/2/34 79/2/33
f 83/1/13 82/1/12 81/1/11
f 82/1/12 83/1/13 84/1/14
f 82/1/12 84/1/14 85/1/15
f 85/1/15 84/1/14 86/1/16
f 85/1/15 86/1/16 87/1/17
f 87/1/17 86/1/16 88/1/18
f 84/1/14 90/3/20 89/3/19
f 90/3/20 84/1/14 83/1/13
f 91/3/21 87/1/17 88/1/18
f 87/1/17 91/3/21 92/3/22
f 82/1/12 94/3/24 93/3/23
f 94/3/24 82/1/12 85/1/15
f 95/3/25 84/1/14 89/3/19
f 84/1/14 95/3/25 86/1/16
f 83/1/13 96/3/26 90/3/20
f 96/3/26 83/1/13 81/1/11
f 91/3/21 86/1/16 95/3/25
f 86/1/16 91/3/21 88/1/18
f 94/3/24 87/1/17 92/3/22
f 87/1/17 94/3/24 85/1/15
f 82/1/12 96/3/26 81/1/11
f 96/3/26 82/1/12 93/3/23
f 93/3/23 97/2/27 96/3/26
f 97/2/27 93/3/23 98/2/28
f 100/2/30 92/3/22 99/2/29
f 92/3/22 100/2/30 94/3/24
f 89/3/19 102/2/32 101/2/31
f 102/2/32 89/3/19 90/3/20
f 103/2/33 92/3/22 91/3/21
f 92/3/22 103/2/33 99/2/29
f 93/3/23 100/2/30 98/2/28
f 100/2/30 93/3/23 94/3/24
f 104/2/34 89/3/19 101/2/31
f 89/3/19 104/2/34 95/3/25
f 96/3/26 102/2/32 90/3/20
f 102/2/32 96/3/26 97/2/27
f 104/2/34 91/3/21 95/3/25
f 91/3/21 104/2/34 103/2/33
f 107/1/13 106/1/12 105/1/11
f 106/1/12 107/1/13 108/1/14
f 106/1/12 108/1/14 109/1/15
f 109/1/15 108/1/14 110/1/16
f 109/1/15 110/1/16 111/1/17
f 111/1/17 110/1/16 112/1/18
f 108/1/14 114/3/20 113/3/19
f 114/3/20 108/1/14 107/1/13
f 115/3/21 111/1/17 112/1/18
f 111/1/17 115/3/21 116/3/22
f 106/1/12 118/3/24 117/3/23
f 118/3/24 106/1/12 109/1/15
f 119/3/25 108/1/14 113/3/19
f 108/1/14 119/3/25 110/1/16
f 107/1/13 120/3/26 114/3/20
f 120/3/26 107/1/13 105/1/11
f 115/3/21 110/1/16 119/3/25
f 110/1/16 115/3/21 112/1/18
f 118/3/24 111/1/17 116/3/22
f 111/1/17 118/3/24 109/1/15
f 106/1/12 120/3/26 105/1/11
f 120/3/26 106/1/12 117/3/23
f 117/3/23 121/2/27 120/3/26
f 121/2/27 117/3/23 122/2/28
f 124/2/30 116/3/22 123/2/29
f 116/3/22 124/2/30 118/3/24
f 113/3/19 126/2/32 125/2/31
f 126/2/32 113/3/19 114/3/20
f 127/2/33 116/3/22 115/3/21
f 116/3/22 127/2/33 123/2/29
f 117/3/23 124/2/30 122/2/28
f 124/2/30 117/3/23 118/3/24
f 128/2/34 113/3/19 125/2/31
f 113/3/19 128/2/34 119/3/25
f 120/3/26 126/2/32 114/3/20
f 126/2/32 120/3/26 121/2/27
f 128/2/34 115/3/21 119/3/25
f 115/3/21 128/2/34 127/2/33
f 131/6/37 130/5/36 129/4/35
f 130/5/36 131/6/37 132/7/38
f 130/5/36 133/6/39 129/4/35
f 133/6/39 130/5/36 134/7/40
f 134/7/40 135/8/41 133/6/39
f 135/8/41 134/7/40 136/1/42
f 135/8/41 132/7/38 131/6/37
f 132/7/38 135/8/41 136/1/42
f 138/10/44 129/4/35 137/9/43
f 129/4/35 138/10/44 131/6/37
f 129/4/35 139/10/45 137/9/43
f 139/10/45 129/4/35 133/6/39
f 133/6/39 140/11/46 139/10/45
f 140/11/46 133/6/39 135/8/41
f 140/11/46 131/6/37 138/10/44
f 131/6/37 140/11/46 135/8/41
f 142/13/48 137/9/43 141/12/47
f 137/9/43 142/13/48 138/10/44
f 137/9/43 143/13/49 141/12/47
f 143/13/49 137/9/43 139/10/45
f 139/10/45 144/14/50 143/13/49
f 144/14/50 139/10/45 140/11/46
f 144/14/50 138/10/44 142/13/48
f 138/10/44 144/14/50 140/11/46
f 146/16/52 141/12/47 145/15/51
f 141/12/47 146/16/52 142/13/48
f 141/12/47 147/16/53 145/15/51
f 147/16/53 141/12/47 143/13/49
f 143/13/49 148/17/54 147/16/53
f 148/17/54 143/13/49 144/14/50
f 148/17/54 142/13/48 146/16/52
f 142/13/48 148/17/54 144/14/50
f 150/19/56 145/15/51 149/18/55
f 145/15/51 150/19/56 146/16/52
f 145/15/51 151/19/57 149/18/55
f 151/19/57 145/15/51 147/16/53
f 147/16/53 152/20/58 151/19/57
f 152/20/58 147/16/53 148/17/54
f 152/20/58 146/16/52 150/19/56
f 146/16/52 152/20/58 148/17/54
f 154/21/59 149/18/55 153/2/8
f 149/18/55 154/21/59 150/19/56
f 149/18/55 155/21/60 153/2/8
f 155/21/60 149/18/55 151/19/57
f 151/19/57 156/22/10 155/21/60
f 156/22/10 151/19/57 152/20/58
f 156/22/10 150/19/56 154/21/59
f 150/19/56 156/22/10 152/20/58
f 157/18/61 154/21/59 153/2/8
f 154/21/59 157/18/61 158/19/62
f 155/21/60 157/18/61 153/2/8
f 157/18/61 155/21/60 159/19/63
f 156/22/10 159/19/63 155/21/60
f 159/19/63 156/22/10 160/20/64
f 158/19/62 156/22/10 154/21/59
f 156/22/10 158/19/62 160/20/64
f 161/15/65 158/19/62 157/18/61
f 158/19/62 161/15/65 162/16/66
f 159/19/63 161/15/65 157/18/61
f 161/15/65 159/19/63 163/16/67
f 160/20/64 163/16/67 159/19/63
f 163/16/67 160/20/64 164/17/68
f 162/16/66 160/20/64 158/19/62
f 160/20/64 162/16/66 164/17/68
f 165/12/69 162/16/66 161/15/65
f 162/16/66 165/12/69 166/13/70
f 163/16/67 165/12/69 161/15/65
f 165/12/69 163/16/67 167/13/71
f 164/17/68 167/13/71 163/16/67
f 167/13/71 164/17/68 168/14/72
f 166/13/70 164/17/68 162/16/66
f 164/17/68 166/13/70 168/14/72
f 169/9/73 166/13/70 165/12/69
f 166/13/70 169/9/73 170/10/74
f 167/13/71 169/9/73 165/12/69
f 169/9/73 167/13/71 171/10/75
f 168/14/72 171/10/75 167/13/71
f 171/10/75 168/14/72 172/11/76
f 170/10/74 168/14/72 166/13/70
f 168/14/72 170/10/74 172/11/76
f 173/4/77 170/10/74 169/9/73
f 170/10/74 173/4/77 174/6/78
f 171/10/75 173/4/77 169/9/73
f 173/4/77 171/10/75 175/6/79
f 172/11/76 175/6/79 171/10/75
f 175/6/79 172/11/76 176/8/80
f 174/6/78 172/11/76 170/10/74
f 172/11/76 174/6/78 176/8/80
f 177/5/81 174/6/78 173/4/77
f 174/6/78 177/5/81 178/7/38
f 175/6/79 177/5/81 173/4/77
f 177/5/81 175/6/79 179/7/40
f 176/8/80 179/7/40 175/6/79
f 179/7/40 176/8/80 180/1/82
f 178/7/38 176/8/80 174/6/78
f 176/8/80 178/7/38 180/1/82
f 183/6/37 182/5/36 181/4/35
f 182/5/36 183/6/37 184/7/38
f 182/5/36 185/6/39 181/4/35
f 185/6/39 182/5/36 186/7/40
f 186/7/40 187/8/41 185/6/39
f 187/8/41 186/7/40 188/1/42
f 187/8/41 184/7/38 183/6/37
f 184/7/38 187/8/41 188/1/42
f 190/10/44 181/4/35 189/9/43
f 181/4/35 190/10/44 183/6/37
f 181/4/35 191/10/45 189/9/43
f 191/10/45 181/4/35 185/6/39
f 185/6/39 192/11/46 191/10/45
f 192/11/46 185/6/39 187/8/41
f 192/11/46 183/6/37 190/10/44
f 183/6/37 192/11/46 187/8/41
f 194/13/48 189/9/43 193/12/47
f 189/9/43 194/13/48 190/10/44
f 189/9/43 195/13/49 193/12/47
f 195/13/49 189/9/43 191/10/45
f 191/10/45 196/14/50 195/13/49
f 196/14/50 191/10/45 192/11/46
f 196/14/50 190/10/44 194/13/48
f 190/10/44 196/14/50 192/11/46
f 198/16/52 193/12/47 197/15/51
f 193/12/47 198/16/52 194/13/48
f 193/12/47 199/16/53 197/15/51
f 199/16/53 193/12/47 195/13/49
f 195/13/49 200/17/54 199/16/53
f 200/17/54 195/13/49 196/14/50
f 200/17/54 194/13/48 198/16/52
f 194/13/48 200/17/54 196/14/50
f 202/19/56 197/15/51 201/18/55
f 197/15/51 202/19/56 198/16/52
f 197/15/51 203/19/57 201/18/55
f 203/19/57 197/15/51 199/16/53
f 199/16/53 204/20/58 203/19/57
f 204/20/58 199/16/53 200/17/54
f 204/20/58 198/16/52 202/19/56
f 198/16/52 204/20/58 200/17/54
f 206/21/59 201/18/55 205/2/8
f 201/18/55 206/21/59 202/19/56
f 201/18/55 207/21/60 205/2/8
f 207/21/60 201/18/55 203/19/57
f 203/19/57 208/22/10 207/21/60
f 208/22/10 203/19/57 204/20/58
f 208/22/10 202/19/56 206/21/59
f 202/19/56 208/22/10 204/20/58
f 209/18/61 206/21/59 205/2/8
f 206/21/59 209/18/61 210/19/62
f 207/21/60 209/18/61 205/2/8
f 209/18/61 207/21/60 211/19/63
f 208/22/10 211/19/63 207/21/60
f 211/19/63 208/22/10 212/20/64
f 210/19/62 208/22/10 206/21/59
f 208/22/10 210/19/62 212/20/64
f 213/15/65 210/19/62 209/18/61
f 210/19/62 213/15/65 214/16/66
f 211/19/63 213/15/65 209/18/61
f 213/15/65 211/19/63 215/16/67
f 212/20/64 215/16/67 211/19/63
f 215/16/67 212/20/64 216/17/68
f 214/16/66 212/20/64 210/19/62
f 212/20/64 214/16/66 216/17/68
f 217/12/69 214/16/66 213/15/65
f 214/16/66 217/12/69 218/13/70
f 215/16/67 217/12/69 213/15/65
f 217/12/69 215/16/67 219/13/71
f 216/17/68 219/13/71 215/16/67
f 219/13/71 216/17/68 220/14/72
f 218/13/70 216/17/68 214/16/66
f 216/17/68 218/13/70 220/14/72
f 221/9/73 218/13/70 217/12/69
f 218/13/70 221/9/73 222/10/74
f 219/13/71 221/9/73 217/12/69
f 221/9/73 219/13/71 223/10/75
f 220/14/72 223/10/75 219/13/71
f 223/10/75 220/14/72 224/11/76
f 222/10/74 220/14/72 218/13/70
f 220/14/72 222/10/74 224/11/76
f 225/4/77 222/10/74 221/9/73
f 222/10/74 225/4/77 226/6/78
f 223/10/75 225/4/77 221/9/73
f 225/4/77 223/10/75 227/6/79
f 224/11/76 227/6/79 223/10/75
f 227/6/79 224/11/76 228/8/80
f 226/6/78 224/11/76 222/10/74
f 224/11/76 226/6/78 228/8/80
f 229/5/81 226/6/78 225/4/77
f 226/6/78 229/5/81 230/7/38
f 227/6/79 229/5/81 225/4/77
f 229/5/81 227/6/79 231/7/40
f 228/8/80 231/7/40 227/6/79
f 231/7/40 228/8/80 232/1/82
f 230/7/38 228/8/80 226/6/78
f 228/8/80 230/7/38 232/1/82
f 235/23/85 234/24/84 233/23/83
f 235/23/85 237/23/87 236/24/86
f 235/23/85 236/24/86 234/24/84
f 236/24/90 239/23/89 238/23/88
f 234/24/92 238/23/88 240/23/91
f 236/24/90 238/23/88 234/24/92
f 234/24/95 242/25/94 241/25/93
f 234/24/95 240/23/96 242/25/94
f 236/24/99 244/25/98 243/25/97
f 236/24/99 237/23/100 244/25/98
f 239/23/102 243/25/97 245/25/101
f 236/24/99 243/25/97 239/23/102
f 233/23/104 241/25/93 246/25/103
f 234/24/95 241/25/93 233/23/104
f 239/23/102 247/25/105 238/23/105
f 247/25/105 239/23/102 245/25/101
f 244/25/98 235/23/106 248/25/106
f 235/23/106 244/25/98 237/23/100
f 238/23/105 242/25/94 240/23/96
f 242/25/94 238/23/105 247/25/105
f 246/25/103 235/23/106 233/23/104
f 235/23/106 246/25/103 248/25/106
f 251/25/8 250/25/8 249/25/8
f 250/25/8 251/25/8 252/25/8
f 250/25/8 252/25/8 253/25/8
f 253/25/8 252/25/8 254/25/8
f 253/25/8 254/25/8 255/25/8
f 255/25/8 254/25/8 256/25/8
f 259/24/109 258/26/108 257/26/107
f 258/26/108 259/24/109 260/24/110
f 263/24/113 262/26/112 261/26/111
f 262/26/112 263/24/113 264/24/114
f 264/24/114 265/26/115 262/26/112
f 265/26/115 264/24/114 266/24/116
f 266/24/116 267/26/117 265/26/115
f 267/26/117 266/24/116 268/24/118
f 267/26/117 270/24/120 269/26/119
f 270/24/120 267/26/117 268/24/118
f 269/26/119 272/24/122 271/26/121
f 272/24/122 269/26/119 270/24/120
f 260/24/110 261/26/111 258/26/108
f 261/26/111 260/24/110 263/24/113
f 272/24/122 257/26/107 271/26/121
f 257/26/107 272/24/122 259/24/109
f 265/26/115 254/25/124 252/25/123
f 254/25/124 265/26/115 267/26/117
f 262/26/112 252/25/123 251/25/125
f 252/25/123 262/26/112 265/26/115
f 258/26/108 249/25/127 250/25/126
f 249/25/127 258/26/108 261/26/111
f 257/26/107 250/25/126 253/25/128
f 250/25/126 257/26/107 258/26/108
f 256/25/130 271/26/121 255/25/129
f 271/26/121 256/25/130 269/26/119
f 271/26/121 253/25/128 255/25/129
f 253/25/128 271/26/121 257/26/107
f 254/25/124 269/26/119 256/25/130
f 269/26/119 254/25/124 267/26/117
f 261/26/111 251/25/125 249/25/127
f 251/25/125 261/26/111 262/26/112
f 275/23/85 274/24/84 273/23/83
f 275/23/85 277/23/87 276/24/86
f 275/23/85 276/24/86 274/24/84
f 276/24/90 279/23/89 278/23/88
f 274/24/92 278/23/88 280/23/91
f 276/24/90 278/23/88 274/24/92
f 274/24/95 282/25/94 281/25/93
f 274/24/95 280/23/96 282/25/94
f 276/24/99 284/25/98 283/25/97
f 276/24/99 277/23/100 284/25/98
f 279/23/102 283/25/97 285/25/101
f 276/24/99 283/25/97 279/23/102
f 273/23/104 281/25/93 286/25/103
f 274/24/95 281/25/93 273/23/104
f 279/23/102 287/25/105 278/23/105
f 287/25/105 279/23/102 285/25/101
f 284/25/98 275/23/106 288/25/106
f 275/23/106 284/25/98 277/23/100
f 278/23/105 282/25/94 280/23/96
f 282/25/94 278/23/105 287/25/105
f 286/25/103 275/23/106 273/23/104
f 275/23/106 286/25/103 288/25/106
f 291/25/8 290/25/8 289/25/8
f 290/25/8 291/25/8 292/25/8
f 290/25/8 292/25/8 293/25/8
f 293/25/8 292/25/8 294/25/8
f 293/25/8 294/25/8 295/25/8
f 295/25/8 294/25/8 296/25/8
f 299/24/109 298/26/108 297/26/107
f 298/26/108 299/24/109 300/24/110
f 303/24/113 302/26/112 301/26/111
f 302/26/112 303/24/113 304/24/114
f 304/24/114 305/26/115 302/26/112
f 305/26/115 304/24/114 306/24/116
f 306/24/116 307/26/117 305/26/115
f 307/26/117 306/24/116 308/24/118
f 307/26/117 310/24/120 309/26/119
f 310/24/120 307/26/117 308/24/118
f 309/26/119 312/24/122 311/26/121
f 312/24/122 309/26/119 310/24/120
f 300/24/110 301/26/111 298/26/108
f 301/26/111 300/24/110 303/24/113
f 312/24/122 297/26/107 311/26/121
f 297/26/107 312/24/122 299/24/109
f 305/26/115 294/25/124 292/25/123
f 294/25/124 305/26/115 307/26/117
f 302/26/112 292/25/123 291/25/125
f 292/25/123 302/26/112 305/26/115
f 298/26/108 289/25/127 290/25/126
f 289/25/127 298/26/108 301/26/111
f 297/26/107 290/25/126 293/25/128
f 290/25/126 297/26/107 298/26/108
f 296/25/130 311/26/121 295/25/129
f 311/26/121 296/25/130 309/26/119
f 311/26/121 293/25/128 295/25/129
f 293/25/128 311/26/121 297/26/107
f 294/25/124 309/26/119 296/25/130
f 309/26/119 294/25/124 307/26/117
f 301/26/111 291/25/125 289/25/127
f 291/25/125 301/26/111 302/26/112
f 315/28/38 314/27/38 313/27/38
f 314/27/38 315/28/38 316/28/38
f 319/28/40 318/27/40 317/27/40
f 318/27/40 319/28/40 320/28/40
f 317/27/132 316/28/131 319/28/131
f 316/28/131 317/27/132 314/27/132
f 319/28/131 315/28/133 320/28/133
f 315/28/133 319/28/131 316/28/131
f 315/28/133 318/27/134 320/28/133
f 318/27/134 315/28/133 313/27/134
f 314/27/8 318/27/8 313/27/8
f 318/27/8 314/27/8 317/27/8
f 323/28/38 322/27/38 321/27/38
f 322/27/38 323/28/38 324/28/38
f 327/28/40 326/27/40 325/27/40
f 326/27/40 327/28/40 328/28/40
f 325/27/132 324/28/131 327/28/131
f 324/28/131 325/27/132 322/27/132
f 327/28/131 323/28/133 328/28/133
f 323/28/133 327/28/131 324/28/131
f 323/28/133 326/27/134 328/28/133
f 326/27/134 323/28/133 321/27/134
f 322/27/8 326/27/8 321/27/8
f 326/27/8 322/27/8 325/27/8

g electricity-side-wide




usemtl colormap

f 3/1/2 2/2/1 1/1/1
f 2/2/1 3/1/2 4/2/2
f 6/1/3 2/2/1 5/2/3
f 2/2/1 6/1/3 1/1/1
f 7/1/4 4/2/2 3/1/2
f 4/2/2 7/1/4 8/2/4
f 11/2/6 10/1/5 9/2/5
f 10/1/5 11/2/6 12/1/6
f 7/1/4 11/2/6 8/2/4
f 11/2/6 7/1/4 12/1/6
f 9/2/5 14/1/7 13/2/7
f 14/1/7 9/2/5 10/1/5
f 8/2/8 2/2/8 4/2/8
f 2/2/8 8/2/8 5/2/8
f 5/2/8 8/2/8 11/2/8
f 5/2/8 11/2/8 15/2/8
f 15/2/8 11/2/8 9/2/8
f 15/2/8 9/2/8 13/2/8
f 16/1/9 5/2/3 15/2/9
f 5/2/3 16/1/9 6/1/3
f 1/1/10 7/1/10 3/1/10
f 7/1/10 1/1/10 6/1/10
f 7/1/10 6/1/10 12/1/10
f 12/1/10 6/1/10 16/1/10
f 12/1/10 16/1/10 10/1/10
f 10/1/10 16/1/10 14/1/10
f 13/2/7 16/1/9 15/2/9
f 16/1/9 13/2/7 14/1/7
f 19/1/13 18/1/12 17/1/11
f 18/1/12 19/1/13 20/1/14
f 18/1/12 20/1/14 21/1/15
f 21/1/15 20/1/14 22/1/16
f 21/1/15 22/1/16 23/1/17
f 23/1/17 22/1/16 24/1/18
f 20/1/14 26/3/20 25/3/19
f 26/3/20 20/1/14 19/1/13
f 27/3/21 23/1/17 24/1/18
f 23/1/17 27/3/21 28/3/22
f 18/1/12 30/3/24 29/3/23
f 30/3/24 18/1/12 21/1/15
f 31/3/25 20/1/14 25/3/19
f 20/1/14 31/3/25 22/1/16
f 19/1/13 32/3/26 26/3/20
f 32/3/26 19/1/13 17/1/11
f 27/3/21 22/1/16 31/3/25
f 22/1/16 27/3/21 24/1/18
f 30/3/24 23/1/17 28/3/22
f 23/1/17 30/3/24 21/1/15
f 18/1/12 32/3/26 17/1/11
f 32/3/26 18/1/12 29/3/23
f 29/3/23 33/2/27 32/3/26
f 33/2/27 29/3/23 34/2/28
f 36/2/30 28/3/22 35/2/29
f 28/3/22 36/2/30 30/3/24
f 25/3/19 38/2/32 37/2/31
f 38/2/32 25/3/19 26/3/20
f 39/2/33 28/3/22 27/3/21
f 28/3/22 39/2/33 35/2/29
f 29/3/23 36/2/30 34/2/28
f 36/2/30 29/3/23 30/3/24
f 40/2/34 25/3/19 37/2/31
f 25/3/19 40/2/34 31/3/25
f 32/3/26 38/2/32 26/3/20
f 38/2/32 32/3/26 33/2/27
f 40/2/34 27/3/21 31/3/25
f 27/3/21 40/2/34 39/2/33
f 43/1/2 42/2/1 41/1/1
f 42/2/1 43/1/2 44/2/2
f 46/1/3 42/2/1 45/2/3
f 42/2/1 46/1/3 41/1/1
f 47/1/4 44/2/2 43/1/2
f 44/2/2 47/1/4 48/2/4
f 51/2/6 50/1/5 49/2/5
f 50/1/5 51/2/6 52/1/6
f 47/1/4 51/2/6 48/2/4
f 51/2/6 47/1/4 52/1/6
f 49/2/5 54/1/7 53/2/7
f 54/1/7 49/2/5 50/1/5
f 48/2/8 42/2/8 44/2/8
f 42/2/8 48/2/8 45/2/8
f 45/2/8 48/2/8 51/2/8
f 45/2/8 51/2/8 55/2/8
f 55/2/8 51/2/8 49/2/8
f 55/2/8 49/2/8 53/2/8
f 56/1/9 45/2/3 55/2/9
f 45/2/3 56/1/9 46/1/3
f 41/1/10 47/1/10 43/1/10
f 47/1/10 41/1/10 46/1/10
f 47/1/10 46/1/10 52/1/10
f 52/1/10 46/1/10 56/1/10
f 52/1/10 56/1/10 50/1/10
f 50/1/10 56/1/10 54/1/10
f 53/2/7 56/1/9 55/2/9
f 56/1/9 53/2/7 54/1/7
f 59/1/13 58/1/12 57/1/11
f 58/1/12 59/1/13 60/1/14
f 58/1/12 60/1/14 61/1/15
f 61/1/15 60/1/14 62/1/16
f 61/1/15 62/1/16 63/1/17
f 63/1/17 62/1/16 64/1/18
f 60/1/14 66/3/20 65/3/19
f 66/3/20 60/1/14 59/1/13
f 67/3/21 63/1/17 64/1/18
f 63/1/17 67/3/21 68/3/22
f 58/1/12 70/3/24 69/3/23
f 70/3/24 58/1/12 61/1/15
f 71/3/25 60/1/14 65/3/19
f 60/1/14 71/3/25 62/1/16
f 59/1/13 72/3/26 66/3/20
f 72/3/26 59/1/13 57/1/11
f 67/3/21 62/1/16 71/3/25
f 62/1/16 67/3/21 64/1/18
f 70/3/24 63/1/17 68/3/22
f 63/1/17 70/3/24 61/1/15
f 58/1/12 72/3/26 57/1/11
f 72/3/26 58/1/12 69/3/23
f 69/3/23 73/2/27 72/3/26
f 73/2/27 69/3/23 74/2/28
f 76/2/30 68/3/22 75/2/29
f 68/3/22 76/2/30 70/3/24
f 65/3/19 78/2/32 77/2/31
f 78/2/32 65/3/19 66/3/20
f 79/2/33 68/3/22 67/3/21
f 68/3/22 79/2/33 75/2/29
f 69/3/23 76/2/30 74/2/28
f 76/2/30 69/3/23 70/3/24
f 80/2/34 65/3/19 77/2/31
f 65/3/19 80/2/34 71/3/25
f 72/3/26 78/2/32 66/3/20
f 78/2/32 72/3/26 73/2/27
f 80/2/34 67/3/21 71/3/25
f 67/3/21 80/2/34 79/2/33
f 83/1/13 82/1/12 81/1/11
f 82/1/12 83/1/13 84/1/14
f 82/1/12 84/1/14 85/1/15
f 85/1/15 84/1/14 86/1/16
f 85/1/15 86/1/16 87/1/17
f 87/1/17 86/1/16 88/1/18
f 84/1/14 90/3/20 89/3/19
f 90/3/20 84/1/14 83/1/13
f 91/3/21 87/1/17 88/1/18
f 87/1/17 91/3/21 92/3/22
f 82/1/12 94/3/24 93/3/23
f 94/3/24 82/1/12 85/1/15
f 95/3/25 84/1/14 89/3/19
f 84/1/14 95/3/25 86/1/16
f 83/1/13 96/3/26 90/3/20
f 96/3/26 83/1/13 81/1/11
f 91/3/21 86/1/16 95/3/25
f 86/1/16 91/3/21 88/1/18
f 94/3/24 87/1/17 92/3/22
f 87/1/17 94/3/24 85/1/15
f 82/1/12 96/3/26 81/1/11
f 96/3/26 82/1/12 93/3/23
f 93/3/23 97/2/27 96/3/26
f 97/2/27 93/3/23 98/2/28
f 100/2/30 92/3/22 99/2/29
f 92/3/22 100/2/30 94/3/24
f 89/3/19 102/2/32 101/2/31
f 102/2/32 89/3/19 90/3/20
f 103/2/33 92/3/22 91/3/21
f 92/3/22 103/2/33 99/2/29
f 93/3/23 100/2/30 98/2/28
f 100/2/30 93/3/23 94/3/24
f 104/2/34 89/3/19 101/2/31
f 89/3/19 104/2/34 95/3/25
f 96/3/26 102/2/32 90/3/20
f 102/2/32 96/3/26 97/2/27
f 104/2/34 91/3/21 95/3/25
f 91/3/21 104/2/34 103/2/33
f 107/1/13 106/1/12 105/1/11
f 106/1/12 107/1/13 108/1/14
f 106/1/12 108/1/14 109/1/15
f 109/1/15 108/1/14 110/1/16
f 109/1/15 110/1/16 111/1/17
f 111/1/17 110/1/16 112/1/18
f 108/1/14 114/3/20 113/3/19
f 114/3/20 108/1/14 107/1/13
f 115/3/21 111/1/17 112/1/18
f 111/1/17 115/3/21 116/3/22
f 106/1/12 118/3/24 117/3/23
f 118/3/24 106/1/12 109/1/15
f 119/3/25 108/1/14 113/3/19
f 108/1/14 119/3/25 110/1/16
f 107/1/13 120/3/26 114/3/20
f 120/3/26 107/1/13 105/1/11
f 115/3/21 110/1/16 119/3/25
f 110/1/16 115/3/21 112/1/18
f 118/3/24 111/1/17 116/3/22
f 111/1/17 118/3/24 109/1/15
f 106/1/12 120/3/26 105/1/11
f 120/3/26 106/1/12 117/3/23
f 117/3/23 121/2/27 120/3/26
f 121/2/27 117/3/23 122/2/28
f 124/2/30 116/3/22 123/2/29
f 116/3/22 124/2/30 118/3/24
f 113/3/19 126/2/32 125/2/31
f 126/2/32 113/3/19 114/3/20
f 127/2/33 116/3/22 115/3/21
f 116/3/22 127/2/33 123/2/29
f 117/3/23 124/2/30 122/2/28
f 124/2/30 117/3/23 118/3/24
f 128/2/34 113/3/19 125/2/31
f 113/3/19 128/2/34 119/3/25
f 120/3/26 126/2/32 114/3/20
f 126/2/32 120/3/26 121/2/27
f 128/2/34 115/3/21 119/3/25
f 115/3/21 128/2/34 127/2/33
f 131/6/37 130/5/36 129/4/35
f 130/5/36 131/6/37 132/7/38
f 130/5/36 133/6/39 129/4/35
f 133/6/39 130/5/36 134/7/40
f 134/7/40 135/8/41 133/6/39
f 135/8/41 134/7/40 136/1/42
f 135/8/41 132/7/38 131/6/37
f 132/7/38 135/8/41 136/1/42
f 138/10/44 129/4/35 137/9/43
f 129/4/35 138/10/44 131/6/37
f 129/4/35 139/10/45 137/9/43
f 139/10/45 129/4/35 133/6/39
f 133/6/39 140/11/46 139/10/45
f 140/11/46 133/6/39 135/8/41
f 140/11/46 131/6/37 138/10/44
f 131/6/37 140/11/46 135/8/41
f 142/13/48 137/9/43 141/12/47
f 137/9/43 142/13/48 138/10/44
f 137/9/43 143/13/49 141/12/47
f 143/13/49 137/9/43 139/10/45
f 139/10/45 144/14/50 143/13/49
f 144/14/50 139/10/45 140/11/46
f 144/14/50 138/10/44 142/13/48
f 138/10/44 144/14/50 140/11/46
f 146/16/52 141/12/47 145/15/51
f 141/12/47 146/16/52 142/13/48
f 141/12/47 147/16/53 145/15/51
f 147/16/53 141/12/47 143/13/49
f 143/13/49 148/17/54 147/16/53
f 148/17/54 143/13/49 144/14/50
f 148/17/54 142/13/48 146/16/52
f 142/13/48 148/17/54 144/14/50
f 150/19/56 145/15/51 149/18/55
f 145/15/51 150/19/56 146/16/52
f 145/15/51 151/19/57 149/18/55
f 151/19/57 145/15/51 147/16/53
f 147/16/53 152/20/58 151/19/57
f 152/20/58 147/16/53 148/17/54
f 152/20/58 146/16/52 150/19/56
f 146/16/52 152/20/58 148/17/54
f 154/21/59 149/18/55 153/2/8
f 149/18/55 154/21/59 150/19/56
f 149/18/55 155/21/60 153/2/8
f 155/21/60 149/18/55 151/19/57
f 151/19/57 156/22/10 155/21/60
f 156/22/10 151/19/57 152/20/58
f 156/22/10 150/19/56 154/21/59
f 150/19/56 156/22/10 152/20/58
f 157/18/61 154/21/59 153/2/8
f 154/21/59 157/18/61 158/19/62
f 155/21/60 157/18/61 153/2/8
f 157/18/61 155/21/60 159/19/63
f 156/22/10 159/19/63 155/21/60
f 159/19/63 156/22/10 160/20/64
f 158/19/62 156/22/10 154/21/59
f 156/22/10 158/19/62 160/20/64
f 161/15/65 158/19/62 157/18/61
f 158/19/62 161/15/65 162/16/66
f 159/19/63 161/15/65 157/18/61
f 161/15/65 159/19/63 163/16/67
f 160/20/64 163/16/67 159/19/63
f 163/16/67 160/20/64 164/17/68
f 162/16/66 160/20/64 158/19/62
f 160/20/64 162/16/66 164/17/68
f 165/12/69 162/16/66 161/15/65
f 162/16/66 165/12/69 166/13/70
f 163/16/67 165/12/69 161/15/65
f 165/12/69 163/16/67 167/13/71
f 164/17/68 167/13/71 163/16/67
f 167/13/71 164/17/68 168/14/72
f 166/13/70 164/17/68 162/16/66
f 164/17/68 166/13/70 168/14/72
f 169/9/73 166/13/70 165/12/69
f 166/13/70 169/9/73 170/10/74
f 167/13/71 169/9/73 165/12/69
f 169/9/73 167/13/71 171/10/75
f 168/14/72 171/10/75 167/13/71
f 171/10/75 168/14/72 172/11/76
f 170/10/74 168/14/72 166/13/70
f 168/14/72 170/10/74 172/11/76
f 173/4/77 170/10/74 169/9/73
f 170/10/74 173/4/77 174/6/78
f 171/10/75 173/4/77 169/9/73
f 173/4/77 171/10/75 175/6/79
f 172/11/76 175/6/79 171/10/75
f 175/6/79 172/11/76 176/8/80
f 174/6/78 172/11/76 170/10/74
f 172/11/76 174/6/78 176/8/80
f 177/5/81 174/6/78 173/4/77
f 174/6/78 177/5/81 178/7/38
f 175/6/79 177/5/81 173/4/77
f 177/5/81 175/6/79 179/7/40
f 176/8/80 179/7/40 175/6/79
f 179/7/40 176/8/80 180/1/82
f 178/7/38 176/8/80 174/6/78
f 176/8/80 178/7/38 180/1/82
f 183/6/37 182/5/36 181/4/35
f 182/5/36 183/6/37 184/7/38
f 182/5/36 185/6/39 181/4/35
f 185/6/39 182/5/36 186/7/40
f 186/7/40 187/8/41 185/6/39
f 187/8/41 186/7/40 188/1/42
f 187/8/41 184/7/38 183/6/37
f 184/7/38 187/8/41 188/1/42
f 190/10/44 181/4/35 189/9/43
f 181/4/35 190/10/44 183/6/37
f 181/4/35 191/10/45 189/9/43
f 191/10/45 181/4/35 185/6/39
f 185/6/39 192/11/46 191/10/45
f 192/11/46 185/6/39 187/8/41
f 192/11/46 183/6/37 190/10/44
f 183/6/37 192/11/46 187/8/41
f 194/13/48 189/9/43 193/12/47
f 189/9/43 194/13/48 190/10/44
f 189/9/43 195/13/49 193/12/47
f 195/13/49 189/9/43 191/10/45
f 191/10/45 196/14/50 195/13/49
f 196/14/50 191/10/45 192/11/46
f 196/14/50 190/10/44 194/13/48
f 190/10/44 196/14/50 192/11/46
f 198/16/52 193/12/47 197/15/51
f 193/12/47 198/16/52 194/13/48
f 193/12/47 199/16/53 197/15/51
f 199/16/53 193/12/47 195/13/49
f 195/13/49 200/17/54 199/16/53
f 200/17/54 195/13/49 196/14/50
f 200/17/54 194/13/48 198/16/52
f 194/13/48 200/17/54 196/14/50
f 202/19/56 197/15/51 201/18/55
f 197/15/51 202/19/56 198/16/52
f 197/15/51 203/19/57 201/18/55
f 203/19/57 197/15/51 199/16/53
f 199/16/53 204/20/58 203/19/57
f 204/20/58 199/16/53 200/17/54
f 204/20/58 198/16/52 202/19/56
f 198/16/52 204/20/58 200/17/54
f 206/21/59 201/18/55 205/2/8
f 201/18/55 206/21/59 202/19/56
f 201/18/55 207/21/60 205/2/8
f 207/21/60 201/18/55 203/19/57
f 203/19/57 208/22/10 207/21/60
f 208/22/10 203/19/57 204/20/58
f 208/22/10 202/19/56 206/21/59
f 202/19/56 208/22/10 204/20/58
f 209/18/61 206/21/59 205/2/8
f 206/21/59 209/18/61 210/19/62
f 207/21/60 209/18/61 205/2/8
f 209/18/61 207/21/60 211/19/63
f 208/22/10 211/19/63 207/21/60
f 211/19/63 208/22/10 212/20/64
f 210/19/62 208/22/10 206/21/59
f 208/22/10 210/19/62 212/20/64
f 213/15/65 210/19/62 209/18/61
f 210/19/62 213/15/65 214/16/66
f 211/19/63 213/15/65 209/18/61
f 213/15/65 211/19/63 215/16/67
f 212/20/64 215/16/67 211/19/63
f 215/16/67 212/20/64 216/17/68
f 214/16/66 212/20/64 210/19/62
f 212/20/64 214/16/66 216/17/68
f 217/12/69 214/16/66 213/15/65
f 214/16/66 217/12/69 218/13/70
f 215/16/67 217/12/69 213/15/65
f 217/12/69 215/16/67 219/13/71
f 216/17/68 219/13/71 215/16/67
f 219/13/71 216/17/68 220/14/72
f 218/13/70 216/17/68 214/16/66
f 216/17/68 218/13/70 220/14/72
f 221/9/73 218/13/70 217/12/69
f 218/13/70 221/9/73 222/10/74
f 219/13/71 221/9/73 217/12/69
f 221/9/73 219/13/71 223/10/75
f 220/14/72 223/10/75 219/13/71
f 223/10/75 220/14/72 224/11/76
f 222/10/74 220/14/72 218/13/70
f 220/14/72 222/10/74 224/11/76
f 225/4/77 222/10/74 221/9/73
f 222/10/74 225/4/77 226/6/78
f 223/10/75 225/4/77 221/9/73
f 225/4/77 223/10/75 227/6/79
f 224/11/76 227/6/79 223/10/75
f 227/6/79 224/11/76 228/8/80
f 226/6/78 224/11/76 222/10/74
f 224/11/76 226/6/78 228/8/80
f 229/5/81 226/6/78 225/4/77
f 226/6/78 229/5/81 230/7/38
f 227/6/79 229/5/81 225/4/77
f 229/5/81 227/6/79 231/7/40
f 228/8/80 231/7/40 227/6/79
f 231/7/40 228/8/80 232/1/82
f 230/7/38 228/8/80 226/6/78
f 228/8/80 230/7/38 232/1/82
f 235/23/85 234/24/84 233/23/83
f 235/23/85 237/23/87 236/24/86
f 235/23/85 236/24/86 234/24/84
f 236/24/90 239/23/89 238/23/88
f 234/24/92 238/23/88 240/23/91
f 236/24/90 238/23/88 234/24/92
f 234/24/95 242/25/94 241/25/93
f 234/24/95 240/23/96 242/25/94
f 236/24/99 244/25/98 243/25/97
f 236/24/99 237/23/100 244/25/98
f 239/23/102 243/25/97 245/25/101
f 236/24/99 243/25/97 239/23/102
f 233/23/104 241/25/93 246/25/103
f 234/24/95 241/25/93 233/23/104
f 239/23/102 247/25/105 238/23/105
f 247/25/105 239/23/102 245/25/101
f 244/25/98 235/23/106 248/25/106
f 235/23/106 244/25/98 237/23/100
f 238/23/105 242/25/94 240/23/96
f 242/25/94 238/23/105 247/25/105
f 246/25/103 235/23/106 233/23/104
f 235/23/106 246/25/103 248/25/106
f 251/25/8 250/25/8 249/25/8
f 250/25/8 251/25/8 252/25/8
f 250/25/8 252/25/8 253/25/8
f 253/25/8 252/25/8 254/25/8
f 253/25/8 254/25/8 255/25/8
f 255/25/8 254/25/8 256/25/8
f 259/24/109 258/26/108 257/26/107
f 258/26/108 259/24/109 260/24/110
f 263/24/113 262/26/112 261/26/111
f 262/26/112 263/24/113 264/24/114
f 264/24/114 265/26/115 262/26/112
f 265/26/115 264/24/114 266/24/116
f 266/24/116 267/26/117 265/26/115
f 267/26/117 266/24/116 268/24/118
f 267/26/117 270/24/120 269/26/119
f 270/24/120 267/26/117 268/24/118
f 269/26/119 272/24/122 271/26/121
f 272/24/122 269/26/119 270/24/120
f 260/24/110 261/26/111 258/26/108
f 261/26/111 260/24/110 263/24/113
f 272/24/122 257/26/107 271/26/121
f 257/26/107 272/24/122 259/24/109
f 265/26/115 254/25/124 252/25/123
f 254/25/124 265/26/115 267/26/117
f 262/26/112 252/25/123 251/25/125
f 252/25/123 262/26/112 265/26/115
f 258/26/108 249/25/127 250/25/126
f 249/25/127 258/26/108 261/26/111
f 257/26/107 250/25/126 253/25/128
f 250/25/126 257/26/107 258/26/108
f 256/25/130 271/26/121 255/25/129
f 271/26/121 256/25/130 269/26/119
f 271/26/121 253/25/128 255/25/129
f 253/25/128 271/26/121 257/26/107
f 254/25/124 269/26/119 256/25/130
f 269/26/119 254/25/124 267/26/117
f 261/26/111 251/25/125 249/25/127
f 251/25/125 261/26/111 262/26/112
f 275/23/85 274/24/84 273/23/83
f 275/23/85 277/23/87 276/24/86
f 275/23/85 276/24/86 274/24/84
f 276/24/90 279/23/89 278/23/88
f 274/24/92 278/23/88 280/23/91
f 276/24/90 278/23/88 274/24/92
f 274/24/95 282/25/94 281/25/93
f 274/24/95 280/23/96 282/25/94
f 276/24/99 284/25/98 283/25/97
f 276/24/99 277/23/100 284/25/98
f 279/23/102 283/25/97 285/25/101
f 276/24/99 283/25/97 279/23/102
f 273/23/104 281/25/93 286/25/103
f 274/24/95 281/25/93 273/23/104
f 279/23/102 287/25/105 278/23/105
f 287/25/105 279/23/102 285/25/101
f 284/25/98 275/23/106 288/25/106
f 275/23/106 284/25/98 277/23/100
f 278/23/105 282/25/94 280/23/96
f 282/25/94 278/23/105 287/25/105
f 286/25/103 275/23/106 273/23/104
f 275/23/106 286/25/103 288/25/106
f 291/25/8 290/25/8 289/25/8
f 290/25/8 291/25/8 292/25/8
f 290/25/8 292/25/8 293/25/8
f 293/25/8 292/25/8 294/25/8
f 293/25/8 294/25/8 295/25/8
f 295/25/8 294/25/8 296/25/8
f 299/24/109 298/26/108 297/26/107
f 298/26/108 299/24/109 300/24/110
f 303/24/113 302/26/112 301/26/111
f 302/26/112 303/24/113 304/24/114
f 304/24/114 305/26/115 302/26/112
f 305/26/115 304/24/114 306/24/116
f 306/24/116 307/26/117 305/26/115
f 307/26/117 306/24/116 308/24/118
f 307/26/117 310/24/120 309/26/119
f 310/24/120 307/26/117 308/24/118
f 309/26/119 312/24/122 311/26/121
f 312/24/122 309/26/119 310/24/120
f 300/24/110 301/26/111 298/26/108
f 301/26/111 300/24/110 303/24/113
f 312/24/122 297/26/107 311/26/121
f 297/26/107 312/24/122 299/24/109
f 305/26/115 294/25/124 292/25/123
f 294/25/124 305/26/115 307/26/117
f 302/26/112 292/25/123 291/25/125
f 292/25/123 302/26/112 305/26/115
f 298/26/108 289/25/127 290/25/126
f 289/25/127 298/26/108 301/26/111
f 297/26/107 290/25/126 293/25/128
f 290/25/126 297/26/107 298/26/108
f 296/25/130 311/26/121 295/25/129
f 311/26/121 296/25/130 309/26/119
f 311/26/121 293/25/128 295/25/129
f 293/25/128 311/26/121 297/26/107
f 294/25/124 309/26/119 296/25/130
f 309/26/119 294/25/124 307/26/117
f 301/26/111 291/25/125 289/25/127
f 291/25/125 301/26/111 302/26/112
f 315/28/38 314/27/38 313/27/38
f 314/27/38 315/28/38 316/28/38
f 319/28/40 318/27/40 317/27/40
f 318/27/40 319/28/40 320/28/40
f 317/27/132 316/28/131 319/28/131
f 316/28/131 317/27/132 314/27/132
f 319/28/131 315/28/133 320/28/133
f 315/28/133 319/28/131 316/28/131
f 315/28/133 318/27/134 320/28/133
f 318/27/134 315/28/133 313/27/134
f 314/27/8 318/27/8 313/27/8
f 318/27/8 314/27/8 317/27/8
f 323/28/38 322/27/38 321/27/38
f 322/27/38 323/28/38 324/28/38
f 327/28/40 326/27/40 325/27/40
f 326/27/40 327/28/40 328/28/40
f 325/27/132 324/28/131 327/28/131
f 324/28/131 325/27/132 322/27/132
f 327/28/131 323/28/133 328/28/133
f 323/28/133 327/28/131 324/28/131
f 323/28/133 326/27/134 328/28/133
f 326/27/134 323/28/133 321/27/134
f 322/27/8 326/27/8 321/27/8
f 326/27/8 322/27/8 325/27/8

