# Created by Kenney (www.kenney.nl)

mtllib electricity-side-single.mtl

g electricity-side-single

v 0.008809035 0.503232 -0.3708749 1 1 1
v 0.006228928 0.503232 -0.364646 1 1 1
v 0.006228928 0.503232 -0.3771038 1 1 1
v 0 0.503232 -0.3796839 1 1 1
v 0 0.503232 -0.3620659 1 1 1
v -0.006228928 0.503232 -0.3771038 1 1 1
v -0.006228928 0.503232 -0.364646 1 1 1
v -0.008809035 0.503232 -0.3708749 1 1 1
v 0 0.495488 -0.3862349 1 1 1
v 0.01086116 0.495488 -0.381736 1 1 1
v -0.01536 0.495488 -0.3708749 1 1 1
v -0.01086116 0.495488 -0.3600137 1 1 1
v 0.01086116 0.495488 -0.3600137 1 1 1
v 0 0.495488 -0.3555149 1 1 1
v -0.01086116 0.495488 -0.381736 1 1 1
v 0.01536 0.495488 -0.3708749 1 1 1
v 0.0105 0.48 -0.3708749 1 1 1
v 0.007424621 0.48 -0.3634622 1 1 1
v -0.007424621 0.48 -0.3634622 1 1 1
v -6.930349E-16 0.48 -0.3603917 1 1 1
v -6.930349E-16 0.48 -0.3813581 1 1 1
v 0.007424621 0.48 -0.3782876 1 1 1
v -0.0105 0.48 -0.3708749 1 1 1
v -0.007424621 0.48 -0.3782876 1 1 1
v 0.031725 0.4944662 -0.01762522 1 1 1
v 0.031725 0.4405338 -0.01762522 1 1 1
v 0.031725 0.4944662 0.01762478 1 1 1
v 0.031725 0.4405338 0.01762478 1 1 1
v 0.017625 0.4405338 -0.03172522 1 1 1
v 0.017625 0.4944662 -0.03172522 1 1 1
v 0.017625 0.4944662 0.03172478 1 1 1
v 0.017625 0.4405338 0.03172478 1 1 1
v -0.031725 0.4405338 0.01762478 1 1 1
v -0.031725 0.4944662 0.01762478 1 1 1
v -0.017625 0.4405338 0.03172478 1 1 1
v -0.017625 0.4944662 0.03172478 1 1 1
v -0.031725 0.4405338 -0.01762522 1 1 1
v -0.031725 0.4944662 -0.01762522 1 1 1
v -0.017625 0.4405338 -0.03172522 1 1 1
v -0.017625 0.4944662 -0.03172522 1 1 1
v 0.008809035 0.503232 -0.210875 1 1 1
v 0.006228928 0.503232 -0.2046461 1 1 1
v 0.006228928 0.503232 -0.217104 1 1 1
v 0 0.503232 -0.2196841 1 1 1
v 0 0.503232 -0.202066 1 1 1
v -0.006228928 0.503232 -0.217104 1 1 1
v -0.006228928 0.503232 -0.2046461 1 1 1
v -0.008809035 0.503232 -0.210875 1 1 1
v 0 0.495488 -0.226235 1 1 1
v 0.01086116 0.495488 -0.2217362 1 1 1
v -0.01536 0.495488 -0.210875 1 1 1
v -0.01086116 0.495488 -0.2000139 1 1 1
v 0.01086116 0.495488 -0.2000139 1 1 1
v 0 0.495488 -0.195515 1 1 1
v -0.01086116 0.495488 -0.2217362 1 1 1
v 0.01536 0.495488 -0.210875 1 1 1
v 0.0105 0.48 -0.210875 1 1 1
v 0.007424621 0.48 -0.2034623 1 1 1
v -0.007424621 0.48 -0.2034623 1 1 1
v -6.930349E-16 0.48 -0.2003918 1 1 1
v -6.930349E-16 0.48 -0.2213582 1 1 1
v 0.007424621 0.48 -0.2182878 1 1 1
v -0.0105 0.48 -0.210875 1 1 1
v -0.007424621 0.48 -0.2182878 1 1 1
v -0.01625 0.5172285 -0.01625 1 1 1
v 0 0.525 -0.0195 1 1 1
v -0.0195 0.5172285 0 1 1 1
v 0 0.525 0.0195 1 1 1
v -0.01625 0.5172285 0.01625 1 1 1
v 0.0195 0.5172285 0 1 1 1
v 0.01625 0.5172285 0.01625 1 1 1
v 0.01625 0.5172285 -0.01625 1 1 1
v 0 0.117 -0.014625 1 1 1
v 0.0121875 0.117 -0.0121875 1 1 1
v 0 0.117 0.014625 1 1 1
v -0.0121875 0.117 0.0121875 1 1 1
v 0.0121875 0.117 0.0121875 1 1 1
v -0.0121875 0.117 -0.0121875 1 1 1
v 0.014625 0.117 0 1 1 1
v -0.014625 0.117 0 1 1 1
v 0.0293629 0 -2.252364E-15 1 1 1
v 0.02446909 0 -0.02446909 1 1 1
v 0.02446909 0 0.02446909 1 1 1
v -1.689273E-15 0 0.0293629 1 1 1
v -1.689273E-15 0 -0.0293629 1 1 1
v -0.02446909 0 0.02446909 1 1 1
v -0.02446909 0 -0.02446909 1 1 1
v -0.0293629 0 -2.252364E-15 1 1 1
v -1.689273E-15 0.104 -0.022815 1 1 1
v 0.0190125 0.104 -0.0190125 1 1 1
v -2.815455E-15 0.117 -0.014625 1 1 1
v 0.0121875 0.117 -0.0121875 1 1 1
v 0.022815 0.104 2.252364E-15 1 1 1
v 0.0190125 0.104 0.0190125 1 1 1
v 0.014625 0.117 4.504727E-15 1 1 1
v 0.0121875 0.117 0.0121875 1 1 1
v -1.689273E-15 0.104 0.022815 1 1 1
v -2.815455E-15 0.117 0.014625 1 1 1
v -0.0190125 0.104 0.0190125 1 1 1
v -0.0121875 0.117 0.0121875 1 1 1
v -0.022815 0.104 2.252364E-15 1 1 1
v -0.014625 0.117 4.504727E-15 1 1 1
v -0.0190125 0.104 -0.0190125 1 1 1
v -0.0121875 0.117 -0.0121875 1 1 1
v 0.0125 0.455 -0.03172478 1 1 1
v -0.0125 0.455 -0.03172478 1 1 1
v 0.0125 0.48 -0.03172478 1 1 1
v -0.0125 0.48 -0.03172478 1 1 1
v -0.0125 0.455 -0.3988372 1 1 1
v 0.0125 0.455 -0.3988372 1 1 1
v -0.0125 0.48 -0.3988372 1 1 1
v 0.0125 0.48 -0.3988372 1 1 1

vn 0.4993807 0.8663827 0
vn 0.3531155 0.8663827 0.3531155
vn 0.3531155 0.8663827 -0.3531155
vn 0 0.8663827 -0.4993807
vn 0 0.8663827 0.4993807
vn -0.3531155 0.8663827 -0.3531155
vn -0.3531155 0.8663827 0.3531155
vn -0.4993807 0.8663827 0
vn 0 0.1778029 -0.9840661
vn 0.6957089 0.1779603 -0.6959305
vn -0.9840091 0.1781178 0
vn -0.6957089 0.1779603 0.6959305
vn 0.6957089 0.1779603 0.6959305
vn 0 0.1778029 0.9840661
vn -0.6957089 0.1779603 -0.6959305
vn 0.9840091 0.1781178 0
vn 0.9540789 -0.2995556 0
vn 0.6745248 -0.2998682 0.6746076
vn -0.6745248 -0.2998682 0.6746076
vn 0 -0.3001808 0.9538823
vn 0 -0.3001808 -0.9538823
vn 0.6745248 -0.2998682 -0.6746076
vn -0.9540789 -0.2995556 0
vn -0.6745248 -0.2998682 -0.6746076
vn 0.9238796 0 -0.3826835
vn 0.9238796 0 0.3826835
vn 0.3826835 0 -0.9238796
vn 0.3826835 0 0.9238796
vn -0.9238796 0 0.3826835
vn -0.3826835 0 0.9238796
vn -0.9238796 0 -0.3826835
vn 0 -1 0
vn -0.3826835 0 -0.9238796
vn 0 1 0
vn -0.444139 0.8915437 -0.0888278
vn -0.4012946 0.9152196 -0.03654768
vn -0.4054329 0.9141248 0
vn -0.4012946 0.9152196 0.03654768
vn -0.444139 0.8915437 0.0888278
vn 0.4054329 0.9141248 0
vn 0.444139 0.8915437 0.0888278
vn 0.4012946 0.9152196 0.03654768
vn 0.444139 0.8915437 -0.0888278
vn 0.4012946 0.9152196 -0.03654768
vn 7.252561E-05 -0.01206061 -0.9999273
vn 0.7069837 -0.01422028 -0.7070868
vn 3.509057E-05 -0.01203191 -0.9999276
vn 0.6443677 -0.01430147 -0.7645821
vn -7.252561E-05 -0.01206061 0.9999273
vn -0.7069837 -0.01422028 0.7070868
vn -3.509057E-05 -0.01203191 0.9999276
vn -0.6443677 -0.01430147 0.7645821
vn 0.707034 -0.01435343 0.707034
vn 0.6444425 -0.01418832 0.7645211
vn -0.707034 -0.01435343 -0.707034
vn -0.6444425 -0.01418832 -0.7645211
vn 0.9999259 -0.01217964 0
vn -0.9999259 -0.01217964 0
vn 0 0.3053494 -0.9522403
vn 0.6672045 0.3311742 -0.6672045
vn 0 0.5330377 -0.8460915
vn 0.567733 0.5961196 -0.567733
vn 0.9522403 0.3053494 0
vn 0.6672045 0.3311742 0.6672045
vn 0.8460915 0.5330377 0
vn 0.567733 0.5961196 0.567733
vn 0 0.3053494 0.9522403
vn 0 0.5330377 0.8460915
vn -0.6672045 0.3311742 0.6672045
vn -0.567733 0.5961196 0.567733
vn -0.9522403 0.3053494 0
vn -0.8460915 0.5330377 0
vn -0.6672045 0.3311742 -0.6672045
vn -0.567733 0.5961196 -0.567733
vn 0 0.0628362 0.9980238
vn -0.7051682 0.07399638 0.7051682
vn 0.7051682 0.07399638 0.7051682
vn 0.7051682 0.07399638 -0.7051682
vn 0.9980238 0.0628362 0
vn 0 0.0628362 -0.9980238
vn -0.7051682 0.07399638 -0.7051682
vn -0.9980238 0.0628362 0
vn 0 0 1
vn 0 0 -1
vn -0.7071068 0.7071068 0
vn -1 0 0
vn 0.7071068 0.7071068 0
vn 1 0 0

vt 0.34375 0.225
vt 0.34375 0.1583333
vt 0.34375 0.025
vt 0.46875 0.4711905
vt 0.46875 0.475
vt 0.46875 0.275
vt 0.46875 0.4527778
vt 0.46875 0.325
vt 0.46875 0.425

usemtl colormap

f 3/1/3 2/1/2 1/1/1
f 2/1/2 3/1/3 4/1/4
f 2/1/2 4/1/4 5/1/5
f 5/1/5 4/1/4 6/1/6
f 5/1/5 6/1/6 7/1/7
f 7/1/7 6/1/6 8/1/8
f 4/1/4 10/2/10 9/2/9
f 10/2/10 4/1/4 3/1/3
f 11/2/11 7/1/7 8/1/8
f 7/1/7 11/2/11 12/2/12
f 2/1/2 14/2/14 13/2/13
f 14/2/14 2/1/2 5/1/5
f 15/2/15 4/1/4 9/2/9
f 4/1/4 15/2/15 6/1/6
f 3/1/3 16/2/16 10/2/10
f 16/2/16 3/1/3 1/1/1
f 11/2/11 6/1/6 15/2/15
f 6/1/6 11/2/11 8/1/8
f 14/2/14 7/1/7 12/2/12
f 7/1/7 14/2/14 5/1/5
f 2/1/2 16/2/16 1/1/1
f 16/2/16 2/1/2 13/2/13
f 13/2/13 17/3/17 16/2/16
f 17/3/17 13/2/13 18/3/18
f 20/3/20 12/2/12 19/3/19
f 12/2/12 20/3/20 14/2/14
f 9/2/9 22/3/22 21/3/21
f 22/3/22 9/2/9 10/2/10
f 23/3/23 12/2/12 11/2/11
f 12/2/12 23/3/23 19/3/19
f 13/2/13 20/3/20 18/3/18
f 20/3/20 13/2/13 14/2/14
f 24/3/24 9/2/9 21/3/21
f 9/2/9 24/3/24 15/2/15
f 16/2/16 22/3/22 10/2/10
f 22/3/22 16/2/16 17/3/17
f 24/3/24 11/2/11 15/2/15
f 11/2/11 24/3/24 23/3/23
f 27/1/26 26/3/25 25/1/25
f 26/3/25 27/1/26 28/3/26
f 30/1/27 26/3/25 29/3/27
f 26/3/25 30/1/27 25/1/25
f 31/1/28 28/3/26 27/1/26
f 28/3/26 31/1/28 32/3/28
f 35/3/30 34/1/29 33/3/29
f 34/1/29 35/3/30 36/1/30
f 31/1/28 35/3/30 32/3/28
f 35/3/30 31/1/28 36/1/30
f 33/3/29 38/1/31 37/3/31
f 38/1/31 33/3/29 34/1/29
f 32/3/32 26/3/32 28/3/32
f 26/3/32 32/3/32 29/3/32
f 29/3/32 32/3/32 35/3/32
f 29/3/32 35/3/32 39/3/32
f 39/3/32 35/3/32 33/3/32
f 39/3/32 33/3/32 37/3/32
f 40/1/33 29/3/27 39/3/33
f 29/3/27 40/1/33 30/1/27
f 25/1/34 31/1/34 27/1/34
f 31/1/34 25/1/34 30/1/34
f 31/1/34 30/1/34 36/1/34
f 36/1/34 30/1/34 40/1/34
f 36/1/34 40/1/34 34/1/34
f 34/1/34 40/1/34 38/1/34
f 37/3/31 40/1/33 39/3/33
f 40/1/33 37/3/31 38/1/31
f 43/1/3 42/1/2 41/1/1
f 42/1/2 43/1/3 44/1/4
f 42/1/2 44/1/4 45/1/5
f 45/1/5 44/1/4 46/1/6
f 45/1/5 46/1/6 47/1/7
f 47/1/7 46/1/6 48/1/8
f 44/1/4 50/2/10 49/2/9
f 50/2/10 44/1/4 43/1/3
f 51/2/11 47/1/7 48/1/8
f 47/1/7 51/2/11 52/2/12
f 42/1/2 54/2/14 53/2/13
f 54/2/14 42/1/2 45/1/5
f 55/2/15 44/1/4 49/2/9
f 44/1/4 55/2/15 46/1/6
f 43/1/3 56/2/16 50/2/10
f 56/2/16 43/1/3 41/1/1
f 51/2/11 46/1/6 55/2/15
f 46/1/6 51/2/11 48/1/8
f 54/2/14 47/1/7 52/2/12
f 47/1/7 54/2/14 45/1/5
f 42/1/2 56/2/16 41/1/1
f 56/2/16 42/1/2 53/2/13
f 53/2/13 57/3/17 56/2/16
f 57/3/17 53/2/13 58/3/18
f 60/3/20 52/2/12 59/3/19
f 52/2/12 60/3/20 54/2/14
f 49/2/9 62/3/22 61/3/21
f 62/3/22 49/2/9 50/2/10
f 63/3/23 52/2/12 51/2/11
f 52/2/12 63/3/23 59/3/19
f 53/2/13 60/3/20 58/3/18
f 60/3/20 53/2/13 54/2/14
f 64/3/24 49/2/9 61/3/21
f 49/2/9 64/3/24 55/2/15
f 56/2/16 62/3/22 50/2/10
f 62/3/22 56/2/16 57/3/17
f 64/3/24 51/2/11 55/2/15
f 51/2/11 64/3/24 63/3/23
f 67/4/37 66/5/36 65/4/35
f 67/4/37 69/4/39 68/5/38
f 67/4/37 68/5/38 66/5/36
f 68/5/42 71/4/41 70/4/40
f 66/5/44 70/4/40 72/4/43
f 68/5/42 70/4/40 66/5/44
f 66/5/47 74/6/46 73/6/45
f 66/5/47 72/4/48 74/6/46
f 68/5/51 76/6/50 75/6/49
f 68/5/51 69/4/52 76/6/50
f 71/4/54 75/6/49 77/6/53
f 68/5/51 75/6/49 71/4/54
f 65/4/56 73/6/45 78/6/55
f 66/5/47 73/6/45 65/4/56
f 71/4/54 79/6/57 70/4/57
f 79/6/57 71/4/54 77/6/53
f 76/6/50 67/4/58 80/6/58
f 67/4/58 76/6/50 69/4/52
f 70/4/57 74/6/46 72/4/48
f 74/6/46 70/4/57 79/6/57
f 78/6/55 67/4/58 65/4/56
f 67/4/58 78/6/55 80/6/58
f 83/6/32 82/6/32 81/6/32
f 82/6/32 83/6/32 84/6/32
f 82/6/32 84/6/32 85/6/32
f 85/6/32 84/6/32 86/6/32
f 85/6/32 86/6/32 87/6/32
f 87/6/32 86/6/32 88/6/32
f 91/5/61 90/7/60 89/7/59
f 90/7/60 91/5/61 92/5/62
f 95/5/65 94/7/64 93/7/63
f 94/7/64 95/5/65 96/5/66
f 96/5/66 97/7/67 94/7/64
f 97/7/67 96/5/66 98/5/68
f 98/5/68 99/7/69 97/7/67
f 99/7/69 98/5/68 100/5/70
f 99/7/69 102/5/72 101/7/71
f 102/5/72 99/7/69 100/5/70
f 101/7/71 104/5/74 103/7/73
f 104/5/74 101/7/71 102/5/72
f 92/5/62 93/7/63 90/7/60
f 93/7/63 92/5/62 95/5/65
f 104/5/74 89/7/59 103/7/73
f 89/7/59 104/5/74 91/5/61
f 97/7/67 86/6/76 84/6/75
f 86/6/76 97/7/67 99/7/69
f 94/7/64 84/6/75 83/6/77
f 84/6/75 94/7/64 97/7/67
f 90/7/60 81/6/79 82/6/78
f 81/6/79 90/7/60 93/7/63
f 89/7/59 82/6/78 85/6/80
f 82/6/78 89/7/59 90/7/60
f 88/6/82 103/7/73 87/6/81
f 103/7/73 88/6/82 101/7/71
f 103/7/73 85/6/80 87/6/81
f 85/6/80 103/7/73 89/7/59
f 86/6/76 101/7/71 88/6/82
f 101/7/71 86/6/76 99/7/69
f 93/7/63 83/6/77 81/6/79
f 83/6/77 93/7/63 94/7/64
f 107/9/83 106/8/83 105/8/83
f 106/8/83 107/9/83 108/9/83
f 111/9/84 110/8/84 109/8/84
f 110/8/84 111/9/84 112/9/84
f 109/8/86 108/9/85 111/9/85
f 108/9/85 109/8/86 106/8/86
f 111/9/85 107/9/87 112/9/87
f 107/9/87 111/9/85 108/9/85
f 107/9/87 110/8/88 112/9/87
f 110/8/88 107/9/87 105/8/88
f 106/8/32 110/8/32 105/8/32
f 110/8/32 106/8/32 109/8/32

g electricity-side-single




usemtl colormap

f 3/1/3 2/1/2 1/1/1
f 2/1/2 3/1/3 4/1/4
f 2/1/2 4/1/4 5/1/5
f 5/1/5 4/1/4 6/1/6
f 5/1/5 6/1/6 7/1/7
f 7/1/7 6/1/6 8/1/8
f 4/1/4 10/2/10 9/2/9
f 10/2/10 4/1/4 3/1/3
f 11/2/11 7/1/7 8/1/8
f 7/1/7 11/2/11 12/2/12
f 2/1/2 14/2/14 13/2/13
f 14/2/14 2/1/2 5/1/5
f 15/2/15 4/1/4 9/2/9
f 4/1/4 15/2/15 6/1/6
f 3/1/3 16/2/16 10/2/10
f 16/2/16 3/1/3 1/1/1
f 11/2/11 6/1/6 15/2/15
f 6/1/6 11/2/11 8/1/8
f 14/2/14 7/1/7 12/2/12
f 7/1/7 14/2/14 5/1/5
f 2/1/2 16/2/16 1/1/1
f 16/2/16 2/1/2 13/2/13
f 13/2/13 17/3/17 16/2/16
f 17/3/17 13/2/13 18/3/18
f 20/3/20 12/2/12 19/3/19
f 12/2/12 20/3/20 14/2/14
f 9/2/9 22/3/22 21/3/21
f 22/3/22 9/2/9 10/2/10
f 23/3/23 12/2/12 11/2/11
f 12/2/12 23/3/23 19/3/19
f 13/2/13 20/3/20 18/3/18
f 20/3/20 13/2/13 14/2/14
f 24/3/24 9/2/9 21/3/21
f 9/2/9 24/3/24 15/2/15
f 16/2/16 22/3/22 10/2/10
f 22/3/22 16/2/16 17/3/17
f 24/3/24 11/2/11 15/2/15
f 11/2/11 24/3/24 23/3/23
f 27/1/26 26/3/25 25/1/25
f 26/3/25 27/1/26 28/3/26
f 30/1/27 26/3/25 29/3/27
f 26/3/25 30/1/27 25/1/25
f 31/1/28 28/3/26 27/1/26
f 28/3/26 31/1/28 32/3/28
f 35/3/30 34/1/29 33/3/29
f 34/1/29 35/3/30 36/1/30
f 31/1/28 35/3/30 32/3/28
f 35/3/30 31/1/28 36/1/30
f 33/3/29 38/1/31 37/3/31
f 38/1/31 33/3/29 34/1/29
f 32/3/32 26/3/32 28/3/32
f 26/3/32 32/3/32 29/3/32
f 29/3/32 32/3/32 35/3/32
f 29/3/32 35/3/32 39/3/32
f 39/3/32 35/3/32 33/3/32
f 39/3/32 33/3/32 37/3/32
f 40/1/33 29/3/27 39/3/33
f 29/3/27 40/1/33 30/1/27
f 25/1/34 31/1/34 27/1/34
f 31/1/34 25/1/34 30/1/34
f 31/1/34 30/1/34 36/1/34
f 36/1/34 30/1/34 40/1/34
f 36/1/34 40/1/34 34/1/34
f 34/1/34 40/1/34 38/1/34
f 37/3/31 40/1/33 39/3/33
f 40/1/33 37/3/31 38/1/31
f 43/1/3 42/1/2 41/1/1
f 42/1/2 43/1/3 44/1/4
f 42/1/2 44/1/4 45/1/5
f 45/1/5 44/1/4 46/1/6
f 45/1/5 46/1/6 47/1/7
f 47/1/7 46/1/6 48/1/8
f 44/1/4 50/2/10 49/2/9
f 50/2/10 44/1/4 43/1/3
f 51/2/11 47/1/7 48/1/8
f 47/1/7 51/2/11 52/2/12
f 42/1/2 54/2/14 53/2/13
f 54/2/14 42/1/2 45/1/5
f 55/2/15 44/1/4 49/2/9
f 44/1/4 55/2/15 46/1/6
f 43/1/3 56/2/16 50/2/10
f 56/2/16 43/1/3 41/1/1
f 51/2/11 46/1/6 55/2/15
f 46/1/6 51/2/11 48/1/8
f 54/2/14 47/1/7 52/2/12
f 47/1/7 54/2/14 45/1/5
f 42/1/2 56/2/16 41/1/1
f 56/2/16 42/1/2 53/2/13
f 53/2/13 57/3/17 56/2/16
f 57/3/17 53/2/13 58/3/18
f 60/3/20 52/2/12 59/3/19
f 52/2/12 60/3/20 54/2/14
f 49/2/9 62/3/22 61/3/21
f 62/3/22 49/2/9 50/2/10
f 63/3/23 52/2/12 51/2/11
f 52/2/12 63/3/23 59/3/19
f 53/2/13 60/3/20 58/3/18
f 60/3/20 53/2/13 54/2/14
f 64/3/24 49/2/9 61/3/21
f 49/2/9 64/3/24 55/2/15
f 56/2/16 62/3/22 50/2/10
f 62/3/22 56/2/16 57/3/17
f 64/3/24 51/2/11 55/2/15
f 51/2/11 64/3/24 63/3/23
f 67/4/37 66/5/36 65/4/35
f 67/4/37 69/4/39 68/5/38
f 67/4/37 68/5/38 66/5/36
f 68/5/42 71/4/41 70/4/40
f 66/5/44 70/4/40 72/4/43
f 68/5/42 70/4/40 66/5/44
f 66/5/47 74/6/46 73/6/45
f 66/5/47 72/4/48 74/6/46
f 68/5/51 76/6/50 75/6/49
f 68/5/51 69/4/52 76/6/50
f 71/4/54 75/6/49 77/6/53
f 68/5/51 75/6/49 71/4/54
f 65/4/56 73/6/45 78/6/55
f 66/5/47 73/6/45 65/4/56
f 71/4/54 79/6/57 70/4/57
f 79/6/57 71/4/54 77/6/53
f 76/6/50 67/4/58 80/6/58
f 67/4/58 76/6/50 69/4/52
f 70/4/57 74/6/46 72/4/48
f 74/6/46 70/4/57 79/6/57
f 78/6/55 67/4/58 65/4/56
f 67/4/58 78/6/55 80/6/58
f 83/6/32 82/6/32 81/6/32
f 82/6/32 83/6/32 84/6/32
f 82/6/32 84/6/32 85/6/32
f 85/6/32 84/6/32 86/6/32
f 85/6/32 86/6/32 87/6/32
f 87/6/32 86/6/32 88/6/32
f 91/5/61 90/7/60 89/7/59
f 90/7/60 91/5/61 92/5/62
f 95/5/65 94/7/64 93/7/63
f 94/7/64 95/5/65 96/5/66
f 96/5/66 97/7/67 94/7/64
f 97/7/67 96/5/66 98/5/68
f 98/5/68 99/7/69 97/7/67
f 99/7/69 98/5/68 100/5/70
f 99/7/69 102/5/72 101/7/71
f 102/5/72 99/7/69 100/5/70
f 101/7/71 104/5/74 103/7/73
f 104/5/74 101/7/71 102/5/72
f 92/5/62 93/7/63 90/7/60
f 93/7/63 92/5/62 95/5/65
f 104/5/74 89/7/59 103/7/73
f 89/7/59 104/5/74 91/5/61
f 97/7/67 86/6/76 84/6/75
f 86/6/76 97/7/67 99/7/69
f 94/7/64 84/6/75 83/6/77
f 84/6/75 94/7/64 97/7/67
f 90/7/60 81/6/79 82/6/78
f 81/6/79 90/7/60 93/7/63
f 89/7/59 82/6/78 85/6/80
f 82/6/78 89/7/59 90/7/60
f 88/6/82 103/7/73 87/6/81
f 103/7/73 88/6/82 101/7/71
f 103/7/73 85/6/80 87/6/81
f 85/6/80 103/7/73 89/7/59
f 86/6/76 101/7/71 88/6/82
f 101/7/71 86/6/76 99/7/69
f 93/7/63 83/6/77 81/6/79
f 83/6/77 93/7/63 94/7/64
f 107/9/83 106/8/83 105/8/83
f 106/8/83 107/9/83 108/9/83
f 111/9/84 110/8/84 109/8/84
f 110/8/84 111/9/84 112/9/84
f 109/8/86 108/9/85 111/9/85
f 108/9/85 109/8/86 106/8/86
f 111/9/85 107/9/87 112/9/87
f 107/9/87 111/9/85 108/9/85
f 107/9/87 110/8/88 112/9/87
f 110/8/88 107/9/87 105/8/88
f 106/8/32 110/8/32 105/8/32
f 110/8/32 106/8/32 109/8/32

