# Created by Kenney (www.kenney.nl)

mtllib electricity-pole-wide.mtl

g electricity-pole-wide

v 0.531725 0.4944662 -0.01762522 1 1 1
v 0.531725 0.4405338 -0.01762522 1 1 1
v 0.531725 0.4944662 0.01762478 1 1 1
v 0.531725 0.4405338 0.01762478 1 1 1
v 0.517625 0.4405338 -0.03172522 1 1 1
v 0.517625 0.4944662 -0.03172522 1 1 1
v 0.517625 0.4944662 0.03172478 1 1 1
v 0.517625 0.4405338 0.03172478 1 1 1
v 0.468275 0.4405338 0.01762478 1 1 1
v 0.468275 0.4944662 0.01762478 1 1 1
v 0.482375 0.4405338 0.03172478 1 1 1
v 0.482375 0.4944662 0.03172478 1 1 1
v 0.468275 0.4405338 -0.01762522 1 1 1
v 0.468275 0.4944662 -0.01762522 1 1 1
v 0.482375 0.4405338 -0.03172522 1 1 1
v 0.482375 0.4944662 -0.03172522 1 1 1
v -0.468275 0.4944662 -0.01762522 1 1 1
v -0.468275 0.4405338 -0.01762522 1 1 1
v -0.468275 0.4944662 0.01762478 1 1 1
v -0.468275 0.4405338 0.01762478 1 1 1
v -0.482375 0.4405338 -0.03172522 1 1 1
v -0.482375 0.4944662 -0.03172522 1 1 1
v -0.482375 0.4944662 0.03172478 1 1 1
v -0.482375 0.4405338 0.03172478 1 1 1
v -0.531725 0.4405338 0.01762478 1 1 1
v -0.531725 0.4944662 0.01762478 1 1 1
v -0.517625 0.4405338 0.03172478 1 1 1
v -0.517625 0.4944662 0.03172478 1 1 1
v -0.531725 0.4405338 -0.01762522 1 1 1
v -0.531725 0.4944662 -0.01762522 1 1 1
v -0.517625 0.4405338 -0.03172522 1 1 1
v -0.517625 0.4944662 -0.03172522 1 1 1
v -0.523191 0.508232 -0.0791502 1 1 1
v -0.5257711 0.508232 -0.07292127 1 1 1
v -0.5257711 0.508232 -0.08537913 1 1 1
v -0.532 0.508232 -0.08795924 1 1 1
v -0.532 0.508232 -0.07034116 1 1 1
v -0.5382289 0.508232 -0.08537913 1 1 1
v -0.5382289 0.508232 -0.07292127 1 1 1
v -0.540809 0.508232 -0.0791502 1 1 1
v -0.532 0.500488 -0.0945102 1 1 1
v -0.5211388 0.500488 -0.09001136 1 1 1
v -0.54736 0.500488 -0.0791502 1 1 1
v -0.5428612 0.500488 -0.06828904 1 1 1
v -0.5211388 0.500488 -0.06828904 1 1 1
v -0.532 0.500488 -0.0637902 1 1 1
v -0.5428612 0.500488 -0.09001136 1 1 1
v -0.51664 0.500488 -0.0791502 1 1 1
v -0.5215 0.485 -0.0791502 1 1 1
v -0.5245754 0.485 -0.07173746 1 1 1
v -0.5394246 0.485 -0.07173746 1 1 1
v -0.532 0.485 -0.068667 1 1 1
v -0.532 0.485 -0.0896334 1 1 1
v -0.5245754 0.485 -0.08656294 1 1 1
v -0.5425 0.485 -0.0791502 1 1 1
v -0.5394246 0.485 -0.08656294 1 1 1
v 0.4768091 0.508232 -0.0791502 1 1 1
v 0.474229 0.508232 -0.07292127 1 1 1
v 0.474229 0.508232 -0.08537913 1 1 1
v 0.4680001 0.508232 -0.08795924 1 1 1
v 0.4680001 0.508232 -0.07034116 1 1 1
v 0.4617711 0.508232 -0.08537913 1 1 1
v 0.4617711 0.508232 -0.07292127 1 1 1
v 0.459191 0.508232 -0.0791502 1 1 1
v 0.4680001 0.500488 -0.0945102 1 1 1
v 0.4788612 0.500488 -0.09001136 1 1 1
v 0.4526401 0.500488 -0.0791502 1 1 1
v 0.4571389 0.500488 -0.06828904 1 1 1
v 0.4788612 0.500488 -0.06828904 1 1 1
v 0.4680001 0.500488 -0.0637902 1 1 1
v 0.4571389 0.500488 -0.09001136 1 1 1
v 0.4833601 0.500488 -0.0791502 1 1 1
v 0.4785001 0.485 -0.0791502 1 1 1
v 0.4754247 0.485 -0.07173746 1 1 1
v 0.4605754 0.485 -0.07173746 1 1 1
v 0.4680001 0.485 -0.068667 1 1 1
v 0.4680001 0.485 -0.0896334 1 1 1
v 0.4754247 0.485 -0.08656294 1 1 1
v 0.4575 0.485 -0.0791502 1 1 1
v 0.4605754 0.485 -0.08656294 1 1 1
v -0.523191 0.508232 0.08085012 1 1 1
v -0.5257711 0.508232 0.08707906 1 1 1
v -0.5257711 0.508232 0.07462119 1 1 1
v -0.532 0.508232 0.07204109 1 1 1
v -0.532 0.508232 0.08965916 1 1 1
v -0.5382289 0.508232 0.07462119 1 1 1
v -0.5382289 0.508232 0.08707906 1 1 1
v -0.540809 0.508232 0.08085012 1 1 1
v -0.532 0.500488 0.06549013 1 1 1
v -0.5211388 0.500488 0.06998897 1 1 1
v -0.54736 0.500488 0.08085012 1 1 1
v -0.5428612 0.500488 0.09171128 1 1 1
v -0.5211388 0.500488 0.09171128 1 1 1
v -0.532 0.500488 0.09621012 1 1 1
v -0.5428612 0.500488 0.06998897 1 1 1
v -0.51664 0.500488 0.08085012 1 1 1
v -0.5215 0.485 0.08085012 1 1 1
v -0.5245754 0.485 0.08826286 1 1 1
v -0.5394246 0.485 0.08826286 1 1 1
v -0.532 0.485 0.09133332 1 1 1
v -0.532 0.485 0.07036693 1 1 1
v -0.5245754 0.485 0.07343739 1 1 1
v -0.5425 0.485 0.08085012 1 1 1
v -0.5394246 0.485 0.07343739 1 1 1
v 0.4768091 0.508232 0.08085012 1 1 1
v 0.474229 0.508232 0.08707906 1 1 1
v 0.474229 0.508232 0.07462119 1 1 1
v 0.4680001 0.508232 0.07204109 1 1 1
v 0.4680001 0.508232 0.08965916 1 1 1
v 0.4617711 0.508232 0.07462119 1 1 1
v 0.4617711 0.508232 0.08707906 1 1 1
v 0.459191 0.508232 0.08085012 1 1 1
v 0.4680001 0.500488 0.06549013 1 1 1
v 0.4788612 0.500488 0.06998897 1 1 1
v 0.4526401 0.500488 0.08085012 1 1 1
v 0.4571389 0.500488 0.09171128 1 1 1
v 0.4788612 0.500488 0.09171128 1 1 1
v 0.4680001 0.500488 0.09621012 1 1 1
v 0.4571389 0.500488 0.06998897 1 1 1
v 0.4833601 0.500488 0.08085012 1 1 1
v 0.4785001 0.485 0.08085012 1 1 1
v 0.4754247 0.485 0.08826286 1 1 1
v 0.4605754 0.485 0.08826286 1 1 1
v 0.4680001 0.485 0.09133332 1 1 1
v 0.4680001 0.485 0.07036693 1 1 1
v 0.4754247 0.485 0.07343739 1 1 1
v 0.4575 0.485 0.08085012 1 1 1
v 0.4605754 0.485 0.07343739 1 1 1
v -0.4542297 0.4541265 -0.0791502 1 1 1
v -0.5355891 0.4785143 -0.0791502 1 1 1
v -0.4509584 0.4661954 -0.0666502 1 1 1
v -0.532 0.490488 -0.0666502 1 1 1
v -0.4509584 0.4661954 -0.0916502 1 1 1
v -0.532 0.490488 -0.0916502 1 1 1
v -0.4476872 0.4782643 -0.0791502 1 1 1
v -0.5284108 0.5024616 -0.0791502 1 1 1
v -0.3712979 0.433995 -0.0791502 1 1 1
v -0.3686712 0.4462204 -0.0666502 1 1 1
v -0.3686712 0.4462204 -0.0916502 1 1 1
v -0.3660446 0.4584458 -0.0791502 1 1 1
v -0.2873588 0.4182751 -0.0791502 1 1 1
v -0.2853832 0.4306224 -0.0666502 1 1 1
v -0.2853832 0.4306224 -0.0916502 1 1 1
v -0.2834075 0.4429697 -0.0791502 1 1 1
v -0.2026616 0.4070132 -0.0791502 1 1 1
v -0.2013418 0.4194477 -0.0666502 1 1 1
v -0.2013418 0.4194477 -0.0916502 1 1 1
v -0.200022 0.4318822 -0.0791502 1 1 1
v -0.1174576 0.4002427 -0.0791502 1 1 1
v -0.1167969 0.4127296 -0.0666502 1 1 1
v -0.1167969 0.4127296 -0.0916502 1 1 1
v -0.1161362 0.4252165 -0.0791502 1 1 1
v -0.03200001 0.3979836 -0.0791502 1 1 1
v -0.03200001 0.410488 -0.0666502 1 1 1
v -0.03200001 0.410488 -0.0916502 1 1 1
v -0.03200001 0.4229923 -0.0791502 1 1 1
v 0.05345763 0.4002427 -0.0791502 1 1 1
v 0.05279693 0.4127296 -0.0666502 1 1 1
v 0.05279693 0.4127296 -0.0916502 1 1 1
v 0.05213623 0.4252165 -0.0791502 1 1 1
v 0.1386616 0.4070132 -0.0791502 1 1 1
v 0.1373418 0.4194477 -0.0666502 1 1 1
v 0.1373418 0.4194477 -0.0916502 1 1 1
v 0.136022 0.4318822 -0.0791502 1 1 1
v 0.2233588 0.4182751 -0.0791502 1 1 1
v 0.2213832 0.4306224 -0.0666502 1 1 1
v 0.2213832 0.4306224 -0.0916502 1 1 1
v 0.2194075 0.4429697 -0.0791502 1 1 1
v 0.3072979 0.433995 -0.0791502 1 1 1
v 0.3046712 0.4462204 -0.0666502 1 1 1
v 0.3046712 0.4462204 -0.0916502 1 1 1
v 0.3020445 0.4584458 -0.0791502 1 1 1
v 0.3902296 0.4541265 -0.0791502 1 1 1
v 0.3869584 0.4661954 -0.0666502 1 1 1
v 0.3869584 0.4661954 -0.0916502 1 1 1
v 0.3836872 0.4782643 -0.0791502 1 1 1
v 0.4715891 0.4785143 -0.0791502 1 1 1
v 0.468 0.490488 -0.0666502 1 1 1
v 0.468 0.490488 -0.0916502 1 1 1
v 0.4644108 0.5024616 -0.0791502 1 1 1
v -0.4542297 0.4541265 0.08085012 1 1 1
v -0.5355891 0.4785143 0.08085012 1 1 1
v -0.4509584 0.4661954 0.09335013 1 1 1
v -0.532 0.490488 0.09335013 1 1 1
v -0.4509584 0.4661954 0.06835012 1 1 1
v -0.532 0.490488 0.06835012 1 1 1
v -0.4476872 0.4782643 0.08085012 1 1 1
v -0.5284108 0.5024616 0.08085012 1 1 1
v -0.3712979 0.433995 0.08085012 1 1 1
v -0.3686712 0.4462204 0.09335013 1 1 1
v -0.3686712 0.4462204 0.06835012 1 1 1
v -0.3660446 0.4584458 0.08085012 1 1 1
v -0.2873588 0.4182751 0.08085012 1 1 1
v -0.2853832 0.4306224 0.09335013 1 1 1
v -0.2853832 0.4306224 0.06835012 1 1 1
v -0.2834075 0.4429697 0.08085012 1 1 1
v -0.2026616 0.4070132 0.08085012 1 1 1
v -0.2013418 0.4194477 0.09335013 1 1 1
v -0.2013418 0.4194477 0.06835012 1 1 1
v -0.200022 0.4318822 0.08085012 1 1 1
v -0.1174576 0.4002427 0.08085012 1 1 1
v -0.1167969 0.4127296 0.09335013 1 1 1
v -0.1167969 0.4127296 0.06835012 1 1 1
v -0.1161362 0.4252165 0.08085012 1 1 1
v -0.03200001 0.3979836 0.08085012 1 1 1
v -0.03200001 0.410488 0.09335013 1 1 1
v -0.03200001 0.410488 0.06835012 1 1 1
v -0.03200001 0.4229923 0.08085012 1 1 1
v 0.05345763 0.4002427 0.08085012 1 1 1
v 0.05279693 0.4127296 0.09335013 1 1 1
v 0.05279693 0.4127296 0.06835012 1 1 1
v 0.05213623 0.4252165 0.08085012 1 1 1
v 0.1386616 0.4070132 0.08085012 1 1 1
v 0.1373418 0.4194477 0.09335013 1 1 1
v 0.1373418 0.4194477 0.06835012 1 1 1
v 0.136022 0.4318822 0.08085012 1 1 1
v 0.2233588 0.4182751 0.08085012 1 1 1
v 0.2213832 0.4306224 0.09335013 1 1 1
v 0.2213832 0.4306224 0.06835012 1 1 1
v 0.2194075 0.4429697 0.08085012 1 1 1
v 0.3072979 0.433995 0.08085012 1 1 1
v 0.3046712 0.4462204 0.09335013 1 1 1
v 0.3046712 0.4462204 0.06835012 1 1 1
v 0.3020445 0.4584458 0.08085012 1 1 1
v 0.3902296 0.4541265 0.08085012 1 1 1
v 0.3869584 0.4661954 0.09335013 1 1 1
v 0.3869584 0.4661954 0.06835012 1 1 1
v 0.3836872 0.4782643 0.08085012 1 1 1
v 0.4715891 0.4785143 0.08085012 1 1 1
v 0.468 0.490488 0.09335013 1 1 1
v 0.468 0.490488 0.06835012 1 1 1
v 0.4644108 0.5024616 0.08085012 1 1 1
v -0.51625 0.5172285 -0.01625 1 1 1
v -0.5 0.525 -0.0195 1 1 1
v -0.5195 0.5172285 0 1 1 1
v -0.5 0.525 0.0195 1 1 1
v -0.51625 0.5172285 0.01625 1 1 1
v -0.4805 0.5172285 0 1 1 1
v -0.48375 0.5172285 0.01625 1 1 1
v -0.48375 0.5172285 -0.01625 1 1 1
v -0.5 0.117 -0.014625 1 1 1
v -0.4878125 0.117 -0.0121875 1 1 1
v -0.5 0.117 0.014625 1 1 1
v -0.5121875 0.117 0.0121875 1 1 1
v -0.4878125 0.117 0.0121875 1 1 1
v -0.5121875 0.117 -0.0121875 1 1 1
v -0.485375 0.117 0 1 1 1
v -0.514625 0.117 0 1 1 1
v 0.48375 0.5172285 -0.01625 1 1 1
v 0.5 0.525 -0.0195 1 1 1
v 0.4805 0.5172285 0 1 1 1
v 0.5 0.525 0.0195 1 1 1
v 0.48375 0.5172285 0.01625 1 1 1
v 0.5195 0.5172285 0 1 1 1
v 0.51625 0.5172285 0.01625 1 1 1
v 0.51625 0.5172285 -0.01625 1 1 1
v 0.5 0.117 -0.014625 1 1 1
v 0.5121875 0.117 -0.0121875 1 1 1
v 0.5 0.117 0.014625 1 1 1
v 0.4878125 0.117 0.0121875 1 1 1
v 0.5121875 0.117 0.0121875 1 1 1
v 0.4878125 0.117 -0.0121875 1 1 1
v 0.514625 0.117 0 1 1 1
v 0.485375 0.117 0 1 1 1
v -0.4706371 4.511975E-16 -2.252364E-15 1 1 1
v -0.4755309 4.511975E-16 -0.02446909 1 1 1
v -0.4755309 4.511975E-16 0.02446909 1 1 1
v -0.5 4.511975E-16 0.0293629 1 1 1
v -0.5 4.511975E-16 -0.0293629 1 1 1
v -0.5244691 4.511975E-16 0.02446909 1 1 1
v -0.5244691 4.511975E-16 -0.02446909 1 1 1
v -0.5293629 4.511975E-16 -2.252364E-15 1 1 1
v -0.5 0.104 -0.022815 1 1 1
v -0.4809875 0.104 -0.0190125 1 1 1
v -0.5 0.117 -0.014625 1 1 1
v -0.4878125 0.117 -0.0121875 1 1 1
v -0.477185 0.104 2.252364E-15 1 1 1
v -0.4809875 0.104 0.0190125 1 1 1
v -0.485375 0.117 4.504727E-15 1 1 1
v -0.4878125 0.117 0.0121875 1 1 1
v -0.5 0.104 0.022815 1 1 1
v -0.5 0.117 0.014625 1 1 1
v -0.5190125 0.104 0.0190125 1 1 1
v -0.5121875 0.117 0.0121875 1 1 1
v -0.522815 0.104 2.252364E-15 1 1 1
v -0.514625 0.117 4.504727E-15 1 1 1
v -0.5190125 0.104 -0.0190125 1 1 1
v -0.5121875 0.117 -0.0121875 1 1 1
v 0.5293629 4.511975E-16 -2.252364E-15 1 1 1
v 0.5244691 4.511975E-16 -0.02446909 1 1 1
v 0.5244691 4.511975E-16 0.02446909 1 1 1
v 0.5 4.511975E-16 0.0293629 1 1 1
v 0.5 4.511975E-16 -0.0293629 1 1 1
v 0.4755309 4.511975E-16 0.02446909 1 1 1
v 0.4755309 4.511975E-16 -0.02446909 1 1 1
v 0.4706371 4.511975E-16 -2.252364E-15 1 1 1
v 0.5 0.104 -0.022815 1 1 1
v 0.5190125 0.104 -0.0190125 1 1 1
v 0.5 0.117 -0.014625 1 1 1
v 0.5121875 0.117 -0.0121875 1 1 1
v 0.522815 0.104 2.252364E-15 1 1 1
v 0.5190125 0.104 0.0190125 1 1 1
v 0.514625 0.117 4.504727E-15 1 1 1
v 0.5121875 0.117 0.0121875 1 1 1
v 0.5 0.104 0.022815 1 1 1
v 0.5 0.117 0.014625 1 1 1
v 0.4809875 0.104 0.0190125 1 1 1
v 0.4878125 0.117 0.0121875 1 1 1
v 0.477185 0.104 2.252364E-15 1 1 1
v 0.485375 0.117 4.504727E-15 1 1 1
v 0.4809875 0.104 -0.0190125 1 1 1
v 0.4878125 0.117 -0.0121875 1 1 1
v 0.4805 0.46 0.1071125 1 1 1
v 0.4555001 0.46 0.1071125 1 1 1
v 0.4805 0.485 0.1071125 1 1 1
v 0.4555001 0.485 0.1071125 1 1 1
v 0.4555001 0.46 -0.1071125 1 1 1
v 0.4805 0.46 -0.1071125 1 1 1
v 0.4555001 0.485 -0.1071125 1 1 1
v 0.4805 0.485 -0.1071125 1 1 1
v -0.5195 0.46 0.1071125 1 1 1
v -0.5445 0.46 0.1071125 1 1 1
v -0.5195 0.485 0.1071125 1 1 1
v -0.5445 0.485 0.1071125 1 1 1
v -0.5445 0.46 -0.1071125 1 1 1
v -0.5195 0.46 -0.1071125 1 1 1
v -0.5445 0.485 -0.1071125 1 1 1
v -0.5195 0.485 -0.1071125 1 1 1

vn 0.9238796 0 -0.3826835
vn 0.9238796 0 0.3826835
vn 0.3826835 0 -0.9238796
vn 0.3826835 0 0.9238796
vn -0.9238796 0 0.3826835
vn -0.3826835 0 0.9238796
vn -0.9238796 0 -0.3826835
vn 0 -1 0
vn -0.3826835 0 -0.9238796
vn 0 1 0
vn 0.4993807 0.8663827 0
vn 0.3531155 0.8663827 0.3531155
vn 0.3531155 0.8663827 -0.3531155
vn 0 0.8663827 -0.4993807
vn 0 0.8663827 0.4993807
vn -0.3531155 0.8663827 -0.3531155
vn -0.3531155 0.8663827 0.3531155
vn -0.4993807 0.8663827 0
vn 0 0.1778029 -0.9840661
vn 0.6957089 0.1779603 -0.6959305
vn -0.9840091 0.1781178 0
vn -0.6957089 0.1779603 0.6959305
vn 0.6957089 0.1779603 0.6959305
vn 0 0.1778029 0.9840661
vn -0.6957089 0.1779603 -0.6959305
vn 0.9840091 0.1781178 0
vn 0.9540789 -0.2995556 0
vn 0.6745248 -0.2998682 0.6746076
vn -0.6745248 -0.2998682 0.6746076
vn 0 -0.3001808 0.9538823
vn 0 -0.3001808 -0.9538823
vn 0.6745248 -0.2998682 -0.6746076
vn -0.9540789 -0.2995556 0
vn -0.6745248 -0.2998682 -0.6746076
vn -0.2616064 -0.9651747 0
vn -0.287132 -0.957891 0
vn -0.003125113 -0.01152984 0.9999287
vn 0 0 1
vn -0.003125113 -0.01152984 -0.9999287
vn 0 0 -1
vn 0.2616064 0.9651747 0
vn 0.287132 0.957891 0
vn -0.2100609 -0.9776883 0
vn -0.002505451 -0.01166114 0.9999288
vn -0.002505451 -0.01166114 -0.9999288
vn 0.2100609 0.9776883 0
vn -0.1579974 -0.9874396 0
vn -0.00188216 -0.01176297 0.9999291
vn -0.00188216 -0.01176297 -0.9999291
vn 0.1579974 0.9874396 0
vn -0.1055464 -0.9944143 0
vn -0.001256216 -0.01183554 0.9999292
vn -0.001256216 -0.01183554 -0.9999292
vn 0.1055464 0.9944143 0
vn -0.05283761 -0.9986032 0
vn -0.000628537 -0.01187902 0.9999293
vn -0.000628537 -0.01187902 -0.9999293
vn 0.05283761 0.9986032 0
vn 0 -0.0118935 0.9999293
vn 0 -0.0118935 -0.9999293
vn 0.05283761 -0.9986032 0
vn 0.000628537 -0.01187902 0.9999293
vn 0.000628537 -0.01187902 -0.9999293
vn -0.05283761 0.9986032 0
vn 0.1055464 -0.9944143 0
vn 0.001256216 -0.01183554 0.9999292
vn 0.001256216 -0.01183554 -0.9999292
vn -0.1055464 0.9944143 0
vn 0.1579974 -0.9874396 0
vn 0.00188216 -0.01176297 0.9999291
vn 0.00188216 -0.01176297 -0.9999291
vn -0.1579974 0.9874396 0
vn 0.2100609 -0.9776883 0
vn 0.002505451 -0.01166114 0.9999288
vn 0.002505451 -0.01166114 -0.9999288
vn -0.2100609 0.9776883 0
vn 0.2616064 -0.9651747 0
vn 0.003125113 -0.01152984 0.9999287
vn 0.003125113 -0.01152984 -0.9999287
vn -0.2616064 0.9651747 0
vn 0.287132 -0.957891 0
vn -0.287132 0.957891 0
vn -0.444139 0.8915437 -0.0888278
vn -0.4012946 0.9152196 -0.03654768
vn -0.4054329 0.9141248 0
vn -0.4012946 0.9152196 0.03654768
vn -0.444139 0.8915437 0.0888278
vn 0.4054329 0.9141248 0
vn 0.444139 0.8915437 0.0888278
vn 0.4012946 0.9152196 0.03654768
vn 0.444139 0.8915437 -0.0888278
vn 0.4012946 0.9152196 -0.03654768
vn 7.252561E-05 -0.01206061 -0.9999273
vn 0.7069837 -0.01422028 -0.7070868
vn 3.509057E-05 -0.01203191 -0.9999276
vn 0.6443677 -0.01430147 -0.7645821
vn -7.252561E-05 -0.01206061 0.9999273
vn -0.7069837 -0.01422028 0.7070868
vn -3.509057E-05 -0.01203191 0.9999276
vn -0.6443677 -0.01430147 0.7645821
vn 0.707034 -0.01435343 0.707034
vn 0.6444425 -0.01418832 0.7645211
vn -0.707034 -0.01435343 -0.707034
vn -0.6444425 -0.01418832 -0.7645211
vn 0.9999259 -0.01217964 0
vn -0.9999259 -0.01217964 0
vn 0 0.3053494 -0.9522403
vn 0.6672045 0.3311742 -0.6672045
vn 0 0.5330377 -0.8460915
vn 0.567733 0.5961196 -0.567733
vn 0.9522403 0.3053494 0
vn 0.6672045 0.3311742 0.6672045
vn 0.8460915 0.5330377 0
vn 0.567733 0.5961196 0.567733
vn 0 0.3053494 0.9522403
vn 0 0.5330377 0.8460915
vn -0.6672045 0.3311742 0.6672045
vn -0.567733 0.5961196 0.567733
vn -0.9522403 0.3053494 0
vn -0.8460915 0.5330377 0
vn -0.6672045 0.3311742 -0.6672045
vn -0.567733 0.5961196 -0.567733
vn 0 0.0628362 0.9980238
vn -0.7051682 0.07399638 0.7051682
vn 0.7051682 0.07399638 0.7051682
vn 0.7051682 0.07399638 -0.7051682
vn 0.9980238 0.0628362 0
vn 0 0.0628362 -0.9980238
vn -0.7051682 0.07399638 -0.7051682
vn -0.9980238 0.0628362 0
vn -0.7071068 0.7071068 0
vn -1 0 0
vn 0.7071068 0.7071068 0
vn 1 0 0

vt 0.34375 0.225
vt 0.34375 0.025
vt 0.34375 0.1583333
vt 0.34375 0.1324731
vt 0.34375 0.1791582
vt 0.34375 0.1555764
vt 0.34375 0.2020791
vt 0.34375 0.1786797
vt 0.34375 0.09393586
vt 0.34375 0.1173387
vt 0.34375 0.1407415
vt 0.34375 0.06384351
vt 0.34375 0.08747972
vt 0.34375 0.1111159
vt 0.34375 0.0422851
vt 0.34375 0.06608825
vt 0.34375 0.08989141
vt 0.34375 0.02932448
vt 0.34375 0.05322788
vt 0.34375 0.07713129
vt 0.34375 0.04893684
vt 0.34375 0.07287367
vt 0.71875 0.4711905
vt 0.71875 0.475
vt 0.71875 0.275
vt 0.46875 0.275
vt 0.46875 0.4527778
vt 0.46875 0.475
vt 0.46875 0.325
vt 0.46875 0.425

usemtl colormap

f 3/1/2 2/2/1 1/1/1
f 2/2/1 3/1/2 4/2/2
f 6/1/3 2/2/1 5/2/3
f 2/2/1 6/1/3 1/1/1
f 7/1/4 4/2/2 3/1/2
f 4/2/2 7/1/4 8/2/4
f 11/2/6 10/1/5 9/2/5
f 10/1/5 11/2/6 12/1/6
f 7/1/4 11/2/6 8/2/4
f 11/2/6 7/1/4 12/1/6
f 9/2/5 14/1/7 13/2/7
f 14/1/7 9/2/5 10/1/5
f 8/2/8 2/2/8 4/2/8
f 2/2/8 8/2/8 5/2/8
f 5/2/8 8/2/8 11/2/8
f 5/2/8 11/2/8 15/2/8
f 15/2/8 11/2/8 9/2/8
f 15/2/8 9/2/8 13/2/8
f 16/1/9 5/2/3 15/2/9
f 5/2/3 16/1/9 6/1/3
f 1/1/10 7/1/10 3/1/10
f 7/1/10 1/1/10 6/1/10
f 7/1/10 6/1/10 12/1/10
f 12/1/10 6/1/10 16/1/10
f 12/1/10 16/1/10 10/1/10
f 10/1/10 16/1/10 14/1/10
f 13/2/7 16/1/9 15/2/9
f 16/1/9 13/2/7 14/1/7
f 19/1/2 18/2/1 17/1/1
f 18/2/1 19/1/2 20/2/2
f 22/1/3 18/2/1 21/2/3
f 18/2/1 22/1/3 17/1/1
f 23/1/4 20/2/2 19/1/2
f 20/2/2 23/1/4 24/2/4
f 27/2/6 26/1/5 25/2/5
f 26/1/5 27/2/6 28/1/6
f 23/1/4 27/2/6 24/2/4
f 27/2/6 23/1/4 28/1/6
f 25/2/5 30/1/7 29/2/7
f 30/1/7 25/2/5 26/1/5
f 24/2/8 18/2/8 20/2/8
f 18/2/8 24/2/8 21/2/8
f 21/2/8 24/2/8 27/2/8
f 21/2/8 27/2/8 31/2/8
f 31/2/8 27/2/8 25/2/8
f 31/2/8 25/2/8 29/2/8
f 32/1/9 21/2/3 31/2/9
f 21/2/3 32/1/9 22/1/3
f 17/1/10 23/1/10 19/1/10
f 23/1/10 17/1/10 22/1/10
f 23/1/10 22/1/10 28/1/10
f 28/1/10 22/1/10 32/1/10
f 28/1/10 32/1/10 26/1/10
f 26/1/10 32/1/10 30/1/10
f 29/2/7 32/1/9 31/2/9
f 32/1/9 29/2/7 30/1/7
f 35/1/13 34/1/12 33/1/11
f 34/1/12 35/1/13 36/1/14
f 34/1/12 36/1/14 37/1/15
f 37/1/15 36/1/14 38/1/16
f 37/1/15 38/1/16 39/1/17
f 39/1/17 38/1/16 40/1/18
f 36/1/14 42/3/20 41/3/19
f 42/3/20 36/1/14 35/1/13
f 43/3/21 39/1/17 40/1/18
f 39/1/17 43/3/21 44/3/22
f 34/1/12 46/3/24 45/3/23
f 46/3/24 34/1/12 37/1/15
f 47/3/25 36/1/14 41/3/19
f 36/1/14 47/3/25 38/1/16
f 35/1/13 48/3/26 42/3/20
f 48/3/26 35/1/13 33/1/11
f 43/3/21 38/1/16 47/3/25
f 38/1/16 43/3/21 40/1/18
f 46/3/24 39/1/17 44/3/22
f 39/1/17 46/3/24 37/1/15
f 34/1/12 48/3/26 33/1/11
f 48/3/26 34/1/12 45/3/23
f 45/3/23 49/2/27 48/3/26
f 49/2/27 45/3/23 50/2/28
f 52/2/30 44/3/22 51/2/29
f 44/3/22 52/2/30 46/3/24
f 41/3/19 54/2/32 53/2/31
f 54/2/32 41/3/19 42/3/20
f 55/2/33 44/3/22 43/3/21
f 44/3/22 55/2/33 51/2/29
f 45/3/23 52/2/30 50/2/28
f 52/2/30 45/3/23 46/3/24
f 56/2/34 41/3/19 53/2/31
f 41/3/19 56/2/34 47/3/25
f 48/3/26 54/2/32 42/3/20
f 54/2/32 48/3/26 49/2/27
f 56/2/34 43/3/21 47/3/25
f 43/3/21 56/2/34 55/2/33
f 59/1/13 58/1/12 57/1/11
f 58/1/12 59/1/13 60/1/14
f 58/1/12 60/1/14 61/1/15
f 61/1/15 60/1/14 62/1/16
f 61/1/15 62/1/16 63/1/17
f 63/1/17 62/1/16 64/1/18
f 60/1/14 66/3/20 65/3/19
f 66/3/20 60/1/14 59/1/13
f 67/3/21 63/1/17 64/1/18
f 63/1/17 67/3/21 68/3/22
f 58/1/12 70/3/24 69/3/23
f 70/3/24 58/1/12 61/1/15
f 71/3/25 60/1/14 65/3/19
f 60/1/14 71/3/25 62/1/16
f 59/1/13 72/3/26 66/3/20
f 72/3/26 59/1/13 57/1/11
f 67/3/21 62/1/16 71/3/25
f 62/1/16 67/3/21 64/1/18
f 70/3/24 63/1/17 68/3/22
f 63/1/17 70/3/24 61/1/15
f 58/1/12 72/3/26 57/1/11
f 72/3/26 58/1/12 69/3/23
f 69/3/23 73/2/27 72/3/26
f 73/2/27 69/3/23 74/2/28
f 76/2/30 68/3/22 75/2/29
f 68/3/22 76/2/30 70/3/24
f 65/3/19 78/2/32 77/2/31
f 78/2/32 65/3/19 66/3/20
f 79/2/33 68/3/22 67/3/21
f 68/3/22 79/2/33 75/2/29
f 69/3/23 76/2/30 74/2/28
f 76/2/30 69/3/23 70/3/24
f 80/2/34 65/3/19 77/2/31
f 65/3/19 80/2/34 71/3/25
f 72/3/26 78/2/32 66/3/20
f 78/2/32 72/3/26 73/2/27
f 80/2/34 67/3/21 71/3/25
f 67/3/21 80/2/34 79/2/33
f 83/1/13 82/1/12 81/1/11
f 82/1/12 83/1/13 84/1/14
f 82/1/12 84/1/14 85/1/15
f 85/1/15 84/1/14 86/1/16
f 85/1/15 86/1/16 87/1/17
f 87/1/17 86/1/16 88/1/18
f 84/1/14 90/3/20 89/3/19
f 90/3/20 84/1/14 83/1/13
f 91/3/21 87/1/17 88/1/18
f 87/1/17 91/3/21 92/3/22
f 82/1/12 94/3/24 93/3/23
f 94/3/24 82/1/12 85/1/15
f 95/3/25 84/1/14 89/3/19
f 84/1/14 95/3/25 86/1/16
f 83/1/13 96/3/26 90/3/20
f 96/3/26 83/1/13 81/1/11
f 91/3/21 86/1/16 95/3/25
f 86/1/16 91/3/21 88/1/18
f 94/3/24 87/1/17 92/3/22
f 87/1/17 94/3/24 85/1/15
f 82/1/12 96/3/26 81/1/11
f 96/3/26 82/1/12 93/3/23
f 93/3/23 97/2/27 96/3/26
f 97/2/27 93/3/23 98/2/28
f 100/2/30 92/3/22 99/2/29
f 92/3/22 100/2/30 94/3/24
f 89/3/19 102/2/32 101/2/31
f 102/2/32 89/3/19 90/3/20
f 103/2/33 92/3/22 91/3/21
f 92/3/22 103/2/33 99/2/29
f 93/3/23 100/2/30 98/2/28
f 100/2/30 93/3/23 94/3/24
f 104/2/34 89/3/19 101/2/31
f 89/3/19 104/2/34 95/3/25
f 96/3/26 102/2/32 90/3/20
f 102/2/32 96/3/26 97/2/27
f 104/2/34 91/3/21 95/3/25
f 91/3/21 104/2/34 103/2/33
f 107/1/13 106/1/12 105/1/11
f 106/1/12 107/1/13 108/1/14
f 106/1/12 108/1/14 109/1/15
f 109/1/15 108/1/14 110/1/16
f 109/1/15 110/1/16 111/1/17
f 111/1/17 110/1/16 112/1/18
f 108/1/14 114/3/20 113/3/19
f 114/3/20 108/1/14 107/1/13
f 115/3/21 111/1/17 112/1/18
f 111/1/17 115/3/21 116/3/22
f 106/1/12 118/3/24 117/3/23
f 118/3/24 106/1/12 109/1/15
f 119/3/25 108/1/14 113/3/19
f 108/1/14 119/3/25 110/1/16
f 107/1/13 120/3/26 114/3/20
f 120/3/26 107/1/13 105/1/11
f 115/3/21 110/1/16 119/3/25
f 110/1/16 115/3/21 112/1/18
f 118/3/24 111/1/17 116/3/22
f 111/1/17 118/3/24 109/1/15
f 106/1/12 120/3/26 105/1/11
f 120/3/26 106/1/12 117/3/23
f 117/3/23 121/2/27 120/3/26
f 121/2/27 117/3/23 122/2/28
f 124/2/30 116/3/22 123/2/29
f 116/3/22 124/2/30 118/3/24
f 113/3/19 126/2/32 125/2/31
f 126/2/32 113/3/19 114/3/20
f 127/2/33 116/3/22 115/3/21
f 116/3/22 127/2/33 123/2/29
f 117/3/23 124/2/30 122/2/28
f 124/2/30 117/3/23 118/3/24
f 128/2/34 113/3/19 125/2/31
f 113/3/19 128/2/34 119/3/25
f 120/3/26 126/2/32 114/3/20
f 126/2/32 120/3/26 121/2/27
f 128/2/34 115/3/21 119/3/25
f 115/3/21 128/2/34 127/2/33
f 131/6/37 130/5/36 129/4/35
f 130/5/36 131/6/37 132/7/38
f 130/5/36 133/6/39 129/4/35
f 133/6/39 130/5/36 134/7/40
f 134/7/40 135/8/41 133/6/39
f 135/8/41 134/7/40 136/1/42
f 135/8/41 132/7/38 131/6/37
f 132/7/38 135/8/41 136/1/42
f 138/10/44 129/4/35 137/9/43
f 129/4/35 138/10/44 131/6/37
f 129/4/35 139/10/45 137/9/43
f 139/10/45 129/4/35 133/6/39
f 133/6/39 140/11/46 139/10/45
f 140/11/46 133/6/39 135/8/41
f 140/11/46 131/6/37 138/10/44
f 131/6/37 140/11/46 135/8/41
f 142/13/48 137/9/43 141/12/47
f 137/9/43 142/13/48 138/10/44
f 137/9/43 143/13/49 141/12/47
f 143/13/49 137/9/43 139/10/45
f 139/10/45 144/14/50 143/13/49
f 144/14/50 139/10/45 140/11/46
f 144/14/50 138/10/44 142/13/48
f 138/10/44 144/14/50 140/11/46
f 146/16/52 141/12/47 145/15/51
f 141/12/47 146/16/52 142/13/48
f 141/12/47 147/16/53 145/15/51
f 147/16/53 141/12/47 143/13/49
f 143/13/49 148/17/54 147/16/53
f 148/17/54 143/13/49 144/14/50
f 148/17/54 142/13/48 146/16/52
f 142/13/48 148/17/54 144/14/50
f 150/19/56 145/15/51 149/18/55
f 145/15/51 150/19/56 146/16/52
f 145/15/51 151/19/57 149/18/55
f 151/19/57 145/15/51 147/16/53
f 147/16/53 152/20/58 151/19/57
f 152/20/58 147/16/53 148/17/54
f 152/20/58 146/16/52 150/19/56
f 146/16/52 152/20/58 148/17/54
f 154/21/59 149/18/55 153/2/8
f 149/18/55 154/21/59 150/19/56
f 149/18/55 155/21/60 153/2/8
f 155/21/60 149/18/55 151/19/57
f 151/19/57 156/22/10 155/21/60
f 156/22/10 151/19/57 152/20/58
f 156/22/10 150/19/56 154/21/59
f 150/19/56 156/22/10 152/20/58
f 157/18/61 154/21/59 153/2/8
f 154/21/59 157/18/61 158/19/62
f 155/21/60 157/18/61 153/2/8
f 157/18/61 155/21/60 159/19/63
f 156/22/10 159/19/63 155/21/60
f 159/19/63 156/22/10 160/20/64
f 158/19/62 156/22/10 154/21/59
f 156/22/10 158/19/62 160/20/64
f 161/15/65 158/19/62 157/18/61
f 158/19/62 161/15/65 162/16/66
f 159/19/63 161/15/65 157/18/61
f 161/15/65 159/19/63 163/16/67
f 160/20/64 163/16/67 159/19/63
f 163/16/67 160/20/64 164/17/68
f 162/16/66 160/20/64 158/19/62
f 160/20/64 162/16/66 164/17/68
f 165/12/69 162/16/66 161/15/65
f 162/16/66 165/12/69 166/13/70
f 163/16/67 165/12/69 161/15/65
f 165/12/69 163/16/67 167/13/71
f 164/17/68 167/13/71 163/16/67
f 167/13/71 164/17/68 168/14/72
f 166/13/70 164/17/68 162/16/66
f 164/17/68 166/13/70 168/14/72
f 169/9/73 166/13/70 165/12/69
f 166/13/70 169/9/73 170/10/74
f 167/13/71 169/9/73 165/12/69
f 169/9/73 167/13/71 171/10/75
f 168/14/72 171/10/75 167/13/71
f 171/10/75 168/14/72 172/11/76
f 170/10/74 168/14/72 166/13/70
f 168/14/72 170/10/74 172/11/76
f 173/4/77 170/10/74 169/9/73
f 170/10/74 173/4/77 174/6/78
f 171/10/75 173/4/77 169/9/73
f 173/4/77 171/10/75 175/6/79
f 172/11/76 175/6/79 171/10/75
f 175/6/79 172/11/76 176/8/80
f 174/6/78 172/11/76 170/10/74
f 172/11/76 174/6/78 176/8/80
f 177/5/81 174/6/78 173/4/77
f 174/6/78 177/5/81 178/7/38
f 175/6/79 177/5/81 173/4/77
f 177/5/81 175/6/79 179/7/40
f 176/8/80 179/7/40 175/6/79
f 179/7/40 176/8/80 180/1/82
f 178/7/38 176/8/80 174/6/78
f 176/8/80 178/7/38 180/1/82
f 183/6/37 182/5/36 181/4/35
f 182/5/36 183/6/37 184/7/38
f 182/5/36 185/6/39 181/4/35
f 185/6/39 182/5/36 186/7/40
f 186/7/40 187/8/41 185/6/39
f 187/8/41 186/7/40 188/1/42
f 187/8/41 184/7/38 183/6/37
f 184/7/38 187/8/41 188/1/42
f 190/10/44 181/4/35 189/9/43
f 181/4/35 190/10/44 183/6/37
f 181/4/35 191/10/45 189/9/43
f 191/10/45 181/4/35 185/6/39
f 185/6/39 192/11/46 191/10/45
f 192/11/46 185/6/39 187/8/41
f 192/11/46 183/6/37 190/10/44
f 183/6/37 192/11/46 187/8/41
f 194/13/48 189/9/43 193/12/47
f 189/9/43 194/13/48 190/10/44
f 189/9/43 195/13/49 193/12/47
f 195/13/49 189/9/43 191/10/45
f 191/10/45 196/14/50 195/13/49
f 196/14/50 191/10/45 192/11/46
f 196/14/50 190/10/44 194/13/48
f 190/10/44 196/14/50 192/11/46
f 198/16/52 193/12/47 197/15/51
f 193/12/47 198/16/52 194/13/48
f 193/12/47 199/16/53 197/15/51
f 199/16/53 193/12/47 195/13/49
f 195/13/49 200/17/54 199/16/53
f 200/17/54 195/13/49 196/14/50
f 200/17/54 194/13/48 198/16/52
f 194/13/48 200/17/54 196/14/50
f 202/19/56 197/15/51 201/18/55
f 197/15/51 202/19/56 198/16/52
f 197/15/51 203/19/57 201/18/55
f 203/19/57 197/15/51 199/16/53
f 199/16/53 204/20/58 203/19/57
f 204/20/58 199/16/53 200/17/54
f 204/20/58 198/16/52 202/19/56
f 198/16/52 204/20/58 200/17/54
f 206/21/59 201/18/55 205/2/8
f 201/18/55 206/21/59 202/19/56
f 201/18/55 207/21/60 205/2/8
f 207/21/60 201/18/55 203/19/57
f 203/19/57 208/22/10 207/21/60
f 208/22/10 203/19/57 204/20/58
f 208/22/10 202/19/56 206/21/59
f 202/19/56 208/22/10 204/20/58
f 209/18/61 206/21/59 205/2/8
f 206/21/59 209/18/61 210/19/62
f 207/21/60 209/18/61 205/2/8
f 209/18/61 207/21/60 211/19/63
f 208/22/10 211/19/63 207/21/60
f 211/19/63 208/22/10 212/20/64
f 210/19/62 208/22/10 206/21/59
f 208/22/10 210/19/62 212/20/64
f 213/15/65 210/19/62 209/18/61
f 210/19/62 213/15/65 214/16/66
f 211/19/63 213/15/65 209/18/61
f 213/15/65 211/19/63 215/16/67
f 212/20/64 215/16/67 211/19/63
f 215/16/67 212/20/64 216/17/68
f 214/16/66 212/20/64 210/19/62
f 212/20/64 214/16/66 216/17/68
f 217/12/69 214/16/66 213/15/65
f 214/16/66 217/12/69 218/13/70
f 215/16/67 217/12/69 213/15/65
f 217/12/69 215/16/67 219/13/71
f 216/17/68 219/13/71 215/16/67
f 219/13/71 216/17/68 220/14/72
f 218/13/70 216/17/68 214/16/66
f 216/17/68 218/13/70 220/14/72
f 221/9/73 218/13/70 217/12/69
f 218/13/70 221/9/73 222/10/74
f 219/13/71 221/9/73 217/12/69
f 221/9/73 219/13/71 223/10/75
f 220/14/72 223/10/75 219/13/71
f 223/10/75 220/14/72 224/11/76
f 222/10/74 220/14/72 218/13/70
f 220/14/72 222/10/74 224/11/76
f 225/4/77 222/10/74 221/9/73
f 222/10/74 225/4/77 226/6/78
f 223/10/75 225/4/77 221/9/73
f 225/4/77 223/10/75 227/6/79
f 224/11/76 227/6/79 223/10/75
f 227/6/79 224/11/76 228/8/80
f 226/6/78 224/11/76 222/10/74
f 224/11/76 226/6/78 228/8/80
f 229/5/81 226/6/78 225/4/77
f 226/6/78 229/5/81 230/7/38
f 227/6/79 229/5/81 225/4/77
f 229/5/81 227/6/79 231/7/40
f 228/8/80 231/7/40 227/6/79
f 231/7/40 228/8/80 232/1/82
f 230/7/38 228/8/80 226/6/78
f 228/8/80 230/7/38 232/1/82
f 235/23/85 234/24/84 233/23/83
f 235/23/85 237/23/87 236/24/86
f 235/23/85 236/24/86 234/24/84
f 236/24/90 239/23/89 238/23/88
f 234/24/92 238/23/88 240/23/91
f 236/24/90 238/23/88 234/24/92
f 234/24/95 242/25/94 241/25/93
f 234/24/95 240/23/96 242/25/94
f 236/24/99 244/25/98 243/25/97
f 236/24/99 237/23/100 244/25/98
f 239/23/102 243/25/97 245/25/101
f 236/24/99 243/25/97 239/23/102
f 233/23/104 241/25/93 246/25/103
f 234/24/95 241/25/93 233/23/104
f 239/23/102 247/25/105 238/23/105
f 247/25/105 239/23/102 245/25/101
f 244/25/98 235/23/106 248/25/106
f 235/23/106 244/25/98 237/23/100
f 238/23/105 242/25/94 240/23/96
f 242/25/94 238/23/105 247/25/105
f 246/25/103 235/23/106 233/23/104
f 235/23/106 246/25/103 248/25/106
f 251/23/85 250/24/84 249/23/83
f 251/23/85 253/23/87 252/24/86
f 251/23/85 252/24/86 250/24/84
f 252/24/90 255/23/89 254/23/88
f 250/24/92 254/23/88 256/23/91
f 252/24/90 254/23/88 250/24/92
f 250/24/95 258/25/94 257/25/93
f 250/24/95 256/23/96 258/25/94
f 252/24/99 260/25/98 259/25/97
f 252/24/99 253/23/100 260/25/98
f 255/23/102 259/25/97 261/25/101
f 252/24/99 259/25/97 255/23/102
f 249/23/104 257/25/93 262/25/103
f 250/24/95 257/25/93 249/23/104
f 255/23/102 263/25/105 254/23/105
f 263/25/105 255/23/102 261/25/101
f 260/25/98 251/23/106 264/25/106
f 251/23/106 260/25/98 253/23/100
f 254/23/105 258/25/94 256/23/96
f 258/25/94 254/23/105 263/25/105
f 262/25/103 251/23/106 249/23/104
f 251/23/106 262/25/103 264/25/106
f 267/26/8 266/26/8 265/26/8
f 266/26/8 267/26/8 268/26/8
f 266/26/8 268/26/8 269/26/8
f 269/26/8 268/26/8 270/26/8
f 269/26/8 270/26/8 271/26/8
f 271/26/8 270/26/8 272/26/8
f 275/28/109 274/27/108 273/27/107
f 274/27/108 275/28/109 276/28/110
f 279/28/113 278/27/112 277/27/111
f 278/27/112 279/28/113 280/28/114
f 280/28/114 281/27/115 278/27/112
f 281/27/115 280/28/114 282/28/116
f 282/28/116 283/27/117 281/27/115
f 283/27/117 282/28/116 284/28/118
f 283/27/117 286/28/120 285/27/119
f 286/28/120 283/27/117 284/28/118
f 285/27/119 288/28/122 287/27/121
f 288/28/122 285/27/119 286/28/120
f 276/28/110 277/27/111 274/27/108
f 277/27/111 276/28/110 279/28/113
f 288/28/122 273/27/107 287/27/121
f 273/27/107 288/28/122 275/28/109
f 281/27/115 270/26/124 268/26/123
f 270/26/124 281/27/115 283/27/117
f 278/27/112 268/26/123 267/26/125
f 268/26/123 278/27/112 281/27/115
f 274/27/108 265/26/127 266/26/126
f 265/26/127 274/27/108 277/27/111
f 273/27/107 266/26/126 269/26/128
f 266/26/126 273/27/107 274/27/108
f 272/26/130 287/27/121 271/26/129
f 287/27/121 272/26/130 285/27/119
f 287/27/121 269/26/128 271/26/129
f 269/26/128 287/27/121 273/27/107
f 270/26/124 285/27/119 272/26/130
f 285/27/119 270/26/124 283/27/117
f 277/27/111 267/26/125 265/26/127
f 267/26/125 277/27/111 278/27/112
f 291/26/8 290/26/8 289/26/8
f 290/26/8 291/26/8 292/26/8
f 290/26/8 292/26/8 293/26/8
f 293/26/8 292/26/8 294/26/8
f 293/26/8 294/26/8 295/26/8
f 295/26/8 294/26/8 296/26/8
f 299/28/109 298/27/108 297/27/107
f 298/27/108 299/28/109 300/28/110
f 303/28/113 302/27/112 301/27/111
f 302/27/112 303/28/113 304/28/114
f 304/28/114 305/27/115 302/27/112
f 305/27/115 304/28/114 306/28/116
f 306/28/116 307/27/117 305/27/115
f 307/27/117 306/28/116 308/28/118
f 307/27/117 310/28/120 309/27/119
f 310/28/120 307/27/117 308/28/118
f 309/27/119 312/28/122 311/27/121
f 312/28/122 309/27/119 310/28/120
f 300/28/110 301/27/111 298/27/108
f 301/27/111 300/28/110 303/28/113
f 312/28/122 297/27/107 311/27/121
f 297/27/107 312/28/122 299/28/109
f 305/27/115 294/26/124 292/26/123
f 294/26/124 305/27/115 307/27/117
f 302/27/112 292/26/123 291/26/125
f 292/26/123 302/27/112 305/27/115
f 298/27/108 289/26/127 290/26/126
f 289/26/127 298/27/108 301/27/111
f 297/27/107 290/26/126 293/26/128
f 290/26/126 297/27/107 298/27/108
f 296/26/130 311/27/121 295/26/129
f 311/27/121 296/26/130 309/27/119
f 311/27/121 293/26/128 295/26/129
f 293/26/128 311/27/121 297/27/107
f 294/26/124 309/27/119 296/26/130
f 309/27/119 294/26/124 307/27/117
f 301/27/111 291/26/125 289/26/127
f 291/26/125 301/27/111 302/27/112
f 315/30/38 314/29/38 313/29/38
f 314/29/38 315/30/38 316/30/38
f 319/30/40 318/29/40 317/29/40
f 318/29/40 319/30/40 320/30/40
f 317/29/132 316/30/131 319/30/131
f 316/30/131 317/29/132 314/29/132
f 319/30/131 315/30/133 320/30/133
f 315/30/133 319/30/131 316/30/131
f 315/30/133 318/29/134 320/30/133
f 318/29/134 315/30/133 313/29/134
f 314/29/8 318/29/8 313/29/8
f 318/29/8 314/29/8 317/29/8
f 323/30/38 322/29/38 321/29/38
f 322/29/38 323/30/38 324/30/38
f 327/30/40 326/29/40 325/29/40
f 326/29/40 327/30/40 328/30/40
f 325/29/132 324/30/131 327/30/131
f 324/30/131 325/29/132 322/29/132
f 327/30/131 323/30/133 328/30/133
f 323/30/133 327/30/131 324/30/131
f 323/30/133 326/29/134 328/30/133
f 326/29/134 323/30/133 321/29/134
f 322/29/8 326/29/8 321/29/8
f 326/29/8 322/29/8 325/29/8

g electricity-pole-wide




usemtl colormap

f 3/1/2 2/2/1 1/1/1
f 2/2/1 3/1/2 4/2/2
f 6/1/3 2/2/1 5/2/3
f 2/2/1 6/1/3 1/1/1
f 7/1/4 4/2/2 3/1/2
f 4/2/2 7/1/4 8/2/4
f 11/2/6 10/1/5 9/2/5
f 10/1/5 11/2/6 12/1/6
f 7/1/4 11/2/6 8/2/4
f 11/2/6 7/1/4 12/1/6
f 9/2/5 14/1/7 13/2/7
f 14/1/7 9/2/5 10/1/5
f 8/2/8 2/2/8 4/2/8
f 2/2/8 8/2/8 5/2/8
f 5/2/8 8/2/8 11/2/8
f 5/2/8 11/2/8 15/2/8
f 15/2/8 11/2/8 9/2/8
f 15/2/8 9/2/8 13/2/8
f 16/1/9 5/2/3 15/2/9
f 5/2/3 16/1/9 6/1/3
f 1/1/10 7/1/10 3/1/10
f 7/1/10 1/1/10 6/1/10
f 7/1/10 6/1/10 12/1/10
f 12/1/10 6/1/10 16/1/10
f 12/1/10 16/1/10 10/1/10
f 10/1/10 16/1/10 14/1/10
f 13/2/7 16/1/9 15/2/9
f 16/1/9 13/2/7 14/1/7
f 19/1/2 18/2/1 17/1/1
f 18/2/1 19/1/2 20/2/2
f 22/1/3 18/2/1 21/2/3
f 18/2/1 22/1/3 17/1/1
f 23/1/4 20/2/2 19/1/2
f 20/2/2 23/1/4 24/2/4
f 27/2/6 26/1/5 25/2/5
f 26/1/5 27/2/6 28/1/6
f 23/1/4 27/2/6 24/2/4
f 27/2/6 23/1/4 28/1/6
f 25/2/5 30/1/7 29/2/7
f 30/1/7 25/2/5 26/1/5
f 24/2/8 18/2/8 20/2/8
f 18/2/8 24/2/8 21/2/8
f 21/2/8 24/2/8 27/2/8
f 21/2/8 27/2/8 31/2/8
f 31/2/8 27/2/8 25/2/8
f 31/2/8 25/2/8 29/2/8
f 32/1/9 21/2/3 31/2/9
f 21/2/3 32/1/9 22/1/3
f 17/1/10 23/1/10 19/1/10
f 23/1/10 17/1/10 22/1/10
f 23/1/10 22/1/10 28/1/10
f 28/1/10 22/1/10 32/1/10
f 28/1/10 32/1/10 26/1/10
f 26/1/10 32/1/10 30/1/10
f 29/2/7 32/1/9 31/2/9
f 32/1/9 29/2/7 30/1/7
f 35/1/13 34/1/12 33/1/11
f 34/1/12 35/1/13 36/1/14
f 34/1/12 36/1/14 37/1/15
f 37/1/15 36/1/14 38/1/16
f 37/1/15 38/1/16 39/1/17
f 39/1/17 38/1/16 40/1/18
f 36/1/14 42/3/20 41/3/19
f 42/3/20 36/1/14 35/1/13
f 43/3/21 39/1/17 40/1/18
f 39/1/17 43/3/21 44/3/22
f 34/1/12 46/3/24 45/3/23
f 46/3/24 34/1/12 37/1/15
f 47/3/25 36/1/14 41/3/19
f 36/1/14 47/3/25 38/1/16
f 35/1/13 48/3/26 42/3/20
f 48/3/26 35/1/13 33/1/11
f 43/3/21 38/1/16 47/3/25
f 38/1/16 43/3/21 40/1/18
f 46/3/24 39/1/17 44/3/22
f 39/1/17 46/3/24 37/1/15
f 34/1/12 48/3/26 33/1/11
f 48/3/26 34/1/12 45/3/23
f 45/3/23 49/2/27 48/3/26
f 49/2/27 45/3/23 50/2/28
f 52/2/30 44/3/22 51/2/29
f 44/3/22 52/2/30 46/3/24
f 41/3/19 54/2/32 53/2/31
f 54/2/32 41/3/19 42/3/20
f 55/2/33 44/3/22 43/3/21
f 44/3/22 55/2/33 51/2/29
f 45/3/23 52/2/30 50/2/28
f 52/2/30 45/3/23 46/3/24
f 56/2/34 41/3/19 53/2/31
f 41/3/19 56/2/34 47/3/25
f 48/3/26 54/2/32 42/3/20
f 54/2/32 48/3/26 49/2/27
f 56/2/34 43/3/21 47/3/25
f 43/3/21 56/2/34 55/2/33
f 59/1/13 58/1/12 57/1/11
f 58/1/12 59/1/13 60/1/14
f 58/1/12 60/1/14 61/1/15
f 61/1/15 60/1/14 62/1/16
f 61/1/15 62/1/16 63/1/17
f 63/1/17 62/1/16 64/1/18
f 60/1/14 66/3/20 65/3/19
f 66/3/20 60/1/14 59/1/13
f 67/3/21 63/1/17 64/1/18
f 63/1/17 67/3/21 68/3/22
f 58/1/12 70/3/24 69/3/23
f 70/3/24 58/1/12 61/1/15
f 71/3/25 60/1/14 65/3/19
f 60/1/14 71/3/25 62/1/16
f 59/1/13 72/3/26 66/3/20
f 72/3/26 59/1/13 57/1/11
f 67/3/21 62/1/16 71/3/25
f 62/1/16 67/3/21 64/1/18
f 70/3/24 63/1/17 68/3/22
f 63/1/17 70/3/24 61/1/15
f 58/1/12 72/3/26 57/1/11
f 72/3/26 58/1/12 69/3/23
f 69/3/23 73/2/27 72/3/26
f 73/2/27 69/3/23 74/2/28
f 76/2/30 68/3/22 75/2/29
f 68/3/22 76/2/30 70/3/24
f 65/3/19 78/2/32 77/2/31
f 78/2/32 65/3/19 66/3/20
f 79/2/33 68/3/22 67/3/21
f 68/3/22 79/2/33 75/2/29
f 69/3/23 76/2/30 74/2/28
f 76/2/30 69/3/23 70/3/24
f 80/2/34 65/3/19 77/2/31
f 65/3/19 80/2/34 71/3/25
f 72/3/26 78/2/32 66/3/20
f 78/2/32 72/3/26 73/2/27
f 80/2/34 67/3/21 71/3/25
f 67/3/21 80/2/34 79/2/33
f 83/1/13 82/1/12 81/1/11
f 82/1/12 83/1/13 84/1/14
f 82/1/12 84/1/14 85/1/15
f 85/1/15 84/1/14 86/1/16
f 85/1/15 86/1/16 87/1/17
f 87/1/17 86/1/16 88/1/18
f 84/1/14 90/3/20 89/3/19
f 90/3/20 84/1/14 83/1/13
f 91/3/21 87/1/17 88/1/18
f 87/1/17 91/3/21 92/3/22
f 82/1/12 94/3/24 93/3/23
f 94/3/24 82/1/12 85/1/15
f 95/3/25 84/1/14 89/3/19
f 84/1/14 95/3/25 86/1/16
f 83/1/13 96/3/26 90/3/20
f 96/3/26 83/1/13 81/1/11
f 91/3/21 86/1/16 95/3/25
f 86/1/16 91/3/21 88/1/18
f 94/3/24 87/1/17 92/3/22
f 87/1/17 94/3/24 85/1/15
f 82/1/12 96/3/26 81/1/11
f 96/3/26 82/1/12 93/3/23
f 93/3/23 97/2/27 96/3/26
f 97/2/27 93/3/23 98/2/28
f 100/2/30 92/3/22 99/2/29
f 92/3/22 100/2/30 94/3/24
f 89/3/19 102/2/32 101/2/31
f 102/2/32 89/3/19 90/3/20
f 103/2/33 92/3/22 91/3/21
f 92/3/22 103/2/33 99/2/29
f 93/3/23 100/2/30 98/2/28
f 100/2/30 93/3/23 94/3/24
f 104/2/34 89/3/19 101/2/31
f 89/3/19 104/2/34 95/3/25
f 96/3/26 102/2/32 90/3/20
f 102/2/32 96/3/26 97/2/27
f 104/2/34 91/3/21 95/3/25
f 91/3/21 104/2/34 103/2/33
f 107/1/13 106/1/12 105/1/11
f 106/1/12 107/1/13 108/1/14
f 106/1/12 108/1/14 109/1/15
f 109/1/15 108/1/14 110/1/16
f 109/1/15 110/1/16 111/1/17
f 111/1/17 110/1/16 112/1/18
f 108/1/14 114/3/20 113/3/19
f 114/3/20 108/1/14 107/1/13
f 115/3/21 111/1/17 112/1/18
f 111/1/17 115/3/21 116/3/22
f 106/1/12 118/3/24 117/3/23
f 118/3/24 106/1/12 109/1/15
f 119/3/25 108/1/14 113/3/19
f 108/1/14 119/3/25 110/1/16
f 107/1/13 120/3/26 114/3/20
f 120/3/26 107/1/13 105/1/11
f 115/3/21 110/1/16 119/3/25
f 110/1/16 115/3/21 112/1/18
f 118/3/24 111/1/17 116/3/22
f 111/1/17 118/3/24 109/1/15
f 106/1/12 120/3/26 105/1/11
f 120/3/26 106/1/12 117/3/23
f 117/3/23 121/2/27 120/3/26
f 121/2/27 117/3/23 122/2/28
f 124/2/30 116/3/22 123/2/29
f 116/3/22 124/2/30 118/3/24
f 113/3/19 126/2/32 125/2/31
f 126/2/32 113/3/19 114/3/20
f 127/2/33 116/3/22 115/3/21
f 116/3/22 127/2/33 123/2/29
f 117/3/23 124/2/30 122/2/28
f 124/2/30 117/3/23 118/3/24
f 128/2/34 113/3/19 125/2/31
f 113/3/19 128/2/34 119/3/25
f 120/3/26 126/2/32 114/3/20
f 126/2/32 120/3/26 121/2/27
f 128/2/34 115/3/21 119/3/25
f 115/3/21 128/2/34 127/2/33
f 131/6/37 130/5/36 129/4/35
f 130/5/36 131/6/37 132/7/38
f 130/5/36 133/6/39 129/4/35
f 133/6/39 130/5/36 134/7/40
f 134/7/40 135/8/41 133/6/39
f 135/8/41 134/7/40 136/1/42
f 135/8/41 132/7/38 131/6/37
f 132/7/38 135/8/41 136/1/42
f 138/10/44 129/4/35 137/9/43
f 129/4/35 138/10/44 131/6/37
f 129/4/35 139/10/45 137/9/43
f 139/10/45 129/4/35 133/6/39
f 133/6/39 140/11/46 139/10/45
f 140/11/46 133/6/39 135/8/41
f 140/11/46 131/6/37 138/10/44
f 131/6/37 140/11/46 135/8/41
f 142/13/48 137/9/43 141/12/47
f 137/9/43 142/13/48 138/10/44
f 137/9/43 143/13/49 141/12/47
f 143/13/49 137/9/43 139/10/45
f 139/10/45 144/14/50 143/13/49
f 144/14/50 139/10/45 140/11/46
f 144/14/50 138/10/44 142/13/48
f 138/10/44 144/14/50 140/11/46
f 146/16/52 141/12/47 145/15/51
f 141/12/47 146/16/52 142/13/48
f 141/12/47 147/16/53 145/15/51
f 147/16/53 141/12/47 143/13/49
f 143/13/49 148/17/54 147/16/53
f 148/17/54 143/13/49 144/14/50
f 148/17/54 142/13/48 146/16/52
f 142/13/48 148/17/54 144/14/50
f 150/19/56 145/15/51 149/18/55
f 145/15/51 150/19/56 146/16/52
f 145/15/51 151/19/57 149/18/55
f 151/19/57 145/15/51 147/16/53
f 147/16/53 152/20/58 151/19/57
f 152/20/58 147/16/53 148/17/54
f 152/20/58 146/16/52 150/19/56
f 146/16/52 152/20/58 148/17/54
f 154/21/59 149/18/55 153/2/8
f 149/18/55 154/21/59 150/19/56
f 149/18/55 155/21/60 153/2/8
f 155/21/60 149/18/55 151/19/57
f 151/19/57 156/22/10 155/21/60
f 156/22/10 151/19/57 152/20/58
f 156/22/10 150/19/56 154/21/59
f 150/19/56 156/22/10 152/20/58
f 157/18/61 154/21/59 153/2/8
f 154/21/59 157/18/61 158/19/62
f 155/21/60 157/18/61 153/2/8
f 157/18/61 155/21/60 159/19/63
f 156/22/10 159/19/63 155/21/60
f 159/19/63 156/22/10 160/20/64
f 158/19/62 156/22/10 154/21/59
f 156/22/10 158/19/62 160/20/64
f 161/15/65 158/19/62 157/18/61
f 158/19/62 161/15/65 162/16/66
f 159/19/63 161/15/65 157/18/61
f 161/15/65 159/19/63 163/16/67
f 160/20/64 163/16/67 159/19/63
f 163/16/67 160/20/64 164/17/68
f 162/16/66 160/20/64 158/19/62
f 160/20/64 162/16/66 164/17/68
f 165/12/69 162/16/66 161/15/65
f 162/16/66 165/12/69 166/13/70
f 163/16/67 165/12/69 161/15/65
f 165/12/69 163/16/67 167/13/71
f 164/17/68 167/13/71 163/16/67
f 167/13/71 164/17/68 168/14/72
f 166/13/70 164/17/68 162/16/66
f 164/17/68 166/13/70 168/14/72
f 169/9/73 166/13/70 165/12/69
f 166/13/70 169/9/73 170/10/74
f 167/13/71 169/9/73 165/12/69
f 169/9/73 167/13/71 171/10/75
f 168/14/72 171/10/75 167/13/71
f 171/10/75 168/14/72 172/11/76
f 170/10/74 168/14/72 166/13/70
f 168/14/72 170/10/74 172/11/76
f 173/4/77 170/10/74 169/9/73
f 170/10/74 173/4/77 174/6/78
f 171/10/75 173/4/77 169/9/73
f 173/4/77 171/10/75 175/6/79
f 172/11/76 175/6/79 171/10/75
f 175/6/79 172/11/76 176/8/80
f 174/6/78 172/11/76 170/10/74
f 172/11/76 174/6/78 176/8/80
f 177/5/81 174/6/78 173/4/77
f 174/6/78 177/5/81 178/7/38
f 175/6/79 177/5/81 173/4/77
f 177/5/81 175/6/79 179/7/40
f 176/8/80 179/7/40 175/6/79
f 179/7/40 176/8/80 180/1/82
f 178/7/38 176/8/80 174/6/78
f 176/8/80 178/7/38 180/1/82
f 183/6/37 182/5/36 181/4/35
f 182/5/36 183/6/37 184/7/38
f 182/5/36 185/6/39 181/4/35
f 185/6/39 182/5/36 186/7/40
f 186/7/40 187/8/41 185/6/39
f 187/8/41 186/7/40 188/1/42
f 187/8/41 184/7/38 183/6/37
f 184/7/38 187/8/41 188/1/42
f 190/10/44 181/4/35 189/9/43
f 181/4/35 190/10/44 183/6/37
f 181/4/35 191/10/45 189/9/43
f 191/10/45 181/4/35 185/6/39
f 185/6/39 192/11/46 191/10/45
f 192/11/46 185/6/39 187/8/41
f 192/11/46 183/6/37 190/10/44
f 183/6/37 192/11/46 187/8/41
f 194/13/48 189/9/43 193/12/47
f 189/9/43 194/13/48 190/10/44
f 189/9/43 195/13/49 193/12/47
f 195/13/49 189/9/43 191/10/45
f 191/10/45 196/14/50 195/13/49
f 196/14/50 191/10/45 192/11/46
f 196/14/50 190/10/44 194/13/48
f 190/10/44 196/14/50 192/11/46
f 198/16/52 193/12/47 197/15/51
f 193/12/47 198/16/52 194/13/48
f 193/12/47 199/16/53 197/15/51
f 199/16/53 193/12/47 195/13/49
f 195/13/49 200/17/54 199/16/53
f 200/17/54 195/13/49 196/14/50
f 200/17/54 194/13/48 198/16/52
f 194/13/48 200/17/54 196/14/50
f 202/19/56 197/15/51 201/18/55
f 197/15/51 202/19/56 198/16/52
f 197/15/51 203/19/57 201/18/55
f 203/19/57 197/15/51 199/16/53
f 199/16/53 204/20/58 203/19/57
f 204/20/58 199/16/53 200/17/54
f 204/20/58 198/16/52 202/19/56
f 198/16/52 204/20/58 200/17/54
f 206/21/59 201/18/55 205/2/8
f 201/18/55 206/21/59 202/19/56
f 201/18/55 207/21/60 205/2/8
f 207/21/60 201/18/55 203/19/57
f 203/19/57 208/22/10 207/21/60
f 208/22/10 203/19/57 204/20/58
f 208/22/10 202/19/56 206/21/59
f 202/19/56 208/22/10 204/20/58
f 209/18/61 206/21/59 205/2/8
f 206/21/59 209/18/61 210/19/62
f 207/21/60 209/18/61 205/2/8
f 209/18/61 207/21/60 211/19/63
f 208/22/10 211/19/63 207/21/60
f 211/19/63 208/22/10 212/20/64
f 210/19/62 208/22/10 206/21/59
f 208/22/10 210/19/62 212/20/64
f 213/15/65 210/19/62 209/18/61
f 210/19/62 213/15/65 214/16/66
f 211/19/63 213/15/65 209/18/61
f 213/15/65 211/19/63 215/16/67
f 212/20/64 215/16/67 211/19/63
f 215/16/67 212/20/64 216/17/68
f 214/16/66 212/20/64 210/19/62
f 212/20/64 214/16/66 216/17/68
f 217/12/69 214/16/66 213/15/65
f 214/16/66 217/12/69 218/13/70
f 215/16/67 217/12/69 213/15/65
f 217/12/69 215/16/67 219/13/71
f 216/17/68 219/13/71 215/16/67
f 219/13/71 216/17/68 220/14/72
f 218/13/70 216/17/68 214/16/66
f 216/17/68 218/13/70 220/14/72
f 221/9/73 218/13/70 217/12/69
f 218/13/70 221/9/73 222/10/74
f 219/13/71 221/9/73 217/12/69
f 221/9/73 219/13/71 223/10/75
f 220/14/72 223/10/75 219/13/71
f 223/10/75 220/14/72 224/11/76
f 222/10/74 220/14/72 218/13/70
f 220/14/72 222/10/74 224/11/76
f 225/4/77 222/10/74 221/9/73
f 222/10/74 225/4/77 226/6/78
f 223/10/75 225/4/77 221/9/73
f 225/4/77 223/10/75 227/6/79
f 224/11/76 227/6/79 223/10/75
f 227/6/79 224/11/76 228/8/80
f 226/6/78 224/11/76 222/10/74
f 224/11/76 226/6/78 228/8/80
f 229/5/81 226/6/78 225/4/77
f 226/6/78 229/5/81 230/7/38
f 227/6/79 229/5/81 225/4/77
f 229/5/81 227/6/79 231/7/40
f 228/8/80 231/7/40 227/6/79
f 231/7/40 228/8/80 232/1/82
f 230/7/38 228/8/80 226/6/78
f 228/8/80 230/7/38 232/1/82
f 235/23/85 234/24/84 233/23/83
f 235/23/85 237/23/87 236/24/86
f 235/23/85 236/24/86 234/24/84
f 236/24/90 239/23/89 238/23/88
f 234/24/92 238/23/88 240/23/91
f 236/24/90 238/23/88 234/24/92
f 234/24/95 242/25/94 241/25/93
f 234/24/95 240/23/96 242/25/94
f 236/24/99 244/25/98 243/25/97
f 236/24/99 237/23/100 244/25/98
f 239/23/102 243/25/97 245/25/101
f 236/24/99 243/25/97 239/23/102
f 233/23/104 241/25/93 246/25/103
f 234/24/95 241/25/93 233/23/104
f 239/23/102 247/25/105 238/23/105
f 247/25/105 239/23/102 245/25/101
f 244/25/98 235/23/106 248/25/106
f 235/23/106 244/25/98 237/23/100
f 238/23/105 242/25/94 240/23/96
f 242/25/94 238/23/105 247/25/105
f 246/25/103 235/23/106 233/23/104
f 235/23/106 246/25/103 248/25/106
f 251/23/85 250/24/84 249/23/83
f 251/23/85 253/23/87 252/24/86
f 251/23/85 252/24/86 250/24/84
f 252/24/90 255/23/89 254/23/88
f 250/24/92 254/23/88 256/23/91
f 252/24/90 254/23/88 250/24/92
f 250/24/95 258/25/94 257/25/93
f 250/24/95 256/23/96 258/25/94
f 252/24/99 260/25/98 259/25/97
f 252/24/99 253/23/100 260/25/98
f 255/23/102 259/25/97 261/25/101
f 252/24/99 259/25/97 255/23/102
f 249/23/104 257/25/93 262/25/103
f 250/24/95 257/25/93 249/23/104
f 255/23/102 263/25/105 254/23/105
f 263/25/105 255/23/102 261/25/101
f 260/25/98 251/23/106 264/25/106
f 251/23/106 260/25/98 253/23/100
f 254/23/105 258/25/94 256/23/96
f 258/25/94 254/23/105 263/25/105
f 262/25/103 251/23/106 249/23/104
f 251/23/106 262/25/103 264/25/106
f 267/26/8 266/26/8 265/26/8
f 266/26/8 267/26/8 268/26/8
f 266/26/8 268/26/8 269/26/8
f 269/26/8 268/26/8 270/26/8
f 269/26/8 270/26/8 271/26/8
f 271/26/8 270/26/8 272/26/8
f 275/28/109 274/27/108 273/27/107
f 274/27/108 275/28/109 276/28/110
f 279/28/113 278/27/112 277/27/111
f 278/27/112 279/28/113 280/28/114
f 280/28/114 281/27/115 278/27/112
f 281/27/115 280/28/114 282/28/116
f 282/28/116 283/27/117 281/27/115
f 283/27/117 282/28/116 284/28/118
f 283/27/117 286/28/120 285/27/119
f 286/28/120 283/27/117 284/28/118
f 285/27/119 288/28/122 287/27/121
f 288/28/122 285/27/119 286/28/120
f 276/28/110 277/27/111 274/27/108
f 277/27/111 276/28/110 279/28/113
f 288/28/122 273/27/107 287/27/121
f 273/27/107 288/28/122 275/28/109
f 281/27/115 270/26/124 268/26/123
f 270/26/124 281/27/115 283/27/117
f 278/27/112 268/26/123 267/26/125
f 268/26/123 278/27/112 281/27/115
f 274/27/108 265/26/127 266/26/126
f 265/26/127 274/27/108 277/27/111
f 273/27/107 266/26/126 269/26/128
f 266/26/126 273/27/107 274/27/108
f 272/26/130 287/27/121 271/26/129
f 287/27/121 272/26/130 285/27/119
f 287/27/121 269/26/128 271/26/129
f 269/26/128 287/27/121 273/27/107
f 270/26/124 285/27/119 272/26/130
f 285/27/119 270/26/124 283/27/117
f 277/27/111 267/26/125 265/26/127
f 267/26/125 277/27/111 278/27/112
f 291/26/8 290/26/8 289/26/8
f 290/26/8 291/26/8 292/26/8
f 290/26/8 292/26/8 293/26/8
f 293/26/8 292/26/8 294/26/8
f 293/26/8 294/26/8 295/26/8
f 295/26/8 294/26/8 296/26/8
f 299/28/109 298/27/108 297/27/107
f 298/27/108 299/28/109 300/28/110
f 303/28/113 302/27/112 301/27/111
f 302/27/112 303/28/113 304/28/114
f 304/28/114 305/27/115 302/27/112
f 305/27/115 304/28/114 306/28/116
f 306/28/116 307/27/117 305/27/115
f 307/27/117 306/28/116 308/28/118
f 307/27/117 310/28/120 309/27/119
f 310/28/120 307/27/117 308/28/118
f 309/27/119 312/28/122 311/27/121
f 312/28/122 309/27/119 310/28/120
f 300/28/110 301/27/111 298/27/108
f 301/27/111 300/28/110 303/28/113
f 312/28/122 297/27/107 311/27/121
f 297/27/107 312/28/122 299/28/109
f 305/27/115 294/26/124 292/26/123
f 294/26/124 305/27/115 307/27/117
f 302/27/112 292/26/123 291/26/125
f 292/26/123 302/27/112 305/27/115
f 298/27/108 289/26/127 290/26/126
f 289/26/127 298/27/108 301/27/111
f 297/27/107 290/26/126 293/26/128
f 290/26/126 297/27/107 298/27/108
f 296/26/130 311/27/121 295/26/129
f 311/27/121 296/26/130 309/27/119
f 311/27/121 293/26/128 295/26/129
f 293/26/128 311/27/121 297/27/107
f 294/26/124 309/27/119 296/26/130
f 309/27/119 294/26/124 307/27/117
f 301/27/111 291/26/125 289/26/127
f 291/26/125 301/27/111 302/27/112
f 315/30/38 314/29/38 313/29/38
f 314/29/38 315/30/38 316/30/38
f 319/30/40 318/29/40 317/29/40
f 318/29/40 319/30/40 320/30/40
f 317/29/132 316/30/131 319/30/131
f 316/30/131 317/29/132 314/29/132
f 319/30/131 315/30/133 320/30/133
f 315/30/133 319/30/131 316/30/131
f 315/30/133 318/29/134 320/30/133
f 318/29/134 315/30/133 313/29/134
f 314/29/8 318/29/8 313/29/8
f 318/29/8 314/29/8 317/29/8
f 323/30/38 322/29/38 321/29/38
f 322/29/38 323/30/38 324/30/38
f 327/30/40 326/29/40 325/29/40
f 326/29/40 327/30/40 328/30/40
f 325/29/132 324/30/131 327/30/131
f 324/30/131 325/29/132 322/29/132
f 327/30/131 323/30/133 328/30/133
f 323/30/133 327/30/131 324/30/131
f 323/30/133 326/29/134 328/30/133
f 326/29/134 323/30/133 321/29/134
f 322/29/8 326/29/8 321/29/8
f 326/29/8 322/29/8 325/29/8

