# Created by Kenney (www.kenney.nl)

mtllib road-straight-barrier-end.mtl

g road-straight-barrier-end

v -0.4700002 0.08 -0.5000001 1 1 1
v -0.4500002 0 -0.5000001 1 1 1
v -0.4700002 1.071587E-16 0.5000001 1 1 1
v 0.5000001 0.08 -0.5000001 1 1 1
v 0.5000001 0 -0.5000001 1 1 1
v 0.5000001 1.071587E-16 0.5000001 1 1 1
v -0.5000002 0 -0.5000001 1 1 1
v -0.5000002 0.08 -0.5000001 1 1 1
v -0.5000002 1.071587E-16 0.5000001 1 1 1
v 0.45 0 -0.5000001 1 1 1
v 0.47 0.08 -0.5000001 1 1 1
v 0.47 1.071587E-16 0.5000001 1 1 1

vn 0.9699603 0.24249 0.01939919
vn 1 0 0
vn -1 0 0
vn -0.9699603 0.24249 0.01939922
vn 0 0 -1
vn 0 -1 0
vn 0 0.9968153 0.07974526

vt 0.40625 0.375

usemtl colormap

f 3/1/1 2/1/1 1/1/1
f 6/1/2 5/1/2 4/1/2
f 9/1/3 8/1/3 7/1/3
f 12/1/4 11/1/4 10/1/4
f 11/1/5 5/1/5 10/1/5
f 5/1/5 11/1/5 4/1/5
f 3/1/6 7/1/6 2/1/6
f 7/1/6 3/1/6 9/1/6
f 12/1/6 5/1/6 6/1/6
f 5/1/6 12/1/6 10/1/6
f 1/1/7 9/1/7 3/1/7
f 9/1/7 1/1/7 8/1/7
f 8/1/5 2/1/5 7/1/5
f 2/1/5 8/1/5 1/1/5
f 4/1/7 12/1/7 6/1/7
f 12/1/7 4/1/7 11/1/7

g road-straight-barrier-end




usemtl colormap

f 3/1/1 2/1/1 1/1/1
f 6/1/2 5/1/2 4/1/2
f 9/1/3 8/1/3 7/1/3
f 12/1/4 11/1/4 10/1/4
f 11/1/5 5/1/5 10/1/5
f 5/1/5 11/1/5 4/1/5
f 3/1/6 7/1/6 2/1/6
f 7/1/6 3/1/6 9/1/6
f 12/1/6 5/1/6 6/1/6
f 5/1/6 12/1/6 10/1/6
f 1/1/7 9/1/7 3/1/7
f 9/1/7 1/1/7 8/1/7
f 8/1/5 2/1/5 7/1/5
f 2/1/5 8/1/5 1/1/5
f 4/1/7 12/1/7 6/1/7
f 12/1/7 4/1/7 11/1/7

