# Created by Kenney (www.kenney.nl)

mtllib road-sign-street.mtl

g road-sign-street

v 0.02125 0.455 -0.01125 1 1 1
v 0.02125 0.435 -0.01125 1 1 1
v 0.02125 0.455 0.01125 1 1 1
v 0.02125 0.435 0.01125 1 1 1
v 0.01125 0.455 -0.02125 1 1 1
v 0.01125 0.435 -0.02125 1 1 1
v 0.01125 0.455 0.02125 1 1 1
v 0.01125 0.435 0.02125 1 1 1
v -0.02125 0.435 0.01125 1 1 1
v -0.02125 0.455 0.01125 1 1 1
v -0.01125 0.435 0.02125 1 1 1
v -0.01125 0.455 0.02125 1 1 1
v -0.02125 0.435 -0.01125 1 1 1
v -0.02125 0.455 -0.01125 1 1 1
v -0.01125 0.435 -0.02125 1 1 1
v -0.01125 0.455 -0.02125 1 1 1
v 0.01125 0.395 0.02125 1 1 1
v 0.01125 0.375 0.02125 1 1 1
v -0.01125 0.395 0.02125 1 1 1
v -0.01125 0.375 0.02125 1 1 1
v 0.02125 0.395 0.01125 1 1 1
v 0.02125 0.375 0.01125 1 1 1
v -0.02125 0.395 0.01125 1 1 1
v -0.02125 0.375 0.01125 1 1 1
v -0.01125 0.375 -0.02125 1 1 1
v -0.01125 0.395 -0.02125 1 1 1
v -0.02125 0.375 -0.01125 1 1 1
v -0.02125 0.395 -0.01125 1 1 1
v 0.01125 0.375 -0.02125 1 1 1
v 0.01125 0.395 -0.02125 1 1 1
v 0.02125 0.375 -0.01125 1 1 1
v 0.02125 0.395 -0.01125 1 1 1
v 0.01125 0.415 0.03124977 1 1 1
v -0.01125 0.415 0.03124977 1 1 1
v 0.01125 0.415 0.1612498 1 1 1
v -0.01125 0.415 0.1612498 1 1 1
v 0.01125 0.465 0.1712498 1 1 1
v 0.01125 0.425 0.1712498 1 1 1
v -0.01125 0.465 0.1712498 1 1 1
v -0.01125 0.425 0.1712498 1 1 1
v 0.01125 0.475 0.03124978 1 1 1
v -0.01125 0.475 0.03124978 1 1 1
v 0.01125 0.465 0.02124977 1 1 1
v -0.01125 0.465 0.02124977 1 1 1
v -0.01125 0.475 0.1612498 1 1 1
v 0.01125 0.475 0.1612498 1 1 1
v 0.01125 0.425 0.02124977 1 1 1
v -0.01125 0.425 0.02124977 1 1 1
v -0.03125 0.355 0.01125 1 1 1
v -0.03125 0.355 -0.01125 1 1 1
v -0.16125 0.355 0.01125 1 1 1
v -0.16125 0.355 -0.01125 1 1 1
v -0.17125 0.405 0.01125 1 1 1
v -0.17125 0.365 0.01125 1 1 1
v -0.17125 0.405 -0.01125 1 1 1
v -0.17125 0.365 -0.01125 1 1 1
v -0.03125 0.415 0.01125 1 1 1
v -0.03125 0.415 -0.01125 1 1 1
v -0.02125 0.405 0.01125 1 1 1
v -0.02125 0.405 -0.01125 1 1 1
v -0.16125 0.415 -0.01125 1 1 1
v -0.16125 0.415 0.01125 1 1 1
v -0.02125 0.365 0.01125 1 1 1
v -0.02125 0.365 -0.01125 1 1 1
v 0.025 0.1038462 -0.025 1 1 1
v 0.0225 0 -0.0225 1 1 1
v 0.025 0.1038462 0.025 1 1 1
v 0.0225 0 0.0225 1 1 1
v -0.025 0.1038462 -0.025 1 1 1
v -0.025 0.1038462 0.025 1 1 1
v -0.0225 0 -0.0225 1 1 1
v -0.0225 0 0.0225 1 1 1
v 0.017375 0.1338461 0.017375 1 1 1
v -0.017375 0.1338461 0.017375 1 1 1
v -0.017375 0.1338461 -0.017375 1 1 1
v 0.017375 0.1338461 -0.017375 1 1 1
v -0.01881375 0.1589 -0.01881375 1 1 1
v 0.01881375 0.1589 -0.01881375 1 1 1
v 0.01881375 0.1589 0.01881375 1 1 1
v -0.01881375 0.1589 0.01881375 1 1 1
v -0.0125 0.1725 -0.0125 1 1 1
v 0.0125 0.1725 -0.0125 1 1 1
v 0.0125 0.1725 0.0125 1 1 1
v -0.0125 0.1725 0.0125 1 1 1
v -0.01125 0.475 -0.01125 1 1 1
v 0.01125 0.475 -0.01125 1 1 1
v -0.01125 0.475 0.01125 1 1 1
v 0.01125 0.475 0.01125 1 1 1

vn 0.9238796 0 -0.3826835
vn 0.9238796 0 0.3826835
vn 0.3826834 0 -0.9238796
vn 0.3826835 0 0.9238796
vn -0.9238796 0 0.3826834
vn -0.3826835 0 0.9238796
vn -0.9238796 0 -0.3826835
vn 0 -1 0
vn -0.3826835 0 -0.9238796
vn 0 1 0
vn 0.3826833 0 0.9238796
vn -0.3826835 0 0.9238795
vn 0.9238795 0 0.3826835
vn -0.9238796 0 0.3826833
vn -0.3826832 0 -0.9238796
vn -0.9238795 0 -0.3826835
vn 0.3826835 0 -0.9238795
vn 0.9238796 0 -0.3826833
vn 0 -0.9238796 -0.3826835
vn 0 -0.9238797 0.3826834
vn 0 0.3826834 0.9238797
vn 0 -0.3826835 0.9238796
vn 0 0.9238797 -0.3826834
vn 0 0.3826835 -0.9238796
vn 0 0.9238796 0.3826835
vn 0 -0.3826834 -0.9238797
vn 0.3826834 -0.9238795 0
vn -0.3826834 -0.9238795 0
vn -0.9238795 0.3826834 0
vn -0.9238795 -0.3826834 0
vn 0.3826834 0.9238795 0
vn 0.9238795 0.3826834 0
vn -0.3826834 0.9238795 0
vn 0.9238795 -0.3826834 0
vn 0.9947995 0.1018525 0
vn 0.9997103 -0.0240671 0
vn -0.9947995 0.1018525 0
vn -0.9997103 -0.0240671 0
vn 0 -0.0240671 -0.9997103
vn 0 0.1018525 -0.9947995
vn 0 -0.0240671 0.9997103
vn 0 0.1018525 0.9947995
vn 0 0.1038447 0.9945936
vn 0 0.1038447 -0.9945936
vn 0.9945936 0.1038447 0
vn -0.9945936 0.1038447 0
vn 0 0.1561019 -0.9877411
vn 0 0.1561019 0.9877411
vn 0.9877411 0.1561019 0
vn -0.9877411 0.1561019 0
vn 0 0.4210819 -0.9070227
vn 0.9070227 0.4210819 0
vn 0 0.4210819 0.9070227
vn -0.9070227 0.4210819 0
vn 0 0.004132197 -0.9999915
vn -0.9999915 0.004132197 0
vn 0 0.004132197 0.9999915
vn 0.9999915 0.004132197 0
vn -1 0 0
vn 1 0 0
vn 0 0 -1
vn 0 0 1

vt 0.34375 0.225
vt 0.34375 0.025
vt 0.46875 0.2883333
vt 0.46875 0.4616666
vt 0.46875 0.475
vt 0.46875 0.275
vt 0.46875 0.3852007
vt 0.46875 0.325
vt 0.46875 0.4025919
vt 0.46875 0.4171159
vt 0.46875 0.425
vt 0.46875 0.3312016
vt 0.21875 0.7116666
vt 0.21875 0.725
vt 0.21875 0.5383334
vt 0.21875 0.525

usemtl colormap

f 3/1/2 2/2/1 1/1/1
f 2/2/1 3/1/2 4/2/2
f 1/1/1 6/2/3 5/1/3
f 6/2/3 1/1/1 2/2/1
f 7/1/4 4/2/2 3/1/2
f 4/2/2 7/1/4 8/2/4
f 11/2/6 10/1/5 9/2/5
f 10/1/5 11/2/6 12/1/6
f 7/1/4 11/2/6 8/2/4
f 11/2/6 7/1/4 12/1/6
f 9/2/5 14/1/7 13/2/7
f 14/1/7 9/2/5 10/1/5
f 8/2/8 2/2/8 4/2/8
f 2/2/8 8/2/8 6/2/8
f 6/2/8 8/2/8 11/2/8
f 6/2/8 11/2/8 15/2/8
f 15/2/8 11/2/8 9/2/8
f 15/2/8 9/2/8 13/2/8
f 16/1/9 6/2/3 15/2/9
f 6/2/3 16/1/9 5/1/3
f 5/1/10 3/1/10 1/1/10
f 3/1/10 5/1/10 7/1/10
f 7/1/10 5/1/10 16/1/10
f 7/1/10 16/1/10 12/1/10
f 12/1/10 16/1/10 14/1/10
f 12/1/10 14/1/10 10/1/10
f 13/2/7 16/1/9 15/2/9
f 16/1/9 13/2/7 14/1/7
f 19/1/12 18/2/11 17/1/11
f 18/2/11 19/1/12 20/2/12
f 17/1/11 22/2/13 21/1/13
f 22/2/13 17/1/11 18/2/11
f 23/1/14 20/2/12 19/1/12
f 20/2/12 23/1/14 24/2/14
f 27/2/16 26/1/15 25/2/15
f 26/1/15 27/2/16 28/1/16
f 23/1/14 27/2/16 24/2/14
f 27/2/16 23/1/14 28/1/16
f 25/2/15 30/1/17 29/2/17
f 30/1/17 25/2/15 26/1/15
f 24/2/8 18/2/8 20/2/8
f 18/2/8 24/2/8 22/2/8
f 22/2/8 24/2/8 27/2/8
f 22/2/8 27/2/8 31/2/8
f 31/2/8 27/2/8 25/2/8
f 31/2/8 25/2/8 29/2/8
f 32/1/18 22/2/13 31/2/18
f 22/2/13 32/1/18 21/1/13
f 21/1/10 19/1/10 17/1/10
f 19/1/10 21/1/10 23/1/10
f 23/1/10 21/1/10 32/1/10
f 23/1/10 32/1/10 28/1/10
f 28/1/10 32/1/10 30/1/10
f 28/1/10 30/1/10 26/1/10
f 29/2/17 32/1/18 31/2/18
f 32/1/18 29/2/17 30/1/17
f 35/4/20 34/3/19 33/3/19
f 34/3/19 35/4/20 36/4/20
f 39/5/21 38/5/22 37/5/21
f 38/5/22 39/5/21 40/5/22
f 43/6/24 42/3/23 41/3/23
f 42/3/23 43/6/24 44/6/24
f 39/5/21 46/4/25 45/4/25
f 46/4/25 39/5/21 37/5/21
f 40/5/22 35/4/20 38/5/22
f 35/4/20 40/5/22 36/4/20
f 45/4/25 41/3/23 42/3/23
f 41/3/23 45/4/25 46/4/25
f 48/6/26 43/6/24 47/6/26
f 43/6/24 48/6/26 44/6/24
f 33/3/19 48/6/26 47/6/26
f 48/6/26 33/3/19 34/3/19
f 51/4/28 50/3/27 49/3/27
f 50/3/27 51/4/28 52/4/28
f 55/5/29 54/5/30 53/5/29
f 54/5/30 55/5/29 56/5/30
f 59/6/32 58/3/31 57/3/31
f 58/3/31 59/6/32 60/6/32
f 55/5/29 62/4/33 61/4/33
f 62/4/33 55/5/29 53/5/29
f 56/5/30 51/4/28 54/5/30
f 51/4/28 56/5/30 52/4/28
f 61/4/33 57/3/31 58/3/31
f 57/3/31 61/4/33 62/4/33
f 64/6/34 59/6/32 63/6/34
f 59/6/32 64/6/34 60/6/32
f 49/3/27 64/6/34 63/6/34
f 64/6/34 49/3/27 50/3/27
f 67/7/35 66/8/36 65/7/35
f 66/8/36 67/7/35 68/8/36
f 71/8/38 70/7/37 69/7/37
f 70/7/37 71/8/38 72/8/38
f 69/7/40 66/8/39 71/8/39
f 66/8/39 69/7/40 65/7/40
f 67/7/42 72/8/41 68/8/41
f 72/8/41 67/7/42 70/7/42
f 73/9/43 70/7/42 67/7/42
f 70/7/42 73/9/43 74/9/43
f 75/9/44 65/7/40 69/7/40
f 65/7/40 75/9/44 76/9/44
f 76/9/45 67/7/35 65/7/35
f 67/7/35 76/9/45 73/9/45
f 70/7/37 75/9/46 69/7/37
f 75/9/46 70/7/37 74/9/46
f 77/10/47 76/9/44 75/9/44
f 76/9/44 77/10/47 78/10/47
f 79/10/48 74/9/43 73/9/43
f 74/9/43 79/10/48 80/10/48
f 79/10/49 76/9/45 78/10/49
f 76/9/45 79/10/49 73/9/45
f 75/9/46 80/10/50 77/10/50
f 80/10/50 75/9/46 74/9/46
f 81/11/51 78/10/47 77/10/47
f 78/10/47 81/11/51 82/11/51
f 82/11/52 79/10/49 78/10/49
f 79/10/49 82/11/52 83/11/52
f 83/11/53 80/10/48 79/10/48
f 80/10/48 83/11/53 84/11/53
f 80/10/50 81/11/54 77/10/50
f 81/11/54 80/10/50 84/11/54
f 85/11/55 82/12/55 81/12/55
f 82/12/55 85/11/55 86/11/55
f 84/12/56 85/11/56 81/12/56
f 85/11/56 84/12/56 87/11/56
f 85/11/10 88/11/10 86/11/10
f 88/11/10 85/11/10 87/11/10
f 88/11/57 84/12/57 83/12/57
f 84/12/57 88/11/57 87/11/57
f 86/11/58 83/12/58 82/12/58
f 83/12/58 86/11/58 88/11/58
f 42/15/59 39/14/59 45/13/59
f 39/14/59 42/15/59 44/16/59
f 39/14/59 44/16/59 40/14/59
f 40/14/59 44/16/59 48/16/59
f 40/14/59 48/16/59 36/13/59
f 36/13/59 48/16/59 34/15/59
f 37/14/60 41/15/60 46/13/60
f 41/15/60 37/14/60 43/16/60
f 43/16/60 37/14/60 38/14/60
f 43/16/60 38/14/60 47/16/60
f 47/16/60 38/14/60 35/13/60
f 47/16/60 35/13/60 33/15/60
f 58/15/61 55/14/61 61/13/61
f 55/14/61 58/15/61 60/16/61
f 55/14/61 60/16/61 56/14/61
f 56/14/61 60/16/61 64/16/61
f 56/14/61 64/16/61 52/13/61
f 52/13/61 64/16/61 50/15/61
f 53/14/62 57/15/62 62/13/62
f 57/15/62 53/14/62 59/16/62
f 59/16/62 53/14/62 54/14/62
f 59/16/62 54/14/62 63/16/62
f 63/16/62 54/14/62 51/13/62
f 63/16/62 51/13/62 49/15/62

g road-sign-street




usemtl colormap

f 3/1/2 2/2/1 1/1/1
f 2/2/1 3/1/2 4/2/2
f 1/1/1 6/2/3 5/1/3
f 6/2/3 1/1/1 2/2/1
f 7/1/4 4/2/2 3/1/2
f 4/2/2 7/1/4 8/2/4
f 11/2/6 10/1/5 9/2/5
f 10/1/5 11/2/6 12/1/6
f 7/1/4 11/2/6 8/2/4
f 11/2/6 7/1/4 12/1/6
f 9/2/5 14/1/7 13/2/7
f 14/1/7 9/2/5 10/1/5
f 8/2/8 2/2/8 4/2/8
f 2/2/8 8/2/8 6/2/8
f 6/2/8 8/2/8 11/2/8
f 6/2/8 11/2/8 15/2/8
f 15/2/8 11/2/8 9/2/8
f 15/2/8 9/2/8 13/2/8
f 16/1/9 6/2/3 15/2/9
f 6/2/3 16/1/9 5/1/3
f 5/1/10 3/1/10 1/1/10
f 3/1/10 5/1/10 7/1/10
f 7/1/10 5/1/10 16/1/10
f 7/1/10 16/1/10 12/1/10
f 12/1/10 16/1/10 14/1/10
f 12/1/10 14/1/10 10/1/10
f 13/2/7 16/1/9 15/2/9
f 16/1/9 13/2/7 14/1/7
f 19/1/12 18/2/11 17/1/11
f 18/2/11 19/1/12 20/2/12
f 17/1/11 22/2/13 21/1/13
f 22/2/13 17/1/11 18/2/11
f 23/1/14 20/2/12 19/1/12
f 20/2/12 23/1/14 24/2/14
f 27/2/16 26/1/15 25/2/15
f 26/1/15 27/2/16 28/1/16
f 23/1/14 27/2/16 24/2/14
f 27/2/16 23/1/14 28/1/16
f 25/2/15 30/1/17 29/2/17
f 30/1/17 25/2/15 26/1/15
f 24/2/8 18/2/8 20/2/8
f 18/2/8 24/2/8 22/2/8
f 22/2/8 24/2/8 27/2/8
f 22/2/8 27/2/8 31/2/8
f 31/2/8 27/2/8 25/2/8
f 31/2/8 25/2/8 29/2/8
f 32/1/18 22/2/13 31/2/18
f 22/2/13 32/1/18 21/1/13
f 21/1/10 19/1/10 17/1/10
f 19/1/10 21/1/10 23/1/10
f 23/1/10 21/1/10 32/1/10
f 23/1/10 32/1/10 28/1/10
f 28/1/10 32/1/10 30/1/10
f 28/1/10 30/1/10 26/1/10
f 29/2/17 32/1/18 31/2/18
f 32/1/18 29/2/17 30/1/17
f 35/4/20 34/3/19 33/3/19
f 34/3/19 35/4/20 36/4/20
f 39/5/21 38/5/22 37/5/21
f 38/5/22 39/5/21 40/5/22
f 43/6/24 42/3/23 41/3/23
f 42/3/23 43/6/24 44/6/24
f 39/5/21 46/4/25 45/4/25
f 46/4/25 39/5/21 37/5/21
f 40/5/22 35/4/20 38/5/22
f 35/4/20 40/5/22 36/4/20
f 45/4/25 41/3/23 42/3/23
f 41/3/23 45/4/25 46/4/25
f 48/6/26 43/6/24 47/6/26
f 43/6/24 48/6/26 44/6/24
f 33/3/19 48/6/26 47/6/26
f 48/6/26 33/3/19 34/3/19
f 51/4/28 50/3/27 49/3/27
f 50/3/27 51/4/28 52/4/28
f 55/5/29 54/5/30 53/5/29
f 54/5/30 55/5/29 56/5/30
f 59/6/32 58/3/31 57/3/31
f 58/3/31 59/6/32 60/6/32
f 55/5/29 62/4/33 61/4/33
f 62/4/33 55/5/29 53/5/29
f 56/5/30 51/4/28 54/5/30
f 51/4/28 56/5/30 52/4/28
f 61/4/33 57/3/31 58/3/31
f 57/3/31 61/4/33 62/4/33
f 64/6/34 59/6/32 63/6/34
f 59/6/32 64/6/34 60/6/32
f 49/3/27 64/6/34 63/6/34
f 64/6/34 49/3/27 50/3/27
f 67/7/35 66/8/36 65/7/35
f 66/8/36 67/7/35 68/8/36
f 71/8/38 70/7/37 69/7/37
f 70/7/37 71/8/38 72/8/38
f 69/7/40 66/8/39 71/8/39
f 66/8/39 69/7/40 65/7/40
f 67/7/42 72/8/41 68/8/41
f 72/8/41 67/7/42 70/7/42
f 73/9/43 70/7/42 67/7/42
f 70/7/42 73/9/43 74/9/43
f 75/9/44 65/7/40 69/7/40
f 65/7/40 75/9/44 76/9/44
f 76/9/45 67/7/35 65/7/35
f 67/7/35 76/9/45 73/9/45
f 70/7/37 75/9/46 69/7/37
f 75/9/46 70/7/37 74/9/46
f 77/10/47 76/9/44 75/9/44
f 76/9/44 77/10/47 78/10/47
f 79/10/48 74/9/43 73/9/43
f 74/9/43 79/10/48 80/10/48
f 79/10/49 76/9/45 78/10/49
f 76/9/45 79/10/49 73/9/45
f 75/9/46 80/10/50 77/10/50
f 80/10/50 75/9/46 74/9/46
f 81/11/51 78/10/47 77/10/47
f 78/10/47 81/11/51 82/11/51
f 82/11/52 79/10/49 78/10/49
f 79/10/49 82/11/52 83/11/52
f 83/11/53 80/10/48 79/10/48
f 80/10/48 83/11/53 84/11/53
f 80/10/50 81/11/54 77/10/50
f 81/11/54 80/10/50 84/11/54
f 85/11/55 82/12/55 81/12/55
f 82/12/55 85/11/55 86/11/55
f 84/12/56 85/11/56 81/12/56
f 85/11/56 84/12/56 87/11/56
f 85/11/10 88/11/10 86/11/10
f 88/11/10 85/11/10 87/11/10
f 88/11/57 84/12/57 83/12/57
f 84/12/57 88/11/57 87/11/57
f 86/11/58 83/12/58 82/12/58
f 83/12/58 86/11/58 88/11/58
f 42/15/59 39/14/59 45/13/59
f 39/14/59 42/15/59 44/16/59
f 39/14/59 44/16/59 40/14/59
f 40/14/59 44/16/59 48/16/59
f 40/14/59 48/16/59 36/13/59
f 36/13/59 48/16/59 34/15/59
f 37/14/60 41/15/60 46/13/60
f 41/15/60 37/14/60 43/16/60
f 43/16/60 37/14/60 38/14/60
f 43/16/60 38/14/60 47/16/60
f 47/16/60 38/14/60 35/13/60
f 47/16/60 35/13/60 33/15/60
f 58/15/61 55/14/61 61/13/61
f 55/14/61 58/15/61 60/16/61
f 55/14/61 60/16/61 56/14/61
f 56/14/61 60/16/61 64/16/61
f 56/14/61 64/16/61 52/13/61
f 52/13/61 64/16/61 50/15/61
f 53/14/62 57/15/62 62/13/62
f 57/15/62 53/14/62 59/16/62
f 59/16/62 53/14/62 54/14/62
f 59/16/62 54/14/62 63/16/62
f 63/16/62 54/14/62 51/13/62
f 63/16/62 51/13/62 49/15/62

