# Created by Kenney (www.kenney.nl)

mtllib road-sign-object-stop.mtl

g road-sign-object-stop

v 1.862645E-08 -0.02342022 -0.05654142 1 1 1
v 1.862645E-08 -0.05654142 -0.02342023 1 1 1
v 2.04891E-08 0.02342023 -0.05654142 1 1 1
v 2.04891E-08 0.05654143 -0.02342023 1 1 1
v 1.862645E-08 -0.05654142 0.02342023 1 1 1
v 2.04891E-08 0.05654143 0.02342023 1 1 1
v 1.862645E-08 -0.02342022 0.05654142 1 1 1
v 2.04891E-08 0.02342023 0.05654142 1 1 1
v -0.01999998 0.02602248 0.0628238 1 1 1
v -0.01999998 0.0628238 0.02602247 1 1 1
v -0.01999998 -0.02602247 -0.0628238 1 1 1
v -0.01999998 0.02602248 -0.0628238 1 1 1
v -0.01999998 0.0628238 -0.02602247 1 1 1
v -0.01999998 -0.02602247 0.0628238 1 1 1
v -0.01999998 -0.0628238 0.02602247 1 1 1
v -0.01999998 -0.0628238 -0.02602247 1 1 1
v 0.02750001 -0.009999998 0.025 1 1 1
v 1.117587E-08 -0.009999998 0.025 1 1 1
v 0.02750001 0.01 0.025 1 1 1
v 1.117587E-08 0.01 0.025 1 1 1
v 0.03750001 0.01 -0.015 1 1 1
v 0.03750001 -0.009999998 -0.015 1 1 1
v 0.03750001 0.01 0.015 1 1 1
v 0.03750001 -0.009999998 0.015 1 1 1
v 1.117587E-08 -0.009999998 -0.025 1 1 1
v 0.02750001 -0.009999998 -0.025 1 1 1
v 1.117587E-08 0.01 -0.025 1 1 1
v 0.02750001 0.01 -0.025 1 1 1
v -0.03999998 -0.02342022 -0.05654142 1 1 1
v -0.03999998 0.02342023 -0.05654142 1 1 1
v -0.03999998 -0.05654142 -0.02342023 1 1 1
v -0.03999998 0.05654143 -0.02342023 1 1 1
v -0.03999998 -0.05654142 0.02342023 1 1 1
v -0.03999998 0.05654143 0.02342023 1 1 1
v -0.03999998 -0.02342022 0.05654142 1 1 1
v -0.03999998 0.02342023 0.05654142 1 1 1

vn 1 0 0
vn 0.3219028 0.3623143 0.874704
vn 0.3219028 0.8747039 0.3623143
vn 0.3219027 -0.3623143 -0.8747039
vn 0.3219028 0.3623143 -0.874704
vn 0.3219028 0.8747039 -0.3623143
vn 0.3219027 -0.3623143 0.8747039
vn 0.3219027 -0.8747039 0.3623143
vn 0.3219027 -0.8747039 -0.3623143
vn 0.3826834 0 0.9238795
vn 0 0 1
vn 0.9238795 0 -0.3826834
vn 0.9238795 0 0.3826834
vn 0 0 -1
vn 0.3826834 0 -0.9238795
vn 0 -1 0
vn 0 1 0
vn -1 0 0
vn -0.3219027 0.3623143 0.8747039
vn -0.3219027 0.8747039 0.3623143
vn -0.3219028 -0.3623143 0.874704
vn -0.3219027 0.8747039 -0.3623143
vn -0.3219028 -0.8747039 0.3623143
vn -0.3219028 -0.8747039 -0.3623143
vn -0.3219028 -0.3623143 -0.874704
vn -0.3219027 0.3623143 -0.8747039

vt 0.34375 0.08772078
vt 0.34375 0.035
vt 0.34375 0.1622792
vt 0.34375 0.215
vt 0.34375 0.1664214
vt 0.34375 0.225
vt 0.34375 0.08357865
vt 0.34375 0.025
vt 0.59375 0.5877208
vt 0.59375 0.6622792
vt 0.59375 0.535
vt 0.59375 0.715
vt 0.59375 0.4122792
vt 0.59375 0.465
vt 0.59375 0.4164214
vt 0.59375 0.3377208
vt 0.59375 0.475
vt 0.59375 0.3335786
vt 0.59375 0.285
vt 0.59375 0.275

usemtl colormap

f 3/3/1 2/2/1 1/1/1
f 2/2/1 3/3/1 4/4/1
f 2/2/1 4/4/1 5/2/1
f 5/2/1 4/4/1 6/4/1
f 5/2/1 6/4/1 7/1/1
f 7/1/1 6/4/1 8/3/1
f 6/4/3 9/5/2 8/3/2
f 9/5/2 6/4/3 10/6/3
f 12/5/5 1/1/4 11/7/4
f 1/1/4 12/5/5 3/3/5
f 12/5/5 4/4/6 3/3/5
f 4/4/6 12/5/5 13/6/6
f 14/7/7 5/2/8 7/1/7
f 5/2/8 14/7/7 15/8/8
f 7/1/7 9/5/2 14/7/7
f 9/5/2 7/1/7 8/3/2
f 2/2/9 11/7/4 1/1/4
f 11/7/4 2/2/9 16/8/9
f 13/6/6 6/4/3 4/4/6
f 6/4/3 13/6/6 10/6/3
f 15/8/8 2/2/9 5/2/8
f 2/2/9 15/8/8 16/8/9
f 19/6/10 18/8/11 17/8/10
f 18/8/11 19/6/10 20/6/11
f 23/6/13 22/8/12 21/6/12
f 22/8/12 23/6/13 24/8/13
f 27/6/14 26/8/15 25/8/14
f 26/8/15 27/6/14 28/6/15
f 28/6/15 22/8/12 26/8/15
f 22/8/12 28/6/15 21/6/12
f 23/6/13 17/8/10 24/8/13
f 17/8/10 23/6/13 19/6/10
f 17/8/16 22/8/16 24/8/16
f 22/8/16 17/8/16 26/8/16
f 26/8/16 17/8/16 18/8/16
f 26/8/16 18/8/16 25/8/16
f 28/6/17 23/6/17 21/6/17
f 23/6/17 28/6/17 19/6/17
f 19/6/17 28/6/17 27/6/17
f 19/6/17 27/6/17 20/6/17
f 31/11/18 30/10/18 29/9/18
f 30/10/18 31/11/18 32/12/18
f 32/12/18 31/11/18 33/11/18
f 32/12/18 33/11/18 34/12/18
f 34/12/18 33/11/18 35/9/18
f 34/12/18 35/9/18 36/10/18
f 9/15/19 34/14/20 36/13/19
f 35/16/21 9/15/19 36/13/19
f 34/14/20 9/15/19 10/17/20
f 9/15/19 35/16/21 14/18/21
f 10/17/20 32/14/22 34/14/20
f 32/14/22 10/17/20 13/17/22
f 33/19/23 14/18/21 35/16/21
f 14/18/21 33/19/23 15/20/23
f 33/19/23 16/20/24 15/20/23
f 16/20/24 33/19/23 31/19/24
f 31/19/24 11/18/25 16/20/24
f 11/18/25 31/19/24 29/16/25
f 12/15/26 32/14/22 13/17/22
f 29/16/25 12/15/26 11/18/25
f 32/14/22 12/15/26 30/13/26
f 12/15/26 29/16/25 30/13/26

g road-sign-object-stop




usemtl colormap

f 3/3/1 2/2/1 1/1/1
f 2/2/1 3/3/1 4/4/1
f 2/2/1 4/4/1 5/2/1
f 5/2/1 4/4/1 6/4/1
f 5/2/1 6/4/1 7/1/1
f 7/1/1 6/4/1 8/3/1
f 6/4/3 9/5/2 8/3/2
f 9/5/2 6/4/3 10/6/3
f 12/5/5 1/1/4 11/7/4
f 1/1/4 12/5/5 3/3/5
f 12/5/5 4/4/6 3/3/5
f 4/4/6 12/5/5 13/6/6
f 14/7/7 5/2/8 7/1/7
f 5/2/8 14/7/7 15/8/8
f 7/1/7 9/5/2 14/7/7
f 9/5/2 7/1/7 8/3/2
f 2/2/9 11/7/4 1/1/4
f 11/7/4 2/2/9 16/8/9
f 13/6/6 6/4/3 4/4/6
f 6/4/3 13/6/6 10/6/3
f 15/8/8 2/2/9 5/2/8
f 2/2/9 15/8/8 16/8/9
f 19/6/10 18/8/11 17/8/10
f 18/8/11 19/6/10 20/6/11
f 23/6/13 22/8/12 21/6/12
f 22/8/12 23/6/13 24/8/13
f 27/6/14 26/8/15 25/8/14
f 26/8/15 27/6/14 28/6/15
f 28/6/15 22/8/12 26/8/15
f 22/8/12 28/6/15 21/6/12
f 23/6/13 17/8/10 24/8/13
f 17/8/10 23/6/13 19/6/10
f 17/8/16 22/8/16 24/8/16
f 22/8/16 17/8/16 26/8/16
f 26/8/16 17/8/16 18/8/16
f 26/8/16 18/8/16 25/8/16
f 28/6/17 23/6/17 21/6/17
f 23/6/17 28/6/17 19/6/17
f 19/6/17 28/6/17 27/6/17
f 19/6/17 27/6/17 20/6/17
f 31/11/18 30/10/18 29/9/18
f 30/10/18 31/11/18 32/12/18
f 32/12/18 31/11/18 33/11/18
f 32/12/18 33/11/18 34/12/18
f 34/12/18 33/11/18 35/9/18
f 34/12/18 35/9/18 36/10/18
f 9/15/19 34/14/20 36/13/19
f 35/16/21 9/15/19 36/13/19
f 34/14/20 9/15/19 10/17/20
f 9/15/19 35/16/21 14/18/21
f 10/17/20 32/14/22 34/14/20
f 32/14/22 10/17/20 13/17/22
f 33/19/23 14/18/21 35/16/21
f 14/18/21 33/19/23 15/20/23
f 33/19/23 16/20/24 15/20/23
f 16/20/24 33/19/23 31/19/24
f 31/19/24 11/18/25 16/20/24
f 11/18/25 31/19/24 29/16/25
f 12/15/26 32/14/22 13/17/22
f 29/16/25 12/15/26 11/18/25
f 32/14/22 12/15/26 30/13/26
f 12/15/26 29/16/25 30/13/26

