# Created by Kenney (www.kenney.nl)

mtllib road-sign-empty-hanging.mtl

g road-sign-empty-hanging

v 0.0225 0.46 -0.015 1 1 1
v 0.0225 0.415 -0.015 1 1 1
v 0.0225 0.46 0.015 1 1 1
v 0.0225 0.415 0.015 1 1 1
v 0.0125 0.415 -0.025 1 1 1
v 0.0125 0.46 -0.025 1 1 1
v 0.0125 0.415 0.025 1 1 1
v 0.0125 0.46 0.025 1 1 1
v -0.0225 0.415 0.015 1 1 1
v -0.0225 0.46 0.015 1 1 1
v -0.0125 0.415 0.025 1 1 1
v -0.0125 0.46 0.025 1 1 1
v -0.0225 0.415 -0.015 1 1 1
v -0.0225 0.46 -0.015 1 1 1
v -0.0125 0.415 -0.025 1 1 1
v -0.0125 0.46 -0.025 1 1 1
v 0.036 0 0.045 1 1 1
v -0.036 0 0.045 1 1 1
v 0.036 0.02 0.045 1 1 1
v -0.036 0.02 0.045 1 1 1
v 0.045 0.02 -0.036 1 1 1
v 0.045 0 -0.036 1 1 1
v 0.045 0.02 0.036 1 1 1
v 0.045 0 0.036 1 1 1
v -0.045 0 -0.036 1 1 1
v -0.045 0.02 -0.036 1 1 1
v -0.045 0 0.036 1 1 1
v -0.045 0.02 0.036 1 1 1
v -0.036 0 -0.045 1 1 1
v 0.036 0 -0.045 1 1 1
v -0.036 0.02 -0.045 1 1 1
v 0.036 0.02 -0.045 1 1 1
v 0.0125 0.1725 0.0125 1 1 1
v 0.0125 0.1725 -0.0125 1 1 1
v -0.0125 0.1725 0.0125 1 1 1
v -0.0125 0.1725 -0.0125 1 1 1
v 0.0125 0.475 -0.0125 1 1 1
v 0.0125 0.475 0.0125 1 1 1
v -0.0125 0.475 -0.0125 1 1 1
v -0.0125 0.475 0.0125 1 1 1
v 0.025 0.111806 -0.025 1 1 1
v 0.0225 0.02 -0.0225 1 1 1
v 0.025 0.111806 0.025 1 1 1
v 0.0225 0.02 0.0225 1 1 1
v -0.025 0.111806 -0.025 1 1 1
v -0.025 0.111806 0.025 1 1 1
v -0.0225 0.02 -0.0225 1 1 1
v -0.0225 0.02 0.0225 1 1 1
v 0.017375 0.1383278 0.017375 1 1 1
v -0.017375 0.1383278 0.017375 1 1 1
v -0.017375 0.1383278 -0.017375 1 1 1
v 0.017375 0.1383278 -0.017375 1 1 1
v -0.01881375 0.1604768 -0.01881375 1 1 1
v 0.01881375 0.1604768 -0.01881375 1 1 1
v 0.01881375 0.1604768 0.01881375 1 1 1
v -0.01881375 0.1604768 0.01881375 1 1 1
v 0.0125 0.425 -0.25 1 1 1
v 0.0125 0.45 -0.25 1 1 1
v -0.0125 0.425 -0.25 1 1 1
v -0.0125 0.45 -0.25 1 1 1
v 0.0125 0.45 -0.01249999 1 1 1
v 0.0125 0.425 -0.01249999 1 1 1
v -0.0125 0.45 -0.01249999 1 1 1
v -0.0125 0.425 -0.01249999 1 1 1

vn 0.9238796 0 -0.3826835
vn 0.9238796 0 0.3826835
vn 0.3826835 0 -0.9238796
vn 0.3826835 0 0.9238796
vn -0.9238796 0 0.3826834
vn -0.3826835 0 0.9238796
vn -0.9238796 0 -0.3826834
vn 0 -1 0
vn -0.3826835 0 -0.9238796
vn 0 1 0
vn 0.3826834 0 0.9238796
vn -0.3826834 0 0.9238796
vn 0.9238796 0 -0.3826834
vn 0.9238796 0 0.3826834
vn -0.3826834 0 -0.9238796
vn 0.3826834 0 -0.9238796
vn -1 0 0
vn 0 0 -1
vn 1 0 0
vn 0 0 1
vn 0.9936026 0.112933 0
vn 0.9996294 -0.02722123 0
vn -0.9936026 0.112933 0
vn -0.9996294 -0.02722123 0
vn 0 -0.02722123 -0.9996294
vn 0 0.112933 -0.9936026
vn 0 -0.02722123 0.9996294
vn 0 0.112933 0.9936026
vn 0 0.1175317 0.9930692
vn 0 0.1175317 -0.9930692
vn 0.9930692 0.1175317 0
vn -0.9930692 0.1175317 0
vn 0 0.1690972 -0.9855994
vn 0 0.1690972 0.9855994
vn 0.9855994 0.1690972 0
vn -0.9855994 0.1690972 0
vn 0 0.4649249 -0.8853501
vn 0.8853501 0.4649249 0
vn 0 0.4649249 0.8853501
vn -0.8853501 0.4649249 0
vn 0 1.192093E-07 -1
vn 0 -1.192093E-07 1
vn 0 1 1.192093E-07
vn 0 -1 -1.192093E-07

vt 0.34375 0.225
vt 0.34375 0.025
vt 0.46875 0.275
vt 0.46875 0.355
vt 0.46875 0.325
vt 0.46875 0.425
vt 0.46875 0.3852007
vt 0.46875 0.4025919
vt 0.46875 0.4171159

usemtl colormap

f 3/1/2 2/2/1 1/1/1
f 2/2/1 3/1/2 4/2/2
f 6/1/3 2/2/1 5/2/3
f 2/2/1 6/1/3 1/1/1
f 3/1/2 7/2/4 4/2/2
f 7/2/4 3/1/2 8/1/4
f 11/2/6 10/1/5 9/2/5
f 10/1/5 11/2/6 12/1/6
f 8/1/4 11/2/6 7/2/4
f 11/2/6 8/1/4 12/1/6
f 9/2/5 14/1/7 13/2/7
f 14/1/7 9/2/5 10/1/5
f 7/2/8 2/2/8 4/2/8
f 2/2/8 7/2/8 5/2/8
f 5/2/8 7/2/8 11/2/8
f 5/2/8 11/2/8 15/2/8
f 15/2/8 11/2/8 9/2/8
f 15/2/8 9/2/8 13/2/8
f 16/1/9 5/2/3 15/2/9
f 5/2/3 16/1/9 6/1/3
f 6/1/10 3/1/10 1/1/10
f 3/1/10 6/1/10 8/1/10
f 8/1/10 6/1/10 16/1/10
f 8/1/10 16/1/10 12/1/10
f 12/1/10 16/1/10 14/1/10
f 12/1/10 14/1/10 10/1/10
f 13/2/7 16/1/9 15/2/9
f 16/1/9 13/2/7 14/1/7
f 19/4/11 18/3/12 17/3/11
f 18/3/12 19/4/11 20/4/12
f 23/4/14 22/3/13 21/4/13
f 22/3/13 23/4/14 24/3/14
f 27/3/5 26/4/7 25/3/7
f 26/4/7 27/3/5 28/4/5
f 31/4/15 30/3/16 29/3/15
f 30/3/16 31/4/15 32/4/16
f 20/4/12 27/3/5 18/3/12
f 27/3/5 20/4/12 28/4/5
f 26/4/7 29/3/15 25/3/7
f 29/3/15 26/4/7 31/4/15
f 23/4/14 17/3/11 24/3/14
f 17/3/11 23/4/14 19/4/11
f 32/4/16 22/3/13 30/3/16
f 22/3/13 32/4/16 21/4/13
f 17/3/8 22/3/8 24/3/8
f 22/3/8 17/3/8 30/3/8
f 30/3/8 17/3/8 18/3/8
f 30/3/8 18/3/8 29/3/8
f 29/3/8 18/3/8 27/3/8
f 29/3/8 27/3/8 25/3/8
f 32/4/10 23/4/10 21/4/10
f 23/4/10 32/4/10 19/4/10
f 19/4/10 32/4/10 31/4/10
f 19/4/10 31/4/10 20/4/10
f 20/4/10 31/4/10 26/4/10
f 20/4/10 26/4/10 28/4/10
f 35/5/8 34/5/8 33/5/8
f 34/5/8 35/5/8 36/5/8
f 39/6/10 38/6/10 37/6/10
f 38/6/10 39/6/10 40/6/10
f 35/5/17 39/6/17 36/5/17
f 39/6/17 35/5/17 40/6/17
f 39/6/18 34/5/18 36/5/18
f 34/5/18 39/6/18 37/6/18
f 38/6/19 34/5/19 37/6/19
f 34/5/19 38/6/19 33/5/19
f 38/6/20 35/5/20 33/5/20
f 35/5/20 38/6/20 40/6/20
f 43/7/21 42/5/22 41/7/21
f 42/5/22 43/7/21 44/5/22
f 47/5/24 46/7/23 45/7/23
f 46/7/23 47/5/24 48/5/24
f 45/7/26 42/5/25 47/5/25
f 42/5/25 45/7/26 41/7/26
f 43/7/28 48/5/27 44/5/27
f 48/5/27 43/7/28 46/7/28
f 49/8/29 46/7/28 43/7/28
f 46/7/28 49/8/29 50/8/29
f 51/8/30 41/7/26 45/7/26
f 41/7/26 51/8/30 52/8/30
f 52/8/31 43/7/21 41/7/21
f 43/7/21 52/8/31 49/8/31
f 46/7/23 51/8/32 45/7/23
f 51/8/32 46/7/23 50/8/32
f 53/9/33 52/8/30 51/8/30
f 52/8/30 53/9/33 54/9/33
f 55/9/34 50/8/29 49/8/29
f 50/8/29 55/9/34 56/9/34
f 55/9/35 52/8/31 54/9/35
f 52/8/31 55/9/35 49/8/31
f 51/8/32 56/9/36 53/9/36
f 56/9/36 51/8/32 50/8/32
f 36/6/37 54/9/33 53/9/33
f 54/9/33 36/6/37 34/6/37
f 34/6/38 55/9/35 54/9/35
f 55/9/35 34/6/38 33/6/38
f 33/6/39 56/9/34 55/9/34
f 56/9/34 33/6/39 35/6/39
f 56/9/36 36/6/40 53/9/36
f 36/6/40 56/9/36 35/6/40
f 59/5/41 58/5/41 57/5/41
f 58/5/41 59/5/41 60/5/41
f 63/6/42 62/6/42 61/6/42
f 62/6/42 63/6/42 64/6/42
f 59/5/17 63/6/17 60/5/17
f 63/6/17 59/5/17 64/6/17
f 63/6/43 58/5/43 60/5/43
f 58/5/43 63/6/43 61/6/43
f 62/6/19 58/5/19 61/6/19
f 58/5/19 62/6/19 57/5/19
f 62/6/44 59/5/44 57/5/44
f 59/5/44 62/6/44 64/6/44

g road-sign-empty-hanging




usemtl colormap

f 3/1/2 2/2/1 1/1/1
f 2/2/1 3/1/2 4/2/2
f 6/1/3 2/2/1 5/2/3
f 2/2/1 6/1/3 1/1/1
f 3/1/2 7/2/4 4/2/2
f 7/2/4 3/1/2 8/1/4
f 11/2/6 10/1/5 9/2/5
f 10/1/5 11/2/6 12/1/6
f 8/1/4 11/2/6 7/2/4
f 11/2/6 8/1/4 12/1/6
f 9/2/5 14/1/7 13/2/7
f 14/1/7 9/2/5 10/1/5
f 7/2/8 2/2/8 4/2/8
f 2/2/8 7/2/8 5/2/8
f 5/2/8 7/2/8 11/2/8
f 5/2/8 11/2/8 15/2/8
f 15/2/8 11/2/8 9/2/8
f 15/2/8 9/2/8 13/2/8
f 16/1/9 5/2/3 15/2/9
f 5/2/3 16/1/9 6/1/3
f 6/1/10 3/1/10 1/1/10
f 3/1/10 6/1/10 8/1/10
f 8/1/10 6/1/10 16/1/10
f 8/1/10 16/1/10 12/1/10
f 12/1/10 16/1/10 14/1/10
f 12/1/10 14/1/10 10/1/10
f 13/2/7 16/1/9 15/2/9
f 16/1/9 13/2/7 14/1/7
f 19/4/11 18/3/12 17/3/11
f 18/3/12 19/4/11 20/4/12
f 23/4/14 22/3/13 21/4/13
f 22/3/13 23/4/14 24/3/14
f 27/3/5 26/4/7 25/3/7
f 26/4/7 27/3/5 28/4/5
f 31/4/15 30/3/16 29/3/15
f 30/3/16 31/4/15 32/4/16
f 20/4/12 27/3/5 18/3/12
f 27/3/5 20/4/12 28/4/5
f 26/4/7 29/3/15 25/3/7
f 29/3/15 26/4/7 31/4/15
f 23/4/14 17/3/11 24/3/14
f 17/3/11 23/4/14 19/4/11
f 32/4/16 22/3/13 30/3/16
f 22/3/13 32/4/16 21/4/13
f 17/3/8 22/3/8 24/3/8
f 22/3/8 17/3/8 30/3/8
f 30/3/8 17/3/8 18/3/8
f 30/3/8 18/3/8 29/3/8
f 29/3/8 18/3/8 27/3/8
f 29/3/8 27/3/8 25/3/8
f 32/4/10 23/4/10 21/4/10
f 23/4/10 32/4/10 19/4/10
f 19/4/10 32/4/10 31/4/10
f 19/4/10 31/4/10 20/4/10
f 20/4/10 31/4/10 26/4/10
f 20/4/10 26/4/10 28/4/10
f 35/5/8 34/5/8 33/5/8
f 34/5/8 35/5/8 36/5/8
f 39/6/10 38/6/10 37/6/10
f 38/6/10 39/6/10 40/6/10
f 35/5/17 39/6/17 36/5/17
f 39/6/17 35/5/17 40/6/17
f 39/6/18 34/5/18 36/5/18
f 34/5/18 39/6/18 37/6/18
f 38/6/19 34/5/19 37/6/19
f 34/5/19 38/6/19 33/5/19
f 38/6/20 35/5/20 33/5/20
f 35/5/20 38/6/20 40/6/20
f 43/7/21 42/5/22 41/7/21
f 42/5/22 43/7/21 44/5/22
f 47/5/24 46/7/23 45/7/23
f 46/7/23 47/5/24 48/5/24
f 45/7/26 42/5/25 47/5/25
f 42/5/25 45/7/26 41/7/26
f 43/7/28 48/5/27 44/5/27
f 48/5/27 43/7/28 46/7/28
f 49/8/29 46/7/28 43/7/28
f 46/7/28 49/8/29 50/8/29
f 51/8/30 41/7/26 45/7/26
f 41/7/26 51/8/30 52/8/30
f 52/8/31 43/7/21 41/7/21
f 43/7/21 52/8/31 49/8/31
f 46/7/23 51/8/32 45/7/23
f 51/8/32 46/7/23 50/8/32
f 53/9/33 52/8/30 51/8/30
f 52/8/30 53/9/33 54/9/33
f 55/9/34 50/8/29 49/8/29
f 50/8/29 55/9/34 56/9/34
f 55/9/35 52/8/31 54/9/35
f 52/8/31 55/9/35 49/8/31
f 51/8/32 56/9/36 53/9/36
f 56/9/36 51/8/32 50/8/32
f 36/6/37 54/9/33 53/9/33
f 54/9/33 36/6/37 34/6/37
f 34/6/38 55/9/35 54/9/35
f 55/9/35 34/6/38 33/6/38
f 33/6/39 56/9/34 55/9/34
f 56/9/34 33/6/39 35/6/39
f 56/9/36 36/6/40 53/9/36
f 36/6/40 56/9/36 35/6/40
f 59/5/41 58/5/41 57/5/41
f 58/5/41 59/5/41 60/5/41
f 63/6/42 62/6/42 61/6/42
f 62/6/42 63/6/42 64/6/42
f 59/5/17 63/6/17 60/5/17
f 63/6/17 59/5/17 64/6/17
f 63/6/43 58/5/43 60/5/43
f 58/5/43 63/6/43 61/6/43
f 62/6/19 58/5/19 61/6/19
f 58/5/19 62/6/19 57/5/19
f 62/6/44 59/5/44 57/5/44
f 59/5/44 62/6/44 64/6/44

