# Created by Kenney (www.kenney.nl)

mtllib road-bend-square.mtl

g road-bend-square

v 0.5 0.02 -0.5 1 1 1
v 0.5 0 -0.5 1 1 1
v 0.5 0.02 0.5 1 1 1
v 0.5 0 0.5 1 1 1
v -0.5 0 -0.5 1 1 1
v -0.5 0.02 -0.5 1 1 1
v -0.4 0.02 0.4 1 1 1
v -0.4 0.02 0.5 1 1 1
v -0.5 0.02 0.4 1 1 1
v -0.5 0.02 0.5 1 1 1
v -0.4 0.01 0.4 1 1 1
v -0.4 0.01 0.5 1 1 1
v -0.5 0.01 0.4 1 1 1
v -0.5 0.02 -0.4 1 1 1
v 0.4 0.02 -0.4 1 1 1
v 0.4 0.02 0.5 1 1 1
v 0.4 0.01 -0.4 1 1 1
v -0.5 0.01 -0.4 1 1 1
v 0.4 0.01 0.5 1 1 1
v -0.5 0 0.5 1 1 1
v -0.5 0.01 0.3 1 1 1
v -0.5 0.01 0.01 1 1 1
v -0.5 0.01 -0.01 1 1 1
v -0.5 0.01 -0.3 1 1 1
v 0.3 0.01 0.5 1 1 1
v 0.01 0.01 0.5 1 1 1
v -0.01 0.01 0.5 1 1 1
v -0.3 0.01 0.5 1 1 1
v -0.009999909 0.01 0.01000003 1 1 1
v -0.009999909 0.01 0.5 1 1 1
v -0.4999999 0.01 0.01000003 1 1 1
v -0.2999999 0.01 0.3 1 1 1
v -0.4999999 0.01 0.3 1 1 1
v -0.2999999 0.01 0.5 1 1 1
v -0.4999999 0.01 -0.009999968 1 1 1
v -0.4999999 0.01 -0.3 1 1 1
v 0.01000009 0.01 -0.009999968 1 1 1
v 0.3000001 0.01 -0.3 1 1 1
v 0.3000001 0.01 0.5 1 1 1
v 0.01000009 0.01 0.5 1 1 1
v -0.4999999 0.01 0.01000001 1 1 1
v -0.4999999 0.01 -0.00999999 1 1 1
v -0.009999886 0.01 0.01000001 1 1 1
v 0.01000011 0.01 -0.00999999 1 1 1
v 0.01000011 0.01 0.5 1 1 1
v -0.009999886 0.01 0.5 1 1 1
v 0.3 0.01 -0.3 1 1 1
v -0.3 0.01 0.3 1 1 1

vn 1 0 0
vn 0 0 -1
vn 0 1 0
vn 0 0 1
vn -1 0 0
vn 0 -1 0

vt 0.46875 0.475
vt 0.46875 0.275
vt 0.46875 0.375
vt 0.40625 0.375
vt 0.34375 0.225
vt 0.34375 0.025
vt 0.34375 0.125
vt 0.28125 0.125
vt 0.40625 0.125
vt 0.03125 0.125

usemtl colormap

f 3/1/1 2/2/1 1/1/1
f 2/2/1 3/1/1 4/2/1
f 6/1/2 2/2/2 5/2/2
f 2/2/2 6/1/2 1/1/2
f 9/1/3 8/1/3 7/1/3
f 8/1/3 9/1/3 10/1/3
f 8/1/1 11/3/1 7/1/1
f 11/3/1 8/1/1 12/3/1
f 9/1/2 11/3/2 13/3/2
f 11/3/2 9/1/2 7/1/2
f 15/1/3 6/1/3 14/1/3
f 15/1/3 1/1/3 6/1/3
f 1/1/3 15/1/3 3/1/3
f 16/1/3 3/1/3 15/1/3
f 15/1/4 18/3/4 17/3/4
f 18/3/4 15/1/4 14/1/4
f 19/3/5 15/1/5 17/3/5
f 15/1/5 19/3/5 16/1/5
f 20/4/6 2/4/6 4/4/6
f 2/4/6 20/4/6 5/4/6
f 9/5/5 20/6/5 10/5/5
f 13/7/5 20/6/5 9/5/5
f 21/7/5 20/6/5 13/7/5
f 22/7/5 20/6/5 21/7/5
f 23/7/5 20/6/5 22/7/5
f 24/7/5 20/6/5 23/7/5
f 18/7/5 20/6/5 24/7/5
f 18/7/5 5/6/5 20/6/5
f 5/6/5 18/7/5 6/5/5
f 14/5/5 6/5/5 18/7/5
f 19/7/4 3/5/4 16/5/4
f 19/7/4 4/6/4 3/5/4
f 4/6/4 19/7/4 20/6/4
f 12/7/4 20/6/4 19/7/4
f 12/7/4 19/7/4 25/7/4
f 20/6/4 12/7/4 10/5/4
f 10/5/4 12/7/4 8/5/4
f 12/7/4 25/7/4 26/7/4
f 12/7/4 26/7/4 27/7/4
f 12/7/4 27/7/4 28/7/4
f 31/8/3 30/8/3 29/8/3
f 30/8/3 31/8/3 32/8/3
f 32/8/3 31/8/3 33/8/3
f 34/8/3 30/8/3 32/8/3
f 37/8/3 36/8/3 35/8/3
f 37/8/3 38/8/3 36/8/3
f 38/8/3 37/8/3 39/8/3
f 40/8/3 39/8/3 37/8/3
f 43/9/3 42/9/3 41/9/3
f 43/9/3 44/9/3 42/9/3
f 44/9/3 43/9/3 45/9/3
f 46/9/3 45/9/3 43/9/3
f 47/10/3 18/10/3 24/10/3
f 47/10/3 17/10/3 18/10/3
f 17/10/3 47/10/3 19/10/3
f 25/10/3 19/10/3 47/10/3
f 21/10/3 28/10/3 48/10/3
f 28/10/3 21/10/3 11/10/3
f 11/10/3 21/10/3 13/10/3
f 12/10/3 28/10/3 11/10/3

g road-bend-square




usemtl colormap

f 3/1/1 2/2/1 1/1/1
f 2/2/1 3/1/1 4/2/1
f 6/1/2 2/2/2 5/2/2
f 2/2/2 6/1/2 1/1/2
f 9/1/3 8/1/3 7/1/3
f 8/1/3 9/1/3 10/1/3
f 8/1/1 11/3/1 7/1/1
f 11/3/1 8/1/1 12/3/1
f 9/1/2 11/3/2 13/3/2
f 11/3/2 9/1/2 7/1/2
f 15/1/3 6/1/3 14/1/3
f 15/1/3 1/1/3 6/1/3
f 1/1/3 15/1/3 3/1/3
f 16/1/3 3/1/3 15/1/3
f 15/1/4 18/3/4 17/3/4
f 18/3/4 15/1/4 14/1/4
f 19/3/5 15/1/5 17/3/5
f 15/1/5 19/3/5 16/1/5
f 20/4/6 2/4/6 4/4/6
f 2/4/6 20/4/6 5/4/6
f 9/5/5 20/6/5 10/5/5
f 13/7/5 20/6/5 9/5/5
f 21/7/5 20/6/5 13/7/5
f 22/7/5 20/6/5 21/7/5
f 23/7/5 20/6/5 22/7/5
f 24/7/5 20/6/5 23/7/5
f 18/7/5 20/6/5 24/7/5
f 18/7/5 5/6/5 20/6/5
f 5/6/5 18/7/5 6/5/5
f 14/5/5 6/5/5 18/7/5
f 19/7/4 3/5/4 16/5/4
f 19/7/4 4/6/4 3/5/4
f 4/6/4 19/7/4 20/6/4
f 12/7/4 20/6/4 19/7/4
f 12/7/4 19/7/4 25/7/4
f 20/6/4 12/7/4 10/5/4
f 10/5/4 12/7/4 8/5/4
f 12/7/4 25/7/4 26/7/4
f 12/7/4 26/7/4 27/7/4
f 12/7/4 27/7/4 28/7/4
f 31/8/3 30/8/3 29/8/3
f 30/8/3 31/8/3 32/8/3
f 32/8/3 31/8/3 33/8/3
f 34/8/3 30/8/3 32/8/3
f 37/8/3 36/8/3 35/8/3
f 37/8/3 38/8/3 36/8/3
f 38/8/3 37/8/3 39/8/3
f 40/8/3 39/8/3 37/8/3
f 43/9/3 42/9/3 41/9/3
f 43/9/3 44/9/3 42/9/3
f 44/9/3 43/9/3 45/9/3
f 46/9/3 45/9/3 43/9/3
f 47/10/3 18/10/3 24/10/3
f 47/10/3 17/10/3 18/10/3
f 17/10/3 47/10/3 19/10/3
f 25/10/3 19/10/3 47/10/3
f 21/10/3 28/10/3 48/10/3
f 28/10/3 21/10/3 11/10/3
f 11/10/3 21/10/3 13/10/3
f 12/10/3 28/10/3 11/10/3

