# Created by Kenney (www.kenney.nl)

mtllib road-intersection.mtl

g road-intersection

v 0.4 0.02 0.5 1 1 1
v 0.5 0.02 0.5 1 1 1
v 0.4 0.01 0.5 1 1 1
v 0.5 0 0.5 1 1 1
v -0.5 0 0.5 1 1 1
v 0.3 0.01 0.5 1 1 1
v -0.3 0.01 0.5 1 1 1
v 0.01000001 0.01 0.5 1 1 1
v -0.009999992 0.01 0.5 1 1 1
v -0.4 0.01 0.5 1 1 1
v -0.5 0.02 0.5 1 1 1
v -0.4 0.02 0.5 1 1 1
v -0.5 0.02 0.4 1 1 1
v -0.5 0.01 0.4 1 1 1
v -0.5 0.01 0.3 1 1 1
v -0.5 0.01 0.01000001 1 1 1
v -0.5 0.01 -0.009999993 1 1 1
v -0.5 0.01 -0.3 1 1 1
v -0.5 0.01 -0.4 1 1 1
v -0.5 0 -0.5 1 1 1
v -0.5 0.02 -0.5 1 1 1
v -0.5 0.02 -0.4 1 1 1
v 0.5 0.02 -0.5 1 1 1
v 0.5 0 -0.5 1 1 1
v 0.5 0.02 -0.4 1 1 1
v 0.5 0.01 -0.4 1 1 1
v 0.5 0.01 -0.3 1 1 1
v 0.5 0.01 -0.009999993 1 1 1
v 0.5 0.01 0.01000001 1 1 1
v 0.5 0.01 0.3 1 1 1
v 0.5 0.01 0.4 1 1 1
v 0.5 0.02 0.4 1 1 1
v 0.5 0.01 0.2999999 1 1 1
v 0.3 0.01 0.2999999 1 1 1
v 0.5 0.01 0.009999916 1 1 1
v 0.3 0.01 0.009999916 1 1 1
v -0.5 0.01 -0.3000001 1 1 1
v 0.3 0.01 -0.01000009 1 1 1
v 0.5 0.01 -0.01000009 1 1 1
v 0.5 0.01 -0.3000001 1 1 1
v 0.3 0.01 0.4999999 1 1 1
v 0.01000001 0.01 0.2999999 1 1 1
v 0.01000001 0.01 0.4999999 1 1 1
v -0.009999992 0.01 0.2999999 1 1 1
v -0.3 0.01 -0.01000009 1 1 1
v -0.5 0.01 -0.01000009 1 1 1
v -0.009999992 0.01 0.4999999 1 1 1
v -0.3 0.01 0.2999999 1 1 1
v -0.3 0.01 0.4999999 1 1 1
v -0.3 0.01 0.009999916 1 1 1
v -0.5 0.01 0.009999916 1 1 1
v -0.5 0.01 0.2999999 1 1 1
v -0.4 0.01 0.4 1 1 1
v -0.4 0.02 0.4 1 1 1
v 0.4 0.02 0.4 1 1 1
v 0.4 0.01 0.4 1 1 1
v -0.3 0.01 -0.009999871 1 1 1
v -0.3 0.01 0.01000012 1 1 1
v -0.5 0.01 -0.009999871 1 1 1
v -0.5 0.01 0.01000012 1 1 1
v 0.01000001 0.01 0.3000001 1 1 1
v 0.01000001 0.01 0.5000001 1 1 1
v -0.009999989 0.01 0.3000001 1 1 1
v -0.009999989 0.01 0.5000001 1 1 1
v 0.5 0.01 -0.009999871 1 1 1
v 0.5 0.01 0.01000012 1 1 1
v 0.3 0.01 -0.009999871 1 1 1
v 0.3 0.01 0.01000012 1 1 1
v 0.5 0.01 0.3 1 1 1
v 0.5 0.01 0.3999999 1 1 1
v 0.3 0.01 0.3 1 1 1
v 0.4 0.01 0.3999999 1 1 1
v 0.4 0.01 0.4999999 1 1 1
v 0.3 0.01 0.4999999 1 1 1
v 0.5 0.01 -0.4 1 1 1
v 0.5 0.01 -0.3 1 1 1
v -0.5 0.01 -0.4 1 1 1
v -0.5 0.01 -0.3 1 1 1
v -0.3 0.01 0.3 1 1 1
v -0.3 0.01 0.4999999 1 1 1
v -0.5 0.01 0.3 1 1 1
v -0.4 0.01 0.3999999 1 1 1
v -0.5 0.01 0.3999999 1 1 1
v -0.4 0.01 0.4999999 1 1 1

vn 0 0 1
vn -1 0 0
vn 1 0 0
vn 0 1 0
vn 0 0 -1
vn 0 -1 0

vt 0.34375 0.225
vt 0.34375 0.125
vt 0.34375 0.025
vt 0.28125 0.125
vt 0.46875 0.275
vt 0.46875 0.475
vt 0.46875 0.375
vt 0.40625 0.125
vt 0.03125 0.125

usemtl colormap

f 3/2/1 2/1/1 1/1/1
f 3/2/1 4/3/1 2/1/1
f 4/3/1 3/2/1 5/3/1
f 5/3/1 3/2/1 6/2/1
f 7/2/1 5/3/1 6/2/1
f 7/2/1 6/2/1 8/2/1
f 7/2/1 8/2/1 9/2/1
f 10/2/1 5/3/1 7/2/1
f 5/3/1 10/2/1 11/1/1
f 11/1/1 10/2/1 12/1/1
f 13/1/2 5/3/2 11/1/2
f 14/2/2 5/3/2 13/1/2
f 15/2/2 5/3/2 14/2/2
f 16/2/2 5/3/2 15/2/2
f 17/2/2 5/3/2 16/2/2
f 18/2/2 5/3/2 17/2/2
f 19/2/2 5/3/2 18/2/2
f 19/2/2 20/3/2 5/3/2
f 20/3/2 19/2/2 21/1/2
f 22/1/2 21/1/2 19/2/2
f 25/1/3 24/3/3 23/1/3
f 24/3/3 25/1/3 26/2/3
f 24/3/3 26/2/3 4/3/3
f 4/3/3 26/2/3 27/2/3
f 4/3/3 27/2/3 28/2/3
f 4/3/3 28/2/3 29/2/3
f 4/3/3 29/2/3 30/2/3
f 4/3/3 30/2/3 31/2/3
f 4/3/3 31/2/3 32/1/3
f 4/3/3 32/1/3 2/1/3
f 35/4/4 34/4/4 33/4/4
f 34/4/4 35/4/4 36/4/4
f 36/4/4 37/4/4 34/4/4
f 38/4/4 37/4/4 36/4/4
f 39/4/4 37/4/4 38/4/4
f 37/4/4 39/4/4 40/4/4
f 34/4/4 37/4/4 41/4/4
f 41/4/4 37/4/4 42/4/4
f 43/4/4 41/4/4 42/4/4
f 42/4/4 37/4/4 44/4/4
f 44/4/4 37/4/4 45/4/4
f 45/4/4 37/4/4 46/4/4
f 44/4/4 45/4/4 47/4/4
f 48/4/4 47/4/4 45/4/4
f 47/4/4 48/4/4 49/4/4
f 48/4/4 45/4/4 50/4/4
f 51/4/4 48/4/4 50/4/4
f 48/4/4 51/4/4 52/4/4
f 21/6/5 24/5/5 20/5/5
f 24/5/5 21/6/5 23/6/5
f 21/6/4 25/6/4 23/6/4
f 25/6/4 21/6/4 22/6/4
f 4/5/6 20/5/6 24/5/6
f 20/5/6 4/5/6 5/5/6
f 13/6/5 53/7/5 14/7/5
f 53/7/5 13/6/5 54/6/5
f 25/6/1 19/7/1 26/7/1
f 19/7/1 25/6/1 22/6/1
f 12/6/3 53/7/3 54/6/3
f 53/7/3 12/6/3 10/7/3
f 13/6/4 12/6/4 54/6/4
f 12/6/4 13/6/4 11/6/4
f 55/6/4 2/6/4 32/6/4
f 2/6/4 55/6/4 1/6/4
f 55/6/5 31/7/5 56/7/5
f 31/7/5 55/6/5 32/6/5
f 3/7/2 55/6/2 56/7/2
f 55/6/2 3/7/2 1/6/2
f 59/8/4 58/8/4 57/8/4
f 58/8/4 59/8/4 60/8/4
f 63/8/4 62/8/4 61/8/4
f 62/8/4 63/8/4 64/8/4
f 67/8/4 66/8/4 65/8/4
f 66/8/4 67/8/4 68/8/4
f 71/9/4 70/9/4 69/9/4
f 70/9/4 71/9/4 72/9/4
f 72/9/4 71/9/4 73/9/4
f 73/9/4 71/9/4 74/9/4
f 77/9/4 76/9/4 75/9/4
f 76/9/4 77/9/4 78/9/4
f 81/9/4 80/9/4 79/9/4
f 80/9/4 81/9/4 82/9/4
f 82/9/4 81/9/4 83/9/4
f 84/9/4 80/9/4 82/9/4

g road-intersection




usemtl colormap

f 3/2/1 2/1/1 1/1/1
f 3/2/1 4/3/1 2/1/1
f 4/3/1 3/2/1 5/3/1
f 5/3/1 3/2/1 6/2/1
f 7/2/1 5/3/1 6/2/1
f 7/2/1 6/2/1 8/2/1
f 7/2/1 8/2/1 9/2/1
f 10/2/1 5/3/1 7/2/1
f 5/3/1 10/2/1 11/1/1
f 11/1/1 10/2/1 12/1/1
f 13/1/2 5/3/2 11/1/2
f 14/2/2 5/3/2 13/1/2
f 15/2/2 5/3/2 14/2/2
f 16/2/2 5/3/2 15/2/2
f 17/2/2 5/3/2 16/2/2
f 18/2/2 5/3/2 17/2/2
f 19/2/2 5/3/2 18/2/2
f 19/2/2 20/3/2 5/3/2
f 20/3/2 19/2/2 21/1/2
f 22/1/2 21/1/2 19/2/2
f 25/1/3 24/3/3 23/1/3
f 24/3/3 25/1/3 26/2/3
f 24/3/3 26/2/3 4/3/3
f 4/3/3 26/2/3 27/2/3
f 4/3/3 27/2/3 28/2/3
f 4/3/3 28/2/3 29/2/3
f 4/3/3 29/2/3 30/2/3
f 4/3/3 30/2/3 31/2/3
f 4/3/3 31/2/3 32/1/3
f 4/3/3 32/1/3 2/1/3
f 35/4/4 34/4/4 33/4/4
f 34/4/4 35/4/4 36/4/4
f 36/4/4 37/4/4 34/4/4
f 38/4/4 37/4/4 36/4/4
f 39/4/4 37/4/4 38/4/4
f 37/4/4 39/4/4 40/4/4
f 34/4/4 37/4/4 41/4/4
f 41/4/4 37/4/4 42/4/4
f 43/4/4 41/4/4 42/4/4
f 42/4/4 37/4/4 44/4/4
f 44/4/4 37/4/4 45/4/4
f 45/4/4 37/4/4 46/4/4
f 44/4/4 45/4/4 47/4/4
f 48/4/4 47/4/4 45/4/4
f 47/4/4 48/4/4 49/4/4
f 48/4/4 45/4/4 50/4/4
f 51/4/4 48/4/4 50/4/4
f 48/4/4 51/4/4 52/4/4
f 21/6/5 24/5/5 20/5/5
f 24/5/5 21/6/5 23/6/5
f 21/6/4 25/6/4 23/6/4
f 25/6/4 21/6/4 22/6/4
f 4/5/6 20/5/6 24/5/6
f 20/5/6 4/5/6 5/5/6
f 13/6/5 53/7/5 14/7/5
f 53/7/5 13/6/5 54/6/5
f 25/6/1 19/7/1 26/7/1
f 19/7/1 25/6/1 22/6/1
f 12/6/3 53/7/3 54/6/3
f 53/7/3 12/6/3 10/7/3
f 13/6/4 12/6/4 54/6/4
f 12/6/4 13/6/4 11/6/4
f 55/6/4 2/6/4 32/6/4
f 2/6/4 55/6/4 1/6/4
f 55/6/5 31/7/5 56/7/5
f 31/7/5 55/6/5 32/6/5
f 3/7/2 55/6/2 56/7/2
f 55/6/2 3/7/2 1/6/2
f 59/8/4 58/8/4 57/8/4
f 58/8/4 59/8/4 60/8/4
f 63/8/4 62/8/4 61/8/4
f 62/8/4 63/8/4 64/8/4
f 67/8/4 66/8/4 65/8/4
f 66/8/4 67/8/4 68/8/4
f 71/9/4 70/9/4 69/9/4
f 70/9/4 71/9/4 72/9/4
f 72/9/4 71/9/4 73/9/4
f 73/9/4 71/9/4 74/9/4
f 77/9/4 76/9/4 75/9/4
f 76/9/4 77/9/4 78/9/4
f 81/9/4 80/9/4 79/9/4
f 80/9/4 81/9/4 82/9/4
f 82/9/4 81/9/4 83/9/4
f 84/9/4 80/9/4 82/9/4

