# Created by Kenney (www.kenney.nl)

mtllib road-side-entry-barrier.mtl

g road-side-entry-barrier

v -0.5243219 0.08 -0.4542835 1 1 1
v -0.5338328 0.08 -0.443076 1 1 1
v -0.5243219 2.806995E-13 -0.4542835 1 1 1
v -0.5338328 2.833559E-13 -0.443076 1 1 1
v -0.8063492 0.08 -0.04744467 1 1 1
v -0.808906 0.08 -0.01545648 1 1 1
v -0.8063492 3.921671E-13 -0.04744467 1 1 1
v -0.808906 4.107619E-13 -0.01545648 1 1 1
v -0.5453391 2.869372E-13 -0.4310195 1 1 1
v -0.5453391 0.08 -0.4310195 1 1 1
v -0.5589017 2.89729E-13 -0.4182635 1 1 1
v -0.5589017 0.08 -0.4182635 1 1 1
v -0.5748928 2.93739E-13 -0.4046616 1 1 1
v -0.5748928 0.08 -0.4046616 1 1 1
v -0.8100001 0.08 -5.50597E-05 1 1 1
v -0.8100001 1.580084E-13 -5.50597E-05 1 1 1
v -0.5004771 0.08 -0.4980155 1 1 1
v -0.5016164 0.08 -0.4936029 1 1 1
v -0.5004771 2.597358E-13 -0.4980155 1 1 1
v -0.5016164 2.636443E-13 -0.4936029 1 1 1
v -0.731644 0.08 -0.1788229 1 1 1
v -0.7116441 8.812395E-14 -0.1788229 1 1 1
v -0.7475359 0.08 -0.1461697 1 1 1
v -0.7275359 9.999601E-14 -0.1461697 1 1 1
v -0.5102744 2.692425E-12 -0.3956983 1 1 1
v -0.5257203 2.6997E-12 -0.3811709 1 1 1
v -0.5302744 0.08 -0.3956983 1 1 1
v -0.5457203 0.08 -0.3811709 1 1 1
v -0.5167062 0.08 -0.4644982 1 1 1
v -0.5167062 2.772027E-13 -0.4644982 1 1 1
v -0.6002806 2.99503E-13 -0.3848298 1 1 1
v -0.6002806 0.08 -0.3848298 1 1 1
v -0.6309401 3.087976E-13 -0.3583036 1 1 1
v -0.6309401 0.08 -0.3583036 1 1 1
v -0.6692872 0.08 -0.2684115 1 1 1
v -0.6492872 2.851516E-12 -0.2684115 1 1 1
v -0.6923023 0.08 -0.2399268 1 1 1
v -0.6723022 7.155947E-14 -0.2399268 1 1 1
v -0.473983 0.08 -0.479076 1 1 1
v -0.453983 0 -0.479076 1 1 1
v -0.4773137 0.08 -0.469641 1 1 1
v -0.4573136 3.947953E-16 -0.469641 1 1 1
v -0.7769505 0.08 -0.04103081 1 1 1
v -0.7569505 1.492777E-13 -0.04103081 1 1 1
v -0.779294 0.08 -0.0117116 1 1 1
v -0.759294 1.638513E-13 -0.0117116 1 1 1
v -0.6598779 3.161746E-13 -0.3303736 1 1 1
v -0.6598779 0.08 -0.3303736 1 1 1
v -0.4819354 0.08 -0.4593444 1 1 1
v -0.4619354 5.583534E-16 -0.4593444 1 1 1
v -0.488043 0.08 -0.4481589 1 1 1
v -0.4680431 7.382672E-15 -0.4481589 1 1 1
v -0.68698 0.08 -0.300925 1 1 1
v -0.7120935 0.08 -0.2698432 1 1 1
v -0.68698 3.259035E-13 -0.300925 1 1 1
v -0.7120935 3.356719E-13 -0.2698432 1 1 1
v -0.7554944 0.08 -0.2024142 1 1 1
v -0.7732172 0.08 -0.1659991 1 1 1
v -0.7554944 3.535617E-13 -0.2024142 1 1 1
v -0.7732172 3.634034E-13 -0.1659991 1 1 1
v -0.470124 0.08 -0.5000001 1 1 1
v -0.4704181 0.08 -0.4958283 1 1 1
v -0.5001515 0.08 -0.5000001 1 1 1
v -0.4717441 0.08 -0.4877476 1 1 1
v -0.4958089 0.08 -0.4361153 1 1 1
v -0.5053728 0.08 -0.4232877 1 1 1
v -0.5035448 0.08 -0.4881402 1 1 1
v -0.5065314 0.08 -0.4814866 1 1 1
v -0.5168382 0.08 -0.409777 1 1 1
v -0.5108402 0.08 -0.4735954 1 1 1
v -0.5634477 0.08 -0.3660921 1 1 1
v -0.5886706 0.08 -0.3463892 1 1 1
v -0.6173632 0.08 -0.3215648 1 1 1
v -0.6442667 0.08 -0.2955982 1 1 1
v -0.6667907 0.08 -0.2711241 1 1 1
v -0.6833993 0.08 -0.3048157 1 1 1
v -0.7131538 0.08 -0.2100774 1 1 1
v -0.7350169 0.08 -0.237028 1 1 1
v -0.7411966 0.08 -0.2265823 1 1 1
v -0.7605631 0.08 -0.1121937 1 1 1
v -0.7704512 0.08 -0.07705967 1 1 1
v -0.7878361 0.08 -0.127872 1 1 1
v -0.78 0.08 -0.001773719 1 1 1
v -0.78 0.08 0.5000001 1 1 1
v -0.8100001 0.08 0.5000001 1 1 1
v -0.7989899 0.08 -0.08824089 1 1 1
v -0.6833993 3.261912E-13 -0.3048157 1 1 1
v -0.5973632 2.713699E-12 -0.3215648 1 1 1
v -0.6242667 2.716919E-12 -0.2955982 1 1 1
v 0.4500002 7.291192E-13 -0.5000001 1 1 1
v 0.4700002 0.08 -0.5000001 1 1 1
v 0.4500002 7.291192E-13 0.5000001 1 1 1
v 0.4700002 0.08 0.5000001 1 1 1
v -0.76 6.282885E-15 -0.001773719 1 1 1
v -0.76 2.674039E-12 0.5000001 1 1 1
v -0.5065314 2.676825E-13 -0.4814866 1 1 1
v -0.5108402 2.733506E-13 -0.4735954 1 1 1
v -0.7989899 3.827766E-13 -0.08824089 1 1 1
v -0.6931539 7.803411E-14 -0.2100774 1 1 1
v -0.6467907 2.726507E-12 -0.2711241 1 1 1
v -0.7405631 1.140451E-13 -0.1121937 1 1 1
v -0.7504512 1.304742E-13 -0.07705967 1 1 1
v 0.5000002 7.291192E-13 -0.5000001 1 1 1
v 0.5000002 7.291192E-13 0.5000001 1 1 1
v -0.7411966 3.471604E-13 -0.2265823 1 1 1
v -0.7350169 3.43455E-13 -0.237028 1 1 1
v 0.5000002 0.08 -0.5000001 1 1 1
v -0.4758089 2.476382E-13 -0.4361153 1 1 1
v -0.4853728 2.67828E-12 -0.4232877 1 1 1
v -0.5035448 1.05619E-13 -0.4881402 1 1 1
v 0.5000002 0.08 0.5000001 1 1 1
v -0.4517441 4.963141E-16 -0.4877476 1 1 1
v -0.5434477 2.708059E-12 -0.3660921 1 1 1
v -0.5686706 2.709209E-12 -0.3463892 1 1 1
v -0.7878361 3.731662E-13 -0.127872 1 1 1
v -0.8100001 1.987287E-13 0.5000001 1 1 1
v -0.4968382 2.684568E-12 -0.409777 1 1 1
v -0.450124 1.093019E-13 -0.5000001 1 1 1
v -0.5001515 2.278477E-13 -0.5000001 1 1 1
v -0.4504181 2.803047E-15 -0.4958283 1 1 1

vn -0.7824697 0 -0.6226889
vn -0.743256 0 -0.6690075
vn -0.9916762 0 -0.1287584
vn -0.9971635 0 -0.07526942
vn -0.7045255 0 -0.7096791
vn -0.6667206 0 -0.745308
vn -0.6318907 0 -0.7750579
vn -0.9993717 0 -0.03545194
vn -0.9785165 0 -0.2061701
vn -0.9565076 0 -0.2917081
vn 0.8613454 0.2153363 0.4601247
vn 0.858716 0.214679 0.4653173
vn 0.8950693 0.2237673 0.3857196
vn 0.8930988 0.2232746 0.3905426
vn 0.695848 0.173962 0.6968023
vn 0.659703 0.1649257 0.7332066
vn 0.6918187 0.1729546 0.7010522
vn 0.6555709 0.1638927 0.7371341
vn -0.8215396 0 -0.5701518
vn -0.635144 0 -0.7723941
vn -0.674629 0 -0.7381574
vn 0.7460039 0.1865009 0.6392934
vn 0.7419671 0.1854917 0.6442656
vn 0.7856271 0.1964067 0.5866984
vn 0.7819429 0.1954857 0.5919046
vn 0.929749 0.2324372 0.2855525
vn 0.9307975 0.2326993 0.2818998
vn 0.9035649 0.2258912 0.364066
vn 0.9051929 0.2262982 0.3597435
vn 0.9626505 0.2406626 0.1240401
vn 0.9624195 0.2406048 0.1259306
vn 0.9675555 0.2418888 0.07298454
vn 0.9675483 0.241887 0.07308403
vn -0.7154535 0 -0.6986607
vn 0.8729133 0.2182283 0.4363474
vn 0.8751273 0.2187818 0.4316102
vn 0.8390485 0.2097621 0.5019938
vn 0.8418025 0.2104506 0.497071
vn -0.7572144 0 -0.6531668
vn -0.7992962 0 -0.6009375
vn -0.8806421 0 -0.4737827
vn -0.9173053 0 -0.3981852
vn 0 1 0
vn -0.7358135 0 -0.6771846
vn 0.6630141 0.1657535 0.7300264
vn 0.7021247 0.1755311 0.6900799
vn 0.6674284 0.166857 0.7257401
vn 0.7063999 0.1765999 0.6854283
vn -0.9701428 0.2425356 0
vn 0.9695749 0.2423937 0.03420803
vn 0.9695624 0.2423905 0.0345844
vn 0.9701428 0.2425356 0
vn -0.8956761 0 -0.4447077
vn -0.8596276 0 -0.5109215
vn -0.9744793 0 -0.2244785
vn 0.8244327 0.2061081 0.5270963
vn 0.8212211 0.2053052 0.5323966
vn 0.7236712 0.1809178 0.6660098
vn 0.9241551 0.2310387 0.3042352
vn 0.9228604 0.2307151 0.3083825
vn 0.9471254 0.2367813 0.216538
vn 0.9464411 0.2366102 0.2196942
vn 0 -1 0
vn -0.8606654 0 -0.5091714
vn -0.8408256 0 -0.5413066
vn 0 0 -1
vn 0.8031205 0.2007801 0.5609681
vn 0.8063351 0.2015837 0.5560467
vn 0.7661111 0.1915277 0.6135073
vn 0.7696916 0.1924229 0.6087272
vn -0.9284304 0 -0.3715071
vn 1 0 0
vn 0.950215 0.2375537 0.2016438
vn 0.9507566 0.2376891 0.1989128
vn 0.6260172 0.1565042 0.7639433
vn 0.6250381 0.1562595 0.7647945
vn 0.6222686 0.1555671 0.7671905
vn 0.62951 0.1573775 0.7608875
vn -0.9491603 0 -0.3147939
vn 0 0 1
vn 0.7288101 0.1822025 0.6600292
vn 0.7326596 0.1831648 0.6554855
vn -1 0 0
vn 0.9678827 0.2419706 0.0682187
vn 0.9638597 0.2409649 0.1136261
vn 0.9640356 0.2410088 0.1120283
vn -0.9868017 0 -0.1619343

vt 0.40625 0.375

usemtl colormap

f 3/1/1 2/1/2 1/1/1
f 2/1/2 3/1/1 4/1/2
f 7/1/3 6/1/4 5/1/3
f 6/1/4 7/1/3 8/1/4
f 11/1/6 10/1/5 9/1/5
f 10/1/5 11/1/6 12/1/6
f 13/1/7 12/1/6 11/1/6
f 12/1/6 13/1/7 14/1/7
f 8/1/4 15/1/8 6/1/4
f 15/1/8 8/1/4 16/1/8
f 19/1/9 18/1/10 17/1/9
f 18/1/10 19/1/9 20/1/10
f 23/1/13 22/1/12 21/1/11
f 22/1/12 23/1/13 24/1/14
f 27/1/17 26/1/16 25/1/15
f 26/1/16 27/1/17 28/1/18
f 30/1/19 1/1/1 29/1/19
f 1/1/1 30/1/19 3/1/1
f 33/1/21 32/1/20 31/1/20
f 32/1/20 33/1/21 34/1/21
f 37/1/24 36/1/23 35/1/22
f 36/1/23 37/1/24 38/1/25
f 41/1/28 40/1/27 39/1/26
f 40/1/27 41/1/28 42/1/29
f 45/1/32 44/1/31 43/1/30
f 44/1/31 45/1/32 46/1/33
f 47/1/34 34/1/21 33/1/21
f 34/1/21 47/1/34 48/1/34
f 51/1/37 50/1/36 49/1/35
f 50/1/36 51/1/37 52/1/38
f 55/1/39 54/1/40 53/1/39
f 54/1/40 55/1/39 56/1/40
f 59/1/41 58/1/42 57/1/41
f 58/1/42 59/1/41 60/1/42
f 63/1/43 62/1/43 61/1/43
f 62/1/43 63/1/43 64/1/43
f 64/1/43 63/1/43 39/1/43
f 39/1/43 63/1/43 41/1/43
f 41/1/43 63/1/43 49/1/43
f 49/1/43 63/1/43 51/1/43
f 51/1/43 63/1/43 65/1/43
f 65/1/43 63/1/43 66/1/43
f 66/1/43 63/1/43 17/1/43
f 66/1/43 17/1/43 18/1/43
f 66/1/43 18/1/43 67/1/43
f 66/1/43 67/1/43 68/1/43
f 66/1/43 68/1/43 69/1/43
f 69/1/43 68/1/43 70/1/43
f 69/1/43 70/1/43 29/1/43
f 69/1/43 29/1/43 1/1/43
f 69/1/43 1/1/43 27/1/43
f 27/1/43 1/1/43 2/1/43
f 27/1/43 2/1/43 28/1/43
f 28/1/43 2/1/43 10/1/43
f 28/1/43 10/1/43 12/1/43
f 28/1/43 12/1/43 71/1/43
f 71/1/43 12/1/43 14/1/43
f 71/1/43 14/1/43 72/1/43
f 72/1/43 14/1/43 32/1/43
f 72/1/43 32/1/43 73/1/43
f 73/1/43 32/1/43 34/1/43
f 73/1/43 34/1/43 74/1/43
f 74/1/43 34/1/43 48/1/43
f 74/1/43 48/1/43 75/1/43
f 75/1/43 48/1/43 76/1/43
f 75/1/43 76/1/43 35/1/43
f 35/1/43 76/1/43 37/1/43
f 37/1/43 76/1/43 53/1/43
f 37/1/43 53/1/43 54/1/43
f 37/1/43 54/1/43 77/1/43
f 77/1/43 54/1/43 78/1/43
f 77/1/43 78/1/43 21/1/43
f 21/1/43 78/1/43 23/1/43
f 23/1/43 78/1/43 79/1/43
f 23/1/43 79/1/43 57/1/43
f 23/1/43 57/1/43 80/1/43
f 80/1/43 57/1/43 58/1/43
f 80/1/43 58/1/43 81/1/43
f 81/1/43 58/1/43 43/1/43
f 43/1/43 58/1/43 82/1/43
f 43/1/43 82/1/43 45/1/43
f 45/1/43 82/1/43 83/1/43
f 83/1/43 82/1/43 84/1/43
f 84/1/43 82/1/43 85/1/43
f 85/1/43 82/1/43 86/1/43
f 85/1/43 86/1/43 5/1/43
f 85/1/43 5/1/43 6/1/43
f 85/1/43 6/1/43 15/1/43
f 47/1/34 76/1/44 48/1/34
f 76/1/44 47/1/34 87/1/44
f 87/1/44 53/1/39 76/1/44
f 53/1/39 87/1/44 55/1/39
f 73/1/47 89/1/46 88/1/45
f 89/1/46 73/1/47 74/1/48
f 4/1/2 10/1/5 2/1/2
f 10/1/5 4/1/2 9/1/5
f 92/1/49 91/1/49 90/1/49
f 91/1/49 92/1/49 93/1/49
f 84/1/52 94/1/51 83/1/50
f 94/1/51 84/1/52 95/1/52
f 96/1/53 70/1/54 68/1/53
f 70/1/54 96/1/53 97/1/54
f 98/1/55 5/1/3 86/1/55
f 5/1/3 98/1/55 7/1/3
f 21/1/11 99/1/57 77/1/56
f 99/1/57 21/1/11 22/1/12
f 100/1/58 35/1/22 36/1/23
f 35/1/22 100/1/58 75/1/58
f 89/1/46 75/1/58 100/1/58
f 75/1/58 89/1/46 74/1/48
f 81/1/61 101/1/60 80/1/59
f 101/1/60 81/1/61 102/1/62
f 104/1/63 90/1/63 103/1/63
f 90/1/63 104/1/63 92/1/63
f 57/1/41 105/1/64 59/1/41
f 105/1/64 57/1/41 79/1/64
f 79/1/64 106/1/65 105/1/64
f 106/1/65 79/1/64 78/1/65
f 91/1/66 103/1/66 90/1/66
f 103/1/66 91/1/66 107/1/66
f 97/1/54 29/1/19 70/1/54
f 29/1/19 97/1/54 30/1/19
f 66/1/69 108/1/68 65/1/67
f 108/1/68 66/1/69 109/1/70
f 110/1/71 68/1/53 67/1/71
f 68/1/53 110/1/71 96/1/53
f 111/1/72 103/1/72 107/1/72
f 103/1/72 111/1/72 104/1/72
f 39/1/26 112/1/74 64/1/73
f 112/1/74 39/1/26 40/1/27
f 20/1/10 67/1/71 18/1/10
f 67/1/71 20/1/10 110/1/71
f 71/1/77 114/1/76 113/1/75
f 114/1/76 71/1/77 72/1/78
f 65/1/67 52/1/38 51/1/37
f 52/1/38 65/1/67 108/1/68
f 60/1/42 82/1/79 58/1/42
f 82/1/79 60/1/42 115/1/79
f 95/1/80 85/1/80 116/1/80
f 85/1/80 95/1/80 84/1/80
f 72/1/78 88/1/45 114/1/76
f 88/1/45 72/1/78 73/1/47
f 43/1/30 102/1/62 81/1/61
f 102/1/62 43/1/30 44/1/31
f 83/1/50 46/1/33 45/1/32
f 46/1/33 83/1/50 94/1/51
f 69/1/81 109/1/70 66/1/69
f 109/1/70 69/1/81 117/1/82
f 16/1/8 85/1/83 15/1/8
f 85/1/83 16/1/8 116/1/83
f 91/1/43 111/1/43 107/1/43
f 111/1/43 91/1/43 93/1/43
f 56/1/40 78/1/65 54/1/40
f 78/1/65 56/1/40 106/1/65
f 111/1/80 92/1/80 104/1/80
f 92/1/80 111/1/80 93/1/80
f 80/1/59 24/1/14 23/1/13
f 24/1/14 80/1/59 101/1/60
f 119/1/66 61/1/66 118/1/66
f 61/1/66 119/1/66 63/1/66
f 115/1/79 86/1/55 82/1/79
f 86/1/55 115/1/79 98/1/55
f 77/1/56 38/1/25 37/1/24
f 38/1/25 77/1/56 99/1/57
f 62/1/85 118/1/84 61/1/84
f 118/1/84 62/1/85 120/1/86
f 27/1/17 117/1/82 69/1/81
f 117/1/82 27/1/17 25/1/15
f 64/1/73 120/1/86 62/1/85
f 120/1/86 64/1/73 112/1/74
f 49/1/35 42/1/29 41/1/28
f 42/1/29 49/1/35 50/1/36
f 120/1/63 119/1/63 118/1/63
f 119/1/63 120/1/63 112/1/63
f 119/1/63 112/1/63 40/1/63
f 119/1/63 40/1/63 42/1/63
f 119/1/63 42/1/63 50/1/63
f 119/1/63 50/1/63 52/1/63
f 119/1/63 52/1/63 108/1/63
f 119/1/63 108/1/63 109/1/63
f 119/1/63 109/1/63 117/1/63
f 119/1/63 117/1/63 25/1/63
f 119/1/63 25/1/63 19/1/63
f 19/1/63 25/1/63 20/1/63
f 20/1/63 25/1/63 110/1/63
f 110/1/63 25/1/63 96/1/63
f 96/1/63 25/1/63 97/1/63
f 97/1/63 25/1/63 26/1/63
f 97/1/63 26/1/63 30/1/63
f 30/1/63 26/1/63 3/1/63
f 3/1/63 26/1/63 4/1/63
f 4/1/63 26/1/63 113/1/63
f 4/1/63 113/1/63 9/1/63
f 9/1/63 113/1/63 114/1/63
f 9/1/63 114/1/63 11/1/63
f 11/1/63 114/1/63 13/1/63
f 13/1/63 114/1/63 88/1/63
f 13/1/63 88/1/63 31/1/63
f 31/1/63 88/1/63 89/1/63
f 31/1/63 89/1/63 33/1/63
f 33/1/63 89/1/63 100/1/63
f 33/1/63 100/1/63 47/1/63
f 47/1/63 100/1/63 36/1/63
f 47/1/63 36/1/63 38/1/63
f 47/1/63 38/1/63 87/1/63
f 87/1/63 38/1/63 99/1/63
f 87/1/63 99/1/63 55/1/63
f 55/1/63 99/1/63 56/1/63
f 56/1/63 99/1/63 22/1/63
f 56/1/63 22/1/63 24/1/63
f 56/1/63 24/1/63 106/1/63
f 106/1/63 24/1/63 101/1/63
f 106/1/63 101/1/63 105/1/63
f 105/1/63 101/1/63 102/1/63
f 105/1/63 102/1/63 59/1/63
f 59/1/63 102/1/63 44/1/63
f 59/1/63 44/1/63 60/1/63
f 60/1/63 44/1/63 46/1/63
f 60/1/63 46/1/63 94/1/63
f 60/1/63 94/1/63 95/1/63
f 60/1/63 95/1/63 116/1/63
f 60/1/63 116/1/63 115/1/63
f 115/1/63 116/1/63 98/1/63
f 98/1/63 116/1/63 7/1/63
f 7/1/63 116/1/63 8/1/63
f 8/1/63 116/1/63 16/1/63
f 28/1/18 113/1/75 26/1/16
f 113/1/75 28/1/18 71/1/77
f 31/1/20 14/1/7 13/1/7
f 14/1/7 31/1/20 32/1/20
f 119/1/87 17/1/9 63/1/87
f 17/1/9 119/1/87 19/1/9

g road-side-entry-barrier




usemtl colormap

f 3/1/1 2/1/2 1/1/1
f 2/1/2 3/1/1 4/1/2
f 7/1/3 6/1/4 5/1/3
f 6/1/4 7/1/3 8/1/4
f 11/1/6 10/1/5 9/1/5
f 10/1/5 11/1/6 12/1/6
f 13/1/7 12/1/6 11/1/6
f 12/1/6 13/1/7 14/1/7
f 8/1/4 15/1/8 6/1/4
f 15/1/8 8/1/4 16/1/8
f 19/1/9 18/1/10 17/1/9
f 18/1/10 19/1/9 20/1/10
f 23/1/13 22/1/12 21/1/11
f 22/1/12 23/1/13 24/1/14
f 27/1/17 26/1/16 25/1/15
f 26/1/16 27/1/17 28/1/18
f 30/1/19 1/1/1 29/1/19
f 1/1/1 30/1/19 3/1/1
f 33/1/21 32/1/20 31/1/20
f 32/1/20 33/1/21 34/1/21
f 37/1/24 36/1/23 35/1/22
f 36/1/23 37/1/24 38/1/25
f 41/1/28 40/1/27 39/1/26
f 40/1/27 41/1/28 42/1/29
f 45/1/32 44/1/31 43/1/30
f 44/1/31 45/1/32 46/1/33
f 47/1/34 34/1/21 33/1/21
f 34/1/21 47/1/34 48/1/34
f 51/1/37 50/1/36 49/1/35
f 50/1/36 51/1/37 52/1/38
f 55/1/39 54/1/40 53/1/39
f 54/1/40 55/1/39 56/1/40
f 59/1/41 58/1/42 57/1/41
f 58/1/42 59/1/41 60/1/42
f 63/1/43 62/1/43 61/1/43
f 62/1/43 63/1/43 64/1/43
f 64/1/43 63/1/43 39/1/43
f 39/1/43 63/1/43 41/1/43
f 41/1/43 63/1/43 49/1/43
f 49/1/43 63/1/43 51/1/43
f 51/1/43 63/1/43 65/1/43
f 65/1/43 63/1/43 66/1/43
f 66/1/43 63/1/43 17/1/43
f 66/1/43 17/1/43 18/1/43
f 66/1/43 18/1/43 67/1/43
f 66/1/43 67/1/43 68/1/43
f 66/1/43 68/1/43 69/1/43
f 69/1/43 68/1/43 70/1/43
f 69/1/43 70/1/43 29/1/43
f 69/1/43 29/1/43 1/1/43
f 69/1/43 1/1/43 27/1/43
f 27/1/43 1/1/43 2/1/43
f 27/1/43 2/1/43 28/1/43
f 28/1/43 2/1/43 10/1/43
f 28/1/43 10/1/43 12/1/43
f 28/1/43 12/1/43 71/1/43
f 71/1/43 12/1/43 14/1/43
f 71/1/43 14/1/43 72/1/43
f 72/1/43 14/1/43 32/1/43
f 72/1/43 32/1/43 73/1/43
f 73/1/43 32/1/43 34/1/43
f 73/1/43 34/1/43 74/1/43
f 74/1/43 34/1/43 48/1/43
f 74/1/43 48/1/43 75/1/43
f 75/1/43 48/1/43 76/1/43
f 75/1/43 76/1/43 35/1/43
f 35/1/43 76/1/43 37/1/43
f 37/1/43 76/1/43 53/1/43
f 37/1/43 53/1/43 54/1/43
f 37/1/43 54/1/43 77/1/43
f 77/1/43 54/1/43 78/1/43
f 77/1/43 78/1/43 21/1/43
f 21/1/43 78/1/43 23/1/43
f 23/1/43 78/1/43 79/1/43
f 23/1/43 79/1/43 57/1/43
f 23/1/43 57/1/43 80/1/43
f 80/1/43 57/1/43 58/1/43
f 80/1/43 58/1/43 81/1/43
f 81/1/43 58/1/43 43/1/43
f 43/1/43 58/1/43 82/1/43
f 43/1/43 82/1/43 45/1/43
f 45/1/43 82/1/43 83/1/43
f 83/1/43 82/1/43 84/1/43
f 84/1/43 82/1/43 85/1/43
f 85/1/43 82/1/43 86/1/43
f 85/1/43 86/1/43 5/1/43
f 85/1/43 5/1/43 6/1/43
f 85/1/43 6/1/43 15/1/43
f 47/1/34 76/1/44 48/1/34
f 76/1/44 47/1/34 87/1/44
f 87/1/44 53/1/39 76/1/44
f 53/1/39 87/1/44 55/1/39
f 73/1/47 89/1/46 88/1/45
f 89/1/46 73/1/47 74/1/48
f 4/1/2 10/1/5 2/1/2
f 10/1/5 4/1/2 9/1/5
f 92/1/49 91/1/49 90/1/49
f 91/1/49 92/1/49 93/1/49
f 84/1/52 94/1/51 83/1/50
f 94/1/51 84/1/52 95/1/52
f 96/1/53 70/1/54 68/1/53
f 70/1/54 96/1/53 97/1/54
f 98/1/55 5/1/3 86/1/55
f 5/1/3 98/1/55 7/1/3
f 21/1/11 99/1/57 77/1/56
f 99/1/57 21/1/11 22/1/12
f 100/1/58 35/1/22 36/1/23
f 35/1/22 100/1/58 75/1/58
f 89/1/46 75/1/58 100/1/58
f 75/1/58 89/1/46 74/1/48
f 81/1/61 101/1/60 80/1/59
f 101/1/60 81/1/61 102/1/62
f 104/1/63 90/1/63 103/1/63
f 90/1/63 104/1/63 92/1/63
f 57/1/41 105/1/64 59/1/41
f 105/1/64 57/1/41 79/1/64
f 79/1/64 106/1/65 105/1/64
f 106/1/65 79/1/64 78/1/65
f 91/1/66 103/1/66 90/1/66
f 103/1/66 91/1/66 107/1/66
f 97/1/54 29/1/19 70/1/54
f 29/1/19 97/1/54 30/1/19
f 66/1/69 108/1/68 65/1/67
f 108/1/68 66/1/69 109/1/70
f 110/1/71 68/1/53 67/1/71
f 68/1/53 110/1/71 96/1/53
f 111/1/72 103/1/72 107/1/72
f 103/1/72 111/1/72 104/1/72
f 39/1/26 112/1/74 64/1/73
f 112/1/74 39/1/26 40/1/27
f 20/1/10 67/1/71 18/1/10
f 67/1/71 20/1/10 110/1/71
f 71/1/77 114/1/76 113/1/75
f 114/1/76 71/1/77 72/1/78
f 65/1/67 52/1/38 51/1/37
f 52/1/38 65/1/67 108/1/68
f 60/1/42 82/1/79 58/1/42
f 82/1/79 60/1/42 115/1/79
f 95/1/80 85/1/80 116/1/80
f 85/1/80 95/1/80 84/1/80
f 72/1/78 88/1/45 114/1/76
f 88/1/45 72/1/78 73/1/47
f 43/1/30 102/1/62 81/1/61
f 102/1/62 43/1/30 44/1/31
f 83/1/50 46/1/33 45/1/32
f 46/1/33 83/1/50 94/1/51
f 69/1/81 109/1/70 66/1/69
f 109/1/70 69/1/81 117/1/82
f 16/1/8 85/1/83 15/1/8
f 85/1/83 16/1/8 116/1/83
f 91/1/43 111/1/43 107/1/43
f 111/1/43 91/1/43 93/1/43
f 56/1/40 78/1/65 54/1/40
f 78/1/65 56/1/40 106/1/65
f 111/1/80 92/1/80 104/1/80
f 92/1/80 111/1/80 93/1/80
f 80/1/59 24/1/14 23/1/13
f 24/1/14 80/1/59 101/1/60
f 119/1/66 61/1/66 118/1/66
f 61/1/66 119/1/66 63/1/66
f 115/1/79 86/1/55 82/1/79
f 86/1/55 115/1/79 98/1/55
f 77/1/56 38/1/25 37/1/24
f 38/1/25 77/1/56 99/1/57
f 62/1/85 118/1/84 61/1/84
f 118/1/84 62/1/85 120/1/86
f 27/1/17 117/1/82 69/1/81
f 117/1/82 27/1/17 25/1/15
f 64/1/73 120/1/86 62/1/85
f 120/1/86 64/1/73 112/1/74
f 49/1/35 42/1/29 41/1/28
f 42/1/29 49/1/35 50/1/36
f 120/1/63 119/1/63 118/1/63
f 119/1/63 120/1/63 112/1/63
f 119/1/63 112/1/63 40/1/63
f 119/1/63 40/1/63 42/1/63
f 119/1/63 42/1/63 50/1/63
f 119/1/63 50/1/63 52/1/63
f 119/1/63 52/1/63 108/1/63
f 119/1/63 108/1/63 109/1/63
f 119/1/63 109/1/63 117/1/63
f 119/1/63 117/1/63 25/1/63
f 119/1/63 25/1/63 19/1/63
f 19/1/63 25/1/63 20/1/63
f 20/1/63 25/1/63 110/1/63
f 110/1/63 25/1/63 96/1/63
f 96/1/63 25/1/63 97/1/63
f 97/1/63 25/1/63 26/1/63
f 97/1/63 26/1/63 30/1/63
f 30/1/63 26/1/63 3/1/63
f 3/1/63 26/1/63 4/1/63
f 4/1/63 26/1/63 113/1/63
f 4/1/63 113/1/63 9/1/63
f 9/1/63 113/1/63 114/1/63
f 9/1/63 114/1/63 11/1/63
f 11/1/63 114/1/63 13/1/63
f 13/1/63 114/1/63 88/1/63
f 13/1/63 88/1/63 31/1/63
f 31/1/63 88/1/63 89/1/63
f 31/1/63 89/1/63 33/1/63
f 33/1/63 89/1/63 100/1/63
f 33/1/63 100/1/63 47/1/63
f 47/1/63 100/1/63 36/1/63
f 47/1/63 36/1/63 38/1/63
f 47/1/63 38/1/63 87/1/63
f 87/1/63 38/1/63 99/1/63
f 87/1/63 99/1/63 55/1/63
f 55/1/63 99/1/63 56/1/63
f 56/1/63 99/1/63 22/1/63
f 56/1/63 22/1/63 24/1/63
f 56/1/63 24/1/63 106/1/63
f 106/1/63 24/1/63 101/1/63
f 106/1/63 101/1/63 105/1/63
f 105/1/63 101/1/63 102/1/63
f 105/1/63 102/1/63 59/1/63
f 59/1/63 102/1/63 44/1/63
f 59/1/63 44/1/63 60/1/63
f 60/1/63 44/1/63 46/1/63
f 60/1/63 46/1/63 94/1/63
f 60/1/63 94/1/63 95/1/63
f 60/1/63 95/1/63 116/1/63
f 60/1/63 116/1/63 115/1/63
f 115/1/63 116/1/63 98/1/63
f 98/1/63 116/1/63 7/1/63
f 7/1/63 116/1/63 8/1/63
f 8/1/63 116/1/63 16/1/63
f 28/1/18 113/1/75 26/1/16
f 113/1/75 28/1/18 71/1/77
f 31/1/20 14/1/7 13/1/7
f 14/1/7 31/1/20 32/1/20
f 119/1/87 17/1/9 63/1/87
f 17/1/9 119/1/87 19/1/9

