# Created by Kenney (www.kenney.nl)

mtllib road-sign-object-warning.mtl

g road-sign-object-warning

v -0.03969206 0.007716998 -0.06021296 1 1 1
v -0.03969206 0.0602932 -0.007636753 1 1 1
v -0.03969206 -0.007556509 -0.06021296 1 1 1
v -0.03969206 -0.06013272 -0.007636753 1 1 1
v -0.03969206 0.0602932 0.007636753 1 1 1
v -0.03969206 -0.06013272 0.007636753 1 1 1
v -0.03969206 0.007716998 0.06021296 1 1 1
v -0.03969206 -0.007556509 0.06021296 1 1 1
v 0.0003079362 0.007716998 -0.06021296 1 1 1
v 0.0003079362 -0.007556509 -0.06021296 1 1 1
v 0.0003079362 0.0602932 -0.007636753 1 1 1
v 0.0003079362 -0.06013272 -0.007636753 1 1 1
v 0.0003079362 0.0602932 0.007636753 1 1 1
v 0.0003079362 -0.06013272 0.007636753 1 1 1
v 0.0003079362 0.007716998 0.06021296 1 1 1
v 0.0003079362 -0.007556509 0.06021296 1 1 1
v -0.01969206 0.00856553 -0.06690329 1 1 1
v -0.01969206 0.06698354 -0.008485282 1 1 1
v -0.01969206 -0.06682304 0.008485282 1 1 1
v -0.01969206 -0.008405037 0.06690329 1 1 1
v -0.01969206 0.06698354 0.008485282 1 1 1
v -0.01969206 0.00856553 0.06690329 1 1 1
v -0.01969206 -0.06682304 -0.008485282 1 1 1
v -0.01969206 -0.008405037 -0.06690329 1 1 1
v 0.02765397 -0.009919759 0.025 1 1 1
v 0.00015397 -0.009919759 0.025 1 1 1
v 0.02765397 0.01008024 0.025 1 1 1
v 0.00015397 0.01008024 0.025 1 1 1
v 0.03765397 0.01008024 -0.015 1 1 1
v 0.03765397 -0.009919759 -0.015 1 1 1
v 0.03765397 0.01008024 0.015 1 1 1
v 0.03765397 -0.009919759 0.015 1 1 1
v 0.00015397 -0.009919759 -0.025 1 1 1
v 0.02765397 -0.009919759 -0.025 1 1 1
v 0.00015397 0.01008024 -0.025 1 1 1
v 0.02765397 0.01008024 -0.025 1 1 1

vn -1 5.092405E-18 0
vn 1 -5.092405E-18 0
vn -0.3072521 0.3869053 -0.8694254
vn -0.310827 0.3458164 -0.8853235
vn -0.3072521 0.8694254 -0.3869053
vn -0.310827 0.8853235 -0.3458164
vn -0.310827 -0.8853235 0.3458164
vn -0.3072521 -0.8694254 0.3869053
vn -0.310827 -0.3458164 0.8853235
vn -0.3072521 -0.3869053 0.8694254
vn -0.310827 0.8853235 0.3458164
vn -0.310827 0.3458164 0.8853235
vn -0.3072521 0.8694254 0.3869053
vn -0.3072521 0.3869053 0.8694254
vn -0.310827 -0.8853235 -0.3458164
vn -0.3072521 -0.8694254 -0.3869053
vn -0.310827 -0.3458164 -0.8853235
vn -0.3072521 -0.3869053 -0.8694254
vn 0.3072521 -0.8694254 -0.3869053
vn 0.3072521 -0.3869053 -0.8694254
vn 0.310827 -0.8853235 -0.3458164
vn 0.310827 -0.3458164 -0.8853235
vn 0.3072521 0.8694254 0.3869053
vn 0.3072521 0.3869053 0.8694254
vn 0.310827 0.8853235 0.3458164
vn 0.310827 0.3458164 0.8853235
vn 0.310827 -0.8853235 0.3458164
vn 0.310827 -0.3458164 0.8853235
vn 0.3072521 -0.8694254 0.3869053
vn 0.3072521 -0.3869053 0.8694254
vn 0.3072521 0.3869053 -0.8694254
vn 0.3072521 0.8694254 -0.3869053
vn 0.310827 0.3458164 -0.8853235
vn 0.310827 0.8853235 -0.3458164
vn 0.3826834 0 0.9238795
vn 0 0 1
vn 0.9238795 0 -0.3826834
vn 0.9238795 0 0.3826834
vn 0 0 -1
vn 0.3826834 0 -0.9238795
vn 0 -1 0
vn 0 1 0

vt 0.71875 0.1283614
vt 0.71875 0.2140909
vt 0.71875 0.1034568
vt 0.71875 0.025
vt 0.34375 0.1283614
vt 0.34375 0.1034568
vt 0.34375 0.2140909
vt 0.34375 0.025
vt 0.34375 0.129745
vt 0.34375 0.225
vt 0.34375 0.1020732

usemtl colormap

f 3/3/1 2/2/1 1/1/1
f 2/2/1 3/3/1 4/4/1
f 2/2/1 4/4/1 5/2/1
f 5/2/1 4/4/1 6/4/1
f 5/2/1 6/4/1 7/1/1
f 7/1/1 6/4/1 8/3/1
f 11/7/2 10/6/2 9/5/2
f 10/6/2 11/7/2 12/8/2
f 12/8/2 11/7/2 13/7/2
f 12/8/2 13/7/2 14/8/2
f 14/8/2 13/7/2 15/5/2
f 14/8/2 15/5/2 16/6/2
f 2/7/5 17/9/4 1/5/3
f 17/9/4 2/7/5 18/10/6
f 20/11/9 6/8/8 19/8/7
f 6/8/8 20/11/9 8/6/10
f 5/7/13 22/9/12 21/10/11
f 22/9/12 5/7/13 7/5/14
f 2/7/5 21/10/11 18/10/6
f 21/10/11 2/7/5 5/7/13
f 22/9/12 8/6/10 20/11/9
f 8/6/10 22/9/12 7/5/14
f 6/8/8 23/8/15 19/8/7
f 23/8/15 6/8/8 4/8/16
f 4/8/16 24/11/17 23/8/15
f 24/11/17 4/8/16 3/6/18
f 3/6/18 17/9/4 24/11/17
f 17/9/4 3/6/18 1/5/3
f 23/8/21 10/6/20 12/8/19
f 10/6/20 23/8/21 24/11/22
f 21/10/25 15/5/24 13/7/23
f 15/5/24 21/10/25 22/9/26
f 14/8/29 20/11/28 19/8/27
f 20/11/28 14/8/29 16/6/30
f 17/9/33 11/7/32 9/5/31
f 11/7/32 17/9/33 18/10/34
f 17/9/33 10/6/20 24/11/22
f 10/6/20 17/9/33 9/5/31
f 18/10/34 13/7/23 11/7/32
f 13/7/23 18/10/34 21/10/25
f 16/6/30 22/9/26 20/11/28
f 22/9/26 16/6/30 15/5/24
f 19/8/27 12/8/19 14/8/29
f 12/8/19 19/8/27 23/8/21
f 27/10/35 26/8/36 25/8/35
f 26/8/36 27/10/35 28/10/36
f 31/10/38 30/8/37 29/10/37
f 30/8/37 31/10/38 32/8/38
f 35/10/39 34/8/40 33/8/39
f 34/8/40 35/10/39 36/10/40
f 36/10/40 30/8/37 34/8/40
f 30/8/37 36/10/40 29/10/37
f 31/10/38 25/8/35 32/8/38
f 25/8/35 31/10/38 27/10/35
f 25/8/41 30/8/41 32/8/41
f 30/8/41 25/8/41 34/8/41
f 34/8/41 25/8/41 26/8/41
f 34/8/41 26/8/41 33/8/41
f 36/10/42 31/10/42 29/10/42
f 31/10/42 36/10/42 27/10/42
f 27/10/42 36/10/42 35/10/42
f 27/10/42 35/10/42 28/10/42

g road-sign-object-warning




usemtl colormap

f 3/3/1 2/2/1 1/1/1
f 2/2/1 3/3/1 4/4/1
f 2/2/1 4/4/1 5/2/1
f 5/2/1 4/4/1 6/4/1
f 5/2/1 6/4/1 7/1/1
f 7/1/1 6/4/1 8/3/1
f 11/7/2 10/6/2 9/5/2
f 10/6/2 11/7/2 12/8/2
f 12/8/2 11/7/2 13/7/2
f 12/8/2 13/7/2 14/8/2
f 14/8/2 13/7/2 15/5/2
f 14/8/2 15/5/2 16/6/2
f 2/7/5 17/9/4 1/5/3
f 17/9/4 2/7/5 18/10/6
f 20/11/9 6/8/8 19/8/7
f 6/8/8 20/11/9 8/6/10
f 5/7/13 22/9/12 21/10/11
f 22/9/12 5/7/13 7/5/14
f 2/7/5 21/10/11 18/10/6
f 21/10/11 2/7/5 5/7/13
f 22/9/12 8/6/10 20/11/9
f 8/6/10 22/9/12 7/5/14
f 6/8/8 23/8/15 19/8/7
f 23/8/15 6/8/8 4/8/16
f 4/8/16 24/11/17 23/8/15
f 24/11/17 4/8/16 3/6/18
f 3/6/18 17/9/4 24/11/17
f 17/9/4 3/6/18 1/5/3
f 23/8/21 10/6/20 12/8/19
f 10/6/20 23/8/21 24/11/22
f 21/10/25 15/5/24 13/7/23
f 15/5/24 21/10/25 22/9/26
f 14/8/29 20/11/28 19/8/27
f 20/11/28 14/8/29 16/6/30
f 17/9/33 11/7/32 9/5/31
f 11/7/32 17/9/33 18/10/34
f 17/9/33 10/6/20 24/11/22
f 10/6/20 17/9/33 9/5/31
f 18/10/34 13/7/23 11/7/32
f 13/7/23 18/10/34 21/10/25
f 16/6/30 22/9/26 20/11/28
f 22/9/26 16/6/30 15/5/24
f 19/8/27 12/8/19 14/8/29
f 12/8/19 19/8/27 23/8/21
f 27/10/35 26/8/36 25/8/35
f 26/8/36 27/10/35 28/10/36
f 31/10/38 30/8/37 29/10/37
f 30/8/37 31/10/38 32/8/38
f 35/10/39 34/8/40 33/8/39
f 34/8/40 35/10/39 36/10/40
f 36/10/40 30/8/37 34/8/40
f 30/8/37 36/10/40 29/10/37
f 31/10/38 25/8/35 32/8/38
f 25/8/35 31/10/38 27/10/35
f 25/8/41 30/8/41 32/8/41
f 30/8/41 25/8/41 34/8/41
f 34/8/41 25/8/41 26/8/41
f 34/8/41 26/8/41 33/8/41
f 36/10/42 31/10/42 29/10/42
f 31/10/42 36/10/42 27/10/42
f 27/10/42 36/10/42 35/10/42
f 27/10/42 35/10/42 28/10/42

