# Created by Kenney (www.kenney.nl)

mtllib road-bridge.mtl

g road-bridge

v -0.3999998 0.02 0.5000001 1 1 1
v -0.4999998 0.02 0.5000001 1 1 1
v -0.3999998 0.06 0.5000001 1 1 1
v -0.4999998 0.06 0.5000001 1 1 1
v -0.4999998 0.02 0.4 1 1 1
v -0.4999998 0.06 0.4 1 1 1
v -0.3999998 0.06 0.4 1 1 1
v -0.3999998 0.02 0.4 1 1 1
v -0.4774998 0.12 0.4225 1 1 1
v -0.4224998 0.12 0.4225 1 1 1
v -0.4774998 0.12 0.4775001 1 1 1
v -0.4224998 0.12 0.4775001 1 1 1
v -0.4124998 0.42 0.4875 1 1 1
v -0.4124998 0.42 0.4125001 1 1 1
v -0.4874998 0.42 0.4875 1 1 1
v -0.4874998 0.42 0.4125001 1 1 1
v -0.4124998 0.45 0.4875 1 1 1
v -0.4874998 0.45 0.4875 1 1 1
v -0.4124998 0.45 0.4125001 1 1 1
v -0.4874998 0.45 0.4125001 1 1 1
v 0.4999998 0.02 0.5000001 1 1 1
v 0.3999998 0.02 0.5000001 1 1 1
v 0.4999998 0.06 0.5000001 1 1 1
v 0.3999998 0.06 0.5000001 1 1 1
v 0.3999998 0.02 0.4 1 1 1
v 0.3999998 0.06 0.4 1 1 1
v 0.4999998 0.06 0.4 1 1 1
v 0.4999998 0.02 0.4 1 1 1
v 0.4224998 0.12 0.4225 1 1 1
v 0.4774998 0.12 0.4225 1 1 1
v 0.4224998 0.12 0.4775001 1 1 1
v 0.4774998 0.12 0.4775001 1 1 1
v 0.4874998 0.42 0.4875 1 1 1
v 0.4874998 0.42 0.4125001 1 1 1
v 0.4124998 0.42 0.4875 1 1 1
v 0.4124998 0.42 0.4125001 1 1 1
v 0.4874998 0.45 0.4875 1 1 1
v 0.4124998 0.45 0.4875 1 1 1
v 0.4874998 0.45 0.4125001 1 1 1
v 0.4124998 0.45 0.4125001 1 1 1
v 0.4999998 0.02 -0.4 1 1 1
v 0.3999998 0.02 -0.4 1 1 1
v 0.4999998 0.06 -0.4 1 1 1
v 0.3999998 0.06 -0.4 1 1 1
v 0.3999998 0.02 -0.5000001 1 1 1
v 0.3999998 0.06 -0.5000001 1 1 1
v 0.4999998 0.06 -0.5000001 1 1 1
v 0.4999998 0.02 -0.5000001 1 1 1
v 0.4224998 0.12 -0.4775001 1 1 1
v 0.4774998 0.12 -0.4775001 1 1 1
v 0.4224998 0.12 -0.4225 1 1 1
v 0.4774998 0.12 -0.4225 1 1 1
v -0.4124998 0.42 -0.4125001 1 1 1
v -0.4124998 0.42 -0.4875 1 1 1
v -0.4874998 0.42 -0.4125001 1 1 1
v -0.4874998 0.42 -0.4875 1 1 1
v -0.4124998 0.45 -0.4125001 1 1 1
v -0.4874998 0.45 -0.4125001 1 1 1
v -0.4124998 0.45 -0.4875 1 1 1
v -0.4874998 0.45 -0.4875 1 1 1
v 0.4874998 0.42 -0.4125001 1 1 1
v 0.4874998 0.42 -0.4875 1 1 1
v 0.4124998 0.42 -0.4125001 1 1 1
v 0.4124998 0.42 -0.4875 1 1 1
v 0.4874998 0.45 -0.4125001 1 1 1
v 0.4124998 0.45 -0.4125001 1 1 1
v 0.4874998 0.45 -0.4875 1 1 1
v 0.4124998 0.45 -0.4875 1 1 1
v -0.3999998 0.02 -0.4 1 1 1
v -0.4999998 0.02 -0.4 1 1 1
v -0.3999998 0.06 -0.4 1 1 1
v -0.4999998 0.06 -0.4 1 1 1
v -0.4999998 0.02 -0.5000001 1 1 1
v -0.4999998 0.06 -0.5000001 1 1 1
v -0.3999998 0.06 -0.5000001 1 1 1
v -0.3999998 0.02 -0.5000001 1 1 1
v -0.4774998 0.12 -0.4775001 1 1 1
v -0.4224998 0.12 -0.4775001 1 1 1
v -0.4774998 0.12 -0.4225 1 1 1
v -0.4224998 0.12 -0.4225 1 1 1
v 0.5 0.02 0.4 1 1 1
v 0.5 0.01 0.4 1 1 1
v 0.5 0.02 0.5 1 1 1
v 0.5 0 0.5 1 1 1
v 0.5 0.01 0.3 1 1 1
v 0.5 0.01 0.01 1 1 1
v 0.5 0.01 -0.01 1 1 1
v 0.5 0.01 -0.3 1 1 1
v 0.5 0.01 -0.4 1 1 1
v 0.5 0 -0.5 1 1 1
v 0.5 0.02 -0.4 1 1 1
v 0.5 0.02 -0.5 1 1 1
v -0.5 0.02 0.5 1 1 1
v -0.5 0 0.5 1 1 1
v -0.5 0.02 0.4 1 1 1
v -0.5 0.01 0.4 1 1 1
v -0.5 0.01 0.3 1 1 1
v -0.5 0.01 0.01 1 1 1
v -0.5 0.01 -0.01 1 1 1
v -0.5 0.01 -0.3 1 1 1
v -0.5 0.01 -0.4 1 1 1
v -0.5 0 -0.5 1 1 1
v -0.5 0.02 -0.5 1 1 1
v -0.5 0.02 -0.4 1 1 1
v -0.5000003 0.52 -0.5000004 1 1 1
v -0.5000003 0.45 -0.5000004 1 1 1
v -0.4000002 0.52 -0.5000004 1 1 1
v -0.4000002 0.51 -0.5000004 1 1 1
v -0.3000002 0.51 -0.5000004 1 1 1
v -0.0100001 0.51 -0.5000003 1 1 1
v 0.009999909 0.51 -0.5000003 1 1 1
v 0.3 0.51 -0.5000002 1 1 1
v 0.4000001 0.51 -0.5000002 1 1 1
v 0.5000001 0.45 -0.5000002 1 1 1
v 0.5000001 0.52 -0.5000002 1 1 1
v 0.4000001 0.52 -0.5000002 1 1 1
v -0.4000004 0.52 0.5 1 1 1
v -0.4000004 0.51 0.5 1 1 1
v -0.5000004 0.52 0.5 1 1 1
v -0.5000004 0.45 0.5 1 1 1
v -0.3000003 0.51 0.5 1 1 1
v -0.01000022 0.51 0.5000001 1 1 1
v 0.00999979 0.51 0.5000001 1 1 1
v 0.2999999 0.51 0.5000001 1 1 1
v 0.3999999 0.51 0.5000001 1 1 1
v 0.4999999 0.45 0.5000001 1 1 1
v 0.3999999 0.52 0.5000001 1 1 1
v 0.4999999 0.52 0.5000001 1 1 1
v -0.4224998 0.42 0.4225 1 1 1
v -0.4224998 0.42 0.4775001 1 1 1
v -0.4774998 0.42 0.4775001 1 1 1
v -0.4774998 0.42 0.4225 1 1 1
v 0.4774998 0.42 0.4225 1 1 1
v 0.4774998 0.42 0.4775001 1 1 1
v 0.4224998 0.42 0.4775001 1 1 1
v 0.4224998 0.42 0.4225 1 1 1
v 0.4774998 0.42 -0.4775001 1 1 1
v 0.4774998 0.42 -0.4225 1 1 1
v 0.4224998 0.42 -0.4225 1 1 1
v 0.4224998 0.42 -0.4775001 1 1 1
v -0.4224998 0.42 -0.4775001 1 1 1
v -0.4224998 0.42 -0.4225 1 1 1
v -0.4774998 0.42 -0.4225 1 1 1
v -0.4774998 0.42 -0.4775001 1 1 1

vn 0 0 1
vn 0 0.1568997 0.9876145
vn -1 0 0
vn -0.9876145 0.1568997 0
vn 0.9876145 0.1568997 0
vn 1 0 0
vn 0 -1 0
vn 0 0 -1
vn 0 0.1568997 -0.9876145
vn 0 0.3511235 -0.9363292
vn -0.9363292 0.3511235 0
vn 0.9363292 0.3511235 0
vn 0 0.3511235 0.9363292
vn 0 1 0
vn 1.192093E-07 0 -1
vn -1.192093E-07 0 1
vn 1 0 1.192093E-07
vn -1 0 -1.192093E-07

vt 0.34375 0.075
vt 0.34375 0.115
vt 0.34375 0.175
vt 0.34375 0.225
vt 0.34375 0.125
vt 0.34375 0.025
vt 0.28125 0.125
vt 0.46875 0.425
vt 0.46875 0.325
vt 0.46875 0.375
vt 0.46875 0.475
vt 0.46875 0.275
vt 0.03125 0.125
vt 0.40625 0.125

usemtl colormap

f 3/2/2 2/1/1 1/1/1
f 2/1/1 3/2/2 4/2/2
f 2/1/3 6/2/4 5/1/3
f 6/2/4 2/1/3 4/2/4
f 3/2/5 8/1/6 7/2/5
f 8/1/6 3/2/5 1/1/6
f 2/1/7 8/1/7 1/1/7
f 8/1/7 2/1/7 5/1/7
f 6/2/9 8/1/8 5/1/8
f 8/1/8 6/2/9 7/2/9
f 9/3/10 7/2/9 6/2/9
f 7/2/9 9/3/10 10/3/10
f 4/2/4 9/3/11 6/2/4
f 9/3/11 4/2/4 11/3/11
f 10/3/12 3/2/5 7/2/5
f 3/2/5 10/3/12 12/3/12
f 12/3/13 4/2/2 3/2/2
f 4/2/2 12/3/13 11/3/13
f 15/1/7 14/1/7 13/1/7
f 14/1/7 15/1/7 16/1/7
f 19/3/14 18/3/14 17/3/14
f 18/3/14 19/3/14 20/3/14
f 17/3/6 14/1/6 19/3/6
f 14/1/6 17/3/6 13/1/6
f 17/3/1 15/1/1 13/1/1
f 15/1/1 17/3/1 18/3/1
f 15/1/3 20/3/3 16/1/3
f 20/3/3 15/1/3 18/3/3
f 20/3/8 14/1/8 16/1/8
f 14/1/8 20/3/8 19/3/8
f 23/2/2 22/1/1 21/1/1
f 22/1/1 23/2/2 24/2/2
f 22/1/3 26/2/4 25/1/3
f 26/2/4 22/1/3 24/2/4
f 23/2/5 28/1/6 27/2/5
f 28/1/6 23/2/5 21/1/6
f 22/1/7 28/1/7 21/1/7
f 28/1/7 22/1/7 25/1/7
f 26/2/9 28/1/8 25/1/8
f 28/1/8 26/2/9 27/2/9
f 29/3/10 27/2/9 26/2/9
f 27/2/9 29/3/10 30/3/10
f 24/2/4 29/3/11 26/2/4
f 29/3/11 24/2/4 31/3/11
f 30/3/12 23/2/5 27/2/5
f 23/2/5 30/3/12 32/3/12
f 32/3/13 24/2/2 23/2/2
f 24/2/2 32/3/13 31/3/13
f 35/1/7 34/1/7 33/1/7
f 34/1/7 35/1/7 36/1/7
f 39/3/14 38/3/14 37/3/14
f 38/3/14 39/3/14 40/3/14
f 37/3/6 34/1/6 39/3/6
f 34/1/6 37/3/6 33/1/6
f 37/3/1 35/1/1 33/1/1
f 35/1/1 37/3/1 38/3/1
f 35/1/3 40/3/3 36/1/3
f 40/3/3 35/1/3 38/3/3
f 40/3/8 34/1/8 36/1/8
f 34/1/8 40/3/8 39/3/8
f 43/2/2 42/1/1 41/1/1
f 42/1/1 43/2/2 44/2/2
f 42/1/3 46/2/4 45/1/3
f 46/2/4 42/1/3 44/2/4
f 43/2/5 48/1/6 47/2/5
f 48/1/6 43/2/5 41/1/6
f 42/1/7 48/1/7 41/1/7
f 48/1/7 42/1/7 45/1/7
f 46/2/9 48/1/8 45/1/8
f 48/1/8 46/2/9 47/2/9
f 49/3/10 47/2/9 46/2/9
f 47/2/9 49/3/10 50/3/10
f 44/2/4 49/3/11 46/2/4
f 49/3/11 44/2/4 51/3/11
f 50/3/12 43/2/5 47/2/5
f 43/2/5 50/3/12 52/3/12
f 52/3/13 44/2/2 43/2/2
f 44/2/2 52/3/13 51/3/13
f 55/1/7 54/1/7 53/1/7
f 54/1/7 55/1/7 56/1/7
f 59/3/14 58/3/14 57/3/14
f 58/3/14 59/3/14 60/3/14
f 57/3/6 54/1/6 59/3/6
f 54/1/6 57/3/6 53/1/6
f 57/3/1 55/1/1 53/1/1
f 55/1/1 57/3/1 58/3/1
f 55/1/3 60/3/3 56/1/3
f 60/3/3 55/1/3 58/3/3
f 60/3/8 54/1/8 56/1/8
f 54/1/8 60/3/8 59/3/8
f 63/1/7 62/1/7 61/1/7
f 62/1/7 63/1/7 64/1/7
f 67/3/14 66/3/14 65/3/14
f 66/3/14 67/3/14 68/3/14
f 65/3/6 62/1/6 67/3/6
f 62/1/6 65/3/6 61/1/6
f 65/3/1 63/1/1 61/1/1
f 63/1/1 65/3/1 66/3/1
f 63/1/3 68/3/3 64/1/3
f 68/3/3 63/1/3 66/3/3
f 68/3/8 62/1/8 64/1/8
f 62/1/8 68/3/8 67/3/8
f 71/2/2 70/1/1 69/1/1
f 70/1/1 71/2/2 72/2/2
f 70/1/3 74/2/4 73/1/3
f 74/2/4 70/1/3 72/2/4
f 71/2/5 76/1/6 75/2/5
f 76/1/6 71/2/5 69/1/6
f 70/1/7 76/1/7 69/1/7
f 76/1/7 70/1/7 73/1/7
f 74/2/9 76/1/8 73/1/8
f 76/1/8 74/2/9 75/2/9
f 77/3/10 75/2/9 74/2/9
f 75/2/9 77/3/10 78/3/10
f 72/2/4 77/3/11 74/2/4
f 77/3/11 72/2/4 79/3/11
f 78/3/12 71/2/5 75/2/5
f 71/2/5 78/3/12 80/3/12
f 80/3/13 72/2/2 71/2/2
f 72/2/2 80/3/13 79/3/13
f 83/4/6 82/5/6 81/4/6
f 84/6/6 82/5/6 83/4/6
f 84/6/6 85/5/6 82/5/6
f 84/6/6 86/5/6 85/5/6
f 84/6/6 87/5/6 86/5/6
f 84/6/6 88/5/6 87/5/6
f 84/6/6 89/5/6 88/5/6
f 90/6/6 89/5/6 84/6/6
f 90/6/6 91/4/6 89/5/6
f 91/4/6 90/6/6 92/4/6
f 95/4/3 94/6/3 93/4/3
f 96/5/3 94/6/3 95/4/3
f 97/5/3 94/6/3 96/5/3
f 98/5/3 94/6/3 97/5/3
f 99/5/3 94/6/3 98/5/3
f 100/5/3 94/6/3 99/5/3
f 101/5/3 94/6/3 100/5/3
f 101/5/3 102/6/3 94/6/3
f 102/6/3 101/5/3 103/4/3
f 104/4/3 103/4/3 101/5/3
f 86/7/14 97/7/14 85/7/14
f 97/7/14 86/7/14 98/7/14
f 100/7/14 87/7/14 88/7/14
f 87/7/14 100/7/14 99/7/14
f 107/4/15 106/6/15 105/4/15
f 108/5/15 106/6/15 107/4/15
f 109/5/15 106/6/15 108/5/15
f 110/5/15 106/6/15 109/5/15
f 111/5/15 106/6/15 110/5/15
f 112/5/15 106/6/15 111/5/15
f 113/5/15 106/6/15 112/5/15
f 113/5/15 114/6/15 106/6/15
f 114/6/15 113/5/15 115/4/15
f 116/4/15 115/4/15 113/5/15
f 119/4/16 118/5/16 117/4/16
f 120/6/16 118/5/16 119/4/16
f 120/6/16 121/5/16 118/5/16
f 120/6/16 122/5/16 121/5/16
f 120/6/16 123/5/16 122/5/16
f 120/6/16 124/5/16 123/5/16
f 120/6/16 125/5/16 124/5/16
f 126/6/16 125/5/16 120/6/16
f 126/6/16 127/4/16 125/5/16
f 127/4/16 126/6/16 128/4/16
f 122/7/14 109/7/14 121/7/14
f 109/7/14 122/7/14 110/7/14
f 112/7/14 123/7/14 124/7/14
f 123/7/14 112/7/14 111/7/14
f 130/8/6 10/9/6 129/8/6
f 10/9/6 130/8/6 12/9/6
f 130/8/1 11/9/1 12/9/1
f 11/9/1 130/8/1 131/8/1
f 11/9/3 132/8/3 9/9/3
f 132/8/3 11/9/3 131/8/3
f 132/8/8 10/9/8 9/9/8
f 10/9/8 132/8/8 129/8/8
f 134/8/6 30/9/6 133/8/6
f 30/9/6 134/8/6 32/9/6
f 134/8/1 31/9/1 32/9/1
f 31/9/1 134/8/1 135/8/1
f 31/9/3 136/8/3 29/9/3
f 136/8/3 31/9/3 135/8/3
f 136/8/8 30/9/8 29/9/8
f 30/9/8 136/8/8 133/8/8
f 138/8/6 50/9/6 137/8/6
f 50/9/6 138/8/6 52/9/6
f 138/8/1 51/9/1 52/9/1
f 51/9/1 138/8/1 139/8/1
f 51/9/3 140/8/3 49/9/3
f 140/8/3 51/9/3 139/8/3
f 140/8/8 50/9/8 49/9/8
f 50/9/8 140/8/8 137/8/8
f 142/8/6 78/9/6 141/8/6
f 78/9/6 142/8/6 80/9/6
f 142/8/1 79/9/1 80/9/1
f 79/9/1 142/8/1 143/8/1
f 79/9/3 144/8/3 77/9/3
f 144/8/3 79/9/3 143/8/3
f 144/8/8 78/9/8 77/9/8
f 78/9/8 144/8/8 141/8/8
f 91/11/1 101/10/1 89/10/1
f 101/10/1 91/11/1 104/11/1
f 103/11/8 90/12/8 102/12/8
f 90/12/8 103/11/8 92/11/8
f 95/11/8 82/10/8 96/10/8
f 82/10/8 95/11/8 81/11/8
f 94/12/7 90/12/7 84/12/7
f 90/12/7 94/12/7 102/12/7
f 103/11/14 91/11/14 92/11/14
f 91/11/14 103/11/14 104/11/14
f 83/11/1 94/12/1 84/12/1
f 94/12/1 83/11/1 93/11/1
f 95/11/14 83/11/14 81/11/14
f 83/11/14 95/11/14 93/11/14
f 115/11/14 127/11/14 128/11/14
f 127/11/14 115/11/14 116/11/14
f 107/11/17 118/10/17 108/10/17
f 118/10/17 107/11/17 117/11/17
f 127/11/18 113/10/18 125/10/18
f 113/10/18 127/11/18 116/11/18
f 115/11/17 126/12/17 114/12/17
f 126/12/17 115/11/17 128/11/17
f 120/12/7 114/12/7 126/12/7
f 114/12/7 120/12/7 106/12/7
f 107/11/14 119/11/14 117/11/14
f 119/11/14 107/11/14 105/11/14
f 119/11/18 106/12/18 120/12/18
f 106/12/18 119/11/18 105/11/18
f 101/13/14 88/13/14 89/13/14
f 88/13/14 101/13/14 100/13/14
f 97/13/14 82/13/14 85/13/14
f 82/13/14 97/13/14 96/13/14
f 113/13/14 124/13/14 125/13/14
f 124/13/14 113/13/14 112/13/14
f 109/13/14 118/13/14 121/13/14
f 118/13/14 109/13/14 108/13/14
f 99/14/14 86/14/14 87/14/14
f 86/14/14 99/14/14 98/14/14
f 111/14/14 122/14/14 123/14/14
f 122/14/14 111/14/14 110/14/14

g road-bridge




usemtl colormap

f 3/2/2 2/1/1 1/1/1
f 2/1/1 3/2/2 4/2/2
f 2/1/3 6/2/4 5/1/3
f 6/2/4 2/1/3 4/2/4
f 3/2/5 8/1/6 7/2/5
f 8/1/6 3/2/5 1/1/6
f 2/1/7 8/1/7 1/1/7
f 8/1/7 2/1/7 5/1/7
f 6/2/9 8/1/8 5/1/8
f 8/1/8 6/2/9 7/2/9
f 9/3/10 7/2/9 6/2/9
f 7/2/9 9/3/10 10/3/10
f 4/2/4 9/3/11 6/2/4
f 9/3/11 4/2/4 11/3/11
f 10/3/12 3/2/5 7/2/5
f 3/2/5 10/3/12 12/3/12
f 12/3/13 4/2/2 3/2/2
f 4/2/2 12/3/13 11/3/13
f 15/1/7 14/1/7 13/1/7
f 14/1/7 15/1/7 16/1/7
f 19/3/14 18/3/14 17/3/14
f 18/3/14 19/3/14 20/3/14
f 17/3/6 14/1/6 19/3/6
f 14/1/6 17/3/6 13/1/6
f 17/3/1 15/1/1 13/1/1
f 15/1/1 17/3/1 18/3/1
f 15/1/3 20/3/3 16/1/3
f 20/3/3 15/1/3 18/3/3
f 20/3/8 14/1/8 16/1/8
f 14/1/8 20/3/8 19/3/8
f 23/2/2 22/1/1 21/1/1
f 22/1/1 23/2/2 24/2/2
f 22/1/3 26/2/4 25/1/3
f 26/2/4 22/1/3 24/2/4
f 23/2/5 28/1/6 27/2/5
f 28/1/6 23/2/5 21/1/6
f 22/1/7 28/1/7 21/1/7
f 28/1/7 22/1/7 25/1/7
f 26/2/9 28/1/8 25/1/8
f 28/1/8 26/2/9 27/2/9
f 29/3/10 27/2/9 26/2/9
f 27/2/9 29/3/10 30/3/10
f 24/2/4 29/3/11 26/2/4
f 29/3/11 24/2/4 31/3/11
f 30/3/12 23/2/5 27/2/5
f 23/2/5 30/3/12 32/3/12
f 32/3/13 24/2/2 23/2/2
f 24/2/2 32/3/13 31/3/13
f 35/1/7 34/1/7 33/1/7
f 34/1/7 35/1/7 36/1/7
f 39/3/14 38/3/14 37/3/14
f 38/3/14 39/3/14 40/3/14
f 37/3/6 34/1/6 39/3/6
f 34/1/6 37/3/6 33/1/6
f 37/3/1 35/1/1 33/1/1
f 35/1/1 37/3/1 38/3/1
f 35/1/3 40/3/3 36/1/3
f 40/3/3 35/1/3 38/3/3
f 40/3/8 34/1/8 36/1/8
f 34/1/8 40/3/8 39/3/8
f 43/2/2 42/1/1 41/1/1
f 42/1/1 43/2/2 44/2/2
f 42/1/3 46/2/4 45/1/3
f 46/2/4 42/1/3 44/2/4
f 43/2/5 48/1/6 47/2/5
f 48/1/6 43/2/5 41/1/6
f 42/1/7 48/1/7 41/1/7
f 48/1/7 42/1/7 45/1/7
f 46/2/9 48/1/8 45/1/8
f 48/1/8 46/2/9 47/2/9
f 49/3/10 47/2/9 46/2/9
f 47/2/9 49/3/10 50/3/10
f 44/2/4 49/3/11 46/2/4
f 49/3/11 44/2/4 51/3/11
f 50/3/12 43/2/5 47/2/5
f 43/2/5 50/3/12 52/3/12
f 52/3/13 44/2/2 43/2/2
f 44/2/2 52/3/13 51/3/13
f 55/1/7 54/1/7 53/1/7
f 54/1/7 55/1/7 56/1/7
f 59/3/14 58/3/14 57/3/14
f 58/3/14 59/3/14 60/3/14
f 57/3/6 54/1/6 59/3/6
f 54/1/6 57/3/6 53/1/6
f 57/3/1 55/1/1 53/1/1
f 55/1/1 57/3/1 58/3/1
f 55/1/3 60/3/3 56/1/3
f 60/3/3 55/1/3 58/3/3
f 60/3/8 54/1/8 56/1/8
f 54/1/8 60/3/8 59/3/8
f 63/1/7 62/1/7 61/1/7
f 62/1/7 63/1/7 64/1/7
f 67/3/14 66/3/14 65/3/14
f 66/3/14 67/3/14 68/3/14
f 65/3/6 62/1/6 67/3/6
f 62/1/6 65/3/6 61/1/6
f 65/3/1 63/1/1 61/1/1
f 63/1/1 65/3/1 66/3/1
f 63/1/3 68/3/3 64/1/3
f 68/3/3 63/1/3 66/3/3
f 68/3/8 62/1/8 64/1/8
f 62/1/8 68/3/8 67/3/8
f 71/2/2 70/1/1 69/1/1
f 70/1/1 71/2/2 72/2/2
f 70/1/3 74/2/4 73/1/3
f 74/2/4 70/1/3 72/2/4
f 71/2/5 76/1/6 75/2/5
f 76/1/6 71/2/5 69/1/6
f 70/1/7 76/1/7 69/1/7
f 76/1/7 70/1/7 73/1/7
f 74/2/9 76/1/8 73/1/8
f 76/1/8 74/2/9 75/2/9
f 77/3/10 75/2/9 74/2/9
f 75/2/9 77/3/10 78/3/10
f 72/2/4 77/3/11 74/2/4
f 77/3/11 72/2/4 79/3/11
f 78/3/12 71/2/5 75/2/5
f 71/2/5 78/3/12 80/3/12
f 80/3/13 72/2/2 71/2/2
f 72/2/2 80/3/13 79/3/13
f 83/4/6 82/5/6 81/4/6
f 84/6/6 82/5/6 83/4/6
f 84/6/6 85/5/6 82/5/6
f 84/6/6 86/5/6 85/5/6
f 84/6/6 87/5/6 86/5/6
f 84/6/6 88/5/6 87/5/6
f 84/6/6 89/5/6 88/5/6
f 90/6/6 89/5/6 84/6/6
f 90/6/6 91/4/6 89/5/6
f 91/4/6 90/6/6 92/4/6
f 95/4/3 94/6/3 93/4/3
f 96/5/3 94/6/3 95/4/3
f 97/5/3 94/6/3 96/5/3
f 98/5/3 94/6/3 97/5/3
f 99/5/3 94/6/3 98/5/3
f 100/5/3 94/6/3 99/5/3
f 101/5/3 94/6/3 100/5/3
f 101/5/3 102/6/3 94/6/3
f 102/6/3 101/5/3 103/4/3
f 104/4/3 103/4/3 101/5/3
f 86/7/14 97/7/14 85/7/14
f 97/7/14 86/7/14 98/7/14
f 100/7/14 87/7/14 88/7/14
f 87/7/14 100/7/14 99/7/14
f 107/4/15 106/6/15 105/4/15
f 108/5/15 106/6/15 107/4/15
f 109/5/15 106/6/15 108/5/15
f 110/5/15 106/6/15 109/5/15
f 111/5/15 106/6/15 110/5/15
f 112/5/15 106/6/15 111/5/15
f 113/5/15 106/6/15 112/5/15
f 113/5/15 114/6/15 106/6/15
f 114/6/15 113/5/15 115/4/15
f 116/4/15 115/4/15 113/5/15
f 119/4/16 118/5/16 117/4/16
f 120/6/16 118/5/16 119/4/16
f 120/6/16 121/5/16 118/5/16
f 120/6/16 122/5/16 121/5/16
f 120/6/16 123/5/16 122/5/16
f 120/6/16 124/5/16 123/5/16
f 120/6/16 125/5/16 124/5/16
f 126/6/16 125/5/16 120/6/16
f 126/6/16 127/4/16 125/5/16
f 127/4/16 126/6/16 128/4/16
f 122/7/14 109/7/14 121/7/14
f 109/7/14 122/7/14 110/7/14
f 112/7/14 123/7/14 124/7/14
f 123/7/14 112/7/14 111/7/14
f 130/8/6 10/9/6 129/8/6
f 10/9/6 130/8/6 12/9/6
f 130/8/1 11/9/1 12/9/1
f 11/9/1 130/8/1 131/8/1
f 11/9/3 132/8/3 9/9/3
f 132/8/3 11/9/3 131/8/3
f 132/8/8 10/9/8 9/9/8
f 10/9/8 132/8/8 129/8/8
f 134/8/6 30/9/6 133/8/6
f 30/9/6 134/8/6 32/9/6
f 134/8/1 31/9/1 32/9/1
f 31/9/1 134/8/1 135/8/1
f 31/9/3 136/8/3 29/9/3
f 136/8/3 31/9/3 135/8/3
f 136/8/8 30/9/8 29/9/8
f 30/9/8 136/8/8 133/8/8
f 138/8/6 50/9/6 137/8/6
f 50/9/6 138/8/6 52/9/6
f 138/8/1 51/9/1 52/9/1
f 51/9/1 138/8/1 139/8/1
f 51/9/3 140/8/3 49/9/3
f 140/8/3 51/9/3 139/8/3
f 140/8/8 50/9/8 49/9/8
f 50/9/8 140/8/8 137/8/8
f 142/8/6 78/9/6 141/8/6
f 78/9/6 142/8/6 80/9/6
f 142/8/1 79/9/1 80/9/1
f 79/9/1 142/8/1 143/8/1
f 79/9/3 144/8/3 77/9/3
f 144/8/3 79/9/3 143/8/3
f 144/8/8 78/9/8 77/9/8
f 78/9/8 144/8/8 141/8/8
f 91/11/1 101/10/1 89/10/1
f 101/10/1 91/11/1 104/11/1
f 103/11/8 90/12/8 102/12/8
f 90/12/8 103/11/8 92/11/8
f 95/11/8 82/10/8 96/10/8
f 82/10/8 95/11/8 81/11/8
f 94/12/7 90/12/7 84/12/7
f 90/12/7 94/12/7 102/12/7
f 103/11/14 91/11/14 92/11/14
f 91/11/14 103/11/14 104/11/14
f 83/11/1 94/12/1 84/12/1
f 94/12/1 83/11/1 93/11/1
f 95/11/14 83/11/14 81/11/14
f 83/11/14 95/11/14 93/11/14
f 115/11/14 127/11/14 128/11/14
f 127/11/14 115/11/14 116/11/14
f 107/11/17 118/10/17 108/10/17
f 118/10/17 107/11/17 117/11/17
f 127/11/18 113/10/18 125/10/18
f 113/10/18 127/11/18 116/11/18
f 115/11/17 126/12/17 114/12/17
f 126/12/17 115/11/17 128/11/17
f 120/12/7 114/12/7 126/12/7
f 114/12/7 120/12/7 106/12/7
f 107/11/14 119/11/14 117/11/14
f 119/11/14 107/11/14 105/11/14
f 119/11/18 106/12/18 120/12/18
f 106/12/18 119/11/18 105/11/18
f 101/13/14 88/13/14 89/13/14
f 88/13/14 101/13/14 100/13/14
f 97/13/14 82/13/14 85/13/14
f 82/13/14 97/13/14 96/13/14
f 113/13/14 124/13/14 125/13/14
f 124/13/14 113/13/14 112/13/14
f 109/13/14 118/13/14 121/13/14
f 118/13/14 109/13/14 108/13/14
f 99/14/14 86/14/14 87/14/14
f 86/14/14 99/14/14 98/14/14
f 111/14/14 122/14/14 123/14/14
f 122/14/14 111/14/14 110/14/14

