# Created by Kenney (www.kenney.nl)

mtllib road-sign-warning.mtl

g road-sign-warning

v 0.01609603 0.4149688 0.025 1 1 1
v -0.01140397 0.4149688 0.025 1 1 1
v 0.01609603 0.4349688 0.025 1 1 1
v -0.01140397 0.4349688 0.025 1 1 1
v 0.02609603 0.4349688 -0.015 1 1 1
v 0.02609603 0.4149688 -0.015 1 1 1
v 0.02609603 0.4349688 0.015 1 1 1
v 0.02609603 0.4149688 0.015 1 1 1
v -0.01140397 0.4149688 -0.025 1 1 1
v 0.01609603 0.4149688 -0.025 1 1 1
v -0.01140397 0.4349688 -0.025 1 1 1
v 0.01609603 0.4349688 -0.025 1 1 1
v -0.01124999 0.4333692 -0.06623426 1 1 1
v -0.01124999 0.4165683 -0.06623426 1 1 1
v -0.01124999 0.491203 -0.008400429 1 1 1
v -0.01124999 0.3587345 -0.008400429 1 1 1
v -0.01124999 0.491203 0.008400429 1 1 1
v -0.01124999 0.3587345 0.008400429 1 1 1
v -0.01124999 0.4333692 0.06623426 1 1 1
v -0.01124999 0.4165683 0.06623426 1 1 1
v -0.05124999 0.4333692 -0.06623426 1 1 1
v -0.03124999 0.4343025 -0.07359362 1 1 1
v -0.05124999 0.491203 -0.008400429 1 1 1
v -0.03124999 0.4985623 -0.009333811 1 1 1
v -0.03124999 0.3513751 0.009333811 1 1 1
v -0.05124999 0.3587345 0.008400429 1 1 1
v -0.03124999 0.4156349 0.07359362 1 1 1
v -0.05124999 0.4165683 0.06623426 1 1 1
v -0.03124999 0.4985623 0.009333811 1 1 1
v -0.03124999 0.4343025 0.07359362 1 1 1
v -0.05124999 0.491203 0.008400429 1 1 1
v -0.05124999 0.4333692 0.06623426 1 1 1
v -0.03124999 0.3513751 -0.009333811 1 1 1
v -0.05124999 0.3587345 -0.008400429 1 1 1
v -0.03124999 0.4156349 -0.07359362 1 1 1
v -0.05124999 0.4165683 -0.06623426 1 1 1
v 0.025 0.1038462 -0.025 1 1 1
v 0.0225 0 -0.0225 1 1 1
v 0.025 0.1038462 0.025 1 1 1
v 0.0225 0 0.0225 1 1 1
v -0.025 0.1038462 -0.025 1 1 1
v -0.025 0.1038462 0.025 1 1 1
v -0.0225 0 -0.0225 1 1 1
v -0.0225 0 0.0225 1 1 1
v 0.017375 0.1338461 0.017375 1 1 1
v -0.017375 0.1338461 0.017375 1 1 1
v -0.017375 0.1338461 -0.017375 1 1 1
v 0.017375 0.1338461 -0.017375 1 1 1
v -0.01881375 0.1589 -0.01881375 1 1 1
v 0.01881375 0.1589 -0.01881375 1 1 1
v 0.01881375 0.1589 0.01881375 1 1 1
v -0.01881375 0.1589 0.01881375 1 1 1
v -0.0125 0.1725 -0.0125 1 1 1
v 0.0125 0.1725 -0.0125 1 1 1
v 0.0125 0.1725 0.0125 1 1 1
v -0.0125 0.1725 0.0125 1 1 1
v -0.01125 0.475 -0.01125 1 1 1
v 0.01125 0.475 -0.01125 1 1 1
v -0.01125 0.475 0.01125 1 1 1
v 0.01125 0.475 0.01125 1 1 1

vn 0.3826834 0 0.9238795
vn 0 0 1
vn 0.9238795 0 -0.3826834
vn 0.9238795 0 0.3826834
vn 0 0 -1
vn 0.3826834 0 -0.9238795
vn 0 -1 0
vn 0 1 0
vn 1 -5.092405E-18 0
vn -0.3344439 0.3853829 -0.8600159
vn -0.338609 0.3409939 -0.8769647
vn -0.3344439 0.8600159 -0.3853829
vn -0.338609 0.8769647 -0.3409939
vn -0.338609 -0.8769647 0.3409939
vn -0.3344439 -0.8600159 0.3853829
vn -0.338609 -0.3409939 0.8769647
vn -0.3344439 -0.3853829 0.8600159
vn -0.338609 0.8769647 0.3409939
vn -0.338609 0.3409939 0.8769647
vn -0.3344439 0.8600159 0.3853829
vn -0.3344439 0.3853829 0.8600159
vn -0.338609 -0.8769647 -0.3409939
vn -0.3344439 -0.8600159 -0.3853829
vn -0.338609 -0.3409939 -0.8769647
vn -0.3344439 -0.3853829 -0.8600159
vn 0.3344439 -0.8600159 -0.3853829
vn 0.3344439 -0.3853829 -0.8600159
vn 0.338609 -0.8769647 -0.3409939
vn 0.338609 -0.3409939 -0.8769647
vn 0.3344439 0.8600159 0.3853829
vn 0.3344439 0.3853829 0.8600159
vn 0.338609 0.8769647 0.3409939
vn 0.338609 0.3409939 0.8769647
vn 0.338609 -0.8769647 0.3409939
vn 0.338609 -0.3409939 0.8769647
vn 0.3344439 -0.8600159 0.3853829
vn 0.3344439 -0.3853829 0.8600159
vn 0.3344439 0.3853829 -0.8600159
vn 0.3344439 0.8600159 -0.3853829
vn 0.338609 0.3409939 -0.8769647
vn 0.338609 0.8769647 -0.3409939
vn -1 5.092405E-18 0
vn 0.9947995 0.1018525 0
vn 0.9997103 -0.0240671 0
vn -0.9947995 0.1018525 0
vn -0.9997103 -0.0240671 0
vn 0 -0.0240671 -0.9997103
vn 0 0.1018525 -0.9947995
vn 0 -0.0240671 0.9997103
vn 0 0.1018525 0.9947995
vn 0 0.1038447 0.9945936
vn 0 0.1038447 -0.9945936
vn 0.9945936 0.1038447 0
vn -0.9945936 0.1038447 0
vn 0 0.1561019 -0.9877411
vn 0 0.1561019 0.9877411
vn 0.9877411 0.1561019 0
vn -0.9877411 0.1561019 0
vn 0 0.4210819 -0.9070227
vn 0.9070227 0.4210819 0
vn 0 0.4210819 0.9070227
vn -0.9070227 0.4210819 0
vn 0 0.004132197 -0.9999915
vn -0.9999915 0.004132197 0
vn 0 0.004132197 0.9999915
vn 0.9999915 0.004132197 0

vt 0.34375 0.025
vt 0.34375 0.225
vt 0.34375 0.1241959
vt 0.34375 0.09821785
vt 0.34375 0.2136207
vt 0.34375 0.1256392
vt 0.34375 0.09677462
vt 0.71875 0.1241959
vt 0.71875 0.2136207
vt 0.71875 0.09821785
vt 0.71875 0.025
vt 0.46875 0.3852007
vt 0.46875 0.325
vt 0.46875 0.4025919
vt 0.46875 0.4171159
vt 0.46875 0.425
vt 0.46875 0.3312016

usemtl colormap

f 3/2/1 2/1/2 1/1/1
f 2/1/2 3/2/1 4/2/2
f 7/2/4 6/1/3 5/2/3
f 6/1/3 7/2/4 8/1/4
f 11/2/5 10/1/6 9/1/5
f 10/1/6 11/2/5 12/2/6
f 12/2/6 6/1/3 10/1/6
f 6/1/3 12/2/6 5/2/3
f 7/2/4 1/1/1 8/1/4
f 1/1/1 7/2/4 3/2/1
f 1/1/7 6/1/7 8/1/7
f 6/1/7 1/1/7 10/1/7
f 10/1/7 1/1/7 2/1/7
f 10/1/7 2/1/7 9/1/7
f 12/2/8 7/2/8 5/2/8
f 7/2/8 12/2/8 3/2/8
f 3/2/8 12/2/8 11/2/8
f 3/2/8 11/2/8 4/2/8
f 15/5/9 14/4/9 13/3/9
f 14/4/9 15/5/9 16/1/9
f 16/1/9 15/5/9 17/5/9
f 16/1/9 17/5/9 18/1/9
f 18/1/9 17/5/9 19/3/9
f 18/1/9 19/3/9 20/4/9
f 23/5/12 22/6/11 21/3/10
f 22/6/11 23/5/12 24/2/13
f 27/7/16 26/1/15 25/1/14
f 26/1/15 27/7/16 28/4/17
f 31/5/20 30/6/19 29/2/18
f 30/6/19 31/5/20 32/3/21
f 23/5/12 29/2/18 24/2/13
f 29/2/18 23/5/12 31/5/20
f 30/6/19 28/4/17 27/7/16
f 28/4/17 30/6/19 32/3/21
f 26/1/15 33/1/22 25/1/14
f 33/1/22 26/1/15 34/1/23
f 34/1/23 35/7/24 33/1/22
f 35/7/24 34/1/23 36/4/25
f 36/4/25 22/6/11 35/7/24
f 22/6/11 36/4/25 21/3/10
f 33/1/28 14/4/27 16/1/26
f 14/4/27 33/1/28 35/7/29
f 29/2/32 19/3/31 17/5/30
f 19/3/31 29/2/32 30/6/33
f 18/1/36 27/7/35 25/1/34
f 27/7/35 18/1/36 20/4/37
f 22/6/40 15/5/39 13/3/38
f 15/5/39 22/6/40 24/2/41
f 22/6/40 14/4/27 35/7/29
f 14/4/27 22/6/40 13/3/38
f 24/2/41 17/5/30 15/5/39
f 17/5/30 24/2/41 29/2/32
f 20/4/37 30/6/33 27/7/35
f 30/6/33 20/4/37 19/3/31
f 25/1/34 16/1/26 18/1/36
f 16/1/26 25/1/34 33/1/28
f 36/10/42 23/9/42 21/8/42
f 23/9/42 36/10/42 34/11/42
f 23/9/42 34/11/42 31/9/42
f 31/9/42 34/11/42 26/11/42
f 31/9/42 26/11/42 32/8/42
f 32/8/42 26/11/42 28/10/42
f 39/12/43 38/13/44 37/12/43
f 38/13/44 39/12/43 40/13/44
f 43/13/46 42/12/45 41/12/45
f 42/12/45 43/13/46 44/13/46
f 41/12/48 38/13/47 43/13/47
f 38/13/47 41/12/48 37/12/48
f 39/12/50 44/13/49 40/13/49
f 44/13/49 39/12/50 42/12/50
f 45/14/51 42/12/50 39/12/50
f 42/12/50 45/14/51 46/14/51
f 47/14/52 37/12/48 41/12/48
f 37/12/48 47/14/52 48/14/52
f 48/14/53 39/12/43 37/12/43
f 39/12/43 48/14/53 45/14/53
f 42/12/45 47/14/54 41/12/45
f 47/14/54 42/12/45 46/14/54
f 49/15/55 48/14/52 47/14/52
f 48/14/52 49/15/55 50/15/55
f 51/15/56 46/14/51 45/14/51
f 46/14/51 51/15/56 52/15/56
f 51/15/57 48/14/53 50/15/57
f 48/14/53 51/15/57 45/14/53
f 47/14/54 52/15/58 49/15/58
f 52/15/58 47/14/54 46/14/54
f 53/16/59 50/15/55 49/15/55
f 50/15/55 53/16/59 54/16/59
f 54/16/60 51/15/57 50/15/57
f 51/15/57 54/16/60 55/16/60
f 55/16/61 52/15/56 51/15/56
f 52/15/56 55/16/61 56/16/61
f 52/15/58 53/16/62 49/15/58
f 53/16/62 52/15/58 56/16/62
f 57/16/63 54/17/63 53/17/63
f 54/17/63 57/16/63 58/16/63
f 56/17/64 57/16/64 53/17/64
f 57/16/64 56/17/64 59/16/64
f 57/16/8 60/16/8 58/16/8
f 60/16/8 57/16/8 59/16/8
f 60/16/65 56/17/65 55/17/65
f 56/17/65 60/16/65 59/16/65
f 58/16/66 55/17/66 54/17/66
f 55/17/66 58/16/66 60/16/66

g road-sign-warning




usemtl colormap

f 3/2/1 2/1/2 1/1/1
f 2/1/2 3/2/1 4/2/2
f 7/2/4 6/1/3 5/2/3
f 6/1/3 7/2/4 8/1/4
f 11/2/5 10/1/6 9/1/5
f 10/1/6 11/2/5 12/2/6
f 12/2/6 6/1/3 10/1/6
f 6/1/3 12/2/6 5/2/3
f 7/2/4 1/1/1 8/1/4
f 1/1/1 7/2/4 3/2/1
f 1/1/7 6/1/7 8/1/7
f 6/1/7 1/1/7 10/1/7
f 10/1/7 1/1/7 2/1/7
f 10/1/7 2/1/7 9/1/7
f 12/2/8 7/2/8 5/2/8
f 7/2/8 12/2/8 3/2/8
f 3/2/8 12/2/8 11/2/8
f 3/2/8 11/2/8 4/2/8
f 15/5/9 14/4/9 13/3/9
f 14/4/9 15/5/9 16/1/9
f 16/1/9 15/5/9 17/5/9
f 16/1/9 17/5/9 18/1/9
f 18/1/9 17/5/9 19/3/9
f 18/1/9 19/3/9 20/4/9
f 23/5/12 22/6/11 21/3/10
f 22/6/11 23/5/12 24/2/13
f 27/7/16 26/1/15 25/1/14
f 26/1/15 27/7/16 28/4/17
f 31/5/20 30/6/19 29/2/18
f 30/6/19 31/5/20 32/3/21
f 23/5/12 29/2/18 24/2/13
f 29/2/18 23/5/12 31/5/20
f 30/6/19 28/4/17 27/7/16
f 28/4/17 30/6/19 32/3/21
f 26/1/15 33/1/22 25/1/14
f 33/1/22 26/1/15 34/1/23
f 34/1/23 35/7/24 33/1/22
f 35/7/24 34/1/23 36/4/25
f 36/4/25 22/6/11 35/7/24
f 22/6/11 36/4/25 21/3/10
f 33/1/28 14/4/27 16/1/26
f 14/4/27 33/1/28 35/7/29
f 29/2/32 19/3/31 17/5/30
f 19/3/31 29/2/32 30/6/33
f 18/1/36 27/7/35 25/1/34
f 27/7/35 18/1/36 20/4/37
f 22/6/40 15/5/39 13/3/38
f 15/5/39 22/6/40 24/2/41
f 22/6/40 14/4/27 35/7/29
f 14/4/27 22/6/40 13/3/38
f 24/2/41 17/5/30 15/5/39
f 17/5/30 24/2/41 29/2/32
f 20/4/37 30/6/33 27/7/35
f 30/6/33 20/4/37 19/3/31
f 25/1/34 16/1/26 18/1/36
f 16/1/26 25/1/34 33/1/28
f 36/10/42 23/9/42 21/8/42
f 23/9/42 36/10/42 34/11/42
f 23/9/42 34/11/42 31/9/42
f 31/9/42 34/11/42 26/11/42
f 31/9/42 26/11/42 32/8/42
f 32/8/42 26/11/42 28/10/42
f 39/12/43 38/13/44 37/12/43
f 38/13/44 39/12/43 40/13/44
f 43/13/46 42/12/45 41/12/45
f 42/12/45 43/13/46 44/13/46
f 41/12/48 38/13/47 43/13/47
f 38/13/47 41/12/48 37/12/48
f 39/12/50 44/13/49 40/13/49
f 44/13/49 39/12/50 42/12/50
f 45/14/51 42/12/50 39/12/50
f 42/12/50 45/14/51 46/14/51
f 47/14/52 37/12/48 41/12/48
f 37/12/48 47/14/52 48/14/52
f 48/14/53 39/12/43 37/12/43
f 39/12/43 48/14/53 45/14/53
f 42/12/45 47/14/54 41/12/45
f 47/14/54 42/12/45 46/14/54
f 49/15/55 48/14/52 47/14/52
f 48/14/52 49/15/55 50/15/55
f 51/15/56 46/14/51 45/14/51
f 46/14/51 51/15/56 52/15/56
f 51/15/57 48/14/53 50/15/57
f 48/14/53 51/15/57 45/14/53
f 47/14/54 52/15/58 49/15/58
f 52/15/58 47/14/54 46/14/54
f 53/16/59 50/15/55 49/15/55
f 50/15/55 53/16/59 54/16/59
f 54/16/60 51/15/57 50/15/57
f 51/15/57 54/16/60 55/16/60
f 55/16/61 52/15/56 51/15/56
f 52/15/56 55/16/61 56/16/61
f 52/15/58 53/16/62 49/15/58
f 53/16/62 52/15/58 56/16/62
f 57/16/63 54/17/63 53/17/63
f 54/17/63 57/16/63 58/16/63
f 56/17/64 57/16/64 53/17/64
f 57/16/64 56/17/64 59/16/64
f 57/16/8 60/16/8 58/16/8
f 60/16/8 57/16/8 59/16/8
f 60/16/65 56/17/65 55/17/65
f 56/17/65 60/16/65 59/16/65
f 58/16/66 55/17/66 54/17/66
f 55/17/66 58/16/66 60/16/66

