# Created by Kenney (www.kenney.nl)

mtllib road-sign-empty.mtl

g road-sign-empty

v 0.025 0.1038462 -0.025 1 1 1
v 0.0225 0 -0.0225 1 1 1
v 0.025 0.1038462 0.025 1 1 1
v 0.0225 0 0.0225 1 1 1
v -0.025 0.1038462 -0.025 1 1 1
v -0.025 0.1038462 0.025 1 1 1
v -0.0225 0 -0.0225 1 1 1
v -0.0225 0 0.0225 1 1 1
v 0.017375 0.1338461 0.017375 1 1 1
v -0.017375 0.1338461 0.017375 1 1 1
v -0.017375 0.1338461 -0.017375 1 1 1
v 0.017375 0.1338461 -0.017375 1 1 1
v -0.01881375 0.1589 -0.01881375 1 1 1
v 0.01881375 0.1589 -0.01881375 1 1 1
v 0.01881375 0.1589 0.01881375 1 1 1
v -0.01881375 0.1589 0.01881375 1 1 1
v -0.0125 0.1725 -0.0125 1 1 1
v 0.0125 0.1725 -0.0125 1 1 1
v 0.0125 0.1725 0.0125 1 1 1
v -0.0125 0.1725 0.0125 1 1 1
v -0.01125 0.475 -0.01125 1 1 1
v 0.01125 0.475 -0.01125 1 1 1
v -0.01125 0.475 0.01125 1 1 1
v 0.01125 0.475 0.01125 1 1 1

vn 0.9947995 0.1018525 0
vn 0.9997103 -0.0240671 0
vn -0.9947995 0.1018525 0
vn -0.9997103 -0.0240671 0
vn 0 -0.0240671 -0.9997103
vn 0 0.1018525 -0.9947995
vn 0 -0.0240671 0.9997103
vn 0 0.1018525 0.9947995
vn 0 0.1038447 0.9945936
vn 0 0.1038447 -0.9945936
vn 0.9945936 0.1038447 0
vn -0.9945936 0.1038447 0
vn 0 0.1561019 -0.9877411
vn 0 0.1561019 0.9877411
vn 0.9877411 0.1561019 0
vn -0.9877411 0.1561019 0
vn 0 0.4210819 -0.9070227
vn 0.9070227 0.4210819 0
vn 0 0.4210819 0.9070227
vn -0.9070227 0.4210819 0
vn 0 0.004132197 -0.9999915
vn -0.9999915 0.004132197 0
vn 0 1 0
vn 0 0.004132197 0.9999915
vn 0.9999915 0.004132197 0

vt 0.46875 0.3852007
vt 0.46875 0.325
vt 0.46875 0.4025919
vt 0.46875 0.4171159
vt 0.46875 0.425
vt 0.46875 0.3312016

usemtl colormap

f 3/1/1 2/2/2 1/1/1
f 2/2/2 3/1/1 4/2/2
f 7/2/4 6/1/3 5/1/3
f 6/1/3 7/2/4 8/2/4
f 5/1/6 2/2/5 7/2/5
f 2/2/5 5/1/6 1/1/6
f 3/1/8 8/2/7 4/2/7
f 8/2/7 3/1/8 6/1/8
f 9/3/9 6/1/8 3/1/8
f 6/1/8 9/3/9 10/3/9
f 11/3/10 1/1/6 5/1/6
f 1/1/6 11/3/10 12/3/10
f 12/3/11 3/1/1 1/1/1
f 3/1/1 12/3/11 9/3/11
f 6/1/3 11/3/12 5/1/3
f 11/3/12 6/1/3 10/3/12
f 13/4/13 12/3/10 11/3/10
f 12/3/10 13/4/13 14/4/13
f 15/4/14 10/3/9 9/3/9
f 10/3/9 15/4/14 16/4/14
f 15/4/15 12/3/11 14/4/15
f 12/3/11 15/4/15 9/3/11
f 11/3/12 16/4/16 13/4/16
f 16/4/16 11/3/12 10/3/12
f 17/5/17 14/4/13 13/4/13
f 14/4/13 17/5/17 18/5/17
f 18/5/18 15/4/15 14/4/15
f 15/4/15 18/5/18 19/5/18
f 19/5/19 16/4/14 15/4/14
f 16/4/14 19/5/19 20/5/19
f 16/4/16 17/5/20 13/4/16
f 17/5/20 16/4/16 20/5/20
f 21/5/21 18/6/21 17/6/21
f 18/6/21 21/5/21 22/5/21
f 20/6/22 21/5/22 17/6/22
f 21/5/22 20/6/22 23/5/22
f 21/5/23 24/5/23 22/5/23
f 24/5/23 21/5/23 23/5/23
f 24/5/24 20/6/24 19/6/24
f 20/6/24 24/5/24 23/5/24
f 22/5/25 19/6/25 18/6/25
f 19/6/25 22/5/25 24/5/25

g road-sign-empty




usemtl colormap

f 3/1/1 2/2/2 1/1/1
f 2/2/2 3/1/1 4/2/2
f 7/2/4 6/1/3 5/1/3
f 6/1/3 7/2/4 8/2/4
f 5/1/6 2/2/5 7/2/5
f 2/2/5 5/1/6 1/1/6
f 3/1/8 8/2/7 4/2/7
f 8/2/7 3/1/8 6/1/8
f 9/3/9 6/1/8 3/1/8
f 6/1/8 9/3/9 10/3/9
f 11/3/10 1/1/6 5/1/6
f 1/1/6 11/3/10 12/3/10
f 12/3/11 3/1/1 1/1/1
f 3/1/1 12/3/11 9/3/11
f 6/1/3 11/3/12 5/1/3
f 11/3/12 6/1/3 10/3/12
f 13/4/13 12/3/10 11/3/10
f 12/3/10 13/4/13 14/4/13
f 15/4/14 10/3/9 9/3/9
f 10/3/9 15/4/14 16/4/14
f 15/4/15 12/3/11 14/4/15
f 12/3/11 15/4/15 9/3/11
f 11/3/12 16/4/16 13/4/16
f 16/4/16 11/3/12 10/3/12
f 17/5/17 14/4/13 13/4/13
f 14/4/13 17/5/17 18/5/17
f 18/5/18 15/4/15 14/4/15
f 15/4/15 18/5/18 19/5/18
f 19/5/19 16/4/14 15/4/14
f 16/4/14 19/5/19 20/5/19
f 16/4/16 17/5/20 13/4/16
f 17/5/20 16/4/16 20/5/20
f 21/5/21 18/6/21 17/6/21
f 18/6/21 21/5/21 22/5/21
f 20/6/22 21/5/22 17/6/22
f 21/5/22 20/6/22 23/5/22
f 21/5/23 24/5/23 22/5/23
f 24/5/23 21/5/23 23/5/23
f 24/5/24 20/6/24 19/6/24
f 20/6/24 24/5/24 23/5/24
f 22/5/25 19/6/25 18/6/25
f 19/6/25 22/5/25 24/5/25

