# Created by Kenney (www.kenney.nl)

mtllib road-sign-object-street.mtl

g road-sign-object-street

v 0.01125 -0.03000001 0.03124977 1 1 1
v -0.01125 -0.03000001 0.03124977 1 1 1
v 0.01125 -0.03000002 0.1612498 1 1 1
v -0.01125 -0.03000002 0.1612498 1 1 1
v 0.01125 0.01999998 0.1712498 1 1 1
v 0.01125 -0.02000002 0.1712498 1 1 1
v -0.01125 0.01999998 0.1712498 1 1 1
v -0.01125 -0.02000002 0.1712498 1 1 1
v 0.01125 0.03 0.03124978 1 1 1
v -0.01125 0.03 0.03124978 1 1 1
v 0.01125 0.02 0.02124977 1 1 1
v -0.01125 0.02 0.02124977 1 1 1
v -0.01125 0.02999999 0.1612498 1 1 1
v 0.01125 0.02999999 0.1612498 1 1 1
v 0.01125 -0.02 0.02124977 1 1 1
v -0.01125 -0.02 0.02124977 1 1 1
v 0.02125 0.01 -0.01125 1 1 1
v 0.02125 -0.009999998 -0.01125 1 1 1
v 0.02125 0.01 0.01125 1 1 1
v 0.02125 -0.009999998 0.01125 1 1 1
v 0.01125 0.01 -0.02125 1 1 1
v 0.01125 -0.009999998 -0.02125 1 1 1
v 0.01125 0.01 0.02125 1 1 1
v 0.01125 -0.009999998 0.02125 1 1 1
v -0.02125 -0.009999998 0.01125 1 1 1
v -0.02125 0.01 0.01125 1 1 1
v -0.01125 -0.009999998 0.02125 1 1 1
v -0.01125 0.01 0.02125 1 1 1
v -0.02125 -0.009999998 -0.01125 1 1 1
v -0.02125 0.01 -0.01125 1 1 1
v -0.01125 -0.009999998 -0.02125 1 1 1
v -0.01125 0.01 -0.02125 1 1 1

vn 0 -0.9238796 -0.3826835
vn 0 -0.9238797 0.3826834
vn 0 0.3826834 0.9238797
vn 0 -0.3826835 0.9238796
vn 0 0.9238797 -0.3826834
vn 0 0.3826835 -0.9238796
vn 0 0.9238796 0.3826835
vn 0 -0.3826834 -0.9238797
vn -1 0 0
vn 1 0 0
vn 0.9238796 0 -0.3826835
vn 0.9238796 0 0.3826835
vn 0.3826834 0 -0.9238796
vn 0.3826835 0 0.9238796
vn -0.9238796 0 0.3826834
vn -0.3826835 0 0.9238796
vn -0.9238796 0 -0.3826835
vn 0 -1 0
vn -0.3826835 0 -0.9238796
vn 0 1 0

vt 0.46875 0.2883333
vt 0.46875 0.4616666
vt 0.46875 0.475
vt 0.46875 0.275
vt 0.21875 0.7116666
vt 0.21875 0.725
vt 0.21875 0.5383334
vt 0.21875 0.525
vt 0.34375 0.225
vt 0.34375 0.025

usemtl colormap

f 3/2/2 2/1/1 1/1/1
f 2/1/1 3/2/2 4/2/2
f 7/3/3 6/3/4 5/3/3
f 6/3/4 7/3/3 8/3/4
f 11/4/6 10/1/5 9/1/5
f 10/1/5 11/4/6 12/4/6
f 7/3/3 14/2/7 13/2/7
f 14/2/7 7/3/3 5/3/3
f 8/3/4 3/2/2 6/3/4
f 3/2/2 8/3/4 4/2/2
f 13/2/7 9/1/5 10/1/5
f 9/1/5 13/2/7 14/2/7
f 16/4/8 11/4/6 15/4/8
f 11/4/6 16/4/8 12/4/6
f 1/1/1 16/4/8 15/4/8
f 16/4/8 1/1/1 2/1/1
f 10/7/9 7/6/9 13/5/9
f 7/6/9 10/7/9 12/8/9
f 7/6/9 12/8/9 8/6/9
f 8/6/9 12/8/9 16/8/9
f 8/6/9 16/8/9 4/5/9
f 4/5/9 16/8/9 2/7/9
f 5/6/10 9/7/10 14/5/10
f 9/7/10 5/6/10 11/8/10
f 11/8/10 5/6/10 6/6/10
f 11/8/10 6/6/10 15/8/10
f 15/8/10 6/6/10 3/5/10
f 15/8/10 3/5/10 1/7/10
f 19/9/12 18/10/11 17/9/11
f 18/10/11 19/9/12 20/10/12
f 17/9/11 22/10/13 21/9/13
f 22/10/13 17/9/11 18/10/11
f 23/9/14 20/10/12 19/9/12
f 20/10/12 23/9/14 24/10/14
f 27/10/16 26/9/15 25/10/15
f 26/9/15 27/10/16 28/9/16
f 23/9/14 27/10/16 24/10/14
f 27/10/16 23/9/14 28/9/16
f 25/10/15 30/9/17 29/10/17
f 30/9/17 25/10/15 26/9/15
f 24/10/18 18/10/18 20/10/18
f 18/10/18 24/10/18 22/10/18
f 22/10/18 24/10/18 27/10/18
f 22/10/18 27/10/18 31/10/18
f 31/10/18 27/10/18 25/10/18
f 31/10/18 25/10/18 29/10/18
f 32/9/19 22/10/13 31/10/19
f 22/10/13 32/9/19 21/9/13
f 21/9/20 19/9/20 17/9/20
f 19/9/20 21/9/20 23/9/20
f 23/9/20 21/9/20 32/9/20
f 23/9/20 32/9/20 28/9/20
f 28/9/20 32/9/20 30/9/20
f 28/9/20 30/9/20 26/9/20
f 29/10/17 32/9/19 31/10/19
f 32/9/19 29/10/17 30/9/17

g road-sign-object-street




usemtl colormap

f 3/2/2 2/1/1 1/1/1
f 2/1/1 3/2/2 4/2/2
f 7/3/3 6/3/4 5/3/3
f 6/3/4 7/3/3 8/3/4
f 11/4/6 10/1/5 9/1/5
f 10/1/5 11/4/6 12/4/6
f 7/3/3 14/2/7 13/2/7
f 14/2/7 7/3/3 5/3/3
f 8/3/4 3/2/2 6/3/4
f 3/2/2 8/3/4 4/2/2
f 13/2/7 9/1/5 10/1/5
f 9/1/5 13/2/7 14/2/7
f 16/4/8 11/4/6 15/4/8
f 11/4/6 16/4/8 12/4/6
f 1/1/1 16/4/8 15/4/8
f 16/4/8 1/1/1 2/1/1
f 10/7/9 7/6/9 13/5/9
f 7/6/9 10/7/9 12/8/9
f 7/6/9 12/8/9 8/6/9
f 8/6/9 12/8/9 16/8/9
f 8/6/9 16/8/9 4/5/9
f 4/5/9 16/8/9 2/7/9
f 5/6/10 9/7/10 14/5/10
f 9/7/10 5/6/10 11/8/10
f 11/8/10 5/6/10 6/6/10
f 11/8/10 6/6/10 15/8/10
f 15/8/10 6/6/10 3/5/10
f 15/8/10 3/5/10 1/7/10
f 19/9/12 18/10/11 17/9/11
f 18/10/11 19/9/12 20/10/12
f 17/9/11 22/10/13 21/9/13
f 22/10/13 17/9/11 18/10/11
f 23/9/14 20/10/12 19/9/12
f 20/10/12 23/9/14 24/10/14
f 27/10/16 26/9/15 25/10/15
f 26/9/15 27/10/16 28/9/16
f 23/9/14 27/10/16 24/10/14
f 27/10/16 23/9/14 28/9/16
f 25/10/15 30/9/17 29/10/17
f 30/9/17 25/10/15 26/9/15
f 24/10/18 18/10/18 20/10/18
f 18/10/18 24/10/18 22/10/18
f 22/10/18 24/10/18 27/10/18
f 22/10/18 27/10/18 31/10/18
f 31/10/18 27/10/18 25/10/18
f 31/10/18 25/10/18 29/10/18
f 32/9/19 22/10/13 31/10/19
f 22/10/13 32/9/19 21/9/13
f 21/9/20 19/9/20 17/9/20
f 19/9/20 21/9/20 23/9/20
f 23/9/20 21/9/20 32/9/20
f 23/9/20 32/9/20 28/9/20
f 28/9/20 32/9/20 30/9/20
f 28/9/20 30/9/20 26/9/20
f 29/10/17 32/9/19 31/10/19
f 32/9/19 29/10/17 30/9/17

