# Created by Kenney (www.kenney.nl)

mtllib road-driveway-single-barrier.mtl

g road-driveway-single-barrier

v -0.5 0 -0.5 1 1 1
v -0.5 0.08 -0.5 1 1 1
v -0.5 0 -0.45 1 1 1
v -0.5 0.08 -0.47 1 1 1
v 0.5 0 0.45 1 1 1
v 0.5 0 0.5 1 1 1
v 0.5 0.08 0.47 1 1 1
v 0.5 0.08 0.5 1 1 1
v 0.5 0 -0.5 1 1 1
v 0.5 0.08 -0.5 1 1 1
v 0.5 0.08 -0.47 1 1 1
v 0.15 5.538414E-15 0.45 1 1 1
v 0.15 0.08 0.47 1 1 1
v 0.5 0 -0.45 1 1 1
v -0.15 0.08 0.47 1 1 1
v -0.15 0.08 0.5 1 1 1
v -0.5 0.08 0.47 1 1 1
v -0.5 0.08 0.5 1 1 1
v -0.5 5.89091E-15 0.45 1 1 1
v -0.5 5.89091E-15 0.5 1 1 1
v 0.15 0.08 0.5 1 1 1
v -0.13 4.793943E-17 0.4706155 1 1 1
v -0.15 3.524958E-16 0.45 1 1 1
v -0.13 4.511946E-17 0.5 1 1 1
v 0.13 5.84579E-15 0.5 1 1 1
v 0.13 0.06 0.5 1 1 1
v 0.13 5.84861E-15 0.4706155 1 1 1
v 0.13 0.06 0.4856155 1 1 1
v -0.13 0.06 0.4856155 1 1 1
v -0.13 0.06 0.5 1 1 1

vn -1 0 0
vn 1 0 0
vn 0 0 -1
vn 0 1 0
vn 0 0.2425356 -0.9701425
vn -0.3600056 0.2262736 -0.9050945
vn -0.3805299 0.7289077 -0.5691139
vn 0 -1 0
vn 0 0.2425356 0.9701425
vn 0.3805299 0.7289077 -0.5691139
vn 0.3826834 0.9238795 0
vn -0.3826834 0.9238795 0
vn 0 0 1
vn -0.9007643 0.1053352 -0.4213407
vn -0.8990752 0.3450717 -0.2694238
vn -0.9238795 0.3826834 0
vn 0.9007643 0.1053352 -0.4213407
vn 0.8990752 0.3450717 -0.2694238
vn 0.9238795 0.3826834 0
vn 0.3600056 0.2262736 -0.9050945

vt 0.40625 0.375

usemtl colormap

f 3/1/1 2/1/1 1/1/1
f 2/1/1 3/1/1 4/1/1
f 7/1/2 6/1/2 5/1/2
f 6/1/2 7/1/2 8/1/2
f 2/1/3 9/1/3 1/1/3
f 9/1/3 2/1/3 10/1/3
f 10/1/4 4/1/4 11/1/4
f 4/1/4 10/1/4 2/1/4
f 12/1/6 7/1/5 5/1/5
f 7/1/5 12/1/6 13/1/7
f 3/1/8 9/1/8 14/1/8
f 9/1/8 3/1/8 1/1/8
f 11/1/9 3/1/9 14/1/9
f 3/1/9 11/1/9 4/1/9
f 17/1/4 16/1/11 15/1/10
f 16/1/11 17/1/4 18/1/4
f 20/1/1 17/1/1 19/1/1
f 17/1/1 20/1/1 18/1/1
f 13/1/7 8/1/4 7/1/4
f 8/1/4 13/1/7 21/1/12
f 11/1/2 9/1/2 10/1/2
f 9/1/2 11/1/2 14/1/2
f 24/1/8 23/1/8 22/1/8
f 23/1/8 24/1/8 20/1/8
f 23/1/8 20/1/8 19/1/8
f 8/1/13 25/1/13 6/1/13
f 25/1/13 8/1/13 26/1/13
f 26/1/13 8/1/13 21/1/13
f 6/1/8 12/1/8 5/1/8
f 12/1/8 6/1/8 25/1/8
f 12/1/8 25/1/8 27/1/8
f 25/1/1 28/1/15 27/1/14
f 28/1/15 25/1/1 26/1/16
f 27/1/14 13/1/7 12/1/6
f 13/1/7 27/1/14 28/1/15
f 28/1/15 21/1/12 13/1/7
f 21/1/12 28/1/15 26/1/16
f 29/1/18 24/1/2 22/1/17
f 24/1/2 29/1/18 30/1/19
f 19/1/5 15/1/10 23/1/20
f 15/1/10 19/1/5 17/1/5
f 15/1/10 22/1/17 23/1/20
f 22/1/17 15/1/10 29/1/18
f 15/1/10 30/1/19 29/1/18
f 30/1/19 15/1/10 16/1/11
f 30/1/13 20/1/13 24/1/13
f 20/1/13 30/1/13 18/1/13
f 18/1/13 30/1/13 16/1/13

g road-driveway-single-barrier




usemtl colormap

f 3/1/1 2/1/1 1/1/1
f 2/1/1 3/1/1 4/1/1
f 7/1/2 6/1/2 5/1/2
f 6/1/2 7/1/2 8/1/2
f 2/1/3 9/1/3 1/1/3
f 9/1/3 2/1/3 10/1/3
f 10/1/4 4/1/4 11/1/4
f 4/1/4 10/1/4 2/1/4
f 12/1/6 7/1/5 5/1/5
f 7/1/5 12/1/6 13/1/7
f 3/1/8 9/1/8 14/1/8
f 9/1/8 3/1/8 1/1/8
f 11/1/9 3/1/9 14/1/9
f 3/1/9 11/1/9 4/1/9
f 17/1/4 16/1/11 15/1/10
f 16/1/11 17/1/4 18/1/4
f 20/1/1 17/1/1 19/1/1
f 17/1/1 20/1/1 18/1/1
f 13/1/7 8/1/4 7/1/4
f 8/1/4 13/1/7 21/1/12
f 11/1/2 9/1/2 10/1/2
f 9/1/2 11/1/2 14/1/2
f 24/1/8 23/1/8 22/1/8
f 23/1/8 24/1/8 20/1/8
f 23/1/8 20/1/8 19/1/8
f 8/1/13 25/1/13 6/1/13
f 25/1/13 8/1/13 26/1/13
f 26/1/13 8/1/13 21/1/13
f 6/1/8 12/1/8 5/1/8
f 12/1/8 6/1/8 25/1/8
f 12/1/8 25/1/8 27/1/8
f 25/1/1 28/1/15 27/1/14
f 28/1/15 25/1/1 26/1/16
f 27/1/14 13/1/7 12/1/6
f 13/1/7 27/1/14 28/1/15
f 28/1/15 21/1/12 13/1/7
f 21/1/12 28/1/15 26/1/16
f 29/1/18 24/1/2 22/1/17
f 24/1/2 29/1/18 30/1/19
f 19/1/5 15/1/10 23/1/20
f 15/1/10 19/1/5 17/1/5
f 15/1/10 22/1/17 23/1/20
f 22/1/17 15/1/10 29/1/18
f 15/1/10 30/1/19 29/1/18
f 30/1/19 15/1/10 16/1/11
f 30/1/13 20/1/13 24/1/13
f 20/1/13 30/1/13 18/1/13
f 18/1/13 30/1/13 16/1/13

