# Created by Kenney (www.kenney.nl)

mtllib road-driveway-double-barrier.mtl

g road-driveway-double-barrier

v -0.15 0.08 0.47 1 1 1
v -0.15 0.08 0.5 1 1 1
v -0.5 0.08 0.47 1 1 1
v -0.5 0.08 0.5 1 1 1
v 0.5 0 0.45 1 1 1
v 0.5 0 0.5 1 1 1
v 0.5 0.08 0.47 1 1 1
v 0.5 0.08 0.5 1 1 1
v 0.15 5.544054E-15 0.45 1 1 1
v 0.15 0.08 0.47 1 1 1
v -0.13 4.511946E-17 0.5 1 1 1
v -0.5 5.89091E-15 0.5 1 1 1
v -0.13 0.06 0.5 1 1 1
v -0.5 0 -0.5 1 1 1
v -0.5 0.08 -0.5 1 1 1
v -0.5 0 -0.45 1 1 1
v -0.5 0.08 -0.47 1 1 1
v 0.5 0.08 -0.5 1 1 1
v 0.5 5.89091E-15 -0.5 1 1 1
v 0.5 0.08 -0.47 1 1 1
v 0.5 5.89091E-15 -0.45 1 1 1
v 0.15 0.08 0.5 1 1 1
v -0.15 5.549694E-15 -0.45 1 1 1
v -0.15 0.08 -0.47 1 1 1
v -0.5 5.89091E-15 0.45 1 1 1
v -0.15 0.08 -0.5 1 1 1
v 0.15 0.08 -0.5 1 1 1
v 0.15 0.08 -0.47 1 1 1
v 0.13 4.511946E-17 -0.5 1 1 1
v 0.15 3.524958E-16 -0.45 1 1 1
v 0.13 4.793943E-17 -0.4706155 1 1 1
v 0.13 0.06 -0.5 1 1 1
v 0.13 0.06 -0.4856155 1 1 1
v -0.13 0.06 -0.5 1 1 1
v -0.13 5.84579E-15 -0.5 1 1 1
v -0.13 0.06 -0.4856155 1 1 1
v -0.13 5.84861E-15 -0.4706155 1 1 1
v 0.13 5.84861E-15 0.4706155 1 1 1
v 0.13 0.06 0.4856155 1 1 1
v 0.13 5.84579E-15 0.5 1 1 1
v 0.13 0.06 0.5 1 1 1
v -0.13 4.793943E-17 0.4706155 1 1 1
v -0.13 0.06 0.4856155 1 1 1
v -0.15 3.468559E-16 0.45 1 1 1

vn 0.3805299 0.7289077 -0.5691139
vn 0.3826834 0.9238795 0
vn 0 1 0
vn 1 0 0
vn 0 0.2425356 -0.9701425
vn -0.3600056 0.2262736 -0.9050945
vn -0.3805299 0.7289077 -0.5691139
vn 0 0 1
vn -1 0 0
vn -0.3826834 0.9238795 0
vn 0 0.2425356 0.9701425
vn 0.3600056 0.2262736 0.9050945
vn 0.3805299 0.7289077 0.5691139
vn -0.3805299 0.7289077 0.5691139
vn 0 -1 0
vn -0.3600056 0.2262736 0.9050945
vn -0.9238795 0.3826834 0
vn -0.9007643 0.1053352 0.4213407
vn -0.8990752 0.3450717 0.2694238
vn 0.9238795 0.3826834 0
vn 0.8990752 0.3450717 0.2694238
vn 0.9007643 0.1053352 0.4213407
vn 0 0 -1
vn -0.9007643 0.1053352 -0.4213407
vn -0.8990752 0.3450717 -0.2694238
vn 0.9007643 0.1053352 -0.4213407
vn 0.8990752 0.3450717 -0.2694238
vn 0.3600056 0.2262736 -0.9050945

vt 0.40625 0.375

usemtl colormap

f 3/1/3 2/1/2 1/1/1
f 2/1/2 3/1/3 4/1/3
f 7/1/4 6/1/4 5/1/4
f 6/1/4 7/1/4 8/1/4
f 9/1/6 7/1/5 5/1/5
f 7/1/5 9/1/6 10/1/7
f 13/1/8 12/1/8 11/1/8
f 12/1/8 13/1/8 4/1/8
f 4/1/8 13/1/8 2/1/8
f 16/1/9 15/1/9 14/1/9
f 15/1/9 16/1/9 17/1/9
f 20/1/4 19/1/4 18/1/4
f 19/1/4 20/1/4 21/1/4
f 10/1/7 8/1/3 7/1/3
f 8/1/3 10/1/7 22/1/10
f 23/1/12 17/1/11 16/1/11
f 17/1/11 23/1/12 24/1/13
f 12/1/9 3/1/9 25/1/9
f 3/1/9 12/1/9 4/1/9
f 15/1/3 24/1/13 26/1/2
f 24/1/13 15/1/3 17/1/3
f 27/1/10 20/1/3 18/1/3
f 20/1/3 27/1/10 28/1/14
f 21/1/15 29/1/15 19/1/15
f 29/1/15 21/1/15 30/1/15
f 29/1/15 30/1/15 31/1/15
f 21/1/11 28/1/14 30/1/16
f 28/1/14 21/1/11 20/1/11
f 31/1/18 32/1/17 29/1/9
f 32/1/17 31/1/18 33/1/19
f 36/1/21 35/1/4 34/1/20
f 35/1/4 36/1/21 37/1/22
f 24/1/13 37/1/22 36/1/21
f 37/1/22 24/1/13 23/1/12
f 33/1/19 27/1/10 32/1/17
f 27/1/10 33/1/19 28/1/14
f 26/1/2 36/1/21 34/1/20
f 36/1/21 26/1/2 24/1/13
f 31/1/18 28/1/14 33/1/19
f 28/1/14 31/1/18 30/1/16
f 15/1/23 35/1/23 14/1/23
f 35/1/23 15/1/23 34/1/23
f 34/1/23 15/1/23 26/1/23
f 32/1/23 19/1/23 29/1/23
f 19/1/23 32/1/23 18/1/23
f 18/1/23 32/1/23 27/1/23
f 37/1/15 14/1/15 35/1/15
f 14/1/15 37/1/15 23/1/15
f 14/1/15 23/1/15 16/1/15
f 40/1/9 39/1/25 38/1/24
f 39/1/25 40/1/9 41/1/17
f 43/1/27 11/1/4 42/1/26
f 11/1/4 43/1/27 13/1/20
f 25/1/5 1/1/1 44/1/28
f 1/1/1 25/1/5 3/1/5
f 39/1/25 22/1/10 10/1/7
f 22/1/10 39/1/25 41/1/17
f 1/1/1 13/1/20 43/1/27
f 13/1/20 1/1/1 2/1/2
f 1/1/1 42/1/26 44/1/28
f 42/1/26 1/1/1 43/1/27
f 38/1/24 10/1/7 9/1/6
f 10/1/7 38/1/24 39/1/25
f 6/1/15 9/1/15 5/1/15
f 9/1/15 6/1/15 40/1/15
f 9/1/15 40/1/15 38/1/15
f 8/1/8 40/1/8 6/1/8
f 40/1/8 8/1/8 41/1/8
f 41/1/8 8/1/8 22/1/8
f 11/1/15 44/1/15 42/1/15
f 44/1/15 11/1/15 12/1/15
f 44/1/15 12/1/15 25/1/15

g road-driveway-double-barrier




usemtl colormap

f 3/1/3 2/1/2 1/1/1
f 2/1/2 3/1/3 4/1/3
f 7/1/4 6/1/4 5/1/4
f 6/1/4 7/1/4 8/1/4
f 9/1/6 7/1/5 5/1/5
f 7/1/5 9/1/6 10/1/7
f 13/1/8 12/1/8 11/1/8
f 12/1/8 13/1/8 4/1/8
f 4/1/8 13/1/8 2/1/8
f 16/1/9 15/1/9 14/1/9
f 15/1/9 16/1/9 17/1/9
f 20/1/4 19/1/4 18/1/4
f 19/1/4 20/1/4 21/1/4
f 10/1/7 8/1/3 7/1/3
f 8/1/3 10/1/7 22/1/10
f 23/1/12 17/1/11 16/1/11
f 17/1/11 23/1/12 24/1/13
f 12/1/9 3/1/9 25/1/9
f 3/1/9 12/1/9 4/1/9
f 15/1/3 24/1/13 26/1/2
f 24/1/13 15/1/3 17/1/3
f 27/1/10 20/1/3 18/1/3
f 20/1/3 27/1/10 28/1/14
f 21/1/15 29/1/15 19/1/15
f 29/1/15 21/1/15 30/1/15
f 29/1/15 30/1/15 31/1/15
f 21/1/11 28/1/14 30/1/16
f 28/1/14 21/1/11 20/1/11
f 31/1/18 32/1/17 29/1/9
f 32/1/17 31/1/18 33/1/19
f 36/1/21 35/1/4 34/1/20
f 35/1/4 36/1/21 37/1/22
f 24/1/13 37/1/22 36/1/21
f 37/1/22 24/1/13 23/1/12
f 33/1/19 27/1/10 32/1/17
f 27/1/10 33/1/19 28/1/14
f 26/1/2 36/1/21 34/1/20
f 36/1/21 26/1/2 24/1/13
f 31/1/18 28/1/14 33/1/19
f 28/1/14 31/1/18 30/1/16
f 15/1/23 35/1/23 14/1/23
f 35/1/23 15/1/23 34/1/23
f 34/1/23 15/1/23 26/1/23
f 32/1/23 19/1/23 29/1/23
f 19/1/23 32/1/23 18/1/23
f 18/1/23 32/1/23 27/1/23
f 37/1/15 14/1/15 35/1/15
f 14/1/15 37/1/15 23/1/15
f 14/1/15 23/1/15 16/1/15
f 40/1/9 39/1/25 38/1/24
f 39/1/25 40/1/9 41/1/17
f 43/1/27 11/1/4 42/1/26
f 11/1/4 43/1/27 13/1/20
f 25/1/5 1/1/1 44/1/28
f 1/1/1 25/1/5 3/1/5
f 39/1/25 22/1/10 10/1/7
f 22/1/10 39/1/25 41/1/17
f 1/1/1 13/1/20 43/1/27
f 13/1/20 1/1/1 2/1/2
f 1/1/1 42/1/26 44/1/28
f 42/1/26 1/1/1 43/1/27
f 38/1/24 10/1/7 9/1/6
f 10/1/7 38/1/24 39/1/25
f 6/1/15 9/1/15 5/1/15
f 9/1/15 6/1/15 40/1/15
f 9/1/15 40/1/15 38/1/15
f 8/1/8 40/1/8 6/1/8
f 40/1/8 8/1/8 41/1/8
f 41/1/8 8/1/8 22/1/8
f 11/1/15 44/1/15 42/1/15
f 44/1/15 11/1/15 12/1/15
f 44/1/15 12/1/15 25/1/15

