# Created by Kenney (www.kenney.nl)

mtllib road-side-exit-barrier.mtl

g road-side-exit-barrier

v -0.7120936 3.356775E-13 0.2698435 1 1 1
v -0.7120936 0.08 0.2698435 1 1 1
v -0.6869801 3.259092E-13 0.3009253 1 1 1
v -0.6869801 0.08 0.3009253 1 1 1
v -0.8089061 4.107676E-13 0.01545683 1 1 1
v -0.8089061 0.08 0.01545683 1 1 1
v -0.8063493 3.921671E-13 0.04744501 1 1 1
v -0.8063493 0.08 0.04744501 1 1 1
v -0.79899 3.827822E-13 0.08824123 1 1 1
v -0.79899 0.08 0.08824123 1 1 1
v -0.735017 3.434606E-13 0.2370283 1 1 1
v -0.735017 0.08 0.2370283 1 1 1
v 0.5000001 0.08 0.5000005 1 1 1
v 0.4700001 0.08 0.5000005 1 1 1
v 0.5000001 0.08 -0.4999998 1 1 1
v 0.4700001 0.08 -0.4999998 1 1 1
v -0.6442668 0.08 0.2955986 1 1 1
v -0.6667908 0.08 0.2711245 1 1 1
v -0.6242668 2.716925E-12 0.2955986 1 1 1
v -0.6467908 2.726513E-12 0.2711245 1 1 1
v -0.6692873 0.08 0.2684118 1 1 1
v -0.6492873 2.851522E-12 0.2684118 1 1 1
v -0.8100002 1.987343E-13 -0.4999998 1 1 1
v -0.7600001 2.674044E-12 -0.4999998 1 1 1
v -0.8100002 0.08 -0.4999998 1 1 1
v -0.7800002 0.08 -0.4999998 1 1 1
v -0.475809 2.476438E-13 0.4361157 1 1 1
v -0.4680432 7.388312E-15 0.4481592 1 1 1
v -0.495809 0.08 0.4361157 1 1 1
v -0.4880432 0.08 0.4481592 1 1 1
v -0.4504182 2.808687E-15 0.4958286 1 1 1
v -0.4501241 1.093019E-13 0.5000005 1 1 1
v -0.4704182 0.08 0.4958286 1 1 1
v -0.4701242 0.08 0.5000005 1 1 1
v -0.5257204 2.699706E-12 0.3811713 1 1 1
v -0.5457204 0.08 0.3811713 1 1 1
v -0.5434479 2.708059E-12 0.3660925 1 1 1
v -0.5634478 0.08 0.3660925 1 1 1
v -0.7405632 1.140507E-13 0.1121941 1 1 1
v -0.727536 9.999601E-14 0.1461701 1 1 1
v -0.7605633 0.08 0.1121941 1 1 1
v -0.747536 0.08 0.1461701 1 1 1
v -0.5016165 2.636443E-13 0.4936032 1 1 1
v -0.5016165 0.08 0.4936032 1 1 1
v -0.5004772 2.597415E-13 0.4980159 1 1 1
v -0.5004772 0.08 0.4980159 1 1 1
v -0.693154 7.803411E-14 0.2100777 1 1 1
v -0.6723024 7.155947E-14 0.2399272 1 1 1
v -0.713154 0.08 0.2100777 1 1 1
v -0.6923024 0.08 0.2399272 1 1 1
v -0.5102745 2.692431E-12 0.3956987 1 1 1
v -0.4968383 2.684574E-12 0.4097774 1 1 1
v -0.5302745 0.08 0.3956987 1 1 1
v -0.5168383 0.08 0.4097774 1 1 1
v -0.5973634 2.713699E-12 0.3215652 1 1 1
v -0.6173633 0.08 0.3215652 1 1 1
v -0.5001516 2.278533E-13 0.5000005 1 1 1
v -0.4517442 5.019541E-16 0.487748 1 1 1
v -0.4539831 0 0.4790764 1 1 1
v -0.4573137 4.004352E-16 0.4696414 1 1 1
v -0.4619355 5.639933E-16 0.4593448 1 1 1
v -0.4853729 2.67828E-12 0.4232881 1 1 1
v -0.5035449 1.056247E-13 0.4881406 1 1 1
v -0.5065315 2.676825E-13 0.4814869 1 1 1
v -0.5108403 2.733563E-13 0.4735957 1 1 1
v -0.5167063 2.772027E-13 0.4644986 1 1 1
v -0.524322 2.806995E-13 0.4542838 1 1 1
v -0.5338329 2.833615E-13 0.4430764 1 1 1
v -0.5453392 2.869372E-13 0.4310199 1 1 1
v -0.5686707 2.709209E-12 0.3463895 1 1 1
v -0.5589018 2.897346E-13 0.4182638 1 1 1
v -0.5748929 2.93739E-13 0.404662 1 1 1
v -0.6002808 2.99503E-13 0.3848301 1 1 1
v -0.6309402 3.087976E-13 0.3583039 1 1 1
v -0.659878 3.161746E-13 0.3303739 1 1 1
v -0.6833994 3.261912E-13 0.3048161 1 1 1
v -0.7116442 8.812959E-14 0.1788232 1 1 1
v -0.7411967 3.471604E-13 0.2265827 1 1 1
v -0.7504513 1.304742E-13 0.07706001 1 1 1
v -0.7554945 3.535674E-13 0.2024146 1 1 1
v -0.7569506 1.492777E-13 0.04103115 1 1 1
v -0.7732173 3.634034E-13 0.1659995 1 1 1
v -0.7592942 1.638513E-13 0.01171195 1 1 1
v -0.7600001 6.282885E-15 0.001774063 1 1 1
v -0.7878362 3.731718E-13 0.1278724 1 1 1
v -0.8100002 1.580084E-13 5.540323E-05 1 1 1
v -0.5108403 0.08 0.4735957 1 1 1
v -0.5065315 0.08 0.4814869 1 1 1
v -0.7800002 0.08 0.001774063 1 1 1
v -0.7878362 0.08 0.1278724 1 1 1
v -0.7792941 0.08 0.01171195 1 1 1
v -0.7769507 0.08 0.04103115 1 1 1
v -0.8100002 0.08 5.540323E-05 1 1 1
v -0.7732173 0.08 0.1659995 1 1 1
v -0.7704514 0.08 0.07706001 1 1 1
v -0.7554945 0.08 0.2024146 1 1 1
v -0.7411967 0.08 0.2265827 1 1 1
v -0.7316442 0.08 0.1788232 1 1 1
v -0.6833994 0.08 0.3048161 1 1 1
v -0.659878 0.08 0.3303739 1 1 1
v -0.6309402 0.08 0.3583039 1 1 1
v -0.6002808 0.08 0.3848301 1 1 1
v -0.5886707 0.08 0.3463895 1 1 1
v -0.5748929 0.08 0.404662 1 1 1
v -0.5589018 0.08 0.4182638 1 1 1
v -0.5453392 0.08 0.4310199 1 1 1
v -0.5338329 0.08 0.4430764 1 1 1
v -0.524322 0.08 0.4542838 1 1 1
v -0.5167063 0.08 0.4644986 1 1 1
v -0.5053729 0.08 0.4232881 1 1 1
v -0.5035449 0.08 0.4881406 1 1 1
v -0.5001516 0.08 0.5000005 1 1 1
v -0.4819355 0.08 0.4593448 1 1 1
v -0.4773138 0.08 0.4696414 1 1 1
v -0.4739831 0.08 0.4790764 1 1 1
v -0.4717442 0.08 0.487748 1 1 1
v 0.5000001 7.291192E-13 0.5000005 1 1 1
v 0.45 7.291192E-13 0.5000005 1 1 1
v 0.5000001 7.291192E-13 -0.4999998 1 1 1
v 0.45 7.291192E-13 -0.4999998 1 1 1

vn -0.7992962 0 0.6009375
vn -0.7572144 0 0.6531668
vn -0.9971635 0 0.07526942
vn -0.9916762 0 0.1287584
vn -0.9744793 0 0.2244785
vn -0.8408256 0 0.5413066
vn 0 1 0
vn 0.7063999 0.1765999 -0.6854283
vn 0.7236712 0.1809178 -0.6660098
vn 0.7021247 0.1755311 -0.6900799
vn 0.7460039 0.1865009 -0.6392934
vn 0.7419671 0.1854917 -0.6442656
vn 0 0 -1
vn 0.8063351 0.2015837 -0.5560467
vn 0.8418025 0.2104506 -0.497071
vn 0.8031205 0.2007801 -0.5609681
vn 0.8390485 0.2097621 -0.5019938
vn 0.9640356 0.2410088 -0.1120283
vn 0.9678827 0.2419706 -0.0682187
vn 0.9638597 0.2409649 -0.1136261
vn 0.659703 0.1649257 -0.7332066
vn 0.6555709 0.1638927 -0.7371341
vn 0.6260172 0.1565042 -0.7639433
vn 0.6222686 0.1555671 -0.7671905
vn 0.9228604 0.2307151 -0.3083825
vn 0.8930988 0.2232746 -0.3905426
vn 0.9241551 0.2310387 -0.3042352
vn 0.8950693 0.2237673 -0.3857196
vn -0.9565076 0 0.2917081
vn -0.9785165 0 0.2061701
vn 0.8212211 0.2053052 -0.5323966
vn 0.7819429 0.1954857 -0.5919046
vn 0.8244327 0.2061081 -0.5270963
vn 0.7856271 0.1964067 -0.5866984
vn 0.695848 0.173962 -0.6968023
vn 0.7326596 0.1831648 -0.6554855
vn 0.6918187 0.1729546 -0.7010522
vn 0.7288101 0.1822025 -0.6600292
vn 0.6630141 0.1657535 -0.7300264
vn 0.6674284 0.166857 -0.7257401
vn 0 -1 0
vn -0.8596276 0 0.5109215
vn -0.8956761 0 0.4447077
vn 0.9695624 0.2423905 -0.0345844
vn 0.9675483 0.241887 -0.07308403
vn 0.9695749 0.2423937 -0.03420803
vn 0.9675555 0.2418888 -0.07298454
vn -1 0 0
vn -0.9993717 0 0.03545194
vn 0.9507566 0.2376891 -0.1989128
vn 0.950215 0.2375537 -0.2016438
vn 0.9051929 0.2262982 -0.3597435
vn 0.9307975 0.2326993 -0.2818998
vn 0.9035649 0.2258912 -0.364066
vn 0.929749 0.2324372 -0.2855525
vn 0 0 1
vn -0.8606654 0 0.5091714
vn -0.8806421 0 0.4737827
vn -0.635144 0 0.7723941
vn -0.674629 0 0.7381574
vn -0.9284304 0 0.3715071
vn 0.8751273 0.2187818 -0.4316102
vn 0.8729133 0.2182283 -0.4363474
vn -0.9491603 0 0.3147939
vn 1 0 0
vn -0.9701428 0.2425356 0
vn -0.7154535 0 0.6986607
vn -0.9868017 0 0.1619343
vn 0.9624195 0.2406048 -0.1259306
vn 0.9464411 0.2366102 -0.2196942
vn 0.9626505 0.2406626 -0.1240401
vn 0.9471254 0.2367813 -0.216538
vn -0.7045255 0 0.7096791
vn -0.743256 0 0.6690075
vn 0.6250381 0.1562595 -0.7647945
vn 0.62951 0.1573775 -0.7608875
vn -0.7358135 0 0.6771846
vn -0.6667206 0 0.745308
vn -0.7824697 0 0.6226889
vn 0.7696916 0.1924229 -0.6087272
vn 0.7661111 0.1915277 -0.6135073
vn -0.6318907 0 0.7750579
vn 0.9701428 0.2425356 0
vn -0.9173053 0 0.3981852
vn -0.8215396 0 0.5701518
vn 0.858716 0.214679 -0.4653173
vn 0.8613454 0.2153363 -0.4601247

vt 0.40625 0.375

usemtl colormap

f 3/1/2 2/1/1 1/1/1
f 2/1/1 3/1/2 4/1/2
f 7/1/4 6/1/3 5/1/3
f 6/1/3 7/1/4 8/1/4
f 9/1/5 8/1/4 7/1/4
f 8/1/4 9/1/5 10/1/5
f 1/1/1 12/1/6 11/1/6
f 12/1/6 1/1/1 2/1/1
f 15/1/7 14/1/7 13/1/7
f 14/1/7 15/1/7 16/1/7
f 19/1/10 18/1/9 17/1/8
f 18/1/9 19/1/10 20/1/9
f 20/1/9 21/1/11 18/1/9
f 21/1/11 20/1/9 22/1/12
f 25/1/13 24/1/13 23/1/13
f 24/1/13 25/1/13 26/1/13
f 29/1/16 28/1/15 27/1/14
f 28/1/15 29/1/16 30/1/17
f 33/1/20 32/1/19 31/1/18
f 32/1/19 33/1/20 34/1/19
f 37/1/23 36/1/22 35/1/21
f 36/1/22 37/1/23 38/1/24
f 41/1/27 40/1/26 39/1/25
f 40/1/26 41/1/27 42/1/28
f 45/1/30 44/1/29 43/1/29
f 44/1/29 45/1/30 46/1/30
f 49/1/33 48/1/32 47/1/31
f 48/1/32 49/1/33 50/1/34
f 53/1/37 52/1/36 51/1/35
f 52/1/36 53/1/37 54/1/38
f 19/1/10 56/1/40 55/1/39
f 56/1/40 19/1/10 17/1/8
f 57/1/41 31/1/41 32/1/41
f 31/1/41 57/1/41 58/1/41
f 58/1/41 57/1/41 59/1/41
f 59/1/41 57/1/41 60/1/41
f 60/1/41 57/1/41 61/1/41
f 61/1/41 57/1/41 28/1/41
f 28/1/41 57/1/41 27/1/41
f 27/1/41 57/1/41 62/1/41
f 62/1/41 57/1/41 52/1/41
f 52/1/41 57/1/41 51/1/41
f 51/1/41 57/1/41 45/1/41
f 51/1/41 45/1/41 43/1/41
f 51/1/41 43/1/41 63/1/41
f 51/1/41 63/1/41 64/1/41
f 51/1/41 64/1/41 65/1/41
f 51/1/41 65/1/41 35/1/41
f 35/1/41 65/1/41 66/1/41
f 35/1/41 66/1/41 67/1/41
f 35/1/41 67/1/41 68/1/41
f 35/1/41 68/1/41 37/1/41
f 37/1/41 68/1/41 69/1/41
f 37/1/41 69/1/41 70/1/41
f 70/1/41 69/1/41 71/1/41
f 70/1/41 71/1/41 72/1/41
f 70/1/41 72/1/41 55/1/41
f 55/1/41 72/1/41 73/1/41
f 55/1/41 73/1/41 19/1/41
f 19/1/41 73/1/41 74/1/41
f 19/1/41 74/1/41 20/1/41
f 20/1/41 74/1/41 75/1/41
f 20/1/41 75/1/41 22/1/41
f 22/1/41 75/1/41 48/1/41
f 48/1/41 75/1/41 76/1/41
f 48/1/41 76/1/41 47/1/41
f 47/1/41 76/1/41 3/1/41
f 47/1/41 3/1/41 1/1/41
f 47/1/41 1/1/41 77/1/41
f 77/1/41 1/1/41 40/1/41
f 40/1/41 1/1/41 11/1/41
f 40/1/41 11/1/41 39/1/41
f 39/1/41 11/1/41 78/1/41
f 39/1/41 78/1/41 79/1/41
f 79/1/41 78/1/41 80/1/41
f 79/1/41 80/1/41 81/1/41
f 81/1/41 80/1/41 82/1/41
f 81/1/41 82/1/41 83/1/41
f 83/1/41 82/1/41 84/1/41
f 23/1/41 84/1/41 82/1/41
f 84/1/41 23/1/41 24/1/41
f 23/1/41 82/1/41 85/1/41
f 23/1/41 85/1/41 9/1/41
f 23/1/41 9/1/41 7/1/41
f 23/1/41 7/1/41 5/1/41
f 23/1/41 5/1/41 86/1/41
f 64/1/43 87/1/42 65/1/42
f 87/1/42 64/1/43 88/1/43
f 25/1/7 89/1/7 26/1/7
f 89/1/7 25/1/7 90/1/7
f 90/1/7 91/1/7 89/1/7
f 90/1/7 92/1/7 91/1/7
f 90/1/7 25/1/7 10/1/7
f 10/1/7 25/1/7 8/1/7
f 8/1/7 25/1/7 6/1/7
f 6/1/7 25/1/7 93/1/7
f 94/1/7 92/1/7 90/1/7
f 94/1/7 95/1/7 92/1/7
f 94/1/7 41/1/7 95/1/7
f 96/1/7 41/1/7 94/1/7
f 96/1/7 42/1/7 41/1/7
f 97/1/7 42/1/7 96/1/7
f 12/1/7 42/1/7 97/1/7
f 12/1/7 98/1/7 42/1/7
f 12/1/7 49/1/7 98/1/7
f 2/1/7 49/1/7 12/1/7
f 2/1/7 50/1/7 49/1/7
f 4/1/7 50/1/7 2/1/7
f 99/1/7 50/1/7 4/1/7
f 99/1/7 21/1/7 50/1/7
f 99/1/7 18/1/7 21/1/7
f 100/1/7 18/1/7 99/1/7
f 100/1/7 17/1/7 18/1/7
f 101/1/7 17/1/7 100/1/7
f 101/1/7 56/1/7 17/1/7
f 102/1/7 56/1/7 101/1/7
f 102/1/7 103/1/7 56/1/7
f 104/1/7 103/1/7 102/1/7
f 104/1/7 38/1/7 103/1/7
f 105/1/7 38/1/7 104/1/7
f 105/1/7 36/1/7 38/1/7
f 106/1/7 36/1/7 105/1/7
f 107/1/7 36/1/7 106/1/7
f 107/1/7 53/1/7 36/1/7
f 108/1/7 53/1/7 107/1/7
f 108/1/7 54/1/7 53/1/7
f 109/1/7 54/1/7 108/1/7
f 87/1/7 54/1/7 109/1/7
f 88/1/7 54/1/7 87/1/7
f 88/1/7 110/1/7 54/1/7
f 111/1/7 110/1/7 88/1/7
f 44/1/7 110/1/7 111/1/7
f 46/1/7 110/1/7 44/1/7
f 112/1/7 110/1/7 46/1/7
f 112/1/7 29/1/7 110/1/7
f 112/1/7 30/1/7 29/1/7
f 112/1/7 113/1/7 30/1/7
f 112/1/7 114/1/7 113/1/7
f 112/1/7 115/1/7 114/1/7
f 112/1/7 116/1/7 115/1/7
f 112/1/7 33/1/7 116/1/7
f 33/1/7 112/1/7 34/1/7
f 89/1/46 83/1/45 84/1/44
f 83/1/45 89/1/46 91/1/47
f 86/1/49 25/1/48 23/1/48
f 25/1/48 86/1/49 93/1/49
f 116/1/51 31/1/18 58/1/50
f 31/1/18 116/1/51 33/1/20
f 114/1/54 59/1/53 60/1/52
f 59/1/53 114/1/54 115/1/55
f 13/1/56 118/1/56 117/1/56
f 118/1/56 13/1/56 14/1/56
f 97/1/57 11/1/6 12/1/6
f 11/1/6 97/1/57 78/1/57
f 96/1/58 78/1/57 97/1/57
f 78/1/57 96/1/58 80/1/58
f 102/1/59 74/1/60 73/1/59
f 74/1/60 102/1/59 101/1/60
f 43/1/29 111/1/61 63/1/61
f 111/1/61 43/1/29 44/1/29
f 30/1/17 61/1/62 28/1/15
f 61/1/62 30/1/17 113/1/63
f 5/1/3 93/1/49 86/1/49
f 93/1/49 5/1/3 6/1/3
f 85/1/64 10/1/5 9/1/5
f 10/1/5 85/1/64 90/1/64
f 34/1/56 57/1/56 32/1/56
f 57/1/56 34/1/56 112/1/56
f 13/1/65 119/1/65 15/1/65
f 119/1/65 13/1/65 117/1/65
f 120/1/66 14/1/66 16/1/66
f 14/1/66 120/1/66 118/1/66
f 101/1/60 75/1/67 74/1/60
f 75/1/67 101/1/60 100/1/67
f 57/1/68 46/1/30 45/1/30
f 46/1/30 57/1/68 112/1/68
f 92/1/71 79/1/70 81/1/69
f 79/1/70 92/1/71 95/1/72
f 68/1/74 106/1/73 69/1/73
f 106/1/73 68/1/74 107/1/74
f 55/1/39 103/1/76 70/1/75
f 103/1/76 55/1/39 56/1/40
f 95/1/72 39/1/25 79/1/70
f 39/1/25 95/1/72 41/1/27
f 76/1/77 4/1/2 3/1/2
f 4/1/2 76/1/77 99/1/77
f 75/1/67 99/1/77 76/1/77
f 99/1/77 75/1/67 100/1/67
f 63/1/61 88/1/43 64/1/43
f 88/1/43 63/1/61 111/1/61
f 106/1/73 71/1/78 69/1/73
f 71/1/78 106/1/73 105/1/78
f 67/1/79 107/1/74 68/1/74
f 107/1/74 67/1/79 108/1/79
f 54/1/38 62/1/80 52/1/36
f 62/1/80 54/1/38 110/1/81
f 115/1/55 58/1/50 59/1/53
f 58/1/50 115/1/55 116/1/51
f 105/1/78 72/1/82 71/1/78
f 72/1/82 105/1/78 104/1/82
f 70/1/75 38/1/24 37/1/23
f 38/1/24 70/1/75 103/1/76
f 113/1/63 60/1/52 61/1/62
f 60/1/52 113/1/63 114/1/54
f 35/1/21 53/1/37 51/1/35
f 53/1/37 35/1/21 36/1/22
f 26/1/83 84/1/44 24/1/83
f 84/1/44 26/1/83 89/1/46
f 82/1/84 90/1/64 85/1/64
f 90/1/64 82/1/84 94/1/84
f 66/1/85 108/1/79 67/1/79
f 108/1/79 66/1/85 109/1/85
f 104/1/82 73/1/59 72/1/82
f 73/1/59 104/1/82 102/1/59
f 98/1/87 47/1/31 77/1/86
f 47/1/31 98/1/87 49/1/33
f 80/1/58 94/1/84 82/1/84
f 94/1/84 80/1/58 96/1/58
f 50/1/34 22/1/12 48/1/32
f 22/1/12 50/1/34 21/1/11
f 110/1/81 27/1/14 62/1/80
f 27/1/14 110/1/81 29/1/16
f 118/1/41 119/1/41 117/1/41
f 119/1/41 118/1/41 120/1/41
f 65/1/42 109/1/85 66/1/85
f 109/1/85 65/1/42 87/1/42
f 91/1/47 81/1/69 83/1/45
f 81/1/69 91/1/47 92/1/71
f 16/1/13 119/1/13 120/1/13
f 119/1/13 16/1/13 15/1/13
f 42/1/28 77/1/86 40/1/26
f 77/1/86 42/1/28 98/1/87

g road-side-exit-barrier




usemtl colormap

f 3/1/2 2/1/1 1/1/1
f 2/1/1 3/1/2 4/1/2
f 7/1/4 6/1/3 5/1/3
f 6/1/3 7/1/4 8/1/4
f 9/1/5 8/1/4 7/1/4
f 8/1/4 9/1/5 10/1/5
f 1/1/1 12/1/6 11/1/6
f 12/1/6 1/1/1 2/1/1
f 15/1/7 14/1/7 13/1/7
f 14/1/7 15/1/7 16/1/7
f 19/1/10 18/1/9 17/1/8
f 18/1/9 19/1/10 20/1/9
f 20/1/9 21/1/11 18/1/9
f 21/1/11 20/1/9 22/1/12
f 25/1/13 24/1/13 23/1/13
f 24/1/13 25/1/13 26/1/13
f 29/1/16 28/1/15 27/1/14
f 28/1/15 29/1/16 30/1/17
f 33/1/20 32/1/19 31/1/18
f 32/1/19 33/1/20 34/1/19
f 37/1/23 36/1/22 35/1/21
f 36/1/22 37/1/23 38/1/24
f 41/1/27 40/1/26 39/1/25
f 40/1/26 41/1/27 42/1/28
f 45/1/30 44/1/29 43/1/29
f 44/1/29 45/1/30 46/1/30
f 49/1/33 48/1/32 47/1/31
f 48/1/32 49/1/33 50/1/34
f 53/1/37 52/1/36 51/1/35
f 52/1/36 53/1/37 54/1/38
f 19/1/10 56/1/40 55/1/39
f 56/1/40 19/1/10 17/1/8
f 57/1/41 31/1/41 32/1/41
f 31/1/41 57/1/41 58/1/41
f 58/1/41 57/1/41 59/1/41
f 59/1/41 57/1/41 60/1/41
f 60/1/41 57/1/41 61/1/41
f 61/1/41 57/1/41 28/1/41
f 28/1/41 57/1/41 27/1/41
f 27/1/41 57/1/41 62/1/41
f 62/1/41 57/1/41 52/1/41
f 52/1/41 57/1/41 51/1/41
f 51/1/41 57/1/41 45/1/41
f 51/1/41 45/1/41 43/1/41
f 51/1/41 43/1/41 63/1/41
f 51/1/41 63/1/41 64/1/41
f 51/1/41 64/1/41 65/1/41
f 51/1/41 65/1/41 35/1/41
f 35/1/41 65/1/41 66/1/41
f 35/1/41 66/1/41 67/1/41
f 35/1/41 67/1/41 68/1/41
f 35/1/41 68/1/41 37/1/41
f 37/1/41 68/1/41 69/1/41
f 37/1/41 69/1/41 70/1/41
f 70/1/41 69/1/41 71/1/41
f 70/1/41 71/1/41 72/1/41
f 70/1/41 72/1/41 55/1/41
f 55/1/41 72/1/41 73/1/41
f 55/1/41 73/1/41 19/1/41
f 19/1/41 73/1/41 74/1/41
f 19/1/41 74/1/41 20/1/41
f 20/1/41 74/1/41 75/1/41
f 20/1/41 75/1/41 22/1/41
f 22/1/41 75/1/41 48/1/41
f 48/1/41 75/1/41 76/1/41
f 48/1/41 76/1/41 47/1/41
f 47/1/41 76/1/41 3/1/41
f 47/1/41 3/1/41 1/1/41
f 47/1/41 1/1/41 77/1/41
f 77/1/41 1/1/41 40/1/41
f 40/1/41 1/1/41 11/1/41
f 40/1/41 11/1/41 39/1/41
f 39/1/41 11/1/41 78/1/41
f 39/1/41 78/1/41 79/1/41
f 79/1/41 78/1/41 80/1/41
f 79/1/41 80/1/41 81/1/41
f 81/1/41 80/1/41 82/1/41
f 81/1/41 82/1/41 83/1/41
f 83/1/41 82/1/41 84/1/41
f 23/1/41 84/1/41 82/1/41
f 84/1/41 23/1/41 24/1/41
f 23/1/41 82/1/41 85/1/41
f 23/1/41 85/1/41 9/1/41
f 23/1/41 9/1/41 7/1/41
f 23/1/41 7/1/41 5/1/41
f 23/1/41 5/1/41 86/1/41
f 64/1/43 87/1/42 65/1/42
f 87/1/42 64/1/43 88/1/43
f 25/1/7 89/1/7 26/1/7
f 89/1/7 25/1/7 90/1/7
f 90/1/7 91/1/7 89/1/7
f 90/1/7 92/1/7 91/1/7
f 90/1/7 25/1/7 10/1/7
f 10/1/7 25/1/7 8/1/7
f 8/1/7 25/1/7 6/1/7
f 6/1/7 25/1/7 93/1/7
f 94/1/7 92/1/7 90/1/7
f 94/1/7 95/1/7 92/1/7
f 94/1/7 41/1/7 95/1/7
f 96/1/7 41/1/7 94/1/7
f 96/1/7 42/1/7 41/1/7
f 97/1/7 42/1/7 96/1/7
f 12/1/7 42/1/7 97/1/7
f 12/1/7 98/1/7 42/1/7
f 12/1/7 49/1/7 98/1/7
f 2/1/7 49/1/7 12/1/7
f 2/1/7 50/1/7 49/1/7
f 4/1/7 50/1/7 2/1/7
f 99/1/7 50/1/7 4/1/7
f 99/1/7 21/1/7 50/1/7
f 99/1/7 18/1/7 21/1/7
f 100/1/7 18/1/7 99/1/7
f 100/1/7 17/1/7 18/1/7
f 101/1/7 17/1/7 100/1/7
f 101/1/7 56/1/7 17/1/7
f 102/1/7 56/1/7 101/1/7
f 102/1/7 103/1/7 56/1/7
f 104/1/7 103/1/7 102/1/7
f 104/1/7 38/1/7 103/1/7
f 105/1/7 38/1/7 104/1/7
f 105/1/7 36/1/7 38/1/7
f 106/1/7 36/1/7 105/1/7
f 107/1/7 36/1/7 106/1/7
f 107/1/7 53/1/7 36/1/7
f 108/1/7 53/1/7 107/1/7
f 108/1/7 54/1/7 53/1/7
f 109/1/7 54/1/7 108/1/7
f 87/1/7 54/1/7 109/1/7
f 88/1/7 54/1/7 87/1/7
f 88/1/7 110/1/7 54/1/7
f 111/1/7 110/1/7 88/1/7
f 44/1/7 110/1/7 111/1/7
f 46/1/7 110/1/7 44/1/7
f 112/1/7 110/1/7 46/1/7
f 112/1/7 29/1/7 110/1/7
f 112/1/7 30/1/7 29/1/7
f 112/1/7 113/1/7 30/1/7
f 112/1/7 114/1/7 113/1/7
f 112/1/7 115/1/7 114/1/7
f 112/1/7 116/1/7 115/1/7
f 112/1/7 33/1/7 116/1/7
f 33/1/7 112/1/7 34/1/7
f 89/1/46 83/1/45 84/1/44
f 83/1/45 89/1/46 91/1/47
f 86/1/49 25/1/48 23/1/48
f 25/1/48 86/1/49 93/1/49
f 116/1/51 31/1/18 58/1/50
f 31/1/18 116/1/51 33/1/20
f 114/1/54 59/1/53 60/1/52
f 59/1/53 114/1/54 115/1/55
f 13/1/56 118/1/56 117/1/56
f 118/1/56 13/1/56 14/1/56
f 97/1/57 11/1/6 12/1/6
f 11/1/6 97/1/57 78/1/57
f 96/1/58 78/1/57 97/1/57
f 78/1/57 96/1/58 80/1/58
f 102/1/59 74/1/60 73/1/59
f 74/1/60 102/1/59 101/1/60
f 43/1/29 111/1/61 63/1/61
f 111/1/61 43/1/29 44/1/29
f 30/1/17 61/1/62 28/1/15
f 61/1/62 30/1/17 113/1/63
f 5/1/3 93/1/49 86/1/49
f 93/1/49 5/1/3 6/1/3
f 85/1/64 10/1/5 9/1/5
f 10/1/5 85/1/64 90/1/64
f 34/1/56 57/1/56 32/1/56
f 57/1/56 34/1/56 112/1/56
f 13/1/65 119/1/65 15/1/65
f 119/1/65 13/1/65 117/1/65
f 120/1/66 14/1/66 16/1/66
f 14/1/66 120/1/66 118/1/66
f 101/1/60 75/1/67 74/1/60
f 75/1/67 101/1/60 100/1/67
f 57/1/68 46/1/30 45/1/30
f 46/1/30 57/1/68 112/1/68
f 92/1/71 79/1/70 81/1/69
f 79/1/70 92/1/71 95/1/72
f 68/1/74 106/1/73 69/1/73
f 106/1/73 68/1/74 107/1/74
f 55/1/39 103/1/76 70/1/75
f 103/1/76 55/1/39 56/1/40
f 95/1/72 39/1/25 79/1/70
f 39/1/25 95/1/72 41/1/27
f 76/1/77 4/1/2 3/1/2
f 4/1/2 76/1/77 99/1/77
f 75/1/67 99/1/77 76/1/77
f 99/1/77 75/1/67 100/1/67
f 63/1/61 88/1/43 64/1/43
f 88/1/43 63/1/61 111/1/61
f 106/1/73 71/1/78 69/1/73
f 71/1/78 106/1/73 105/1/78
f 67/1/79 107/1/74 68/1/74
f 107/1/74 67/1/79 108/1/79
f 54/1/38 62/1/80 52/1/36
f 62/1/80 54/1/38 110/1/81
f 115/1/55 58/1/50 59/1/53
f 58/1/50 115/1/55 116/1/51
f 105/1/78 72/1/82 71/1/78
f 72/1/82 105/1/78 104/1/82
f 70/1/75 38/1/24 37/1/23
f 38/1/24 70/1/75 103/1/76
f 113/1/63 60/1/52 61/1/62
f 60/1/52 113/1/63 114/1/54
f 35/1/21 53/1/37 51/1/35
f 53/1/37 35/1/21 36/1/22
f 26/1/83 84/1/44 24/1/83
f 84/1/44 26/1/83 89/1/46
f 82/1/84 90/1/64 85/1/64
f 90/1/64 82/1/84 94/1/84
f 66/1/85 108/1/79 67/1/79
f 108/1/79 66/1/85 109/1/85
f 104/1/82 73/1/59 72/1/82
f 73/1/59 104/1/82 102/1/59
f 98/1/87 47/1/31 77/1/86
f 47/1/31 98/1/87 49/1/33
f 80/1/58 94/1/84 82/1/84
f 94/1/84 80/1/58 96/1/58
f 50/1/34 22/1/12 48/1/32
f 22/1/12 50/1/34 21/1/11
f 110/1/81 27/1/14 62/1/80
f 27/1/14 110/1/81 29/1/16
f 118/1/41 119/1/41 117/1/41
f 119/1/41 118/1/41 120/1/41
f 65/1/42 109/1/85 66/1/85
f 109/1/85 65/1/42 87/1/42
f 91/1/47 81/1/69 83/1/45
f 81/1/69 91/1/47 92/1/71
f 16/1/13 119/1/13 120/1/13
f 119/1/13 16/1/13 15/1/13
f 42/1/28 77/1/86 40/1/26
f 77/1/86 42/1/28 98/1/87

