# Created by Kenney (www.kenney.nl)

mtllib road-sign-stop.mtl

g road-sign-stop

v 0.01609603 0.4149688 0.025 1 1 1
v -0.01140397 0.4149688 0.025 1 1 1
v 0.01609603 0.4349688 0.025 1 1 1
v -0.01140397 0.4349688 0.025 1 1 1
v 0.02609603 0.4349688 -0.015 1 1 1
v 0.02609603 0.4149688 -0.015 1 1 1
v 0.02609603 0.4349688 0.015 1 1 1
v 0.02609603 0.4149688 0.015 1 1 1
v -0.01140397 0.4149688 -0.025 1 1 1
v 0.01609603 0.4149688 -0.025 1 1 1
v -0.01140397 0.4349688 -0.025 1 1 1
v 0.01609603 0.4349688 -0.025 1 1 1
v -0.01140397 0.3992065 -0.06219557 1 1 1
v -0.01140397 0.3627732 -0.02576225 1 1 1
v -0.01140396 0.450731 -0.06219557 1 1 1
v -0.01140396 0.4871643 -0.02576225 1 1 1
v -0.01140397 0.3627732 0.02576225 1 1 1
v -0.01140396 0.4871643 0.02576225 1 1 1
v -0.01140397 0.3992065 0.06219557 1 1 1
v -0.01140396 0.450731 0.06219557 1 1 1
v -0.03140397 0.4535934 0.06910618 1 1 1
v -0.03140397 0.4940749 0.02862472 1 1 1
v -0.03140397 0.396344 -0.06910618 1 1 1
v -0.03140397 0.4535934 -0.06910618 1 1 1
v -0.03140397 0.4940749 -0.02862472 1 1 1
v -0.03140397 0.396344 0.06910618 1 1 1
v -0.03140397 0.3558625 0.02862472 1 1 1
v -0.03140397 0.3558625 -0.02862472 1 1 1
v -0.05140397 0.3992065 -0.06219557 1 1 1
v -0.05140397 0.450731 -0.06219557 1 1 1
v -0.05140397 0.3627732 -0.02576225 1 1 1
v -0.05140397 0.4871643 -0.02576225 1 1 1
v -0.05140397 0.3627732 0.02576225 1 1 1
v -0.05140397 0.4871643 0.02576225 1 1 1
v -0.05140397 0.3992065 0.06219557 1 1 1
v -0.05140397 0.450731 0.06219557 1 1 1
v 0.025 0.1038462 -0.025 1 1 1
v 0.0225 0 -0.0225 1 1 1
v 0.025 0.1038462 0.025 1 1 1
v 0.0225 0 0.0225 1 1 1
v -0.025 0.1038462 -0.025 1 1 1
v -0.025 0.1038462 0.025 1 1 1
v -0.0225 0 -0.0225 1 1 1
v -0.0225 0 0.0225 1 1 1
v 0.017375 0.1338461 0.017375 1 1 1
v -0.017375 0.1338461 0.017375 1 1 1
v -0.017375 0.1338461 -0.017375 1 1 1
v 0.017375 0.1338461 -0.017375 1 1 1
v -0.01881375 0.1589 -0.01881375 1 1 1
v 0.01881375 0.1589 -0.01881375 1 1 1
v 0.01881375 0.1589 0.01881375 1 1 1
v -0.01881375 0.1589 0.01881375 1 1 1
v -0.0125 0.1725 -0.0125 1 1 1
v 0.0125 0.1725 -0.0125 1 1 1
v 0.0125 0.1725 0.0125 1 1 1
v -0.0125 0.1725 0.0125 1 1 1
v -0.01125 0.475 -0.01125 1 1 1
v 0.01125 0.475 -0.01125 1 1 1
v -0.01125 0.475 0.01125 1 1 1
v 0.01125 0.475 0.01125 1 1 1

vn 0.3826834 0 0.9238795
vn 0 0 1
vn 0.9238795 0 -0.3826834
vn 0.9238795 0 0.3826834
vn 0 0 -1
vn 0.3826834 0 -0.9238795
vn 0 -1 0
vn 0 1 0
vn 1 0 0
vn 0.3503022 0.3584354 0.8653395
vn 0.3503022 0.8653395 0.3584354
vn 0.3503022 -0.3584354 -0.8653395
vn 0.3503022 0.3584354 -0.8653395
vn 0.3503022 0.8653395 -0.3584354
vn 0.3503022 -0.3584354 0.8653395
vn 0.3503022 -0.8653395 0.3584354
vn 0.3503022 -0.8653395 -0.3584354
vn -1 0 0
vn -0.3503022 0.3584354 0.8653395
vn -0.3503022 0.8653395 0.3584354
vn -0.3503022 -0.3584354 0.8653395
vn -0.3503022 0.8653395 -0.3584354
vn -0.3503022 -0.8653395 0.3584354
vn -0.3503022 -0.8653395 -0.3584354
vn -0.3503022 -0.3584354 -0.8653395
vn -0.3503022 0.3584354 -0.8653395
vn 0.9947995 0.1018525 0
vn 0.9997103 -0.0240671 0
vn -0.9947995 0.1018525 0
vn -0.9997103 -0.0240671 0
vn 0 -0.0240671 -0.9997103
vn 0 0.1018525 -0.9947995
vn 0 -0.0240671 0.9997103
vn 0 0.1018525 0.9947995
vn 0 0.1038447 0.9945936
vn 0 0.1038447 -0.9945936
vn 0.9945936 0.1038447 0
vn -0.9945936 0.1038447 0
vn 0 0.1561019 -0.9877411
vn 0 0.1561019 0.9877411
vn 0.9877411 0.1561019 0
vn -0.9877411 0.1561019 0
vn 0 0.4210819 -0.9070227
vn 0.9070227 0.4210819 0
vn 0 0.4210819 0.9070227
vn -0.9070227 0.4210819 0
vn 0 0.004132197 -0.9999915
vn -0.9999915 0.004132197 0
vn 0 0.004132197 0.9999915
vn 0.9999915 0.004132197 0

vt 0.34375 0.025
vt 0.34375 0.225
vt 0.34375 0.08118367
vt 0.34375 0.02595238
vt 0.34375 0.1592925
vt 0.34375 0.2145238
vt 0.34375 0.1636319
vt 0.34375 0.07684429
vt 0.59375 0.5811837
vt 0.59375 0.6592925
vt 0.59375 0.5259524
vt 0.59375 0.7145238
vt 0.59375 0.4092925
vt 0.59375 0.4645238
vt 0.59375 0.4136319
vt 0.59375 0.3311837
vt 0.59375 0.475
vt 0.59375 0.3268443
vt 0.59375 0.2759524
vt 0.59375 0.275
vt 0.46875 0.3852007
vt 0.46875 0.325
vt 0.46875 0.4025919
vt 0.46875 0.4171159
vt 0.46875 0.425
vt 0.46875 0.3312016

usemtl colormap

f 3/2/1 2/1/2 1/1/1
f 2/1/2 3/2/1 4/2/2
f 7/2/4 6/1/3 5/2/3
f 6/1/3 7/2/4 8/1/4
f 11/2/5 10/1/6 9/1/5
f 10/1/6 11/2/5 12/2/6
f 12/2/6 6/1/3 10/1/6
f 6/1/3 12/2/6 5/2/3
f 7/2/4 1/1/1 8/1/4
f 1/1/1 7/2/4 3/2/1
f 1/1/7 6/1/7 8/1/7
f 6/1/7 1/1/7 10/1/7
f 10/1/7 1/1/7 2/1/7
f 10/1/7 2/1/7 9/1/7
f 12/2/8 7/2/8 5/2/8
f 7/2/8 12/2/8 3/2/8
f 3/2/8 12/2/8 11/2/8
f 3/2/8 11/2/8 4/2/8
f 15/5/9 14/4/9 13/3/9
f 14/4/9 15/5/9 16/6/9
f 14/4/9 16/6/9 17/4/9
f 17/4/9 16/6/9 18/6/9
f 17/4/9 18/6/9 19/3/9
f 19/3/9 18/6/9 20/5/9
f 18/6/11 21/7/10 20/5/10
f 21/7/10 18/6/11 22/2/11
f 24/7/13 13/3/12 23/8/12
f 13/3/12 24/7/13 15/5/13
f 24/7/13 16/6/14 15/5/13
f 16/6/14 24/7/13 25/2/14
f 26/8/15 17/4/16 19/3/15
f 17/4/16 26/8/15 27/1/16
f 19/3/15 21/7/10 26/8/15
f 21/7/10 19/3/15 20/5/10
f 14/4/17 23/8/12 13/3/12
f 23/8/12 14/4/17 28/1/17
f 25/2/14 18/6/11 16/6/14
f 18/6/11 25/2/14 22/2/11
f 27/1/16 14/4/17 17/4/16
f 14/4/17 27/1/16 28/1/17
f 31/11/18 30/10/18 29/9/18
f 30/10/18 31/11/18 32/12/18
f 32/12/18 31/11/18 33/11/18
f 32/12/18 33/11/18 34/12/18
f 34/12/18 33/11/18 35/9/18
f 34/12/18 35/9/18 36/10/18
f 21/15/19 34/14/20 36/13/19
f 35/16/21 21/15/19 36/13/19
f 34/14/20 21/15/19 22/17/20
f 21/15/19 35/16/21 26/18/21
f 22/17/20 32/14/22 34/14/20
f 32/14/22 22/17/20 25/17/22
f 33/19/23 26/18/21 35/16/21
f 26/18/21 33/19/23 27/20/23
f 33/19/23 28/20/24 27/20/23
f 28/20/24 33/19/23 31/19/24
f 31/19/24 23/18/25 28/20/24
f 23/18/25 31/19/24 29/16/25
f 24/15/26 32/14/22 25/17/22
f 29/16/25 24/15/26 23/18/25
f 32/14/22 24/15/26 30/13/26
f 24/15/26 29/16/25 30/13/26
f 39/21/27 38/22/28 37/21/27
f 38/22/28 39/21/27 40/22/28
f 43/22/30 42/21/29 41/21/29
f 42/21/29 43/22/30 44/22/30
f 41/21/32 38/22/31 43/22/31
f 38/22/31 41/21/32 37/21/32
f 39/21/34 44/22/33 40/22/33
f 44/22/33 39/21/34 42/21/34
f 45/23/35 42/21/34 39/21/34
f 42/21/34 45/23/35 46/23/35
f 47/23/36 37/21/32 41/21/32
f 37/21/32 47/23/36 48/23/36
f 48/23/37 39/21/27 37/21/27
f 39/21/27 48/23/37 45/23/37
f 42/21/29 47/23/38 41/21/29
f 47/23/38 42/21/29 46/23/38
f 49/24/39 48/23/36 47/23/36
f 48/23/36 49/24/39 50/24/39
f 51/24/40 46/23/35 45/23/35
f 46/23/35 51/24/40 52/24/40
f 51/24/41 48/23/37 50/24/41
f 48/23/37 51/24/41 45/23/37
f 47/23/38 52/24/42 49/24/42
f 52/24/42 47/23/38 46/23/38
f 53/25/43 50/24/39 49/24/39
f 50/24/39 53/25/43 54/25/43
f 54/25/44 51/24/41 50/24/41
f 51/24/41 54/25/44 55/25/44
f 55/25/45 52/24/40 51/24/40
f 52/24/40 55/25/45 56/25/45
f 52/24/42 53/25/46 49/24/42
f 53/25/46 52/24/42 56/25/46
f 57/25/47 54/26/47 53/26/47
f 54/26/47 57/25/47 58/25/47
f 56/26/48 57/25/48 53/26/48
f 57/25/48 56/26/48 59/25/48
f 57/25/8 60/25/8 58/25/8
f 60/25/8 57/25/8 59/25/8
f 60/25/49 56/26/49 55/26/49
f 56/26/49 60/25/49 59/25/49
f 58/25/50 55/26/50 54/26/50
f 55/26/50 58/25/50 60/25/50

g road-sign-stop




usemtl colormap

f 3/2/1 2/1/2 1/1/1
f 2/1/2 3/2/1 4/2/2
f 7/2/4 6/1/3 5/2/3
f 6/1/3 7/2/4 8/1/4
f 11/2/5 10/1/6 9/1/5
f 10/1/6 11/2/5 12/2/6
f 12/2/6 6/1/3 10/1/6
f 6/1/3 12/2/6 5/2/3
f 7/2/4 1/1/1 8/1/4
f 1/1/1 7/2/4 3/2/1
f 1/1/7 6/1/7 8/1/7
f 6/1/7 1/1/7 10/1/7
f 10/1/7 1/1/7 2/1/7
f 10/1/7 2/1/7 9/1/7
f 12/2/8 7/2/8 5/2/8
f 7/2/8 12/2/8 3/2/8
f 3/2/8 12/2/8 11/2/8
f 3/2/8 11/2/8 4/2/8
f 15/5/9 14/4/9 13/3/9
f 14/4/9 15/5/9 16/6/9
f 14/4/9 16/6/9 17/4/9
f 17/4/9 16/6/9 18/6/9
f 17/4/9 18/6/9 19/3/9
f 19/3/9 18/6/9 20/5/9
f 18/6/11 21/7/10 20/5/10
f 21/7/10 18/6/11 22/2/11
f 24/7/13 13/3/12 23/8/12
f 13/3/12 24/7/13 15/5/13
f 24/7/13 16/6/14 15/5/13
f 16/6/14 24/7/13 25/2/14
f 26/8/15 17/4/16 19/3/15
f 17/4/16 26/8/15 27/1/16
f 19/3/15 21/7/10 26/8/15
f 21/7/10 19/3/15 20/5/10
f 14/4/17 23/8/12 13/3/12
f 23/8/12 14/4/17 28/1/17
f 25/2/14 18/6/11 16/6/14
f 18/6/11 25/2/14 22/2/11
f 27/1/16 14/4/17 17/4/16
f 14/4/17 27/1/16 28/1/17
f 31/11/18 30/10/18 29/9/18
f 30/10/18 31/11/18 32/12/18
f 32/12/18 31/11/18 33/11/18
f 32/12/18 33/11/18 34/12/18
f 34/12/18 33/11/18 35/9/18
f 34/12/18 35/9/18 36/10/18
f 21/15/19 34/14/20 36/13/19
f 35/16/21 21/15/19 36/13/19
f 34/14/20 21/15/19 22/17/20
f 21/15/19 35/16/21 26/18/21
f 22/17/20 32/14/22 34/14/20
f 32/14/22 22/17/20 25/17/22
f 33/19/23 26/18/21 35/16/21
f 26/18/21 33/19/23 27/20/23
f 33/19/23 28/20/24 27/20/23
f 28/20/24 33/19/23 31/19/24
f 31/19/24 23/18/25 28/20/24
f 23/18/25 31/19/24 29/16/25
f 24/15/26 32/14/22 25/17/22
f 29/16/25 24/15/26 23/18/25
f 32/14/22 24/15/26 30/13/26
f 24/15/26 29/16/25 30/13/26
f 39/21/27 38/22/28 37/21/27
f 38/22/28 39/21/27 40/22/28
f 43/22/30 42/21/29 41/21/29
f 42/21/29 43/22/30 44/22/30
f 41/21/32 38/22/31 43/22/31
f 38/22/31 41/21/32 37/21/32
f 39/21/34 44/22/33 40/22/33
f 44/22/33 39/21/34 42/21/34
f 45/23/35 42/21/34 39/21/34
f 42/21/34 45/23/35 46/23/35
f 47/23/36 37/21/32 41/21/32
f 37/21/32 47/23/36 48/23/36
f 48/23/37 39/21/27 37/21/27
f 39/21/27 48/23/37 45/23/37
f 42/21/29 47/23/38 41/21/29
f 47/23/38 42/21/29 46/23/38
f 49/24/39 48/23/36 47/23/36
f 48/23/36 49/24/39 50/24/39
f 51/24/40 46/23/35 45/23/35
f 46/23/35 51/24/40 52/24/40
f 51/24/41 48/23/37 50/24/41
f 48/23/37 51/24/41 45/23/37
f 47/23/38 52/24/42 49/24/42
f 52/24/42 47/23/38 46/23/38
f 53/25/43 50/24/39 49/24/39
f 50/24/39 53/25/43 54/25/43
f 54/25/44 51/24/41 50/24/41
f 51/24/41 54/25/44 55/25/44
f 55/25/45 52/24/40 51/24/40
f 52/24/40 55/25/45 56/25/45
f 52/24/42 53/25/46 49/24/42
f 53/25/46 52/24/42 56/25/46
f 57/25/47 54/26/47 53/26/47
f 54/26/47 57/25/47 58/25/47
f 56/26/48 57/25/48 53/26/48
f 57/25/48 56/26/48 59/25/48
f 57/25/8 60/25/8 58/25/8
f 60/25/8 57/25/8 59/25/8
f 60/25/49 56/26/49 55/26/49
f 56/26/49 60/25/49 59/25/49
f 58/25/50 55/26/50 54/26/50
f 55/26/50 58/25/50 60/25/50

