# Created by Kenney (www.kenney.nl)

mtllib traffic-light-object-hanging.mtl

g traffic-light-object-hanging

v 0.02750001 -0.025 -0.01000023 1 1 1
v 1.117587E-08 -0.025 -0.01000023 1 1 1
v 0.02750001 -0.02500001 0.009999769 1 1 1
v 1.117587E-08 -0.02500001 0.009999769 1 1 1
v 0.03750001 0.015 0.009999774 1 1 1
v 0.03750001 0.015 -0.01000023 1 1 1
v 0.03750001 -0.01500001 0.009999771 1 1 1
v 0.03750001 -0.015 -0.01000023 1 1 1
v 1.117587E-08 0.025 -0.01000023 1 1 1
v 0.02750001 0.025 -0.01000023 1 1 1
v 1.117587E-08 0.025 0.009999776 1 1 1
v 0.02750001 0.025 0.009999776 1 1 1
v -1.117587E-08 0.06159376 -0.03053125 1 1 1
v -1.117587E-08 -0.06159375 -0.03053125 1 1 1
v -1.117587E-08 0.07159375 -0.02053125 1 1 1
v -1.117587E-08 -0.07159375 -0.02053125 1 1 1
v -1.117587E-08 0.07159375 0.02053125 1 1 1
v -1.117587E-08 -0.07159375 0.02053125 1 1 1
v -1.117587E-08 0.06159376 0.03053125 1 1 1
v -1.117587E-08 -0.06159375 0.03053125 1 1 1
v -0.03750001 -0.07159375 -0.02053125 1 1 1
v -0.03750001 -0.06159375 -0.03053125 1 1 1
v -0.03750001 0.06159376 -0.03053125 1 1 1
v -0.03750001 0.07159375 -0.02053125 1 1 1
v -0.03750001 0.07159375 0.02053125 1 1 1
v -0.03750001 -0.07159375 0.02053125 1 1 1
v -0.03750001 0.06159376 0.03053125 1 1 1
v -0.03750001 -0.06159375 0.03053125 1 1 1
v -0.03750001 -0.06159375 -0.02053125 1 1 1
v -0.03750001 0.06159376 -0.02053125 1 1 1
v -0.03750001 -0.06159375 0.02053125 1 1 1
v -0.03750001 0.06159376 0.02053125 1 1 1
v -0.03749996 -0.0410625 -0.0153985 1 1 1
v -0.03749996 -0.02951367 -0.01154889 1 1 1
v -0.03749996 -0.05261133 -0.01154889 1 1 1
v -0.03749996 -0.05646094 -6.519258E-08 1 1 1
v -0.03749996 -0.02566407 -6.519258E-08 1 1 1
v -0.03749996 -0.02951367 0.01154877 1 1 1
v -0.03749996 -0.05261133 0.01154877 1 1 1
v -0.03749996 -0.0410625 0.01539837 1 1 1
v -0.03749996 0.0410625 -0.0153985 1 1 1
v -0.03749996 0.05261134 -0.01154889 1 1 1
v -0.03749996 0.02951368 -0.01154889 1 1 1
v -0.03749996 0.02566407 -6.519258E-08 1 1 1
v -0.03749996 0.05646095 -6.519258E-08 1 1 1
v -0.03749996 0.05261134 0.01154877 1 1 1
v -0.03749996 0.02951368 0.01154877 1 1 1
v -0.03749996 0.0410625 0.01539837 1 1 1
v -0.02749997 -0.06159375 -0.02053125 1 1 1
v -0.02749997 0.06159374 -0.02053125 1 1 1
v -0.02749997 -0.06159375 0.02053125 1 1 1
v -0.02749997 0.06159374 0.02053125 1 1 1
v -0.03749997 -0.06159375 -0.02053125 1 1 1
v -0.03749997 -0.06159375 0.02053125 1 1 1
v -0.03749997 0.02053125 -0.02053125 1 1 1
v -0.03749997 0.02053125 0.02053125 1 1 1
v -0.06009997 0.02053125 -0.02053125 1 1 1
v -0.06009997 0.02053125 0.02053125 1 1 1
v -0.03749997 -0.02053125 -0.02053125 1 1 1
v -0.03749997 -0.02053125 0.02053125 1 1 1
v -0.06009997 -0.02053125 -0.02053125 1 1 1
v -0.06009997 -0.02053125 0.02053125 1 1 1
v -0.06009997 0.06159374 0.02053125 1 1 1
v -0.06009997 0.06159374 -0.02053125 1 1 1
v -0.03749996 -7.450581E-09 -0.0153985 1 1 1
v -0.03749996 0.01154882 -0.01154889 1 1 1
v -0.03749996 -0.01154883 -0.01154889 1 1 1
v -0.03749996 -0.01539844 -6.519258E-08 1 1 1
v -0.03749996 0.01539843 -6.519258E-08 1 1 1
v -0.03749996 0.01154882 0.01154877 1 1 1
v -0.03749996 -0.01154883 0.01154877 1 1 1
v -0.03749996 -7.450581E-09 0.01539837 1 1 1

vn 0.3826834 -0.9238796 -1.10135E-07
vn 0 -1 -1.192093E-07
vn 0.9238795 0.3826835 4.561942E-08
vn 0.9238795 -0.3826835 -4.561942E-08
vn 0 1 1.192093E-07
vn 0.3826834 0.9238796 1.10135E-07
vn 0 1.192093E-07 -1
vn 0 -1.192093E-07 1
vn 1 0 0
vn 0 -0.9238795 -0.3826834
vn 0 -0.3826834 -0.9238795
vn 0 0.3826834 -0.9238795
vn 0 0.9238795 -0.3826834
vn 0 0.9238795 0.3826834
vn 0 -0.9238795 0.3826834
vn 0 0.3826834 0.9238795
vn 0 -0.3826834 0.9238795
vn -1 0 0
vn -1 3.030692E-17 0
vn -0.3144855 0.1048285 0.9434564
vn -0.3015113 -0.3015114 0.904534
vn -0.3144855 0.1048285 -0.9434564
vn -0.3015113 -0.3015114 -0.904534
vn 0.3144855 -0.1048285 0.9434564
vn 0.3015113 0.3015114 -0.904534
vn 0.3144855 -0.1048285 -0.9434564
vn 0.3015113 0.3015114 0.904534
vn 6.819458E-17 0.1406332 0.9900618
vn 6.819458E-17 0.1406332 -0.9900618
vn -6.819458E-17 -0.1406332 -0.9900618
vn -6.819458E-17 -0.1406332 0.9900618
vn 4.849108E-16 1 0
vn 0 0 1
vn 3.360912E-16 0.693099 0.7208424
vn 0 0 -1
vn -3.360912E-16 -0.693099 -0.7208424
vn 3.360912E-16 0.693099 -0.7208424
vn -3.360912E-16 -0.693099 0.7208424
vn -4.849108E-16 -1 0

vt 0.34375 0.025
vt 0.34375 0.225
vt 0.34375 0.2119441
vt 0.34375 0.05111179
vt 0.34375 0.0380559
vt 0.84375 0.0380559
vt 0.84375 0.05111179
vt 0.84375 0.2119441
vt 0.84375 0.225
vt 0.96875 0.125
vt 0.96875 0.2
vt 0.96875 0.05
vt 0.96875 0.025
vt 0.96875 0.225
vt 0.59375 0.625
vt 0.59375 0.7
vt 0.59375 0.55
vt 0.59375 0.525
vt 0.59375 0.725
vt 0.21875 0.025
vt 0.21875 0.225
vt 0.21875 0.1583333
vt 0.21875 0.09166666
vt 0.09375 0.1583333
vt 0.09375 0.09166666
vt 0.71875 0.125
vt 0.71875 0.2
vt 0.71875 0.05
vt 0.71875 0.025
vt 0.71875 0.225

usemtl colormap

f 3/2/1 2/1/2 1/1/1
f 2/1/2 3/2/1 4/2/2
f 7/2/4 6/1/3 5/2/3
f 6/1/3 7/2/4 8/1/4
f 11/2/5 10/1/6 9/1/5
f 10/1/6 11/2/5 12/2/6
f 10/1/6 5/2/3 6/1/3
f 5/2/3 10/1/6 12/2/6
f 7/2/4 1/1/1 8/1/4
f 1/1/1 7/2/4 3/2/1
f 1/1/7 6/1/7 8/1/7
f 6/1/7 1/1/7 10/1/7
f 10/1/7 1/1/7 2/1/7
f 10/1/7 2/1/7 9/1/7
f 12/2/8 7/2/8 5/2/8
f 7/2/8 12/2/8 3/2/8
f 3/2/8 12/2/8 11/2/8
f 3/2/8 11/2/8 4/2/8
f 15/2/9 14/4/9 13/3/9
f 14/4/9 15/2/9 16/5/9
f 16/5/9 15/2/9 17/2/9
f 16/5/9 17/2/9 18/5/9
f 18/5/9 17/2/9 19/3/9
f 18/5/9 19/3/9 20/4/9
f 21/6/10 14/7/11 16/6/10
f 14/7/11 21/6/10 22/7/11
f 24/9/13 13/8/12 23/8/12
f 13/8/12 24/9/13 15/9/13
f 23/8/12 14/7/11 22/7/11
f 14/7/11 23/8/12 13/8/12
f 24/9/13 17/9/14 15/9/13
f 17/9/14 24/9/13 25/9/14
f 18/6/15 21/6/10 16/6/10
f 21/6/10 18/6/15 26/6/15
f 25/9/14 19/8/16 17/9/14
f 19/8/16 25/9/14 27/8/16
f 19/8/16 28/7/17 20/7/17
f 28/7/17 19/8/16 27/8/16
f 20/7/17 26/6/15 18/6/15
f 26/6/15 20/7/17 28/7/17
f 22/7/18 24/9/18 23/8/18
f 24/9/18 22/7/18 29/7/18
f 29/7/18 22/7/18 21/6/18
f 30/8/18 24/9/18 29/7/18
f 29/7/18 21/6/18 31/7/18
f 24/9/18 30/8/18 25/9/18
f 31/7/18 21/6/18 26/6/18
f 25/9/18 30/8/18 32/8/18
f 31/7/18 26/6/18 32/8/18
f 25/9/18 32/8/18 27/8/18
f 27/8/18 32/8/18 26/6/18
f 27/8/18 26/6/18 28/7/18
f 35/12/19 34/11/19 33/10/19
f 34/11/19 35/12/19 36/13/19
f 34/11/19 36/13/19 37/14/19
f 37/14/19 36/13/19 38/11/19
f 38/11/19 36/13/19 39/12/19
f 38/11/19 39/12/19 40/10/19
f 43/17/19 42/16/19 41/15/19
f 42/16/19 43/17/19 44/18/19
f 42/16/19 44/18/19 45/19/19
f 45/19/19 44/18/19 46/16/19
f 46/16/19 44/18/19 47/17/19
f 46/16/19 47/17/19 48/15/19
f 51/20/22 50/21/21 49/20/20
f 50/21/21 51/20/22 52/21/23
f 49/20/26 50/21/25 51/20/24
f 52/21/27 51/20/24 50/21/25
f 53/20/28 51/20/22 49/20/20
f 51/20/22 53/20/28 54/20/29
f 49/20/26 51/20/24 53/20/30
f 54/20/31 53/20/30 51/20/24
f 57/22/32 56/22/32 55/22/32
f 56/22/32 57/22/32 58/22/32
f 61/23/32 60/23/32 59/23/32
f 60/23/32 61/23/32 62/23/32
f 51/20/24 62/23/33 54/20/31
f 62/23/33 51/20/24 60/23/33
f 60/23/33 51/20/24 52/21/27
f 60/23/33 52/21/27 56/22/33
f 56/22/33 52/21/27 63/21/34
f 58/22/33 60/23/33 56/22/33
f 54/20/29 62/23/35 51/20/22
f 60/23/35 51/20/22 62/23/35
f 52/21/23 51/20/22 60/23/35
f 56/22/35 52/21/23 60/23/35
f 56/22/35 60/23/35 58/22/35
f 63/21/36 52/21/23 56/22/35
f 64/21/37 52/21/27 50/21/25
f 52/21/27 64/21/37 63/21/34
f 50/21/21 52/21/23 64/21/38
f 63/21/36 64/21/38 52/21/23
f 57/22/35 55/22/35 59/23/35
f 50/21/25 59/23/35 55/22/35
f 50/21/25 55/22/35 64/21/37
f 49/20/26 59/23/35 50/21/25
f 49/20/26 61/23/35 59/23/35
f 61/23/35 49/20/26 53/20/30
f 59/23/33 55/22/33 57/22/33
f 55/22/33 59/23/33 50/21/21
f 64/21/38 55/22/33 50/21/21
f 50/21/21 59/23/33 49/20/20
f 59/23/33 61/23/33 49/20/20
f 53/20/28 49/20/20 61/23/33
f 55/24/39 56/24/39 57/24/39
f 58/24/39 57/24/39 56/24/39
f 59/25/39 60/25/39 61/25/39
f 62/25/39 61/25/39 60/25/39
f 67/28/19 66/27/19 65/26/19
f 66/27/19 67/28/19 68/29/19
f 66/27/19 68/29/19 69/30/19
f 69/30/19 68/29/19 70/27/19
f 70/27/19 68/29/19 71/28/19
f 70/27/19 71/28/19 72/26/19

g traffic-light-object-hanging




usemtl colormap

f 3/2/1 2/1/2 1/1/1
f 2/1/2 3/2/1 4/2/2
f 7/2/4 6/1/3 5/2/3
f 6/1/3 7/2/4 8/1/4
f 11/2/5 10/1/6 9/1/5
f 10/1/6 11/2/5 12/2/6
f 10/1/6 5/2/3 6/1/3
f 5/2/3 10/1/6 12/2/6
f 7/2/4 1/1/1 8/1/4
f 1/1/1 7/2/4 3/2/1
f 1/1/7 6/1/7 8/1/7
f 6/1/7 1/1/7 10/1/7
f 10/1/7 1/1/7 2/1/7
f 10/1/7 2/1/7 9/1/7
f 12/2/8 7/2/8 5/2/8
f 7/2/8 12/2/8 3/2/8
f 3/2/8 12/2/8 11/2/8
f 3/2/8 11/2/8 4/2/8
f 15/2/9 14/4/9 13/3/9
f 14/4/9 15/2/9 16/5/9
f 16/5/9 15/2/9 17/2/9
f 16/5/9 17/2/9 18/5/9
f 18/5/9 17/2/9 19/3/9
f 18/5/9 19/3/9 20/4/9
f 21/6/10 14/7/11 16/6/10
f 14/7/11 21/6/10 22/7/11
f 24/9/13 13/8/12 23/8/12
f 13/8/12 24/9/13 15/9/13
f 23/8/12 14/7/11 22/7/11
f 14/7/11 23/8/12 13/8/12
f 24/9/13 17/9/14 15/9/13
f 17/9/14 24/9/13 25/9/14
f 18/6/15 21/6/10 16/6/10
f 21/6/10 18/6/15 26/6/15
f 25/9/14 19/8/16 17/9/14
f 19/8/16 25/9/14 27/8/16
f 19/8/16 28/7/17 20/7/17
f 28/7/17 19/8/16 27/8/16
f 20/7/17 26/6/15 18/6/15
f 26/6/15 20/7/17 28/7/17
f 22/7/18 24/9/18 23/8/18
f 24/9/18 22/7/18 29/7/18
f 29/7/18 22/7/18 21/6/18
f 30/8/18 24/9/18 29/7/18
f 29/7/18 21/6/18 31/7/18
f 24/9/18 30/8/18 25/9/18
f 31/7/18 21/6/18 26/6/18
f 25/9/18 30/8/18 32/8/18
f 31/7/18 26/6/18 32/8/18
f 25/9/18 32/8/18 27/8/18
f 27/8/18 32/8/18 26/6/18
f 27/8/18 26/6/18 28/7/18
f 35/12/19 34/11/19 33/10/19
f 34/11/19 35/12/19 36/13/19
f 34/11/19 36/13/19 37/14/19
f 37/14/19 36/13/19 38/11/19
f 38/11/19 36/13/19 39/12/19
f 38/11/19 39/12/19 40/10/19
f 43/17/19 42/16/19 41/15/19
f 42/16/19 43/17/19 44/18/19
f 42/16/19 44/18/19 45/19/19
f 45/19/19 44/18/19 46/16/19
f 46/16/19 44/18/19 47/17/19
f 46/16/19 47/17/19 48/15/19
f 51/20/22 50/21/21 49/20/20
f 50/21/21 51/20/22 52/21/23
f 49/20/26 50/21/25 51/20/24
f 52/21/27 51/20/24 50/21/25
f 53/20/28 51/20/22 49/20/20
f 51/20/22 53/20/28 54/20/29
f 49/20/26 51/20/24 53/20/30
f 54/20/31 53/20/30 51/20/24
f 57/22/32 56/22/32 55/22/32
f 56/22/32 57/22/32 58/22/32
f 61/23/32 60/23/32 59/23/32
f 60/23/32 61/23/32 62/23/32
f 51/20/24 62/23/33 54/20/31
f 62/23/33 51/20/24 60/23/33
f 60/23/33 51/20/24 52/21/27
f 60/23/33 52/21/27 56/22/33
f 56/22/33 52/21/27 63/21/34
f 58/22/33 60/23/33 56/22/33
f 54/20/29 62/23/35 51/20/22
f 60/23/35 51/20/22 62/23/35
f 52/21/23 51/20/22 60/23/35
f 56/22/35 52/21/23 60/23/35
f 56/22/35 60/23/35 58/22/35
f 63/21/36 52/21/23 56/22/35
f 64/21/37 52/21/27 50/21/25
f 52/21/27 64/21/37 63/21/34
f 50/21/21 52/21/23 64/21/38
f 63/21/36 64/21/38 52/21/23
f 57/22/35 55/22/35 59/23/35
f 50/21/25 59/23/35 55/22/35
f 50/21/25 55/22/35 64/21/37
f 49/20/26 59/23/35 50/21/25
f 49/20/26 61/23/35 59/23/35
f 61/23/35 49/20/26 53/20/30
f 59/23/33 55/22/33 57/22/33
f 55/22/33 59/23/33 50/21/21
f 64/21/38 55/22/33 50/21/21
f 50/21/21 59/23/33 49/20/20
f 59/23/33 61/23/33 49/20/20
f 53/20/28 49/20/20 61/23/33
f 55/24/39 56/24/39 57/24/39
f 58/24/39 57/24/39 56/24/39
f 59/25/39 60/25/39 61/25/39
f 62/25/39 61/25/39 60/25/39
f 67/28/19 66/27/19 65/26/19
f 66/27/19 67/28/19 68/29/19
f 66/27/19 68/29/19 69/30/19
f 69/30/19 68/29/19 70/27/19
f 70/27/19 68/29/19 71/28/19
f 70/27/19 71/28/19 72/26/19

