# Created by Kenney (www.kenney.nl)

mtllib traffic-light-object-horizontal.mtl

g traffic-light-object-horizontal

v 1.082867E-15 0.03053125 -0.06159375 1 1 1
v 3.609557E-16 0.03053125 0.06159375 1 1 1
v -0.0375 0.03053125 -0.06159375 1 1 1
v -0.0375 0.03053125 0.06159375 1 1 1
v 3.609557E-16 0.02053125 0.07159375 1 1 1
v -0.0375 0.02053125 0.07159375 1 1 1
v -0.0375 0.02053125 -0.07159375 1 1 1
v 1.082867E-15 0.02053125 -0.07159375 1 1 1
v -1.082867E-15 -0.02053125 0.07159375 1 1 1
v -0.0375 -0.02053125 0.07159375 1 1 1
v -1.082867E-15 -0.03053125 0.06159375 1 1 1
v -0.0375 -0.03053125 0.06159375 1 1 1
v 3.609557E-16 -0.03053125 -0.06159375 1 1 1
v -0.0375 -0.03053125 -0.06159375 1 1 1
v -0.0375 -0.02053125 -0.07159375 1 1 1
v 3.609557E-16 -0.02053125 -0.07159375 1 1 1
v -0.0375 -0.02053125 -0.06159375 1 1 1
v -0.0375 0.02053125 -0.06159375 1 1 1
v -0.0375 -0.02053125 0.06159375 1 1 1
v -0.0375 0.02053125 0.06159375 1 1 1
v 0.02750001 -0.025 -0.01000023 1 1 1
v 1.117587E-08 -0.025 -0.01000023 1 1 1
v 0.02750001 -0.02500001 0.009999769 1 1 1
v 1.117587E-08 -0.02500001 0.009999769 1 1 1
v 0.03750001 0.015 0.009999774 1 1 1
v 0.03750001 0.015 -0.01000023 1 1 1
v 0.03750001 -0.01500001 0.009999771 1 1 1
v 0.03750001 -0.015 -0.01000023 1 1 1
v 1.117587E-08 0.025 -0.01000023 1 1 1
v 0.02750001 0.025 -0.01000023 1 1 1
v 1.117587E-08 0.025 0.009999776 1 1 1
v 0.02750001 0.025 0.009999776 1 1 1
v -0.03749996 -9.313226E-10 -0.05646079 1 1 1
v -0.03749996 0.01154883 -0.05261118 1 1 1
v -0.03749996 -0.01154883 -0.05261118 1 1 1
v -0.03749996 -0.01539844 -0.04106236 1 1 1
v -0.03749996 0.01539844 -0.04106236 1 1 1
v -0.03749996 0.01154883 -0.02951353 1 1 1
v -0.03749996 -0.01154883 -0.02951353 1 1 1
v -0.03749996 -9.313226E-10 -0.02566392 1 1 1
v -0.03749996 -9.313226E-10 0.02566392 1 1 1
v -0.03749996 0.01154883 0.02951353 1 1 1
v -0.03749996 -0.01154883 0.02951353 1 1 1
v -0.03749996 -0.01539844 0.04106236 1 1 1
v -0.03749996 0.01539844 0.04106236 1 1 1
v -0.03749996 -0.01154883 0.05261118 1 1 1
v -0.03749996 0.01154883 0.05261118 1 1 1
v -0.03749996 -9.313226E-10 0.05646079 1 1 1
v -0.03749996 -9.313226E-10 -0.01539844 1 1 1
v -0.03749996 0.01154883 -0.01154883 1 1 1
v -0.03749996 -0.01154883 -0.01154883 1 1 1
v -0.03749996 -0.01539844 0 1 1 1
v -0.03749996 0.01539844 -7.219114E-16 1 1 1
v -0.03749996 0.01154883 0.01154883 1 1 1
v -0.03749996 -0.01154883 0.01154883 1 1 1
v -0.03749996 -9.313226E-10 0.01539844 1 1 1
v -0.03750005 -0.02053125 -0.06159375 1 1 1
v -0.03750005 0.02053125 -0.06159375 1 1 1
v -0.06010005 0.02053125 -0.06159375 1 1 1
v -0.03750005 0.02053125 -0.02053125 1 1 1
v -0.03750005 -0.02053125 -0.02053125 1 1 1
v -0.06010005 0.02053125 -0.02053125 1 1 1
v -0.03750005 -0.02053125 0.06159375 1 1 1
v -0.06010005 0.02053125 0.06159375 1 1 1
v -0.03750005 0.02053125 0.06159375 1 1 1
v -0.03750005 -0.02053125 0.02053125 1 1 1
v -0.06010005 0.02053125 0.02053125 1 1 1
v -0.03750005 0.02053125 0.02053125 1 1 1
v -0.02749997 0.02053125 -0.06159375 1 1 1
v -0.02749997 0.02053125 0.06159375 1 1 1
v -0.02749997 -0.02053125 -0.06159375 1 1 1
v -0.02749997 -0.02053125 0.06159375 1 1 1
v -0.03749997 0.02053125 0.06159375 1 1 1
v -0.03749997 0.02053125 -0.06159375 1 1 1
v -0.03749997 0.02053125 0.02053125 1 1 1
v -0.03749997 0.02053125 -0.02053125 1 1 1
v -0.03749997 -0.02053125 0.06159375 1 1 1
v -0.03749997 -0.02053125 -0.06159375 1 1 1
v -0.03749997 -0.02053125 0.02053125 1 1 1
v -0.03749997 -0.02053125 -0.02053125 1 1 1

vn 0 0.9238795 -0.3826834
vn 0 0.9238795 0.3826834
vn 0 0.3826834 0.9238795
vn 0 0.3826834 -0.9238795
vn 0 -0.3826834 0.9238795
vn 0 -0.9238795 0.3826834
vn 0 -0.9238795 -0.3826834
vn 0 -0.3826834 -0.9238795
vn -1 0 0
vn 1 0 0
vn 0.3826834 -0.9238796 -1.10135E-07
vn 0 -1 -1.192093E-07
vn 0.9238795 0.3826835 4.561942E-08
vn 0.9238795 -0.3826835 -4.561942E-08
vn 0 1 1.192093E-07
vn 0.3826834 0.9238796 1.10135E-07
vn 0 -1.192093E-07 1
vn 0 1.192093E-07 -1
vn 0 0 -1
vn 0 0 1
vn 0 1 0
vn 0 -1 0
vn -0.3015113 -0.904534 0.3015113
vn -0.3015113 -0.904534 -0.3015113
vn -0.3015113 0.904534 0.3015113
vn -0.3015113 0.904534 -0.3015113
vn 0.3015113 -0.904534 -0.3015113
vn 0.3015113 0.904534 0.3015113
vn 0.3015113 0.904534 -0.3015113
vn 0.3015113 -0.904534 0.3015113
vn 0 0.3162278 0.9486833
vn 0 0.3162278 -0.9486833
vn 0 -0.3162278 -0.9486833
vn 0 -0.3162278 0.9486833
vn 0 0.9486833 -0.3162278
vn 0 -0.9486833 0.3162278
vn 0 0.9486833 0.3162278
vn 0 -0.9486833 -0.3162278

vt 0.84375 0.225
vt 0.84375 0.1594933
vt 0.84375 0.025
vt 0.34375 0.1594933
vt 0.34375 0.025
vt 0.34375 0.225
vt 0.59375 0.625
vt 0.59375 0.7
vt 0.59375 0.55
vt 0.59375 0.525
vt 0.59375 0.725
vt 0.96875 0.125
vt 0.96875 0.2
vt 0.96875 0.05
vt 0.96875 0.025
vt 0.96875 0.225
vt 0.71875 0.125
vt 0.71875 0.2
vt 0.71875 0.05
vt 0.71875 0.025
vt 0.71875 0.225
vt 0.21875 0.025
vt 0.21875 0.225

usemtl colormap

f 3/1/1 2/1/2 1/1/1
f 2/1/2 3/1/1 4/1/2
f 4/1/2 5/2/3 2/1/2
f 5/2/3 4/1/2 6/2/3
f 3/1/1 8/2/4 7/2/4
f 8/2/4 3/1/1 1/1/1
f 5/2/3 10/3/5 9/3/5
f 10/3/5 5/2/3 6/2/3
f 9/3/5 12/3/6 11/3/6
f 12/3/6 9/3/5 10/3/5
f 11/3/6 14/3/7 13/3/7
f 14/3/7 11/3/6 12/3/6
f 7/2/4 16/3/8 15/3/8
f 16/3/8 7/2/4 8/2/4
f 14/3/7 16/3/8 13/3/7
f 16/3/8 14/3/7 15/3/8
f 15/3/9 3/1/9 7/2/9
f 3/1/9 15/3/9 17/3/9
f 17/3/9 15/3/9 14/3/9
f 18/2/9 3/1/9 17/3/9
f 17/3/9 14/3/9 19/3/9
f 3/1/9 18/2/9 4/1/9
f 19/3/9 14/3/9 12/3/9
f 4/1/9 18/2/9 20/2/9
f 19/3/9 12/3/9 20/2/9
f 4/1/9 20/2/9 6/2/9
f 6/2/9 20/2/9 12/3/9
f 6/2/9 12/3/9 10/3/9
f 1/6/10 16/5/10 8/4/10
f 16/5/10 1/6/10 13/5/10
f 13/5/10 1/6/10 2/6/10
f 13/5/10 2/6/10 11/5/10
f 11/5/10 2/6/10 5/4/10
f 11/5/10 5/4/10 9/5/10
f 23/6/11 22/5/12 21/5/11
f 22/5/12 23/6/11 24/6/12
f 27/6/14 26/5/13 25/6/13
f 26/5/13 27/6/14 28/5/14
f 31/6/15 30/5/16 29/5/15
f 30/5/16 31/6/15 32/6/16
f 30/5/16 25/6/13 26/5/13
f 25/6/13 30/5/16 32/6/16
f 28/5/14 23/6/11 21/5/11
f 23/6/11 28/5/14 27/6/14
f 32/6/17 27/6/17 25/6/17
f 27/6/17 32/6/17 23/6/17
f 23/6/17 32/6/17 31/6/17
f 23/6/17 31/6/17 24/6/17
f 21/5/18 26/5/18 28/5/18
f 26/5/18 21/5/18 30/5/18
f 30/5/18 21/5/18 22/5/18
f 30/5/18 22/5/18 29/5/18
f 35/9/9 34/8/9 33/7/9
f 34/8/9 35/9/9 36/10/9
f 34/8/9 36/10/9 37/11/9
f 37/11/9 36/10/9 38/8/9
f 38/8/9 36/10/9 39/9/9
f 38/8/9 39/9/9 40/7/9
f 43/14/9 42/13/9 41/12/9
f 42/13/9 43/14/9 44/15/9
f 42/13/9 44/15/9 45/16/9
f 45/16/9 44/15/9 46/14/9
f 45/16/9 46/14/9 47/13/9
f 47/13/9 46/14/9 48/12/9
f 51/19/9 50/18/9 49/17/9
f 50/18/9 51/19/9 52/20/9
f 50/18/9 52/20/9 53/21/9
f 53/21/9 52/20/9 54/18/9
f 54/18/9 52/20/9 55/19/9
f 54/18/9 55/19/9 56/17/9
f 59/23/19 58/23/19 57/22/19
f 57/22/20 58/23/20 59/23/20
f 62/23/20 61/22/20 60/23/20
f 60/23/19 61/22/19 62/23/19
f 65/23/20 64/23/20 63/22/20
f 63/22/19 64/23/19 65/23/19
f 68/23/20 67/23/20 66/22/20
f 66/22/19 67/23/19 68/23/19
f 59/23/21 60/23/21 58/23/21
f 60/23/21 59/23/21 62/23/21
f 62/23/21 68/23/21 60/23/21
f 68/23/21 62/23/21 67/23/21
f 64/23/21 68/23/21 67/23/21
f 68/23/21 64/23/21 65/23/21
f 58/23/22 60/23/22 59/23/22
f 62/23/22 59/23/22 60/23/22
f 60/23/22 68/23/22 62/23/22
f 67/23/22 62/23/22 68/23/22
f 67/23/22 68/23/22 64/23/22
f 65/23/22 64/23/22 68/23/22
f 71/23/25 70/23/24 69/23/23
f 70/23/24 71/23/25 72/23/26
f 69/23/29 70/23/28 71/23/27
f 72/23/30 71/23/27 70/23/28
f 69/23/29 73/22/31 70/23/28
f 73/22/31 69/23/29 74/22/32
f 73/22/31 74/22/32 75/22/21
f 75/22/21 74/22/32 76/22/21
f 70/23/24 73/22/33 69/23/23
f 74/22/34 69/23/23 73/22/33
f 75/22/22 74/22/34 73/22/33
f 76/22/22 74/22/34 75/22/22
f 73/22/33 72/23/26 77/22/35
f 72/23/26 73/22/33 70/23/24
f 77/22/36 72/23/30 73/22/31
f 70/23/28 73/22/31 72/23/30
f 71/23/25 74/22/34 78/22/37
f 74/22/34 71/23/25 69/23/23
f 78/22/38 74/22/32 71/23/27
f 69/23/29 71/23/27 74/22/32
f 77/22/36 71/23/27 72/23/30
f 71/23/27 77/22/36 79/22/22
f 80/22/22 71/23/27 79/22/22
f 71/23/27 80/22/22 78/22/38
f 72/23/26 71/23/25 77/22/35
f 79/22/21 77/22/35 71/23/25
f 79/22/21 71/23/25 80/22/21
f 78/22/37 80/22/21 71/23/25

g traffic-light-object-horizontal




usemtl colormap

f 3/1/1 2/1/2 1/1/1
f 2/1/2 3/1/1 4/1/2
f 4/1/2 5/2/3 2/1/2
f 5/2/3 4/1/2 6/2/3
f 3/1/1 8/2/4 7/2/4
f 8/2/4 3/1/1 1/1/1
f 5/2/3 10/3/5 9/3/5
f 10/3/5 5/2/3 6/2/3
f 9/3/5 12/3/6 11/3/6
f 12/3/6 9/3/5 10/3/5
f 11/3/6 14/3/7 13/3/7
f 14/3/7 11/3/6 12/3/6
f 7/2/4 16/3/8 15/3/8
f 16/3/8 7/2/4 8/2/4
f 14/3/7 16/3/8 13/3/7
f 16/3/8 14/3/7 15/3/8
f 15/3/9 3/1/9 7/2/9
f 3/1/9 15/3/9 17/3/9
f 17/3/9 15/3/9 14/3/9
f 18/2/9 3/1/9 17/3/9
f 17/3/9 14/3/9 19/3/9
f 3/1/9 18/2/9 4/1/9
f 19/3/9 14/3/9 12/3/9
f 4/1/9 18/2/9 20/2/9
f 19/3/9 12/3/9 20/2/9
f 4/1/9 20/2/9 6/2/9
f 6/2/9 20/2/9 12/3/9
f 6/2/9 12/3/9 10/3/9
f 1/6/10 16/5/10 8/4/10
f 16/5/10 1/6/10 13/5/10
f 13/5/10 1/6/10 2/6/10
f 13/5/10 2/6/10 11/5/10
f 11/5/10 2/6/10 5/4/10
f 11/5/10 5/4/10 9/5/10
f 23/6/11 22/5/12 21/5/11
f 22/5/12 23/6/11 24/6/12
f 27/6/14 26/5/13 25/6/13
f 26/5/13 27/6/14 28/5/14
f 31/6/15 30/5/16 29/5/15
f 30/5/16 31/6/15 32/6/16
f 30/5/16 25/6/13 26/5/13
f 25/6/13 30/5/16 32/6/16
f 28/5/14 23/6/11 21/5/11
f 23/6/11 28/5/14 27/6/14
f 32/6/17 27/6/17 25/6/17
f 27/6/17 32/6/17 23/6/17
f 23/6/17 32/6/17 31/6/17
f 23/6/17 31/6/17 24/6/17
f 21/5/18 26/5/18 28/5/18
f 26/5/18 21/5/18 30/5/18
f 30/5/18 21/5/18 22/5/18
f 30/5/18 22/5/18 29/5/18
f 35/9/9 34/8/9 33/7/9
f 34/8/9 35/9/9 36/10/9
f 34/8/9 36/10/9 37/11/9
f 37/11/9 36/10/9 38/8/9
f 38/8/9 36/10/9 39/9/9
f 38/8/9 39/9/9 40/7/9
f 43/14/9 42/13/9 41/12/9
f 42/13/9 43/14/9 44/15/9
f 42/13/9 44/15/9 45/16/9
f 45/16/9 44/15/9 46/14/9
f 45/16/9 46/14/9 47/13/9
f 47/13/9 46/14/9 48/12/9
f 51/19/9 50/18/9 49/17/9
f 50/18/9 51/19/9 52/20/9
f 50/18/9 52/20/9 53/21/9
f 53/21/9 52/20/9 54/18/9
f 54/18/9 52/20/9 55/19/9
f 54/18/9 55/19/9 56/17/9
f 59/23/19 58/23/19 57/22/19
f 57/22/20 58/23/20 59/23/20
f 62/23/20 61/22/20 60/23/20
f 60/23/19 61/22/19 62/23/19
f 65/23/20 64/23/20 63/22/20
f 63/22/19 64/23/19 65/23/19
f 68/23/20 67/23/20 66/22/20
f 66/22/19 67/23/19 68/23/19
f 59/23/21 60/23/21 58/23/21
f 60/23/21 59/23/21 62/23/21
f 62/23/21 68/23/21 60/23/21
f 68/23/21 62/23/21 67/23/21
f 64/23/21 68/23/21 67/23/21
f 68/23/21 64/23/21 65/23/21
f 58/23/22 60/23/22 59/23/22
f 62/23/22 59/23/22 60/23/22
f 60/23/22 68/23/22 62/23/22
f 67/23/22 62/23/22 68/23/22
f 67/23/22 68/23/22 64/23/22
f 65/23/22 64/23/22 68/23/22
f 71/23/25 70/23/24 69/23/23
f 70/23/24 71/23/25 72/23/26
f 69/23/29 70/23/28 71/23/27
f 72/23/30 71/23/27 70/23/28
f 69/23/29 73/22/31 70/23/28
f 73/22/31 69/23/29 74/22/32
f 73/22/31 74/22/32 75/22/21
f 75/22/21 74/22/32 76/22/21
f 70/23/24 73/22/33 69/23/23
f 74/22/34 69/23/23 73/22/33
f 75/22/22 74/22/34 73/22/33
f 76/22/22 74/22/34 75/22/22
f 73/22/33 72/23/26 77/22/35
f 72/23/26 73/22/33 70/23/24
f 77/22/36 72/23/30 73/22/31
f 70/23/28 73/22/31 72/23/30
f 71/23/25 74/22/34 78/22/37
f 74/22/34 71/23/25 69/23/23
f 78/22/38 74/22/32 71/23/27
f 69/23/29 71/23/27 74/22/32
f 77/22/36 71/23/27 72/23/30
f 71/23/27 77/22/36 79/22/22
f 80/22/22 71/23/27 79/22/22
f 71/23/27 80/22/22 78/22/38
f 72/23/26 71/23/25 77/22/35
f 79/22/21 77/22/35 71/23/25
f 79/22/21 71/23/25 80/22/21
f 78/22/37 80/22/21 71/23/25

