# Created by Kenney (www.kenney.nl)

mtllib traffic-light-object-vertical.mtl

g traffic-light-object-vertical

v 0.02750001 -0.06159375 0.025 1 1 1
v 1.117587E-08 -0.06159375 0.025 1 1 1
v 0.02750001 -0.04159375 0.025 1 1 1
v 1.117587E-08 -0.04159375 0.025 1 1 1
v 0.03750001 -0.04159375 -0.015 1 1 1
v 0.03750001 -0.06159375 -0.015 1 1 1
v 0.03750001 -0.04159375 0.015 1 1 1
v 0.03750001 -0.06159375 0.015 1 1 1
v 1.117587E-08 -0.06159375 -0.025 1 1 1
v 0.02750001 -0.06159375 -0.025 1 1 1
v 1.117587E-08 -0.04159375 -0.025 1 1 1
v 0.02750001 -0.04159375 -0.025 1 1 1
v 0.02750001 0.04159375 0.025 1 1 1
v 1.117587E-08 0.04159375 0.025 1 1 1
v 0.02750001 0.06159375 0.025 1 1 1
v 1.117587E-08 0.06159375 0.025 1 1 1
v 0.03750001 0.06159375 -0.015 1 1 1
v 0.03750001 0.04159375 -0.015 1 1 1
v 0.03750001 0.06159375 0.015 1 1 1
v 0.03750001 0.04159375 0.015 1 1 1
v 1.117587E-08 0.04159375 -0.025 1 1 1
v 0.02750001 0.04159375 -0.025 1 1 1
v 1.117587E-08 0.06159375 -0.025 1 1 1
v 0.02750001 0.06159375 -0.025 1 1 1
v -1.117587E-08 0.06159376 -0.03053125 1 1 1
v -1.117587E-08 -0.06159375 -0.03053125 1 1 1
v -1.117587E-08 0.07159375 -0.02053125 1 1 1
v -1.117587E-08 -0.07159375 -0.02053125 1 1 1
v -1.117587E-08 0.07159375 0.02053125 1 1 1
v -1.117587E-08 -0.07159375 0.02053125 1 1 1
v -1.117587E-08 0.06159376 0.03053125 1 1 1
v -1.117587E-08 -0.06159375 0.03053125 1 1 1
v -0.03750001 -0.07159375 -0.02053125 1 1 1
v -0.03750001 -0.06159375 -0.03053125 1 1 1
v -0.03750001 0.06159376 -0.03053125 1 1 1
v -0.03750001 0.07159375 -0.02053125 1 1 1
v -0.03750001 0.07159375 0.02053125 1 1 1
v -0.03750001 -0.07159375 0.02053125 1 1 1
v -0.03750001 0.06159376 0.03053125 1 1 1
v -0.03750001 -0.06159375 0.03053125 1 1 1
v -0.03750001 -0.06159375 -0.02053125 1 1 1
v -0.03750001 0.06159376 -0.02053125 1 1 1
v -0.03750001 -0.06159375 0.02053125 1 1 1
v -0.03750001 0.06159376 0.02053125 1 1 1
v -0.03749996 -0.0410625 -0.0153985 1 1 1
v -0.03749996 -0.02951367 -0.01154889 1 1 1
v -0.03749996 -0.05261133 -0.01154889 1 1 1
v -0.03749996 -0.05646094 -6.519258E-08 1 1 1
v -0.03749996 -0.02566407 -6.519258E-08 1 1 1
v -0.03749996 -0.02951367 0.01154877 1 1 1
v -0.03749996 -0.05261133 0.01154877 1 1 1
v -0.03749996 -0.0410625 0.01539837 1 1 1
v -0.03749996 0.0410625 -0.0153985 1 1 1
v -0.03749996 0.05261134 -0.01154889 1 1 1
v -0.03749996 0.02951368 -0.01154889 1 1 1
v -0.03749996 0.02566407 -6.519258E-08 1 1 1
v -0.03749996 0.05646095 -6.519258E-08 1 1 1
v -0.03749996 0.05261134 0.01154877 1 1 1
v -0.03749996 0.02951368 0.01154877 1 1 1
v -0.03749996 0.0410625 0.01539837 1 1 1
v -0.02749997 -0.06159375 -0.02053125 1 1 1
v -0.02749997 0.06159374 -0.02053125 1 1 1
v -0.02749997 -0.06159375 0.02053125 1 1 1
v -0.02749997 0.06159374 0.02053125 1 1 1
v -0.03749997 -0.06159375 -0.02053125 1 1 1
v -0.03749997 -0.06159375 0.02053125 1 1 1
v -0.03749997 0.02053125 -0.02053125 1 1 1
v -0.03749997 0.02053125 0.02053125 1 1 1
v -0.06009997 0.02053125 -0.02053125 1 1 1
v -0.06009997 0.02053125 0.02053125 1 1 1
v -0.03749997 -0.02053125 -0.02053125 1 1 1
v -0.03749997 -0.02053125 0.02053125 1 1 1
v -0.06009997 -0.02053125 -0.02053125 1 1 1
v -0.06009997 -0.02053125 0.02053125 1 1 1
v -0.06009997 0.06159374 0.02053125 1 1 1
v -0.06009997 0.06159374 -0.02053125 1 1 1
v -0.03749996 -7.450581E-09 -0.0153985 1 1 1
v -0.03749996 0.01154882 -0.01154889 1 1 1
v -0.03749996 -0.01154883 -0.01154889 1 1 1
v -0.03749996 -0.01539844 -6.519258E-08 1 1 1
v -0.03749996 0.01539843 -6.519258E-08 1 1 1
v -0.03749996 0.01154882 0.01154877 1 1 1
v -0.03749996 -0.01154883 0.01154877 1 1 1
v -0.03749996 -7.450581E-09 0.01539837 1 1 1

vn 0.3826834 0 0.9238795
vn 0 0 1
vn 0.9238795 0 -0.3826834
vn 0.9238795 0 0.3826834
vn 0 0 -1
vn 0.3826834 0 -0.9238795
vn 0 -1 0
vn 0 1 0
vn 1 0 0
vn 0 -0.9238795 -0.3826834
vn 0 -0.3826834 -0.9238795
vn 0 0.3826834 -0.9238795
vn 0 0.9238795 -0.3826834
vn 0 0.9238795 0.3826834
vn 0 -0.9238795 0.3826834
vn 0 0.3826834 0.9238795
vn 0 -0.3826834 0.9238795
vn -1 0 0
vn -1 3.030692E-17 0
vn -0.3144855 0.1048285 0.9434564
vn -0.3015113 -0.3015114 0.904534
vn -0.3144855 0.1048285 -0.9434564
vn -0.3015113 -0.3015114 -0.904534
vn 0.3144855 -0.1048285 0.9434564
vn 0.3015113 0.3015114 -0.904534
vn 0.3144855 -0.1048285 -0.9434564
vn 0.3015113 0.3015114 0.904534
vn 6.819458E-17 0.1406332 0.9900618
vn 6.819458E-17 0.1406332 -0.9900618
vn -6.819458E-17 -0.1406332 -0.9900618
vn -6.819458E-17 -0.1406332 0.9900618
vn 4.849108E-16 1 0
vn 3.360912E-16 0.693099 0.7208424
vn -3.360912E-16 -0.693099 -0.7208424
vn 3.360912E-16 0.693099 -0.7208424
vn -3.360912E-16 -0.693099 0.7208424
vn -4.849108E-16 -1 0

vt 0.34375 0.025
vt 0.34375 0.225
vt 0.34375 0.2119441
vt 0.34375 0.05111179
vt 0.34375 0.0380559
vt 0.84375 0.0380559
vt 0.84375 0.05111179
vt 0.84375 0.2119441
vt 0.84375 0.225
vt 0.96875 0.125
vt 0.96875 0.2
vt 0.96875 0.05
vt 0.96875 0.025
vt 0.96875 0.225
vt 0.59375 0.625
vt 0.59375 0.7
vt 0.59375 0.55
vt 0.59375 0.525
vt 0.59375 0.725
vt 0.21875 0.025
vt 0.21875 0.225
vt 0.21875 0.1583333
vt 0.21875 0.09166666
vt 0.09375 0.1583333
vt 0.09375 0.09166666
vt 0.71875 0.125
vt 0.71875 0.2
vt 0.71875 0.05
vt 0.71875 0.025
vt 0.71875 0.225

usemtl colormap

f 3/2/1 2/1/2 1/1/1
f 2/1/2 3/2/1 4/2/2
f 7/2/4 6/1/3 5/2/3
f 6/1/3 7/2/4 8/1/4
f 11/2/5 10/1/6 9/1/5
f 10/1/6 11/2/5 12/2/6
f 12/2/6 6/1/3 10/1/6
f 6/1/3 12/2/6 5/2/3
f 7/2/4 1/1/1 8/1/4
f 1/1/1 7/2/4 3/2/1
f 1/1/7 6/1/7 8/1/7
f 6/1/7 1/1/7 10/1/7
f 10/1/7 1/1/7 2/1/7
f 10/1/7 2/1/7 9/1/7
f 12/2/8 7/2/8 5/2/8
f 7/2/8 12/2/8 3/2/8
f 3/2/8 12/2/8 11/2/8
f 3/2/8 11/2/8 4/2/8
f 15/2/1 14/1/2 13/1/1
f 14/1/2 15/2/1 16/2/2
f 19/2/4 18/1/3 17/2/3
f 18/1/3 19/2/4 20/1/4
f 23/2/5 22/1/6 21/1/5
f 22/1/6 23/2/5 24/2/6
f 24/2/6 18/1/3 22/1/6
f 18/1/3 24/2/6 17/2/3
f 19/2/4 13/1/1 20/1/4
f 13/1/1 19/2/4 15/2/1
f 13/1/7 18/1/7 20/1/7
f 18/1/7 13/1/7 22/1/7
f 22/1/7 13/1/7 14/1/7
f 22/1/7 14/1/7 21/1/7
f 24/2/8 19/2/8 17/2/8
f 19/2/8 24/2/8 15/2/8
f 15/2/8 24/2/8 23/2/8
f 15/2/8 23/2/8 16/2/8
f 27/2/9 26/4/9 25/3/9
f 26/4/9 27/2/9 28/5/9
f 28/5/9 27/2/9 29/2/9
f 28/5/9 29/2/9 30/5/9
f 30/5/9 29/2/9 31/3/9
f 30/5/9 31/3/9 32/4/9
f 33/6/10 26/7/11 28/6/10
f 26/7/11 33/6/10 34/7/11
f 36/9/13 25/8/12 35/8/12
f 25/8/12 36/9/13 27/9/13
f 35/8/12 26/7/11 34/7/11
f 26/7/11 35/8/12 25/8/12
f 36/9/13 29/9/14 27/9/13
f 29/9/14 36/9/13 37/9/14
f 30/6/15 33/6/10 28/6/10
f 33/6/10 30/6/15 38/6/15
f 37/9/14 31/8/16 29/9/14
f 31/8/16 37/9/14 39/8/16
f 31/8/16 40/7/17 32/7/17
f 40/7/17 31/8/16 39/8/16
f 32/7/17 38/6/15 30/6/15
f 38/6/15 32/7/17 40/7/17
f 34/7/18 36/9/18 35/8/18
f 36/9/18 34/7/18 41/7/18
f 41/7/18 34/7/18 33/6/18
f 42/8/18 36/9/18 41/7/18
f 41/7/18 33/6/18 43/7/18
f 36/9/18 42/8/18 37/9/18
f 43/7/18 33/6/18 38/6/18
f 37/9/18 42/8/18 44/8/18
f 43/7/18 38/6/18 44/8/18
f 37/9/18 44/8/18 39/8/18
f 39/8/18 44/8/18 38/6/18
f 39/8/18 38/6/18 40/7/18
f 47/12/19 46/11/19 45/10/19
f 46/11/19 47/12/19 48/13/19
f 46/11/19 48/13/19 49/14/19
f 49/14/19 48/13/19 50/11/19
f 50/11/19 48/13/19 51/12/19
f 50/11/19 51/12/19 52/10/19
f 55/17/19 54/16/19 53/15/19
f 54/16/19 55/17/19 56/18/19
f 54/16/19 56/18/19 57/19/19
f 57/19/19 56/18/19 58/16/19
f 58/16/19 56/18/19 59/17/19
f 58/16/19 59/17/19 60/15/19
f 63/20/22 62/21/21 61/20/20
f 62/21/21 63/20/22 64/21/23
f 61/20/26 62/21/25 63/20/24
f 64/21/27 63/20/24 62/21/25
f 65/20/28 63/20/22 61/20/20
f 63/20/22 65/20/28 66/20/29
f 61/20/26 63/20/24 65/20/30
f 66/20/31 65/20/30 63/20/24
f 69/22/32 68/22/32 67/22/32
f 68/22/32 69/22/32 70/22/32
f 73/23/32 72/23/32 71/23/32
f 72/23/32 73/23/32 74/23/32
f 63/20/24 74/23/2 66/20/31
f 74/23/2 63/20/24 72/23/2
f 72/23/2 63/20/24 64/21/27
f 72/23/2 64/21/27 68/22/2
f 68/22/2 64/21/27 75/21/33
f 70/22/2 72/23/2 68/22/2
f 66/20/29 74/23/5 63/20/22
f 72/23/5 63/20/22 74/23/5
f 64/21/23 63/20/22 72/23/5
f 68/22/5 64/21/23 72/23/5
f 68/22/5 72/23/5 70/22/5
f 75/21/34 64/21/23 68/22/5
f 76/21/35 64/21/27 62/21/25
f 64/21/27 76/21/35 75/21/33
f 62/21/21 64/21/23 76/21/36
f 75/21/34 76/21/36 64/21/23
f 69/22/5 67/22/5 71/23/5
f 62/21/25 71/23/5 67/22/5
f 62/21/25 67/22/5 76/21/35
f 61/20/26 71/23/5 62/21/25
f 61/20/26 73/23/5 71/23/5
f 73/23/5 61/20/26 65/20/30
f 71/23/2 67/22/2 69/22/2
f 67/22/2 71/23/2 62/21/21
f 76/21/36 67/22/2 62/21/21
f 62/21/21 71/23/2 61/20/20
f 71/23/2 73/23/2 61/20/20
f 65/20/28 61/20/20 73/23/2
f 67/24/37 68/24/37 69/24/37
f 70/24/37 69/24/37 68/24/37
f 71/25/37 72/25/37 73/25/37
f 74/25/37 73/25/37 72/25/37
f 79/28/19 78/27/19 77/26/19
f 78/27/19 79/28/19 80/29/19
f 78/27/19 80/29/19 81/30/19
f 81/30/19 80/29/19 82/27/19
f 82/27/19 80/29/19 83/28/19
f 82/27/19 83/28/19 84/26/19

g traffic-light-object-vertical




usemtl colormap

f 3/2/1 2/1/2 1/1/1
f 2/1/2 3/2/1 4/2/2
f 7/2/4 6/1/3 5/2/3
f 6/1/3 7/2/4 8/1/4
f 11/2/5 10/1/6 9/1/5
f 10/1/6 11/2/5 12/2/6
f 12/2/6 6/1/3 10/1/6
f 6/1/3 12/2/6 5/2/3
f 7/2/4 1/1/1 8/1/4
f 1/1/1 7/2/4 3/2/1
f 1/1/7 6/1/7 8/1/7
f 6/1/7 1/1/7 10/1/7
f 10/1/7 1/1/7 2/1/7
f 10/1/7 2/1/7 9/1/7
f 12/2/8 7/2/8 5/2/8
f 7/2/8 12/2/8 3/2/8
f 3/2/8 12/2/8 11/2/8
f 3/2/8 11/2/8 4/2/8
f 15/2/1 14/1/2 13/1/1
f 14/1/2 15/2/1 16/2/2
f 19/2/4 18/1/3 17/2/3
f 18/1/3 19/2/4 20/1/4
f 23/2/5 22/1/6 21/1/5
f 22/1/6 23/2/5 24/2/6
f 24/2/6 18/1/3 22/1/6
f 18/1/3 24/2/6 17/2/3
f 19/2/4 13/1/1 20/1/4
f 13/1/1 19/2/4 15/2/1
f 13/1/7 18/1/7 20/1/7
f 18/1/7 13/1/7 22/1/7
f 22/1/7 13/1/7 14/1/7
f 22/1/7 14/1/7 21/1/7
f 24/2/8 19/2/8 17/2/8
f 19/2/8 24/2/8 15/2/8
f 15/2/8 24/2/8 23/2/8
f 15/2/8 23/2/8 16/2/8
f 27/2/9 26/4/9 25/3/9
f 26/4/9 27/2/9 28/5/9
f 28/5/9 27/2/9 29/2/9
f 28/5/9 29/2/9 30/5/9
f 30/5/9 29/2/9 31/3/9
f 30/5/9 31/3/9 32/4/9
f 33/6/10 26/7/11 28/6/10
f 26/7/11 33/6/10 34/7/11
f 36/9/13 25/8/12 35/8/12
f 25/8/12 36/9/13 27/9/13
f 35/8/12 26/7/11 34/7/11
f 26/7/11 35/8/12 25/8/12
f 36/9/13 29/9/14 27/9/13
f 29/9/14 36/9/13 37/9/14
f 30/6/15 33/6/10 28/6/10
f 33/6/10 30/6/15 38/6/15
f 37/9/14 31/8/16 29/9/14
f 31/8/16 37/9/14 39/8/16
f 31/8/16 40/7/17 32/7/17
f 40/7/17 31/8/16 39/8/16
f 32/7/17 38/6/15 30/6/15
f 38/6/15 32/7/17 40/7/17
f 34/7/18 36/9/18 35/8/18
f 36/9/18 34/7/18 41/7/18
f 41/7/18 34/7/18 33/6/18
f 42/8/18 36/9/18 41/7/18
f 41/7/18 33/6/18 43/7/18
f 36/9/18 42/8/18 37/9/18
f 43/7/18 33/6/18 38/6/18
f 37/9/18 42/8/18 44/8/18
f 43/7/18 38/6/18 44/8/18
f 37/9/18 44/8/18 39/8/18
f 39/8/18 44/8/18 38/6/18
f 39/8/18 38/6/18 40/7/18
f 47/12/19 46/11/19 45/10/19
f 46/11/19 47/12/19 48/13/19
f 46/11/19 48/13/19 49/14/19
f 49/14/19 48/13/19 50/11/19
f 50/11/19 48/13/19 51/12/19
f 50/11/19 51/12/19 52/10/19
f 55/17/19 54/16/19 53/15/19
f 54/16/19 55/17/19 56/18/19
f 54/16/19 56/18/19 57/19/19
f 57/19/19 56/18/19 58/16/19
f 58/16/19 56/18/19 59/17/19
f 58/16/19 59/17/19 60/15/19
f 63/20/22 62/21/21 61/20/20
f 62/21/21 63/20/22 64/21/23
f 61/20/26 62/21/25 63/20/24
f 64/21/27 63/20/24 62/21/25
f 65/20/28 63/20/22 61/20/20
f 63/20/22 65/20/28 66/20/29
f 61/20/26 63/20/24 65/20/30
f 66/20/31 65/20/30 63/20/24
f 69/22/32 68/22/32 67/22/32
f 68/22/32 69/22/32 70/22/32
f 73/23/32 72/23/32 71/23/32
f 72/23/32 73/23/32 74/23/32
f 63/20/24 74/23/2 66/20/31
f 74/23/2 63/20/24 72/23/2
f 72/23/2 63/20/24 64/21/27
f 72/23/2 64/21/27 68/22/2
f 68/22/2 64/21/27 75/21/33
f 70/22/2 72/23/2 68/22/2
f 66/20/29 74/23/5 63/20/22
f 72/23/5 63/20/22 74/23/5
f 64/21/23 63/20/22 72/23/5
f 68/22/5 64/21/23 72/23/5
f 68/22/5 72/23/5 70/22/5
f 75/21/34 64/21/23 68/22/5
f 76/21/35 64/21/27 62/21/25
f 64/21/27 76/21/35 75/21/33
f 62/21/21 64/21/23 76/21/36
f 75/21/34 76/21/36 64/21/23
f 69/22/5 67/22/5 71/23/5
f 62/21/25 71/23/5 67/22/5
f 62/21/25 67/22/5 76/21/35
f 61/20/26 71/23/5 62/21/25
f 61/20/26 73/23/5 71/23/5
f 73/23/5 61/20/26 65/20/30
f 71/23/2 67/22/2 69/22/2
f 67/22/2 71/23/2 62/21/21
f 76/21/36 67/22/2 62/21/21
f 62/21/21 71/23/2 61/20/20
f 71/23/2 73/23/2 61/20/20
f 65/20/28 61/20/20 73/23/2
f 67/24/37 68/24/37 69/24/37
f 70/24/37 69/24/37 68/24/37
f 71/25/37 72/25/37 73/25/37
f 74/25/37 73/25/37 72/25/37
f 79/28/19 78/27/19 77/26/19
f 78/27/19 79/28/19 80/29/19
f 78/27/19 80/29/19 81/30/19
f 81/30/19 80/29/19 82/27/19
f 82/27/19 80/29/19 83/28/19
f 82/27/19 83/28/19 84/26/19

