# Created by Kenney (www.kenney.nl)

mtllib traffic-light-hanging.mtl

g traffic-light-hanging

v 0.0225 0.46 -0.015 1 1 1
v 0.0225 0.415 -0.015 1 1 1
v 0.0225 0.46 0.015 1 1 1
v 0.0225 0.415 0.015 1 1 1
v 0.0125 0.415 -0.025 1 1 1
v 0.0125 0.46 -0.025 1 1 1
v 0.0125 0.415 0.025 1 1 1
v 0.0125 0.46 0.025 1 1 1
v -0.0225 0.415 0.015 1 1 1
v -0.0225 0.46 0.015 1 1 1
v -0.0125 0.415 0.025 1 1 1
v -0.0125 0.46 0.025 1 1 1
v -0.0225 0.415 -0.015 1 1 1
v -0.0225 0.46 -0.015 1 1 1
v -0.0125 0.415 -0.025 1 1 1
v -0.0125 0.46 -0.025 1 1 1
v -0.0125 0.425 -0.2294688 1 1 1
v -0.0125 0.425 -0.2094688 1 1 1
v -0.0125 0.4125 -0.2294688 1 1 1
v -0.0125 0.4125 -0.2094688 1 1 1
v 0.015 0.4125 -0.2294688 1 1 1
v 0.015 0.4125 -0.2094688 1 1 1
v 0.025 0.4525 -0.2094688 1 1 1
v 0.025 0.4525 -0.2294688 1 1 1
v 0.025 0.4225 -0.2094688 1 1 1
v 0.025 0.4225 -0.2294688 1 1 1
v -0.0125 0.4625 -0.2294688 1 1 1
v 0.015 0.4625 -0.2294688 1 1 1
v -0.0125 0.4625 -0.2094688 1 1 1
v 0.015 0.4625 -0.2094688 1 1 1
v -0.01249999 0.4990938 -0.2500001 1 1 1
v -0.01249999 0.3759063 -0.2500001 1 1 1
v -0.01249999 0.5090938 -0.2400001 1 1 1
v -0.01249999 0.3659062 -0.2400001 1 1 1
v -0.01249999 0.5090938 -0.1989376 1 1 1
v -0.01249999 0.3659062 -0.1989376 1 1 1
v -0.01249999 0.4990938 -0.1889376 1 1 1
v -0.01249999 0.3759063 -0.1889376 1 1 1
v 0.036 0 0.045 1 1 1
v -0.036 0 0.045 1 1 1
v 0.036 0.02 0.045 1 1 1
v -0.036 0.02 0.045 1 1 1
v 0.045 0.02 -0.036 1 1 1
v 0.045 0 -0.036 1 1 1
v 0.045 0.02 0.036 1 1 1
v 0.045 0 0.036 1 1 1
v -0.045 0 -0.036 1 1 1
v -0.045 0.02 -0.036 1 1 1
v -0.045 0 0.036 1 1 1
v -0.045 0.02 0.036 1 1 1
v -0.036 0 -0.045 1 1 1
v 0.036 0 -0.045 1 1 1
v -0.036 0.02 -0.045 1 1 1
v 0.036 0.02 -0.045 1 1 1
v 0.0125 0.1725 0.0125 1 1 1
v 0.0125 0.1725 -0.0125 1 1 1
v -0.0125 0.1725 0.0125 1 1 1
v -0.0125 0.1725 -0.0125 1 1 1
v 0.0125 0.475 -0.0125 1 1 1
v 0.0125 0.475 0.0125 1 1 1
v -0.0125 0.475 -0.0125 1 1 1
v -0.0125 0.475 0.0125 1 1 1
v 0.025 0.111806 -0.025 1 1 1
v 0.0225 0.02 -0.0225 1 1 1
v 0.025 0.111806 0.025 1 1 1
v 0.0225 0.02 0.0225 1 1 1
v -0.025 0.111806 -0.025 1 1 1
v -0.025 0.111806 0.025 1 1 1
v -0.0225 0.02 -0.0225 1 1 1
v -0.0225 0.02 0.0225 1 1 1
v 0.017375 0.1383278 0.017375 1 1 1
v -0.017375 0.1383278 0.017375 1 1 1
v -0.017375 0.1383278 -0.017375 1 1 1
v 0.017375 0.1383278 -0.017375 1 1 1
v -0.01881375 0.1604768 -0.01881375 1 1 1
v 0.01881375 0.1604768 -0.01881375 1 1 1
v 0.01881375 0.1604768 0.01881375 1 1 1
v -0.01881375 0.1604768 0.01881375 1 1 1
v 0.0125 0.425 -0.25 1 1 1
v 0.0125 0.45 -0.25 1 1 1
v -0.0125 0.425 -0.25 1 1 1
v -0.0125 0.45 -0.25 1 1 1
v 0.0125 0.45 -0.01249999 1 1 1
v 0.0125 0.425 -0.01249999 1 1 1
v -0.0125 0.45 -0.01249999 1 1 1
v -0.0125 0.425 -0.01249999 1 1 1
v -0.04999999 0.3659062 -0.2400001 1 1 1
v -0.04999999 0.3759063 -0.2500001 1 1 1
v -0.04999999 0.4990938 -0.2500001 1 1 1
v -0.04999999 0.5090938 -0.2400001 1 1 1
v -0.04999999 0.5090938 -0.1989376 1 1 1
v -0.04999999 0.3659062 -0.1989376 1 1 1
v -0.04999999 0.4990938 -0.1889376 1 1 1
v -0.04999999 0.3759063 -0.1889376 1 1 1
v -0.04999999 0.3759063 -0.2400001 1 1 1
v -0.04999999 0.4990938 -0.2400001 1 1 1
v -0.04999999 0.3759063 -0.1989376 1 1 1
v -0.04999999 0.4990938 -0.1989376 1 1 1
v -0.05 0.3964375 -0.2348671 1 1 1
v -0.05 0.4079863 -0.2310175 1 1 1
v -0.05 0.3848886 -0.2310175 1 1 1
v -0.05 0.3810391 -0.2194687 1 1 1
v -0.05 0.4118359 -0.2194687 1 1 1
v -0.05 0.4079863 -0.2079198 1 1 1
v -0.05 0.3848886 -0.2079198 1 1 1
v -0.05 0.3964375 -0.2040702 1 1 1
v -0.05 0.4785625 -0.2348671 1 1 1
v -0.05 0.4901113 -0.2310175 1 1 1
v -0.05 0.4670137 -0.2310175 1 1 1
v -0.05 0.4631641 -0.2194687 1 1 1
v -0.05 0.4939609 -0.2194687 1 1 1
v -0.05 0.4901113 -0.2079198 1 1 1
v -0.05 0.4670137 -0.2079198 1 1 1
v -0.05 0.4785625 -0.2040702 1 1 1
v -0.04 0.3759063 -0.2400001 1 1 1
v -0.04 0.4990938 -0.2400001 1 1 1
v -0.04 0.3759063 -0.1989376 1 1 1
v -0.04 0.4990938 -0.1989376 1 1 1
v -0.04999999 0.4580313 -0.2400001 1 1 1
v -0.04999999 0.4580313 -0.1989376 1 1 1
v -0.07259999 0.4580313 -0.2400001 1 1 1
v -0.07259999 0.4580313 -0.1989376 1 1 1
v -0.04999999 0.4169688 -0.2400001 1 1 1
v -0.04999999 0.4169688 -0.1989376 1 1 1
v -0.07259999 0.4169688 -0.2400001 1 1 1
v -0.07259999 0.4169688 -0.1989376 1 1 1
v -0.07259999 0.4990938 -0.1989376 1 1 1
v -0.07259999 0.4990938 -0.2400001 1 1 1
v -0.05 0.4375 -0.2348671 1 1 1
v -0.05 0.4490488 -0.2310175 1 1 1
v -0.05 0.4259512 -0.2310175 1 1 1
v -0.05 0.4221016 -0.2194687 1 1 1
v -0.05 0.4528984 -0.2194687 1 1 1
v -0.05 0.4490488 -0.2079198 1 1 1
v -0.05 0.4259512 -0.2079198 1 1 1
v -0.05 0.4375 -0.2040702 1 1 1

vn 0.9238796 0 -0.3826835
vn 0.9238796 0 0.3826835
vn 0.3826835 0 -0.9238796
vn 0.3826835 0 0.9238796
vn -0.9238796 0 0.3826834
vn -0.3826835 0 0.9238796
vn -0.9238796 0 -0.3826834
vn 0 -1 0
vn -0.3826835 0 -0.9238796
vn 0 1 0
vn -1 0 0
vn 0.3826834 -0.9238796 -1.10135E-07
vn 0 -1 -1.192093E-07
vn 0.9238795 0.3826835 4.561942E-08
vn 0.9238795 -0.3826835 -4.561942E-08
vn 0 1 1.192093E-07
vn 0.3826834 0.9238796 1.10135E-07
vn 0 1.192093E-07 -1
vn 0 -1.192093E-07 1
vn 1 0 0
vn 0.3826834 0 0.9238796
vn -0.3826834 0 0.9238796
vn 0.9238796 0 -0.3826834
vn 0.9238796 0 0.3826834
vn -0.3826834 0 -0.9238796
vn 0.3826834 0 -0.9238796
vn 0 0 -1
vn 0 0 1
vn 0.9936026 0.112933 0
vn 0.9996294 -0.02722123 0
vn -0.9936026 0.112933 0
vn -0.9996294 -0.02722123 0
vn 0 -0.02722123 -0.9996294
vn 0 0.112933 -0.9936026
vn 0 -0.02722123 0.9996294
vn 0 0.112933 0.9936026
vn 0 0.1175317 0.9930692
vn 0 0.1175317 -0.9930692
vn 0.9930692 0.1175317 0
vn -0.9930692 0.1175317 0
vn 0 0.1690972 -0.9855994
vn 0 0.1690972 0.9855994
vn 0.9855994 0.1690972 0
vn -0.9855994 0.1690972 0
vn 0 0.4649249 -0.8853501
vn 0.8853501 0.4649249 0
vn 0 0.4649249 0.8853501
vn -0.8853501 0.4649249 0
vn 0 1.192093E-07 -1
vn 0 -1.192093E-07 1
vn 0 1 1.192093E-07
vn 0 -1 -1.192093E-07
vn 0 -0.9238795 -0.3826834
vn 0 -0.3826834 -0.9238795
vn 0 0.3826834 -0.9238795
vn 0 0.9238795 -0.3826834
vn 0 0.9238795 0.3826834
vn 0 -0.9238795 0.3826834
vn 0 0.3826834 0.9238795
vn 0 -0.3826834 0.9238795
vn -1 3.030692E-17 0
vn -0.3144855 0.1048285 0.9434564
vn -0.3015113 -0.3015114 0.904534
vn -0.3144855 0.1048285 -0.9434564
vn -0.3015113 -0.3015114 -0.904534
vn 0.3144855 -0.1048285 0.9434564
vn 0.3015113 0.3015114 -0.904534
vn 0.3144855 -0.1048285 -0.9434564
vn 0.3015113 0.3015114 0.904534
vn 6.819458E-17 0.1406332 0.9900618
vn 6.819458E-17 0.1406332 -0.9900618
vn -6.819458E-17 -0.1406332 -0.9900618
vn -6.819458E-17 -0.1406332 0.9900618
vn 4.849108E-16 1 0
vn -4.849108E-16 -1 0
vn 3.360912E-16 0.693099 0.7208424
vn -3.360912E-16 -0.693099 -0.7208424
vn 3.360912E-16 0.693099 -0.7208424
vn -3.360912E-16 -0.693099 0.7208424

vt 0.34375 0.225
vt 0.34375 0.025
vt 0.34375 0.2119441
vt 0.34375 0.05111179
vt 0.34375 0.0380559
vt 0.46875 0.275
vt 0.46875 0.355
vt 0.46875 0.325
vt 0.46875 0.425
vt 0.46875 0.3852007
vt 0.46875 0.4025919
vt 0.46875 0.4171159
vt 0.84375 0.0380559
vt 0.84375 0.05111179
vt 0.84375 0.2119441
vt 0.84375 0.225
vt 0.96875 0.125
vt 0.96875 0.2
vt 0.96875 0.05
vt 0.96875 0.025
vt 0.96875 0.225
vt 0.59375 0.625
vt 0.59375 0.7
vt 0.59375 0.55
vt 0.59375 0.525
vt 0.59375 0.725
vt 0.21875 0.025
vt 0.21875 0.225
vt 0.21875 0.1583333
vt 0.21875 0.09166666
vt 0.71875 0.125
vt 0.71875 0.2
vt 0.71875 0.05
vt 0.71875 0.025
vt 0.71875 0.225

usemtl colormap

f 3/1/2 2/2/1 1/1/1
f 2/2/1 3/1/2 4/2/2
f 6/1/3 2/2/1 5/2/3
f 2/2/1 6/1/3 1/1/1
f 3/1/2 7/2/4 4/2/2
f 7/2/4 3/1/2 8/1/4
f 11/2/6 10/1/5 9/2/5
f 10/1/5 11/2/6 12/1/6
f 8/1/4 11/2/6 7/2/4
f 11/2/6 8/1/4 12/1/6
f 9/2/5 14/1/7 13/2/7
f 14/1/7 9/2/5 10/1/5
f 7/2/8 2/2/8 4/2/8
f 2/2/8 7/2/8 5/2/8
f 5/2/8 7/2/8 11/2/8
f 5/2/8 11/2/8 15/2/8
f 15/2/8 11/2/8 9/2/8
f 15/2/8 9/2/8 13/2/8
f 16/1/9 5/2/3 15/2/9
f 5/2/3 16/1/9 6/1/3
f 6/1/10 3/1/10 1/1/10
f 3/1/10 6/1/10 8/1/10
f 8/1/10 6/1/10 16/1/10
f 8/1/10 16/1/10 12/1/10
f 12/1/10 16/1/10 14/1/10
f 12/1/10 14/1/10 10/1/10
f 13/2/7 16/1/9 15/2/9
f 16/1/9 13/2/7 14/1/7
f 19/2/11 18/1/11 17/2/11
f 18/1/11 19/2/11 20/1/11
f 22/1/12 19/2/13 21/2/12
f 19/2/13 22/1/12 20/1/13
f 25/1/15 24/2/14 23/1/14
f 24/2/14 25/1/15 26/2/15
f 29/1/16 28/2/17 27/2/16
f 28/2/17 29/1/16 30/1/17
f 30/1/17 24/2/14 28/2/17
f 24/2/14 30/1/17 23/1/14
f 25/1/15 21/2/12 26/2/15
f 21/2/12 25/1/15 22/1/12
f 21/2/18 24/2/18 26/2/18
f 24/2/18 21/2/18 28/2/18
f 28/2/18 21/2/18 19/2/18
f 28/2/18 19/2/18 27/2/18
f 27/2/18 19/2/18 17/2/18
f 30/1/19 25/1/19 23/1/19
f 25/1/19 30/1/19 22/1/19
f 22/1/19 30/1/19 29/1/19
f 22/1/19 29/1/19 20/1/19
f 20/1/19 29/1/19 18/1/19
f 33/1/20 32/4/20 31/3/20
f 32/4/20 33/1/20 34/5/20
f 34/5/20 33/1/20 35/1/20
f 34/5/20 35/1/20 36/5/20
f 36/5/20 35/1/20 37/3/20
f 36/5/20 37/3/20 38/4/20
f 41/7/21 40/6/22 39/6/21
f 40/6/22 41/7/21 42/7/22
f 45/7/24 44/6/23 43/7/23
f 44/6/23 45/7/24 46/6/24
f 49/6/5 48/7/7 47/6/7
f 48/7/7 49/6/5 50/7/5
f 53/7/25 52/6/26 51/6/25
f 52/6/26 53/7/25 54/7/26
f 42/7/22 49/6/5 40/6/22
f 49/6/5 42/7/22 50/7/5
f 48/7/7 51/6/25 47/6/7
f 51/6/25 48/7/7 53/7/25
f 45/7/24 39/6/21 46/6/24
f 39/6/21 45/7/24 41/7/21
f 54/7/26 44/6/23 52/6/26
f 44/6/23 54/7/26 43/7/23
f 39/6/8 44/6/8 46/6/8
f 44/6/8 39/6/8 52/6/8
f 52/6/8 39/6/8 40/6/8
f 52/6/8 40/6/8 51/6/8
f 51/6/8 40/6/8 49/6/8
f 51/6/8 49/6/8 47/6/8
f 54/7/10 45/7/10 43/7/10
f 45/7/10 54/7/10 41/7/10
f 41/7/10 54/7/10 53/7/10
f 41/7/10 53/7/10 42/7/10
f 42/7/10 53/7/10 48/7/10
f 42/7/10 48/7/10 50/7/10
f 57/8/8 56/8/8 55/8/8
f 56/8/8 57/8/8 58/8/8
f 61/9/10 60/9/10 59/9/10
f 60/9/10 61/9/10 62/9/10
f 57/8/11 61/9/11 58/8/11
f 61/9/11 57/8/11 62/9/11
f 61/9/27 56/8/27 58/8/27
f 56/8/27 61/9/27 59/9/27
f 60/9/20 56/8/20 59/9/20
f 56/8/20 60/9/20 55/8/20
f 60/9/28 57/8/28 55/8/28
f 57/8/28 60/9/28 62/9/28
f 65/10/29 64/8/30 63/10/29
f 64/8/30 65/10/29 66/8/30
f 69/8/32 68/10/31 67/10/31
f 68/10/31 69/8/32 70/8/32
f 67/10/34 64/8/33 69/8/33
f 64/8/33 67/10/34 63/10/34
f 65/10/36 70/8/35 66/8/35
f 70/8/35 65/10/36 68/10/36
f 71/11/37 68/10/36 65/10/36
f 68/10/36 71/11/37 72/11/37
f 73/11/38 63/10/34 67/10/34
f 63/10/34 73/11/38 74/11/38
f 74/11/39 65/10/29 63/10/29
f 65/10/29 74/11/39 71/11/39
f 68/10/31 73/11/40 67/10/31
f 73/11/40 68/10/31 72/11/40
f 75/12/41 74/11/38 73/11/38
f 74/11/38 75/12/41 76/12/41
f 77/12/42 72/11/37 71/11/37
f 72/11/37 77/12/42 78/12/42
f 77/12/43 74/11/39 76/12/43
f 74/11/39 77/12/43 71/11/39
f 73/11/40 78/12/44 75/12/44
f 78/12/44 73/11/40 72/11/40
f 58/9/45 76/12/41 75/12/41
f 76/12/41 58/9/45 56/9/45
f 56/9/46 77/12/43 76/12/43
f 77/12/43 56/9/46 55/9/46
f 55/9/47 78/12/42 77/12/42
f 78/12/42 55/9/47 57/9/47
f 78/12/44 58/9/48 75/12/44
f 58/9/48 78/12/44 57/9/48
f 81/8/49 80/8/49 79/8/49
f 80/8/49 81/8/49 82/8/49
f 85/9/50 84/9/50 83/9/50
f 84/9/50 85/9/50 86/9/50
f 81/8/11 85/9/11 82/8/11
f 85/9/11 81/8/11 86/9/11
f 85/9/51 80/8/51 82/8/51
f 80/8/51 85/9/51 83/9/51
f 84/9/20 80/8/20 83/9/20
f 80/8/20 84/9/20 79/8/20
f 84/9/52 81/8/52 79/8/52
f 81/8/52 84/9/52 86/9/52
f 87/13/53 32/14/54 34/13/53
f 32/14/54 87/13/53 88/14/54
f 90/16/56 31/15/55 89/15/55
f 31/15/55 90/16/56 33/16/56
f 89/15/55 32/14/54 88/14/54
f 32/14/54 89/15/55 31/15/55
f 90/16/56 35/16/57 33/16/56
f 35/16/57 90/16/56 91/16/57
f 36/13/58 87/13/53 34/13/53
f 87/13/53 36/13/58 92/13/58
f 91/16/57 37/15/59 35/16/57
f 37/15/59 91/16/57 93/15/59
f 37/15/59 94/14/60 38/14/60
f 94/14/60 37/15/59 93/15/59
f 38/14/60 92/13/58 36/13/58
f 92/13/58 38/14/60 94/14/60
f 88/14/11 90/16/11 89/15/11
f 90/16/11 88/14/11 95/14/11
f 95/14/11 88/14/11 87/13/11
f 96/15/11 90/16/11 95/14/11
f 95/14/11 87/13/11 97/14/11
f 90/16/11 96/15/11 91/16/11
f 97/14/11 87/13/11 92/13/11
f 91/16/11 96/15/11 98/15/11
f 97/14/11 92/13/11 98/15/11
f 91/16/11 98/15/11 93/15/11
f 93/15/11 98/15/11 92/13/11
f 93/15/11 92/13/11 94/14/11
f 101/19/61 100/18/61 99/17/61
f 100/18/61 101/19/61 102/20/61
f 100/18/61 102/20/61 103/21/61
f 103/21/61 102/20/61 104/18/61
f 104/18/61 102/20/61 105/19/61
f 104/18/61 105/19/61 106/17/61
f 109/24/61 108/23/61 107/22/61
f 108/23/61 109/24/61 110/25/61
f 108/23/61 110/25/61 111/26/61
f 111/26/61 110/25/61 112/23/61
f 112/23/61 110/25/61 113/24/61
f 112/23/61 113/24/61 114/22/61
f 117/27/64 116/28/63 115/27/62
f 116/28/63 117/27/64 118/28/65
f 115/27/68 116/28/67 117/27/66
f 118/28/69 117/27/66 116/28/67
f 95/27/70 117/27/64 115/27/62
f 117/27/64 95/27/70 97/27/71
f 115/27/68 117/27/66 95/27/72
f 97/27/73 95/27/72 117/27/66
f 121/29/74 120/29/74 119/29/74
f 120/29/74 121/29/74 122/29/74
f 119/29/75 120/29/75 121/29/75
f 122/29/75 121/29/75 120/29/75
f 125/30/74 124/30/74 123/30/74
f 124/30/74 125/30/74 126/30/74
f 123/30/75 124/30/75 125/30/75
f 126/30/75 125/30/75 124/30/75
f 117/27/66 126/30/28 97/27/73
f 126/30/28 117/27/66 124/30/28
f 124/30/28 117/27/66 118/28/69
f 124/30/28 118/28/69 120/29/28
f 120/29/28 118/28/69 127/28/76
f 122/29/28 124/30/28 120/29/28
f 97/27/71 126/30/27 117/27/64
f 124/30/27 117/27/64 126/30/27
f 118/28/65 117/27/64 124/30/27
f 120/29/27 118/28/65 124/30/27
f 120/29/27 124/30/27 122/29/27
f 127/28/77 118/28/65 120/29/27
f 128/28/78 118/28/69 116/28/67
f 118/28/69 128/28/78 127/28/76
f 116/28/63 118/28/65 128/28/79
f 127/28/77 128/28/79 118/28/65
f 121/29/27 119/29/27 123/30/27
f 116/28/67 123/30/27 119/29/27
f 116/28/67 119/29/27 128/28/78
f 115/27/68 123/30/27 116/28/67
f 115/27/68 125/30/27 123/30/27
f 125/30/27 115/27/68 95/27/72
f 123/30/28 119/29/28 121/29/28
f 119/29/28 123/30/28 116/28/63
f 128/28/79 119/29/28 116/28/63
f 116/28/63 123/30/28 115/27/62
f 123/30/28 125/30/28 115/27/62
f 95/27/70 115/27/62 125/30/28
f 131/33/61 130/32/61 129/31/61
f 130/32/61 131/33/61 132/34/61
f 130/32/61 132/34/61 133/35/61
f 133/35/61 132/34/61 134/32/61
f 134/32/61 132/34/61 135/33/61
f 134/32/61 135/33/61 136/31/61

g traffic-light-hanging




usemtl colormap

f 3/1/2 2/2/1 1/1/1
f 2/2/1 3/1/2 4/2/2
f 6/1/3 2/2/1 5/2/3
f 2/2/1 6/1/3 1/1/1
f 3/1/2 7/2/4 4/2/2
f 7/2/4 3/1/2 8/1/4
f 11/2/6 10/1/5 9/2/5
f 10/1/5 11/2/6 12/1/6
f 8/1/4 11/2/6 7/2/4
f 11/2/6 8/1/4 12/1/6
f 9/2/5 14/1/7 13/2/7
f 14/1/7 9/2/5 10/1/5
f 7/2/8 2/2/8 4/2/8
f 2/2/8 7/2/8 5/2/8
f 5/2/8 7/2/8 11/2/8
f 5/2/8 11/2/8 15/2/8
f 15/2/8 11/2/8 9/2/8
f 15/2/8 9/2/8 13/2/8
f 16/1/9 5/2/3 15/2/9
f 5/2/3 16/1/9 6/1/3
f 6/1/10 3/1/10 1/1/10
f 3/1/10 6/1/10 8/1/10
f 8/1/10 6/1/10 16/1/10
f 8/1/10 16/1/10 12/1/10
f 12/1/10 16/1/10 14/1/10
f 12/1/10 14/1/10 10/1/10
f 13/2/7 16/1/9 15/2/9
f 16/1/9 13/2/7 14/1/7
f 19/2/11 18/1/11 17/2/11
f 18/1/11 19/2/11 20/1/11
f 22/1/12 19/2/13 21/2/12
f 19/2/13 22/1/12 20/1/13
f 25/1/15 24/2/14 23/1/14
f 24/2/14 25/1/15 26/2/15
f 29/1/16 28/2/17 27/2/16
f 28/2/17 29/1/16 30/1/17
f 30/1/17 24/2/14 28/2/17
f 24/2/14 30/1/17 23/1/14
f 25/1/15 21/2/12 26/2/15
f 21/2/12 25/1/15 22/1/12
f 21/2/18 24/2/18 26/2/18
f 24/2/18 21/2/18 28/2/18
f 28/2/18 21/2/18 19/2/18
f 28/2/18 19/2/18 27/2/18
f 27/2/18 19/2/18 17/2/18
f 30/1/19 25/1/19 23/1/19
f 25/1/19 30/1/19 22/1/19
f 22/1/19 30/1/19 29/1/19
f 22/1/19 29/1/19 20/1/19
f 20/1/19 29/1/19 18/1/19
f 33/1/20 32/4/20 31/3/20
f 32/4/20 33/1/20 34/5/20
f 34/5/20 33/1/20 35/1/20
f 34/5/20 35/1/20 36/5/20
f 36/5/20 35/1/20 37/3/20
f 36/5/20 37/3/20 38/4/20
f 41/7/21 40/6/22 39/6/21
f 40/6/22 41/7/21 42/7/22
f 45/7/24 44/6/23 43/7/23
f 44/6/23 45/7/24 46/6/24
f 49/6/5 48/7/7 47/6/7
f 48/7/7 49/6/5 50/7/5
f 53/7/25 52/6/26 51/6/25
f 52/6/26 53/7/25 54/7/26
f 42/7/22 49/6/5 40/6/22
f 49/6/5 42/7/22 50/7/5
f 48/7/7 51/6/25 47/6/7
f 51/6/25 48/7/7 53/7/25
f 45/7/24 39/6/21 46/6/24
f 39/6/21 45/7/24 41/7/21
f 54/7/26 44/6/23 52/6/26
f 44/6/23 54/7/26 43/7/23
f 39/6/8 44/6/8 46/6/8
f 44/6/8 39/6/8 52/6/8
f 52/6/8 39/6/8 40/6/8
f 52/6/8 40/6/8 51/6/8
f 51/6/8 40/6/8 49/6/8
f 51/6/8 49/6/8 47/6/8
f 54/7/10 45/7/10 43/7/10
f 45/7/10 54/7/10 41/7/10
f 41/7/10 54/7/10 53/7/10
f 41/7/10 53/7/10 42/7/10
f 42/7/10 53/7/10 48/7/10
f 42/7/10 48/7/10 50/7/10
f 57/8/8 56/8/8 55/8/8
f 56/8/8 57/8/8 58/8/8
f 61/9/10 60/9/10 59/9/10
f 60/9/10 61/9/10 62/9/10
f 57/8/11 61/9/11 58/8/11
f 61/9/11 57/8/11 62/9/11
f 61/9/27 56/8/27 58/8/27
f 56/8/27 61/9/27 59/9/27
f 60/9/20 56/8/20 59/9/20
f 56/8/20 60/9/20 55/8/20
f 60/9/28 57/8/28 55/8/28
f 57/8/28 60/9/28 62/9/28
f 65/10/29 64/8/30 63/10/29
f 64/8/30 65/10/29 66/8/30
f 69/8/32 68/10/31 67/10/31
f 68/10/31 69/8/32 70/8/32
f 67/10/34 64/8/33 69/8/33
f 64/8/33 67/10/34 63/10/34
f 65/10/36 70/8/35 66/8/35
f 70/8/35 65/10/36 68/10/36
f 71/11/37 68/10/36 65/10/36
f 68/10/36 71/11/37 72/11/37
f 73/11/38 63/10/34 67/10/34
f 63/10/34 73/11/38 74/11/38
f 74/11/39 65/10/29 63/10/29
f 65/10/29 74/11/39 71/11/39
f 68/10/31 73/11/40 67/10/31
f 73/11/40 68/10/31 72/11/40
f 75/12/41 74/11/38 73/11/38
f 74/11/38 75/12/41 76/12/41
f 77/12/42 72/11/37 71/11/37
f 72/11/37 77/12/42 78/12/42
f 77/12/43 74/11/39 76/12/43
f 74/11/39 77/12/43 71/11/39
f 73/11/40 78/12/44 75/12/44
f 78/12/44 73/11/40 72/11/40
f 58/9/45 76/12/41 75/12/41
f 76/12/41 58/9/45 56/9/45
f 56/9/46 77/12/43 76/12/43
f 77/12/43 56/9/46 55/9/46
f 55/9/47 78/12/42 77/12/42
f 78/12/42 55/9/47 57/9/47
f 78/12/44 58/9/48 75/12/44
f 58/9/48 78/12/44 57/9/48
f 81/8/49 80/8/49 79/8/49
f 80/8/49 81/8/49 82/8/49
f 85/9/50 84/9/50 83/9/50
f 84/9/50 85/9/50 86/9/50
f 81/8/11 85/9/11 82/8/11
f 85/9/11 81/8/11 86/9/11
f 85/9/51 80/8/51 82/8/51
f 80/8/51 85/9/51 83/9/51
f 84/9/20 80/8/20 83/9/20
f 80/8/20 84/9/20 79/8/20
f 84/9/52 81/8/52 79/8/52
f 81/8/52 84/9/52 86/9/52
f 87/13/53 32/14/54 34/13/53
f 32/14/54 87/13/53 88/14/54
f 90/16/56 31/15/55 89/15/55
f 31/15/55 90/16/56 33/16/56
f 89/15/55 32/14/54 88/14/54
f 32/14/54 89/15/55 31/15/55
f 90/16/56 35/16/57 33/16/56
f 35/16/57 90/16/56 91/16/57
f 36/13/58 87/13/53 34/13/53
f 87/13/53 36/13/58 92/13/58
f 91/16/57 37/15/59 35/16/57
f 37/15/59 91/16/57 93/15/59
f 37/15/59 94/14/60 38/14/60
f 94/14/60 37/15/59 93/15/59
f 38/14/60 92/13/58 36/13/58
f 92/13/58 38/14/60 94/14/60
f 88/14/11 90/16/11 89/15/11
f 90/16/11 88/14/11 95/14/11
f 95/14/11 88/14/11 87/13/11
f 96/15/11 90/16/11 95/14/11
f 95/14/11 87/13/11 97/14/11
f 90/16/11 96/15/11 91/16/11
f 97/14/11 87/13/11 92/13/11
f 91/16/11 96/15/11 98/15/11
f 97/14/11 92/13/11 98/15/11
f 91/16/11 98/15/11 93/15/11
f 93/15/11 98/15/11 92/13/11
f 93/15/11 92/13/11 94/14/11
f 101/19/61 100/18/61 99/17/61
f 100/18/61 101/19/61 102/20/61
f 100/18/61 102/20/61 103/21/61
f 103/21/61 102/20/61 104/18/61
f 104/18/61 102/20/61 105/19/61
f 104/18/61 105/19/61 106/17/61
f 109/24/61 108/23/61 107/22/61
f 108/23/61 109/24/61 110/25/61
f 108/23/61 110/25/61 111/26/61
f 111/26/61 110/25/61 112/23/61
f 112/23/61 110/25/61 113/24/61
f 112/23/61 113/24/61 114/22/61
f 117/27/64 116/28/63 115/27/62
f 116/28/63 117/27/64 118/28/65
f 115/27/68 116/28/67 117/27/66
f 118/28/69 117/27/66 116/28/67
f 95/27/70 117/27/64 115/27/62
f 117/27/64 95/27/70 97/27/71
f 115/27/68 117/27/66 95/27/72
f 97/27/73 95/27/72 117/27/66
f 121/29/74 120/29/74 119/29/74
f 120/29/74 121/29/74 122/29/74
f 119/29/75 120/29/75 121/29/75
f 122/29/75 121/29/75 120/29/75
f 125/30/74 124/30/74 123/30/74
f 124/30/74 125/30/74 126/30/74
f 123/30/75 124/30/75 125/30/75
f 126/30/75 125/30/75 124/30/75
f 117/27/66 126/30/28 97/27/73
f 126/30/28 117/27/66 124/30/28
f 124/30/28 117/27/66 118/28/69
f 124/30/28 118/28/69 120/29/28
f 120/29/28 118/28/69 127/28/76
f 122/29/28 124/30/28 120/29/28
f 97/27/71 126/30/27 117/27/64
f 124/30/27 117/27/64 126/30/27
f 118/28/65 117/27/64 124/30/27
f 120/29/27 118/28/65 124/30/27
f 120/29/27 124/30/27 122/29/27
f 127/28/77 118/28/65 120/29/27
f 128/28/78 118/28/69 116/28/67
f 118/28/69 128/28/78 127/28/76
f 116/28/63 118/28/65 128/28/79
f 127/28/77 128/28/79 118/28/65
f 121/29/27 119/29/27 123/30/27
f 116/28/67 123/30/27 119/29/27
f 116/28/67 119/29/27 128/28/78
f 115/27/68 123/30/27 116/28/67
f 115/27/68 125/30/27 123/30/27
f 125/30/27 115/27/68 95/27/72
f 123/30/28 119/29/28 121/29/28
f 119/29/28 123/30/28 116/28/63
f 128/28/79 119/29/28 116/28/63
f 116/28/63 123/30/28 115/27/62
f 123/30/28 125/30/28 115/27/62
f 95/27/70 115/27/62 125/30/28
f 131/33/61 130/32/61 129/31/61
f 130/32/61 131/33/61 132/34/61
f 130/32/61 132/34/61 133/35/61
f 133/35/61 132/34/61 134/32/61
f 134/32/61 132/34/61 135/33/61
f 134/32/61 135/33/61 136/31/61

